<svg width="58" height="58" viewBox="0 0 58 58" fill="none" xmlns="http://www.w3.org/2000/svg">
<mask id="path-1-outside-1_1037_13" maskUnits="userSpaceOnUse" x="0.125" y="-0.00341797" width="58" height="58" fill="black">
<rect fill="white" x="0.125" y="-0.00341797" width="58" height="58"/>
<path d="M1.26372 48.9152C1.65686 52.8556 4.9747 56.2593 8.98615 56.8327C9.65319 56.9272 10.326 56.9744 10.9996 56.974C15.2586 56.974 19.5177 56.974 23.7767 56.974H25.6161C32.6449 56.974 39.8647 56.974 46.9777 56.9966H47.0255C50.3307 56.9966 52.872 55.9359 54.7956 53.7567C55.9786 52.4153 56.7492 50.7575 57.0141 48.9844C57.039 48.8462 57.0714 48.7095 57.111 48.5748L57.125 48.5225V2.35455C57.0674 2.25427 57.0141 2.15541 56.9607 2.05654C56.8461 1.80516 56.6915 1.57427 56.503 1.37297C55.7799 0.751542 55.0161 1.23174 54.6257 1.582C53.4926 2.58193 52.3455 3.60588 51.2363 4.59452L49.7171 5.94895L49.1737 6.42915L48.4113 7.10283L47.6713 6.44751C47.4776 6.27662 47.2894 6.10855 47.1013 5.94048L45.5048 4.50131C44.442 3.54374 43.3426 2.55227 42.2572 1.58341C41.3811 0.800973 40.7885 0.800973 39.911 1.58341L36.6816 4.48294L34.7285 6.2399C34.6232 6.33452 34.5165 6.42632 34.3986 6.52236L33.7555 7.0873L32.5522 6.00968C32.0004 5.51536 31.4528 5.02104 30.9066 4.53379L29.5643 3.32624C28.8988 2.7274 28.2328 2.12857 27.5663 1.52974C26.7871 0.832044 26.1229 0.82357 25.3451 1.52974C24.1642 2.58335 22.968 3.66096 21.8124 4.70185L20.0377 6.29215C19.9394 6.37972 19.8383 6.46446 19.7274 6.55767L19.5701 6.68902L19.1082 7.07883L18.1393 6.23142L17.0048 5.22584L15.9237 4.26827C14.9816 3.43358 14.0071 2.57346 13.058 1.7077C12.2155 0.949269 11.7016 1.02836 11.2636 1.22609C10.657 1.50008 10.4099 1.98028 10.4113 2.88417C10.4197 12.5192 10.4113 22.3152 10.4113 31.7891V40.9891H7.23948C5.76519 40.9891 4.29044 40.9891 2.81522 40.9891C2.22972 40.9891 1.79446 41.1303 1.52207 41.4128C1.24968 41.6953 1.1205 42.119 1.12612 42.6839C1.13174 43.2489 1.12612 43.842 1.12612 44.4056C1.12331 45.8885 1.11488 47.4322 1.26372 48.9152ZM13.2658 5.69756L15.1107 7.33022C15.7412 7.88668 16.3393 8.41772 16.936 8.94735L17.3755 9.33857C17.6044 9.54477 17.8333 9.74956 18.0663 9.95153C18.8147 10.6054 19.4887 10.5913 20.2525 9.90774C21.4459 8.83719 22.638 7.76522 23.8287 6.69184L25.6821 5.02528C25.7424 4.9702 25.8056 4.91794 25.8786 4.85721L26.4192 4.39962L26.8685 4.75552L26.985 4.84592C27.0819 4.92077 27.183 4.99845 27.2855 5.09025L29.4366 7.02374C30.4737 7.95777 31.5113 8.89039 32.5494 9.82159C33.4691 10.6436 34.0602 10.6436 34.9813 9.82159C36.2899 8.65217 37.5957 7.4771 38.9127 6.29074L41.0778 4.33324L42.3134 5.44051C42.8848 5.95319 43.4535 6.46163 44.0193 6.97149L45.3055 8.12961C45.9607 8.71997 46.6159 9.31032 47.2712 9.90068C48.0406 10.5913 48.7272 10.5941 49.498 9.91339C50.1009 9.37953 50.7018 8.84472 51.3009 8.30897L52.5646 7.18757C52.6755 7.09012 52.7836 7.00115 52.9114 6.90511L53.1107 6.7441L54.1806 5.86704L54.2551 7.25395C54.2551 7.34434 54.2649 7.42344 54.2705 7.49688C54.2803 7.648 54.2888 7.77935 54.2888 7.92058C54.2888 11.5625 54.2888 15.2054 54.2888 18.8493C54.2888 28.1806 54.2817 37.8311 54.3098 47.3206C54.3182 50.4786 52.2894 53.2016 49.3745 53.9417C48.8438 54.0762 48.2986 54.1445 47.7514 54.1451C46.3311 54.1473 44.9495 53.6793 43.8199 52.8132C43.024 52.2016 42.3763 51.4164 41.9257 50.5166C41.475 49.6169 41.2331 48.626 41.2182 47.6186C41.1929 46.5368 41.1985 45.4408 41.2041 44.3816C41.2041 43.8166 41.2041 43.2602 41.2041 42.7009C41.2041 41.499 40.686 40.9863 39.4813 40.9863H13.2658V5.69756ZM4.01009 45.7656C4.01009 45.3674 4.02133 44.9663 4.02133 44.5609V43.8548H38.4409L38.4185 44.7558C38.3468 47.7345 38.278 50.5464 40.189 53.0166L41.0708 54.1578H31.5357C24.7961 54.1578 17.8192 54.1578 10.9617 54.1662H10.9434C8.49613 54.1662 6.64134 53.2977 5.27658 51.5139C4.50574 50.5055 4.10136 49.5437 4.04239 48.5734C3.98763 47.6356 4.00027 46.6851 4.01009 45.7656Z"/>
</mask>
<path d="M1.26372 48.9152C1.65686 52.8556 4.9747 56.2593 8.98615 56.8327C9.65319 56.9272 10.326 56.9744 10.9996 56.974C15.2586 56.974 19.5177 56.974 23.7767 56.974H25.6161C32.6449 56.974 39.8647 56.974 46.9777 56.9966H47.0255C50.3307 56.9966 52.872 55.9359 54.7956 53.7567C55.9786 52.4153 56.7492 50.7575 57.0141 48.9844C57.039 48.8462 57.0714 48.7095 57.111 48.5748L57.125 48.5225V2.35455C57.0674 2.25427 57.0141 2.15541 56.9607 2.05654C56.8461 1.80516 56.6915 1.57427 56.503 1.37297C55.7799 0.751542 55.0161 1.23174 54.6257 1.582C53.4926 2.58193 52.3455 3.60588 51.2363 4.59452L49.7171 5.94895L49.1737 6.42915L48.4113 7.10283L47.6713 6.44751C47.4776 6.27662 47.2894 6.10855 47.1013 5.94048L45.5048 4.50131C44.442 3.54374 43.3426 2.55227 42.2572 1.58341C41.3811 0.800973 40.7885 0.800973 39.911 1.58341L36.6816 4.48294L34.7285 6.2399C34.6232 6.33452 34.5165 6.42632 34.3986 6.52236L33.7555 7.0873L32.5522 6.00968C32.0004 5.51536 31.4528 5.02104 30.9066 4.53379L29.5643 3.32624C28.8988 2.7274 28.2328 2.12857 27.5663 1.52974C26.7871 0.832044 26.1229 0.82357 25.3451 1.52974C24.1642 2.58335 22.968 3.66096 21.8124 4.70185L20.0377 6.29215C19.9394 6.37972 19.8383 6.46446 19.7274 6.55767L19.5701 6.68902L19.1082 7.07883L18.1393 6.23142L17.0048 5.22584L15.9237 4.26827C14.9816 3.43358 14.0071 2.57346 13.058 1.7077C12.2155 0.949269 11.7016 1.02836 11.2636 1.22609C10.657 1.50008 10.4099 1.98028 10.4113 2.88417C10.4197 12.5192 10.4113 22.3152 10.4113 31.7891V40.9891H7.23948C5.76519 40.9891 4.29044 40.9891 2.81522 40.9891C2.22972 40.9891 1.79446 41.1303 1.52207 41.4128C1.24968 41.6953 1.1205 42.119 1.12612 42.6839C1.13174 43.2489 1.12612 43.842 1.12612 44.4056C1.12331 45.8885 1.11488 47.4322 1.26372 48.9152ZM13.2658 5.69756L15.1107 7.33022C15.7412 7.88668 16.3393 8.41772 16.936 8.94735L17.3755 9.33857C17.6044 9.54477 17.8333 9.74956 18.0663 9.95153C18.8147 10.6054 19.4887 10.5913 20.2525 9.90774C21.4459 8.83719 22.638 7.76522 23.8287 6.69184L25.6821 5.02528C25.7424 4.9702 25.8056 4.91794 25.8786 4.85721L26.4192 4.39962L26.8685 4.75552L26.985 4.84592C27.0819 4.92077 27.183 4.99845 27.2855 5.09025L29.4366 7.02374C30.4737 7.95777 31.5113 8.89039 32.5494 9.82159C33.4691 10.6436 34.0602 10.6436 34.9813 9.82159C36.2899 8.65217 37.5957 7.4771 38.9127 6.29074L41.0778 4.33324L42.3134 5.44051C42.8848 5.95319 43.4535 6.46163 44.0193 6.97149L45.3055 8.12961C45.9607 8.71997 46.6159 9.31032 47.2712 9.90068C48.0406 10.5913 48.7272 10.5941 49.498 9.91339C50.1009 9.37953 50.7018 8.84472 51.3009 8.30897L52.5646 7.18757C52.6755 7.09012 52.7836 7.00115 52.9114 6.90511L53.1107 6.7441L54.1806 5.86704L54.2551 7.25395C54.2551 7.34434 54.2649 7.42344 54.2705 7.49688C54.2803 7.648 54.2888 7.77935 54.2888 7.92058C54.2888 11.5625 54.2888 15.2054 54.2888 18.8493C54.2888 28.1806 54.2817 37.8311 54.3098 47.3206C54.3182 50.4786 52.2894 53.2016 49.3745 53.9417C48.8438 54.0762 48.2986 54.1445 47.7514 54.1451C46.3311 54.1473 44.9495 53.6793 43.8199 52.8132C43.024 52.2016 42.3763 51.4164 41.9257 50.5166C41.475 49.6169 41.2331 48.626 41.2182 47.6186C41.1929 46.5368 41.1985 45.4408 41.2041 44.3816C41.2041 43.8166 41.2041 43.2602 41.2041 42.7009C41.2041 41.499 40.686 40.9863 39.4813 40.9863H13.2658V5.69756ZM4.01009 45.7656C4.01009 45.3674 4.02133 44.9663 4.02133 44.5609V43.8548H38.4409L38.4185 44.7558C38.3468 47.7345 38.278 50.5464 40.189 53.0166L41.0708 54.1578H31.5357C24.7961 54.1578 17.8192 54.1578 10.9617 54.1662H10.9434C8.49613 54.1662 6.64134 53.2977 5.27658 51.5139C4.50574 50.5055 4.10136 49.5437 4.04239 48.5734C3.98763 47.6356 4.00027 46.6851 4.01009 45.7656Z" fill="black"/>
<path d="M1.26372 48.9152C1.65686 52.8556 4.9747 56.2593 8.98615 56.8327C9.65319 56.9272 10.326 56.9744 10.9996 56.974C15.2586 56.974 19.5177 56.974 23.7767 56.974H25.6161C32.6449 56.974 39.8647 56.974 46.9777 56.9966H47.0255C50.3307 56.9966 52.872 55.9359 54.7956 53.7567C55.9786 52.4153 56.7492 50.7575 57.0141 48.9844C57.039 48.8462 57.0714 48.7095 57.111 48.5748L57.125 48.5225V2.35455C57.0674 2.25427 57.0141 2.15541 56.9607 2.05654C56.8461 1.80516 56.6915 1.57427 56.503 1.37297C55.7799 0.751542 55.0161 1.23174 54.6257 1.582C53.4926 2.58193 52.3455 3.60588 51.2363 4.59452L49.7171 5.94895L49.1737 6.42915L48.4113 7.10283L47.6713 6.44751C47.4776 6.27662 47.2894 6.10855 47.1013 5.94048L45.5048 4.50131C44.442 3.54374 43.3426 2.55227 42.2572 1.58341C41.3811 0.800973 40.7885 0.800973 39.911 1.58341L36.6816 4.48294L34.7285 6.2399C34.6232 6.33452 34.5165 6.42632 34.3986 6.52236L33.7555 7.0873L32.5522 6.00968C32.0004 5.51536 31.4528 5.02104 30.9066 4.53379L29.5643 3.32624C28.8988 2.7274 28.2328 2.12857 27.5663 1.52974C26.7871 0.832044 26.1229 0.82357 25.3451 1.52974C24.1642 2.58335 22.968 3.66096 21.8124 4.70185L20.0377 6.29215C19.9394 6.37972 19.8383 6.46446 19.7274 6.55767L19.5701 6.68902L19.1082 7.07883L18.1393 6.23142L17.0048 5.22584L15.9237 4.26827C14.9816 3.43358 14.0071 2.57346 13.058 1.7077C12.2155 0.949269 11.7016 1.02836 11.2636 1.22609C10.657 1.50008 10.4099 1.98028 10.4113 2.88417C10.4197 12.5192 10.4113 22.3152 10.4113 31.7891V40.9891H7.23948C5.76519 40.9891 4.29044 40.9891 2.81522 40.9891C2.22972 40.9891 1.79446 41.1303 1.52207 41.4128C1.24968 41.6953 1.1205 42.119 1.12612 42.6839C1.13174 43.2489 1.12612 43.842 1.12612 44.4056C1.12331 45.8885 1.11488 47.4322 1.26372 48.9152ZM13.2658 5.69756L15.1107 7.33022C15.7412 7.88668 16.3393 8.41772 16.936 8.94735L17.3755 9.33857C17.6044 9.54477 17.8333 9.74956 18.0663 9.95153C18.8147 10.6054 19.4887 10.5913 20.2525 9.90774C21.4459 8.83719 22.638 7.76522 23.8287 6.69184L25.6821 5.02528C25.7424 4.9702 25.8056 4.91794 25.8786 4.85721L26.4192 4.39962L26.8685 4.75552L26.985 4.84592C27.0819 4.92077 27.183 4.99845 27.2855 5.09025L29.4366 7.02374C30.4737 7.95777 31.5113 8.89039 32.5494 9.82159C33.4691 10.6436 34.0602 10.6436 34.9813 9.82159C36.2899 8.65217 37.5957 7.4771 38.9127 6.29074L41.0778 4.33324L42.3134 5.44051C42.8848 5.95319 43.4535 6.46163 44.0193 6.97149L45.3055 8.12961C45.9607 8.71997 46.6159 9.31032 47.2712 9.90068C48.0406 10.5913 48.7272 10.5941 49.498 9.91339C50.1009 9.37953 50.7018 8.84472 51.3009 8.30897L52.5646 7.18757C52.6755 7.09012 52.7836 7.00115 52.9114 6.90511L53.1107 6.7441L54.1806 5.86704L54.2551 7.25395C54.2551 7.34434 54.2649 7.42344 54.2705 7.49688C54.2803 7.648 54.2888 7.77935 54.2888 7.92058C54.2888 11.5625 54.2888 15.2054 54.2888 18.8493C54.2888 28.1806 54.2817 37.8311 54.3098 47.3206C54.3182 50.4786 52.2894 53.2016 49.3745 53.9417C48.8438 54.0762 48.2986 54.1445 47.7514 54.1451C46.3311 54.1473 44.9495 53.6793 43.8199 52.8132C43.024 52.2016 42.3763 51.4164 41.9257 50.5166C41.475 49.6169 41.2331 48.626 41.2182 47.6186C41.1929 46.5368 41.1985 45.4408 41.2041 44.3816C41.2041 43.8166 41.2041 43.2602 41.2041 42.7009C41.2041 41.499 40.686 40.9863 39.4813 40.9863H13.2658V5.69756ZM4.01009 45.7656C4.01009 45.3674 4.02133 44.9663 4.02133 44.5609V43.8548H38.4409L38.4185 44.7558C38.3468 47.7345 38.278 50.5464 40.189 53.0166L41.0708 54.1578H31.5357C24.7961 54.1578 17.8192 54.1578 10.9617 54.1662H10.9434C8.49613 54.1662 6.64134 53.2977 5.27658 51.5139C4.50574 50.5055 4.10136 49.5437 4.04239 48.5734C3.98763 47.6356 4.00027 46.6851 4.01009 45.7656Z" stroke="black" stroke-width="0.8" mask="url(#path-1-outside-1_1037_13)"/>
<path d="M22.6016 20.598H36.1225" stroke="#FFDD02" stroke-width="4" stroke-linecap="round" stroke-linejoin="round"/>
<path d="M22.6016 30.9984H43.2807" stroke="#FFDD02" stroke-width="4" stroke-linecap="round" stroke-linejoin="round"/>
</svg>
