<svg width="62" height="84" viewBox="0 0 62 84" fill="none" xmlns="http://www.w3.org/2000/svg">
<path d="M15.3618 12.2565C15.3618 11.3801 15.3618 10.6515 15.3618 9.92541C15.3821 8.79169 15.786 8.35859 16.9138 8.3433C18.6233 8.31782 20.3353 8.3433 22.0474 8.3433C22.2023 8.3433 22.3547 8.32037 22.5783 8.29999C23.0456 5.85422 24.1989 3.839 26.2843 2.44033C27.7392 1.45567 29.4653 0.953156 31.2197 1.00344C35.1798 1.07732 37.7808 3.34985 39.4903 8.33056C41.1973 8.33056 42.9347 8.33056 44.6722 8.33056C46.2724 8.33056 46.6306 8.69488 46.6357 10.2897C46.6357 10.919 46.6357 11.5457 46.6357 12.2693H47.7609C51.5643 12.2693 55.3669 12.2693 59.1686 12.2693C60.558 12.2693 61 12.6998 61 14.0781C61 39.8946 61 55.3747 61 81.1759C61 82.5797 60.5809 83 59.1991 83H2.82888C1.42166 83 1 82.5975 1 81.2039C1 55.3874 1 39.9073 1 14.1062C1 12.6693 1.4242 12.2693 2.89746 12.2693H15.3643L15.3618 12.2565ZM58.31 14.9927H46.6382C46.6382 15.757 46.6382 16.4602 46.6382 17.1557C46.6179 18.4015 46.2292 18.7939 44.9694 18.8015C43.0058 18.8015 41.0398 18.8015 39.0763 18.8015C31.7591 18.8015 24.441 18.8015 17.1221 18.8015C15.7377 18.8015 15.3745 18.4321 15.3643 17.0538C15.3643 16.3659 15.3643 15.6781 15.3643 14.98H3.69506V80.2969H58.3075L58.31 14.9927ZM18.0391 16.1112H43.9482V10.9572H38.7512C37.1991 10.9572 36.9731 10.7381 36.8207 9.17384C36.5133 5.92046 34.1282 3.64283 31.0241 3.63264C27.9201 3.62245 25.5096 5.87205 25.1819 9.11779C25.0193 10.756 24.8085 10.9521 23.1955 10.9547H18.0315L18.0391 16.1112Z" fill="#1839E8" stroke="#1839E8" stroke-width="1.2"/>
<path d="M26.3959 29.122C28.8345 29.122 31.2755 29.1679 33.714 29.1067C35.2609 29.066 36.3659 29.6468 37.2219 30.936C38.3269 32.5996 39.508 34.2174 40.7044 35.8173C40.9705 36.1474 41.3403 36.3773 41.7535 36.4695C44.1107 36.9485 46.4806 37.3612 48.8429 37.8071C50.3035 38.0822 50.9309 38.8261 50.9411 40.2885C50.9538 42.0719 50.9588 43.8553 50.9411 45.6386C50.9258 47.152 50.1028 47.9927 48.5915 48.0513C47.7354 48.0819 46.8769 48.0105 46.0259 48.0844C45.8579 48.1103 45.6974 48.1719 45.555 48.265C45.4126 48.3582 45.2917 48.4807 45.2004 48.6245C44.3088 50.3289 42.9143 51.2919 41.0219 51.2843C39.1295 51.2766 37.7325 50.3085 36.8663 48.5888C36.7727 48.4466 36.6487 48.327 36.5033 48.2389C36.3578 48.1507 36.1946 48.0962 36.0255 48.0793C32.571 48.0436 29.1173 48.0436 25.6644 48.0793C25.4814 48.099 25.3051 48.1592 25.1483 48.2557C24.9914 48.3522 24.858 48.4826 24.7576 48.6372C23.8584 50.3416 22.4715 51.2945 20.5689 51.2792C19.7056 51.3026 18.8554 51.0635 18.13 50.5934C17.4047 50.1232 16.8381 49.444 16.5047 48.6449C16.2711 48.1354 15.9739 48.0233 15.4887 48.0462C14.8878 48.0789 14.2856 48.0746 13.6852 48.0334C12.1612 47.9137 11.1451 46.9227 11.1019 45.3864C11.0486 42.8387 11.0613 40.2911 11.1019 37.7612C11.1478 37.2916 11.3238 36.8441 11.61 36.4695C12.9435 34.5358 14.338 32.648 15.6741 30.7143C15.9975 30.2035 16.4498 29.7874 16.985 29.5083C17.5203 29.2291 18.1196 29.0967 18.7223 29.1246C21.2624 29.1373 23.8279 29.122 26.3959 29.122ZM48.2968 45.4144C48.2968 43.9113 48.2663 42.5203 48.3095 41.1318C48.3298 40.5203 48.1139 40.3344 47.5297 40.235C45.1902 39.8427 42.8533 39.4299 40.5368 38.928C39.9396 38.7866 39.4046 38.4539 39.0127 37.9803C37.6817 36.2453 36.4243 34.4518 35.2025 32.6302C35.0326 32.3333 34.7824 32.0908 34.4807 31.9307C34.1791 31.7707 33.8384 31.6996 33.4981 31.7258C29.5076 31.7665 25.5069 31.9296 21.5316 31.6773C18.9712 31.5143 17.5437 32.4416 16.0755 34.4798C14.3355 36.8924 13.2813 39.2541 13.6725 42.2426C13.8097 43.2616 13.6954 44.3062 13.6954 45.3941C14.4117 45.3941 14.9908 45.4628 15.5395 45.3686C15.9017 45.3028 16.2232 45.0958 16.4336 44.7928C17.3404 43.1062 18.6867 42.1483 20.6172 42.1636C22.5477 42.1789 23.8939 43.1317 24.7627 44.8438C24.8368 44.9815 24.9403 45.1011 25.0659 45.194C25.1915 45.287 25.336 45.3509 25.4891 45.3813C29.1901 45.4144 32.8936 45.4042 36.5945 45.4042C36.7698 45.0552 36.912 44.7367 37.0822 44.4361C38.7358 41.5547 42.9397 41.2745 44.6771 44.0922C45.4239 45.3049 46.2012 45.5393 47.3925 45.4093C47.6389 45.3915 47.8929 45.4144 48.2968 45.4144ZM22.4537 46.7188C22.4664 46.4649 22.4259 46.2111 22.335 45.9737C22.2441 45.7363 22.1048 45.5206 21.9258 45.3405C21.7469 45.1603 21.5324 45.0197 21.2961 44.9275C21.0598 44.8354 20.8069 44.7939 20.5537 44.8055C20.0577 44.8048 19.5815 45.0002 19.2282 45.3493C18.8749 45.6984 18.6731 46.1731 18.6664 46.6704C18.6595 47.1838 18.854 47.6792 19.208 48.05C19.562 48.4208 20.0471 48.6372 20.5588 48.6525C20.8123 48.659 21.0645 48.6132 21.2996 48.5179C21.5348 48.4227 21.7479 48.28 21.9259 48.0987C22.1038 47.9174 22.2426 47.7013 22.3339 47.464C22.4251 47.2266 22.4668 46.973 22.4562 46.7188H22.4537ZM39.1524 46.7494C39.1485 47.0032 39.196 47.2552 39.292 47.4901C39.3881 47.7249 39.5307 47.9378 39.7112 48.1157C39.8917 48.2937 40.1063 48.433 40.3421 48.5253C40.5779 48.6175 40.8299 48.6608 41.0829 48.6525C41.5777 48.6271 42.0447 48.4154 42.3907 48.0598C42.7368 47.7042 42.9365 47.2309 42.9499 46.7341C42.9523 46.4796 42.9039 46.2271 42.8076 45.9915C42.7114 45.7559 42.5691 45.542 42.3893 45.3623C42.2095 45.1827 41.9956 45.0409 41.7604 44.9453C41.5251 44.8496 41.2732 44.8021 41.0194 44.8055C39.9144 44.8004 39.1524 45.6157 39.1524 46.7494Z" fill="#1839E8" stroke="#1839E8" stroke-width="1.2"/>
<path d="M30.9884 57.9771H51.8021C52.1497 57.9621 52.4978 57.974 52.8436 58.0127C53.5421 58.1223 53.9942 58.6318 53.8875 59.2586C53.8088 59.7222 53.3414 60.1783 52.9375 60.5018C52.714 60.6802 52.2669 60.6063 51.9215 60.6063C37.9814 60.6063 24.0421 60.6063 10.1036 60.6063H9.91565C8.70401 60.5885 8.08423 60.1452 8.07661 59.2891C8.06899 58.4331 8.68369 57.9745 9.89024 57.9745L30.9884 57.9771Z" fill="#1839E8" stroke="#1839E8" stroke-width="1.2"/>
<path d="M30.9935 70.4988H10.2763C9.99184 70.4988 9.70481 70.5115 9.42032 70.4988C8.59986 70.4377 8.03849 69.9154 8.08167 69.1944C8.13248 68.3689 8.61764 67.9409 9.43809 67.8976C9.72259 67.8849 10.0071 67.8849 10.2916 67.8849H51.7259C52.1053 67.8728 52.485 67.8916 52.8613 67.9409C53.1685 67.9726 53.4512 68.1236 53.6487 68.3617C53.8462 68.5998 53.9429 68.906 53.918 69.2148C53.9359 69.5228 53.8343 69.8258 53.6345 70.0604C53.4347 70.2949 53.1522 70.4429 52.8461 70.4733C52.5004 70.5124 52.1523 70.5261 51.8046 70.5141L30.9935 70.4988Z" fill="#1839E8" stroke="#1839E8" stroke-width="1.2"/>
</svg>
