<svg width="283" height="32" viewBox="0 0 283 32" fill="none" xmlns="http://www.w3.org/2000/svg">
<path d="M11.1777 11.2949C11.5879 11.1947 11.916 11.3359 12.1621 11.7188C12.4082 12.0924 12.235 13.0449 11.6426 14.5762C11.0592 16.1074 10.8177 17.3607 10.918 18.3359C11.0273 19.3021 11.319 19.8125 11.793 19.8672C12.3034 19.8672 12.6452 20.1315 12.8184 20.6602L12.8457 20.8516V21.002C12.8457 21.4395 12.5814 21.7585 12.0527 21.959L11.793 21.9863C10.7995 21.9863 10.1113 21.7174 9.72852 21.1797C9.3457 20.6328 9.18164 19.8171 9.23633 18.7324H9.20898C8.08789 20.4186 6.98958 21.6309 5.91406 22.3691C4.99349 23.0618 4.15495 23.5996 3.39844 23.9824C2.79688 24.2923 2.41406 24.4473 2.25 24.4473H2.01758C1.4707 24.4473 1.07422 24.1875 0.828125 23.668L0.800781 23.4219V23.3125C0.800781 22.8021 1.18815 22.4147 1.96289 22.1504C3.20247 21.5579 4.16862 20.9837 4.86133 20.4277C5.56315 19.8626 6.40169 18.9785 7.37695 17.7754C8.36133 16.5632 9.13607 15.2051 9.70117 13.7012C10.2754 12.1973 10.7676 11.3952 11.1777 11.2949ZM15.1562 21.3438C14.1628 21.8815 13.0599 22.0957 11.8477 21.9863C11.082 21.9043 10.722 21.5488 10.7676 20.9199C10.8132 20.2819 11.1595 19.9128 11.8066 19.8125C13.3652 19.7852 14.5 19.4525 15.2109 18.8145C15.9219 18.1764 16.3639 17.2513 16.5371 16.0391C16.7194 14.8268 17.0566 14.0658 17.5488 13.7559C17.5488 13.7012 17.6855 13.6693 17.959 13.6602C18.9342 13.8516 19.2487 14.5853 18.9023 15.8613C18.5469 17.5384 18.082 18.737 17.5078 19.457C16.9336 20.168 16.1497 20.7969 15.1562 21.3438ZM16.7695 23.8457C17.0612 23.8457 17.2754 23.9733 17.4121 24.2285L17.0977 25.1582C17.0247 25.4681 15.1198 25.8281 11.3828 26.2383H11.2871C10.4941 26.2383 10.0977 26.0013 10.0977 25.5273C10.0977 24.9258 10.5443 24.5247 11.4375 24.3242L16.7695 23.8457ZM27.707 14.084C28.1081 14.084 28.4225 14.2891 28.6504 14.6992C28.7142 14.8268 28.7461 14.9681 28.7461 15.123V15.1641C28.7461 15.401 28.6094 15.7155 28.3359 16.1074C27.8346 16.9551 27.2923 17.8118 26.709 18.6777C26.3353 19.334 25.7383 20.1452 24.918 21.1113C23.4505 23.0345 21.6458 25.1992 19.5039 27.6055C18.556 28.6445 17.7129 29.5514 16.9746 30.3262C16.6283 30.7181 16.3958 30.9141 16.2773 30.9141C16.168 30.9688 16.0267 30.9961 15.8535 30.9961C15.4342 30.9961 15.1152 30.7682 14.8965 30.3125C14.8509 30.194 14.8281 30.0846 14.8281 29.9844V29.9023C14.8281 29.5742 15.0286 29.2415 15.4297 28.9043C15.4297 28.877 16.1999 28.1113 17.7402 26.6074C19.3626 24.9759 20.3835 23.8867 20.8027 23.3398C21.9967 21.9362 23.0085 20.6146 23.8379 19.375C24.8952 17.7891 25.8932 16.1667 26.832 14.5078C27.0599 14.2253 27.3516 14.084 27.707 14.084ZM33.2578 14.002C34.0508 14.0749 34.5703 14.6035 34.8164 15.5879C34.8529 15.9342 34.8574 16.2487 34.8301 16.5312C34.666 18.418 33.6315 20.7376 31.7266 23.4902C31.1159 24.3652 30.0221 25.5228 28.4453 26.9629C26.832 28.4303 25.7975 29.2279 25.3418 29.3555L25.1367 29.3418C24.7995 29.3145 24.5306 29.0775 24.3301 28.6309C24.2663 28.5124 24.2435 28.362 24.2617 28.1797L24.2754 28.125C24.321 27.6055 24.6673 27.1497 25.3145 26.7578C26.0072 26.1654 26.7591 25.4818 27.5703 24.707C28.7188 23.6133 29.5254 22.7064 29.9902 21.9863C28.7962 21.4759 28.2493 20.651 28.3496 19.5117C28.4681 18.2357 29.3704 16.6953 31.0566 14.8906C31.8314 14.2344 32.5651 13.9382 33.2578 14.002ZM30.5918 19.7441L31.1113 20.0312C31.3483 19.8672 31.7311 19.1107 32.2598 17.7617L32.5195 16.668C31.6901 17.4792 31.084 18.3724 30.7012 19.3477L30.5918 19.7441ZM48.543 0.931641C49.1992 1.23242 49.459 1.65625 49.3223 2.20312C49.0124 2.57682 47.8867 2.87305 45.9453 3.0918C44.0039 3.30143 42.2402 3.7207 40.6543 4.34961C39.0684 4.9694 38.3073 5.7487 38.3711 6.6875C38.444 7.6263 38.5033 8.30078 38.5488 8.71094C38.5944 9.11198 38.3301 9.45833 37.7559 9.75L37.3867 9.73633C36.849 9.60872 36.5527 9.14388 36.498 8.3418C35.778 5.05143 37.4414 2.91862 41.4883 1.94336C45.5443 0.968099 47.8958 0.630859 48.543 0.931641ZM39.6426 9.98242C40.0618 9.98242 40.3353 10.224 40.4629 10.707V11.1172C40.4629 11.4635 40.1895 12.179 39.6426 13.2637C38.6309 15.5332 38.125 17.9395 38.125 20.4824L38.1523 20.7969C38.1523 21.3346 37.8607 21.7174 37.2773 21.9453L36.9219 22C36.3841 22 36.0059 21.6992 35.7871 21.0977L35.7598 20.8789V20.0996C35.7598 17.5658 36.5482 14.7357 38.125 11.6094C38.5078 10.5247 39.0137 9.98242 39.6426 9.98242ZM71.6074 12.9082C72.291 12.9447 72.6693 13.3138 72.7422 14.0156C71.7305 17.1966 70.2676 19.2292 68.3535 20.1133C66.4486 20.9974 64.6758 21.5534 63.0352 21.7812C61.3945 22.0091 59.3984 22.123 57.0469 22.123C52.4805 22.123 49.6823 21.166 48.6523 19.252C48.4427 18.7051 48.3379 18.2585 48.3379 17.9121C48.3379 16.2441 49.5592 14.6536 52.002 13.1406C53.0319 12.612 54.1029 12.1973 55.2148 11.8965C56.9648 11.4863 58.4505 11.2812 59.6719 11.2812C60.1367 11.2812 60.4785 11.5911 60.6973 12.2109V12.5938C60.6973 13.1224 60.3418 13.4642 59.6309 13.6191H58.9062C56.0716 13.6191 53.6882 14.4167 51.7559 16.0117C50.9082 16.8503 50.4844 17.5293 50.4844 18.0488C50.4844 19.2702 52.1523 20.0085 55.4883 20.2637L57.1836 20.291H57.2109C62.4792 20.0723 65.9017 19.4388 67.4785 18.3906C69.0553 17.3333 69.9531 16.2487 70.1719 15.1367C70.3906 14.0247 70.7051 13.3138 71.1152 13.0039C71.2702 12.9401 71.4342 12.9082 71.6074 12.9082ZM72.1953 15.2051C71.6029 16.791 71.3887 17.8848 71.5527 18.4863C71.7168 19.0788 72.1087 19.5026 72.7285 19.7578C73.1751 19.8034 73.485 19.9902 73.6582 20.3184C73.8314 20.6374 73.8678 20.9473 73.7676 21.248C73.6764 21.5488 73.4805 21.7676 73.1797 21.9043C72.8789 22.0319 72.4323 21.9909 71.8398 21.7812C71.2474 21.5625 70.7461 21.1296 70.3359 20.4824C69.9258 19.8353 69.7982 19.0059 69.9531 17.9941C70.1081 16.9733 70.6686 15.8568 71.6348 14.6445C72.6009 13.4323 72.7878 13.6191 72.1953 15.2051ZM68.4766 4.58203C68.7956 4.58203 69.0326 4.70964 69.1875 4.96484L68.832 5.89453C68.75 6.21354 66.0612 6.63281 60.7656 7.15234H60.6562C59.7812 7.15234 59.3438 6.91536 59.3438 6.44141C59.3438 5.84896 59.8359 5.44792 60.8203 5.23828C62.1966 5.01953 64.7487 4.80078 68.4766 4.58203ZM79.2637 19.6211C81.8066 19.1289 83.8893 18.2174 85.5117 16.8867C87.1341 15.556 88.1003 15.5879 88.4102 16.9824V17.0234C88.4557 17.625 87.6719 18.418 86.0586 19.4023C84.4544 20.3867 82.3307 21.1296 79.6875 21.6309C77.0534 22.1322 75.071 22.319 73.7402 22.1914C72.4095 22.0638 71.7441 21.8496 71.7441 21.5488C71.5345 21.3574 71.4297 21.1159 71.4297 20.8242C71.5573 20.1315 71.9082 19.7852 72.4824 19.7852C74.4694 20.1589 76.7298 20.1042 79.2637 19.6211ZM95.5742 11.6504H95.6426C96.1803 11.6504 96.6361 12.1198 97.0098 13.0586C97.9486 14.7083 98.418 16.2897 98.418 17.8027C98.418 19.3431 97.8438 20.5827 96.6953 21.5215C95.6562 22.4421 94.3757 23.2897 92.8535 24.0645C90.5475 25.1491 89.1667 25.6914 88.7109 25.6914C88.0182 25.5638 87.6719 25.2493 87.6719 24.748V24.4746C87.6719 23.9277 88.123 23.5951 89.0254 23.4766C90.4199 23.0299 91.6367 22.5332 92.6758 21.9863C93.7695 21.4303 94.8815 20.6328 96.0117 19.5938C96.431 19.1107 96.6406 18.5775 96.6406 17.9941V17.9668C96.6406 16.9277 95.9616 15.2917 94.6035 13.0586L94.5488 12.6895C94.6582 11.9967 95 11.6504 95.5742 11.6504ZM110.627 15.3281C112.249 15.3281 113.311 15.9206 113.812 17.1055C113.949 17.4609 114.054 18.2038 114.127 19.334C114.182 19.6348 114.318 19.7852 114.537 19.7852C115.13 20.0312 115.426 20.3639 115.426 20.7832V20.9883C115.426 21.5534 115.093 21.918 114.428 22.082H113.648C112.91 22.082 112.427 21.8086 112.199 21.2617C111.99 21.0065 111.821 19.9766 111.693 18.1719C111.557 17.6432 111.292 17.3789 110.9 17.3789L110.695 17.3516H110.518C109.087 17.3516 107.359 18.459 105.336 20.6738C104.634 21.5671 104.224 22.2279 104.105 22.6562H104.146L104.625 22.5879H104.721C105.459 22.6973 105.828 23.0527 105.828 23.6543L105.855 23.6953V23.7227C105.855 24.5885 105.172 25.0215 103.805 25.0215C102.72 25.0215 102.046 24.5566 101.781 23.627L101.74 23.2715V22.9707C101.74 21.6947 102.962 19.9447 105.404 17.7207C107.346 16.1257 109.087 15.3281 110.627 15.3281ZM117.586 21.3438C116.592 21.8815 115.49 22.0957 114.277 21.9863C113.512 21.9043 113.152 21.5488 113.197 20.9199C113.243 20.2819 113.589 19.9128 114.236 19.8125C115.795 19.7852 116.93 19.4525 117.641 18.8145C118.352 18.1764 118.794 17.2513 118.967 16.0391C119.149 14.8268 119.486 14.0658 119.979 13.7559C119.979 13.7012 120.115 13.6693 120.389 13.6602C121.364 13.8516 121.678 14.5853 121.332 15.8613C120.977 17.5384 120.512 18.737 119.938 19.457C119.363 20.168 118.579 20.7969 117.586 21.3438ZM116.109 26.3613C116.775 26.3613 117.34 26.7988 117.805 27.6738V27.9473C117.805 28.3939 117.404 28.7038 116.602 28.877H116.328C115.635 28.877 115.216 28.3483 115.07 27.291C115.07 26.7533 115.417 26.4434 116.109 26.3613ZM132.133 6.75586C132.671 6.75586 133.026 7.04753 133.199 7.63086L133.213 7.82227C133.213 8.52409 132.944 11.6641 132.406 17.2422L132.051 21.8906C131.805 22.4375 131.458 22.7109 131.012 22.7109H130.998C130.269 22.6289 129.904 22.2917 129.904 21.6992C130.497 17.2057 130.793 14.3711 130.793 13.1953C130.957 10.862 131.039 9.07096 131.039 7.82227C131.039 7.28451 131.363 6.92904 132.01 6.75586H132.133ZM142.223 14.084C142.624 14.084 142.938 14.2891 143.166 14.6992C143.23 14.8268 143.262 14.9681 143.262 15.123V15.1641C143.262 15.401 143.125 15.7155 142.852 16.1074C142.35 16.9551 141.808 17.8118 141.225 18.6777C140.851 19.334 140.254 20.1452 139.434 21.1113C137.966 23.0345 136.161 25.1992 134.02 27.6055C133.072 28.6445 132.229 29.5514 131.49 30.3262C131.144 30.7181 130.911 30.9141 130.793 30.9141C130.684 30.9688 130.542 30.9961 130.369 30.9961C129.95 30.9961 129.631 30.7682 129.412 30.3125C129.367 30.194 129.344 30.0846 129.344 29.9844V29.9023C129.344 29.5742 129.544 29.2415 129.945 28.9043C129.945 28.877 130.715 28.1113 132.256 26.6074C133.878 24.9759 134.899 23.8867 135.318 23.3398C136.512 21.9362 137.524 20.6146 138.354 19.375C139.411 17.7891 140.409 16.1667 141.348 14.5078C141.576 14.2253 141.867 14.084 142.223 14.084ZM178.891 8.57422H179.191C179.784 8.57422 180.121 9.02539 180.203 9.92773C180.559 12.1426 180.736 14.0658 180.736 15.6973C180.736 17.9486 180.349 19.5801 179.574 20.5918C178.107 22.6882 176.348 24.3014 174.297 25.4316C170.423 27.7832 166.322 28.959 161.992 28.959C157.836 28.959 154.053 27.8288 150.645 25.5684C148.967 24.1921 148.129 22.679 148.129 21.0293C148.129 18.5957 149.665 16.2533 152.736 14.002C157.157 11.2311 161.081 9.61784 164.508 9.16211C165.182 9.2806 165.52 9.59961 165.52 10.1191V10.4199C165.52 10.9941 164.827 11.3633 163.441 11.5273C162.94 11.5273 161.34 12.0469 158.643 13.0859C156.364 14.1888 154.363 15.4147 152.641 16.7637C151.055 18.3223 150.262 19.7259 150.262 20.9746C150.262 22.3783 151.068 23.7181 152.682 24.9941C154.997 26.416 157.745 27.127 160.926 27.127H161.459C166.873 27.127 171.686 25.3861 175.896 21.9043C177.3 20.528 178.139 19.2656 178.412 18.1172C178.54 17.4974 178.604 16.6589 178.604 15.6016C178.604 14.2982 178.412 12.2611 178.029 9.49023V9.44922C178.221 8.86589 178.508 8.57422 178.891 8.57422ZM169.006 16.3672C169.671 16.3672 170.236 16.8047 170.701 17.6797V17.9531C170.701 18.3997 170.3 18.7096 169.498 18.8828H169.225C168.532 18.8828 168.113 18.3542 167.967 17.2969C167.967 16.7682 168.313 16.4583 169.006 16.3672ZM188.092 8.90234H188.461C188.926 8.90234 189.24 9.1849 189.404 9.75V9.95508C189.404 10.3288 188.88 11.0534 187.832 12.1289C185.79 14.5443 184.77 16.3717 184.77 17.6113V17.9258C184.906 19.1654 185.43 19.7852 186.342 19.7852C187.117 19.7852 187.504 20.0996 187.504 20.7285V21.043C187.504 21.6081 187.117 21.9271 186.342 22C184.583 22 183.389 21.0293 182.76 19.0879L182.65 17.9258V17.7754C182.65 15.5059 184.323 12.6029 187.668 9.06641L188.092 8.90234ZM189.801 21.3438C188.807 21.8815 187.704 22.0957 186.492 21.9863C185.727 21.9043 185.367 21.5488 185.412 20.9199C185.458 20.2819 185.804 19.9128 186.451 19.8125C188.01 19.7852 189.145 19.4525 189.855 18.8145C190.566 18.1764 191.008 17.2513 191.182 16.0391C191.364 14.8268 191.701 14.0658 192.193 13.7559C192.193 13.7012 192.33 13.6693 192.604 13.6602C193.579 13.8516 193.893 14.5853 193.547 15.8613C193.191 17.5384 192.727 18.737 192.152 19.457C191.578 20.168 190.794 20.7969 189.801 21.3438ZM191.414 23.8457C191.706 23.8457 191.92 23.9733 192.057 24.2285L191.742 25.1582C191.669 25.4681 189.764 25.8281 186.027 26.2383H185.932C185.139 26.2383 184.742 26.0013 184.742 25.5273C184.742 24.9258 185.189 24.5247 186.082 24.3242L191.414 23.8457ZM201.641 14.002C202.051 14.002 202.37 14.207 202.598 14.6172C202.661 14.7539 202.693 14.8997 202.693 15.0547V15.0957C202.693 15.3327 202.57 15.7656 202.324 16.3945C202.078 17.0234 201.841 17.584 201.613 18.0762C201.395 18.5684 201.358 18.9694 201.504 19.2793C201.65 19.5892 201.91 19.8034 202.283 19.9219C202.666 20.0312 202.876 20.3685 202.912 20.9336C202.912 21.3802 202.684 21.7083 202.229 21.918C202.101 21.9544 201.987 21.9727 201.887 21.9727H201.75C200.647 21.8997 200.018 21.4258 199.863 20.5508C198.378 22.7747 196.441 25.1628 194.053 27.7148C193.087 28.7721 192.23 29.6973 191.482 30.4902C191.127 30.8822 190.89 31.0781 190.771 31.0781C190.662 31.1419 190.521 31.1738 190.348 31.1738C189.919 31.1738 189.596 30.9414 189.377 30.4766C189.322 30.349 189.295 30.235 189.295 30.1348V30.0527C189.295 29.7246 189.5 29.3874 189.91 29.041C189.91 29.0137 190.694 28.2344 192.262 26.7031C193.911 25.0443 194.946 23.9368 195.365 23.3809C196.577 21.959 197.607 20.6191 198.455 19.3613C199.43 17.8483 200.077 16.5495 200.396 15.4648C200.725 14.3711 201.139 13.8835 201.641 14.002ZM206.357 17.8574C206.275 18.1217 206.243 18.4863 206.262 18.9512C206.28 19.4069 206.604 19.6758 207.232 19.7578C207.807 19.7122 208.171 20.0449 208.326 20.7559V21.002C208.18 21.6673 207.802 22 207.191 22C205.688 22.0091 204.858 21.4531 204.703 20.332C204.302 20.9518 203.887 21.3848 203.459 21.6309C203.031 21.877 202.502 22.0137 201.873 22.041C201.062 21.9134 200.684 21.5124 200.738 20.8379C200.784 20.1634 201.148 19.7715 201.832 19.6621C202.908 19.6621 203.728 18.8145 204.293 17.1191C204.867 15.4238 205.314 14.4076 205.633 14.0703C205.952 13.7331 206.307 13.6237 206.699 13.7422C207.456 14.125 207.565 14.8633 207.027 15.957C206.663 16.9505 206.439 17.584 206.357 17.8574ZM210.924 8.99805C211.161 8.99805 211.334 9.12565 211.443 9.38086L211.184 10.3105C211.129 10.6296 209.534 10.8893 206.398 11.0898H206.316C205.678 11.0898 205.359 10.8529 205.359 10.3789C205.359 9.78646 205.719 9.38542 206.439 9.17578L210.924 8.99805ZM206.754 19.8672C212.141 20.2135 217.445 20.2181 222.668 19.8809V22C217.427 22.4375 212.122 22.4375 206.754 22V19.8672ZM215.449 4.28125C216.115 4.28125 216.68 4.71875 217.145 5.59375V5.86719C217.145 6.3138 216.743 6.6237 215.941 6.79688H215.668C214.975 6.79688 214.556 6.26823 214.41 5.21094C214.41 4.68229 214.757 4.3724 215.449 4.28125ZM219.674 10.6523C219.993 10.6523 220.23 10.7799 220.385 11.0352L220.029 11.9648C219.947 12.2839 217.258 12.7031 211.963 13.2227H211.854C210.979 13.2227 210.541 12.9857 210.541 12.5117C210.541 11.9193 211.033 11.5182 212.018 11.3086C213.394 11.0898 215.946 10.8711 219.674 10.6523ZM228.178 14.248H228.246C228.829 14.248 229.312 14.5352 229.695 15.1094C230.087 15.6836 230.265 16.5176 230.229 17.6113C230.201 18.696 229.9 19.6986 229.326 20.6191C228.752 21.5397 227.827 22.0137 226.551 22.041C225.421 21.9499 224.641 21.485 224.213 20.6465C223.374 21.6491 222.604 22.0957 221.902 21.9863C221.328 21.8314 221.032 21.5078 221.014 21.0156C220.986 20.5143 221.118 20.1725 221.41 19.9902C221.702 19.7988 222.016 19.6849 222.354 19.6484C222.7 19.6029 223.078 19.3249 223.488 18.8145C223.898 18.304 224.536 17.4154 225.402 16.1484C226.268 14.8815 227.193 14.248 228.178 14.248ZM226.428 19.9902C226.947 20.127 227.453 19.9629 227.945 19.498C228.447 19.0241 228.679 18.4909 228.643 17.8984C228.615 17.2969 228.41 16.9141 228.027 16.75C227.645 16.5859 227.148 16.9141 226.537 17.7344C225.926 18.5547 225.576 19.0879 225.484 19.334C225.594 19.6348 225.908 19.8535 226.428 19.9902ZM242.383 11.6504H242.451C242.989 11.6504 243.445 12.1198 243.818 13.0586C244.757 14.7083 245.227 16.2897 245.227 17.8027C245.227 19.3431 244.652 20.5827 243.504 21.5215C242.465 22.4421 241.184 23.2897 239.662 24.0645C237.356 25.1491 235.975 25.6914 235.52 25.6914C234.827 25.5638 234.48 25.2493 234.48 24.748V24.4746C234.48 23.9277 234.932 23.5951 235.834 23.4766C237.229 23.0299 238.445 22.5332 239.484 21.9863C240.578 21.4303 241.69 20.6328 242.82 19.5938C243.24 19.1107 243.449 18.5775 243.449 17.9941V17.9668C243.449 16.9277 242.77 15.2917 241.412 13.0586L241.357 12.6895C241.467 11.9967 241.809 11.6504 242.383 11.6504ZM253.799 8.90234H254.168C254.633 8.90234 254.947 9.1849 255.111 9.75V9.95508C255.111 10.3288 254.587 11.0534 253.539 12.1289C251.497 14.5443 250.477 16.3717 250.477 17.6113V17.9258C250.613 19.1654 251.137 19.7852 252.049 19.7852C252.824 19.7852 253.211 20.0996 253.211 20.7285V21.043C253.211 21.6081 252.824 21.9271 252.049 22C250.29 22 249.096 21.0293 248.467 19.0879L248.357 17.9258V17.7754C248.357 15.5059 250.03 12.6029 253.375 9.06641L253.799 8.90234ZM260.484 19.5801C260.749 19.7259 261.008 19.8125 261.264 19.8398C261.519 19.8581 261.719 20.0358 261.865 20.373C262.02 20.7103 262.016 21.043 261.852 21.3711C261.688 21.6901 261.441 21.8906 261.113 21.9727C260.794 22.0456 260.407 21.9453 259.951 21.6719C259.505 21.3893 259.149 20.9792 258.885 20.4414C258.62 19.9036 258.826 19.2155 259.5 18.377C260.184 17.5384 260.452 17.4928 260.307 18.2402C260.17 18.9876 260.229 19.4342 260.484 19.5801ZM258.502 14.248H258.57C259.154 14.248 259.637 14.5352 260.02 15.1094C260.411 15.6836 260.589 16.5176 260.553 17.6113C260.525 18.696 260.225 19.6986 259.65 20.6191C259.076 21.5397 258.151 22.0137 256.875 22.041C255.745 21.9499 254.965 21.485 254.537 20.6465C253.699 21.6491 252.928 22.0957 252.227 21.9863C251.652 21.8314 251.356 21.5078 251.338 21.0156C251.311 20.5143 251.443 20.1725 251.734 19.9902C252.026 19.7988 252.34 19.6849 252.678 19.6484C253.024 19.6029 253.402 19.3249 253.812 18.8145C254.223 18.304 254.861 17.4154 255.727 16.1484C256.592 14.8815 257.518 14.248 258.502 14.248ZM256.752 19.9902C257.271 20.127 257.777 19.9629 258.27 19.498C258.771 19.0241 259.003 18.4909 258.967 17.8984C258.939 17.2969 258.734 16.9141 258.352 16.75C257.969 16.5859 257.472 16.9141 256.861 17.7344C256.251 18.5547 255.9 19.0879 255.809 19.334C255.918 19.6348 256.232 19.8535 256.752 19.9902ZM265.584 17.8574C265.502 18.1217 265.47 18.4863 265.488 18.9512C265.507 19.4069 265.83 19.6758 266.459 19.7578C267.033 19.7122 267.398 20.0449 267.553 20.7559V21.002C267.407 21.6673 267.029 22 266.418 22C264.914 22.0091 264.085 21.4531 263.93 20.332C263.529 20.9518 263.114 21.3848 262.686 21.6309C262.257 21.877 261.729 22.0137 261.1 22.041C260.288 21.9134 259.91 21.5124 259.965 20.8379C260.01 20.1634 260.375 19.7715 261.059 19.6621C262.134 19.6621 262.954 18.8145 263.52 17.1191C264.094 15.4238 264.54 14.4076 264.859 14.0703C265.178 13.7331 265.534 13.6237 265.926 13.7422C266.682 14.125 266.792 14.8633 266.254 15.957C265.889 16.9505 265.666 17.584 265.584 17.8574ZM270.15 8.99805C270.387 8.99805 270.561 9.12565 270.67 9.38086L270.41 10.3105C270.355 10.6296 268.76 10.8893 265.625 11.0898H265.543C264.905 11.0898 264.586 10.8529 264.586 10.3789C264.586 9.78646 264.946 9.38542 265.666 9.17578L270.15 8.99805ZM272.898 12.2793C273.363 12.2793 273.714 12.5254 273.951 13.0176L273.979 13.2637C273.979 13.7923 273.418 14.3027 272.297 14.7949C270.839 15.7246 270 16.5677 269.781 17.3242L269.645 18.2676C269.745 19.0332 269.859 19.416 269.986 19.416L274.43 17.9805L274.922 17.9121H275.236C275.729 17.9121 276.034 18.181 276.152 18.7188V19.1426C276.152 19.5527 275.637 19.9128 274.607 20.2227C271.463 21.5169 268.751 22.123 266.473 22.041C265.798 21.9772 265.42 21.6309 265.338 21.002C265.493 20.3275 265.871 19.972 266.473 19.9355L267.129 19.9082H267.539L267.58 19.8672H267.607C267.452 19.4115 267.375 19.0378 267.375 18.7461C267.375 16.6406 269.066 14.5078 272.447 12.3477L272.898 12.2793ZM281.484 6.75586C282.022 6.75586 282.378 7.04753 282.551 7.63086L282.564 7.82227C282.564 8.52409 282.296 11.6641 281.758 17.2422L281.402 21.8906C281.156 22.4375 280.81 22.7109 280.363 22.7109H280.35C279.62 22.6289 279.256 22.2917 279.256 21.6992C279.848 17.2057 280.145 14.3711 280.145 13.1953C280.309 10.862 280.391 9.07096 280.391 7.82227C280.391 7.28451 280.714 6.92904 281.361 6.75586H281.484Z" fill="#1839E8"/>
</svg>
