<svg width="158" height="31" viewBox="0 0 158 31" fill="none" xmlns="http://www.w3.org/2000/svg">
<path d="M10.6191 10.2949C11.0293 10.1947 11.3574 10.3359 11.6035 10.7188C11.8496 11.0924 11.6764 12.0449 11.084 13.5762C10.5007 15.1074 10.2591 16.3607 10.3594 17.3359C10.4688 18.3021 10.7604 18.8125 11.2344 18.8672C11.7448 18.8672 12.0866 19.1315 12.2598 19.6602L12.2871 19.8516V20.002C12.2871 20.4395 12.0228 20.7585 11.4941 20.959L11.2344 20.9863C10.2409 20.9863 9.55273 20.7174 9.16992 20.1797C8.78711 19.6328 8.62305 18.8171 8.67773 17.7324H8.65039C7.5293 19.4186 6.43099 20.6309 5.35547 21.3691C4.4349 22.0618 3.59635 22.5996 2.83984 22.9824C2.23828 23.2923 1.85547 23.4473 1.69141 23.4473H1.45898C0.912109 23.4473 0.515625 23.1875 0.269531 22.668L0.242188 22.4219V22.3125C0.242188 21.8021 0.629557 21.4147 1.4043 21.1504C2.64388 20.5579 3.61003 19.9837 4.30273 19.4277C5.00456 18.8626 5.8431 17.9785 6.81836 16.7754C7.80273 15.5632 8.57747 14.2051 9.14258 12.7012C9.7168 11.1973 10.209 10.3952 10.6191 10.2949ZM15.8281 16.8574C15.7461 17.1217 15.7142 17.4863 15.7324 17.9512C15.7507 18.4069 16.0742 18.6758 16.7031 18.7578C17.2773 18.7122 17.6419 19.0449 17.7969 19.7559V20.002C17.651 20.6673 17.2728 21 16.6621 21C15.1582 21.0091 14.3288 20.4531 14.1738 19.332C13.7728 19.9518 13.3581 20.3848 12.9297 20.6309C12.5013 20.877 11.9727 21.0137 11.3438 21.041C10.5326 20.9134 10.1543 20.5124 10.209 19.8379C10.2546 19.1634 10.6191 18.7715 11.3027 18.6621C12.3783 18.6621 13.1986 17.8145 13.7637 16.1191C14.3379 14.4238 14.7845 13.4076 15.1035 13.0703C15.4225 12.7331 15.778 12.6237 16.1699 12.7422C16.9264 13.125 17.0358 13.8633 16.498 14.957C16.1335 15.9505 15.9102 16.584 15.8281 16.8574ZM16.6074 25.9902C16.8171 25.9902 16.972 26.1178 17.0723 26.373L16.8398 27.3027C16.7852 27.6217 15.0169 28.041 11.5352 28.5605H11.4531C10.8789 28.5605 10.5918 28.3236 10.5918 27.8496C10.5918 27.2572 10.9154 26.8561 11.5625 26.6465C12.4648 26.4277 14.1465 26.209 16.6074 25.9902ZM26.3418 0.369141C27.0072 0.369141 27.5723 0.806641 28.0371 1.68164V1.95508C28.0371 2.40169 27.6361 2.71159 26.834 2.88477H26.5605C25.8678 2.88477 25.4486 2.35612 25.3027 1.29883C25.3027 0.770182 25.6491 0.460286 26.3418 0.369141ZM30.5664 6.74023C30.8854 6.74023 31.1224 6.86784 31.2773 7.12305L30.9219 8.05273C30.8398 8.37174 28.151 8.79102 22.8555 9.31055H22.7461C21.8711 9.31055 21.4336 9.07357 21.4336 8.59961C21.4336 8.00716 21.9258 7.60612 22.9102 7.39648C24.2865 7.17773 26.8385 6.95898 30.5664 6.74023ZM23.1426 18.6211C25.6855 18.1289 27.7682 17.2174 29.3906 15.8867C31.013 14.556 31.9792 14.5879 32.2891 15.9824V16.0234C32.3346 16.625 31.5508 17.418 29.9375 18.4023C28.3333 19.3867 26.2096 20.1296 23.5664 20.6309C20.9323 21.1322 18.9499 21.319 17.6191 21.1914C16.2884 21.0638 15.623 20.8496 15.623 20.5488C15.4134 20.3574 15.3086 20.1159 15.3086 19.8242C15.4362 19.1315 15.7871 18.7852 16.3613 18.7852C18.3483 19.1589 20.6087 19.1042 23.1426 18.6211ZM39.8359 13.002C40.6289 13.0749 41.1484 13.6035 41.3945 14.5879C41.431 14.9342 41.4355 15.2487 41.4082 15.5312C41.2441 17.418 40.2096 19.7376 38.3047 22.4902C37.694 23.3652 36.6003 24.5228 35.0234 25.9629C33.4102 27.4303 32.3757 28.2279 31.9199 28.3555L31.7148 28.3418C31.3776 28.3145 31.1087 28.0775 30.9082 27.6309C30.8444 27.5124 30.8216 27.362 30.8398 27.1797L30.8535 27.125C30.8991 26.6055 31.2454 26.1497 31.8926 25.7578C32.5853 25.1654 33.3372 24.4818 34.1484 23.707C35.2969 22.6133 36.1035 21.7064 36.5684 20.9863C35.3743 20.4759 34.8275 19.651 34.9277 18.5117C35.0462 17.2357 35.9486 15.6953 37.6348 13.8906C38.4095 13.2344 39.1432 12.9382 39.8359 13.002ZM37.1699 18.7441L37.6895 19.0312C37.9264 18.8672 38.3092 18.1107 38.8379 16.7617L39.0977 15.668C38.2682 16.4792 37.6621 17.3724 37.2793 18.3477L37.1699 18.7441ZM47.7109 13.002C48.1211 13.002 48.4401 13.207 48.668 13.6172C48.7318 13.7539 48.7637 13.8997 48.7637 14.0547V14.0957C48.7637 14.3327 48.6406 14.7656 48.3945 15.3945C48.1484 16.0234 47.9115 16.584 47.6836 17.0762C47.4648 17.5684 47.4284 17.9694 47.5742 18.2793C47.7201 18.5892 47.9798 18.8034 48.3535 18.9219C48.7363 19.0312 48.946 19.3685 48.9824 19.9336C48.9824 20.3802 48.7546 20.7083 48.2988 20.918C48.1712 20.9544 48.0573 20.9727 47.957 20.9727H47.8203C46.7174 20.8997 46.0885 20.4258 45.9336 19.5508C44.4479 21.7747 42.5111 24.1628 40.123 26.7148C39.1569 27.7721 38.3001 28.6973 37.5527 29.4902C37.1973 29.8822 36.9603 30.0781 36.8418 30.0781C36.7324 30.1419 36.5911 30.1738 36.418 30.1738C35.9896 30.1738 35.666 29.9414 35.4473 29.4766C35.3926 29.349 35.3652 29.235 35.3652 29.1348V29.0527C35.3652 28.7246 35.5703 28.3874 35.9805 28.041C35.9805 28.0137 36.7643 27.2344 38.332 25.7031C39.9818 24.0443 41.0163 22.9368 41.4355 22.3809C42.6478 20.959 43.6777 19.6191 44.5254 18.3613C45.5007 16.8483 46.1478 15.5495 46.4668 14.4648C46.7949 13.3711 47.2096 12.8835 47.7109 13.002ZM52.4688 18.1973C53.1432 18.4434 53.7402 18.612 54.2598 18.7031C54.7793 18.7943 55.4264 18.8125 56.2012 18.7578C56.6478 18.8034 56.9577 18.9902 57.1309 19.3184C57.304 19.6374 57.3405 19.9473 57.2402 20.248C57.1491 20.5488 56.9531 20.7676 56.6523 20.9043C56.3516 21.0319 55.9596 21.0638 55.4766 21C54.9935 20.9453 54.3418 20.8678 53.5215 20.7676C52.7103 20.6582 52.0449 20.444 51.5254 20.125C51.015 19.806 50.8783 19.3457 51.1152 18.7441C51.3522 18.1335 51.8034 17.9512 52.4688 18.1973ZM55.1074 11.4844H55.627C56.7389 11.4844 57.3678 12.1999 57.5137 13.6309C57.5137 16.4473 55.2624 18.7669 50.7598 20.5898C49.9486 20.8633 49.028 21 47.998 21H47.6426C46.959 20.8451 46.6172 20.5397 46.6172 20.084V19.7695C46.6172 19.168 47.0273 18.8262 47.8477 18.7441C48.7318 18.7441 49.3971 18.6758 49.8438 18.5391V18.498C49.5703 18.0788 49.4336 17.6686 49.4336 17.2676V17.0078C49.4336 15.9049 50.4909 14.4238 52.6055 12.5645C53.5078 11.8444 54.3418 11.4844 55.1074 11.4844ZM51.2246 16.8027V17.0625C51.2246 17.3997 51.375 17.6732 51.6758 17.8828C52.5052 17.5547 53.5124 16.8027 54.6973 15.627C55.2077 14.9525 55.4629 14.4421 55.4629 14.0957C55.4629 13.9681 55.3626 13.8314 55.1621 13.6855H55.1074C54.4238 13.6855 53.248 14.5059 51.5801 16.1465C51.3431 16.4108 51.2246 16.6296 51.2246 16.8027ZM55.668 5.55078C56.3333 5.55078 56.8984 5.98828 57.3633 6.86328V7.13672C57.3633 7.58333 56.9622 7.89323 56.1602 8.06641H55.8867C55.194 8.06641 54.7747 7.53776 54.6289 6.48047C54.6289 5.95182 54.9753 5.64193 55.668 5.55078ZM59.3047 20.3438C58.3112 20.8815 57.2083 21.0957 55.9961 20.9863C55.2305 20.9043 54.8704 20.5488 54.916 19.9199C54.9616 19.2819 55.3079 18.9128 55.9551 18.8125C57.5137 18.7852 58.6484 18.4525 59.3594 17.8145C60.0703 17.1764 60.5124 16.2513 60.6855 15.0391C60.8678 13.8268 61.2051 13.0658 61.6973 12.7559C61.6973 12.7012 61.834 12.6693 62.1074 12.6602C63.0827 12.8516 63.3971 13.5853 63.0508 14.8613C62.6953 16.5384 62.2305 17.737 61.6562 18.457C61.082 19.168 60.2982 19.7969 59.3047 20.3438ZM57.8281 25.3613C58.4935 25.3613 59.0586 25.7988 59.5234 26.6738V26.9473C59.5234 27.3939 59.1224 27.7038 58.3203 27.877H58.0469C57.3542 27.877 56.9349 27.3483 56.7891 26.291C56.7891 25.7533 57.1354 25.4434 57.8281 25.3613ZM91.4199 3.86914C94.1634 3.86914 95.8496 4.31576 96.4785 5.20898C96.6243 5.43685 96.6973 5.67383 96.6973 5.91992V6.05664C96.6973 6.67643 96.2689 7.25521 95.4121 7.79297L95.0977 7.83398H94.9883C94.5052 7.83398 94.1725 7.54232 93.9902 6.95898V6.69922C93.9902 6.6263 94.0586 6.49414 94.1953 6.30273V6.26172C93.2747 6.09766 92.2995 6.01562 91.2695 6.01562C86.5573 6.01562 82.0091 7.16862 77.625 9.47461C76.5221 10.0397 75.401 10.8008 74.2617 11.7578C72.8216 13.1523 72.1016 14.3874 72.1016 15.4629V15.627C72.1016 17.0124 73.0905 18.3203 75.0684 19.5508C75.9069 20.0977 77.4928 20.6719 79.8262 21.2734C82.8431 22.0026 86.0651 22.3672 89.4922 22.3672C92.9102 22.3672 96.3418 22.0299 99.7871 21.3555C101.61 20.8815 103.091 20.362 104.23 19.7969C106.108 18.8034 107.047 17.86 107.047 16.9668C107.047 16.1465 105.903 14.9616 103.615 13.4121C102.904 12.929 102.298 12.4095 101.797 11.8535C101.387 11.3704 101.182 10.8919 101.182 10.418V10.377C101.182 9.26497 102.462 8.44466 105.023 7.91602C107.794 7.15039 109.84 6.76758 111.162 6.76758H111.654C112.374 6.76758 112.812 7.03646 112.967 7.57422L112.994 7.83398V7.86133C112.994 8.4082 112.702 8.75911 112.119 8.91406L111.969 8.94141L111.271 8.88672C109.604 8.88672 107.37 9.34245 104.572 10.2539C104.08 10.5091 103.834 10.696 103.834 10.8145C103.889 10.9329 104.281 11.2337 105.01 11.7168C107.799 13.403 109.193 15.0664 109.193 16.707V16.9531C109.193 18.9401 107.653 20.5625 104.572 21.8203C103.715 22.194 102.294 22.5996 100.307 23.0371C97.1074 23.6387 93.931 23.9395 90.7773 23.9395H90.1484C84.6615 23.9395 79.6758 23.0508 75.1914 21.2734C71.9284 19.806 70.2969 17.901 70.2969 15.5586V15.2988C70.2969 13.5306 71.263 11.7259 73.1953 9.88477C74.1432 9.08268 75.0137 8.46745 75.8066 8.03906C80.6738 5.25911 85.8783 3.86914 91.4199 3.86914ZM117.602 5.75586C118.139 5.75586 118.495 6.04753 118.668 6.63086L118.682 6.82227C118.682 7.52409 118.413 10.6641 117.875 16.2422L117.52 20.8906C117.273 21.4375 116.927 21.7109 116.48 21.7109H116.467C115.738 21.6289 115.373 21.2917 115.373 20.6992C115.965 16.2057 116.262 13.3711 116.262 12.1953C116.426 9.86198 116.508 8.07096 116.508 6.82227C116.508 6.28451 116.831 5.92904 117.479 5.75586H117.602ZM124.916 14.3281C126.538 14.3281 127.6 14.9206 128.102 16.1055C128.238 16.4609 128.343 17.2038 128.416 18.334C128.471 18.6348 128.607 18.7852 128.826 18.7852C129.419 19.0312 129.715 19.3639 129.715 19.7832V19.9883C129.715 20.5534 129.382 20.918 128.717 21.082H127.938C127.199 21.082 126.716 20.8086 126.488 20.2617C126.279 20.0065 126.11 18.9766 125.982 17.1719C125.846 16.6432 125.581 16.3789 125.189 16.3789L124.984 16.3516H124.807C123.376 16.3516 121.648 17.459 119.625 19.6738C118.923 20.5671 118.513 21.2279 118.395 21.6562H118.436L118.914 21.5879H119.01C119.748 21.6973 120.117 22.0527 120.117 22.6543L120.145 22.6953V22.7227C120.145 23.5885 119.461 24.0215 118.094 24.0215C117.009 24.0215 116.335 23.5566 116.07 22.627L116.029 22.2715V21.9707C116.029 20.6947 117.251 18.9447 119.693 16.7207C121.635 15.1257 123.376 14.3281 124.916 14.3281ZM135.908 11.4844H136.428C137.54 11.4844 138.169 12.1999 138.314 13.6309C138.314 16.4473 136.063 18.7669 131.561 20.5898C130.749 20.8633 129.829 21 128.799 21H128.443C127.76 20.8451 127.418 20.5397 127.418 20.084V19.7695C127.418 19.168 127.828 18.8262 128.648 18.7441C129.533 18.7441 130.198 18.6758 130.645 18.5391V18.498C130.371 18.0788 130.234 17.6686 130.234 17.2676V17.0078C130.234 15.9049 131.292 14.4238 133.406 12.5645C134.309 11.8444 135.143 11.4844 135.908 11.4844ZM132.025 16.8027V17.0625C132.025 17.3997 132.176 17.6732 132.477 17.8828C133.306 17.5547 134.313 16.8027 135.498 15.627C136.008 14.9525 136.264 14.4421 136.264 14.0957C136.264 13.9681 136.163 13.8314 135.963 13.6855H135.908C135.225 13.6855 134.049 14.5059 132.381 16.1465C132.144 16.4108 132.025 16.6296 132.025 16.8027ZM135.402 1.75C136.068 1.75 136.633 2.1875 137.098 3.0625V3.33594C137.098 3.78255 136.697 4.09245 135.895 4.26562H135.621C134.928 4.26562 134.509 3.73698 134.363 2.67969C134.363 2.15104 134.71 1.84115 135.402 1.75ZM145.191 13.002C145.602 13.002 145.921 13.207 146.148 13.6172C146.212 13.7539 146.244 13.8997 146.244 14.0547V14.0957C146.244 14.3327 146.121 14.7656 145.875 15.3945C145.629 16.0234 145.392 16.584 145.164 17.0762C144.945 17.5684 144.909 17.9694 145.055 18.2793C145.201 18.5892 145.46 18.8034 145.834 18.9219C146.217 19.0312 146.426 19.3685 146.463 19.9336C146.463 20.3802 146.235 20.7083 145.779 20.918C145.652 20.9544 145.538 20.9727 145.438 20.9727H145.301C144.198 20.8997 143.569 20.4258 143.414 19.5508C141.928 21.7747 139.992 24.1628 137.604 26.7148C136.637 27.7721 135.781 28.6973 135.033 29.4902C134.678 29.8822 134.441 30.0781 134.322 30.0781C134.213 30.1419 134.072 30.1738 133.898 30.1738C133.47 30.1738 133.146 29.9414 132.928 29.4766C132.873 29.349 132.846 29.235 132.846 29.1348V29.0527C132.846 28.7246 133.051 28.3874 133.461 28.041C133.461 28.0137 134.245 27.2344 135.812 25.7031C137.462 24.0443 138.497 22.9368 138.916 22.3809C140.128 20.959 141.158 19.6191 142.006 18.3613C142.981 16.8483 143.628 15.5495 143.947 14.4648C144.275 13.3711 144.69 12.8835 145.191 13.002ZM150.455 11.0605H150.482C151.294 11.0605 152.223 11.7852 153.271 13.2344C153.946 14.1003 154.356 14.6061 154.502 14.752C155.295 14.2051 155.851 13.9316 156.17 13.9316H156.416C156.781 13.9316 157.081 14.1732 157.318 14.6562C157.373 14.7747 157.4 14.9069 157.4 15.0527C157.4 15.5996 157.063 16.1966 156.389 16.8438C155.942 17.1901 155.509 17.3633 155.09 17.3633L154.598 17.2402C152.975 18.2155 151.594 18.9674 150.455 19.4961C148.14 20.4531 146.777 20.9316 146.367 20.9316C146.148 20.9772 145.852 21 145.479 21H145.383C144.918 21 144.585 20.7676 144.385 20.3027L144.33 20.002V19.8516C144.33 19.3958 144.608 19.0723 145.164 18.8809C145.993 18.8809 146.9 18.653 147.885 18.1973C149.68 17.5137 151.371 16.6797 152.957 15.6953C151.891 14.0911 151.043 13.2891 150.414 13.2891C149.995 13.2982 149.184 14.1641 147.98 15.8867C147.671 16.2786 147.42 16.4746 147.229 16.4746C147.001 16.4746 146.745 16.2194 146.463 15.709L146.408 15.3672C146.408 14.6745 146.951 13.7995 148.035 12.7422C149.065 11.6211 149.872 11.0605 150.455 11.0605Z" fill="#1839E8"/>
</svg>
