<svg width="62" height="44" viewBox="0 0 62 44" fill="none" xmlns="http://www.w3.org/2000/svg">
<path d="M6.86909 15.7566C5.7208 15.4641 4.56921 15.1667 3.41431 14.8792C1.05983 14.2927 0.285488 12.1862 1.72663 10.2283C2.13674 9.64365 2.68137 9.16579 3.31478 8.83489C3.94819 8.50398 4.65187 8.32968 5.36672 8.32665C6.41904 8.30021 7.47467 8.35804 8.52533 8.31178C9.91849 8.2523 11.0171 8.75787 11.8825 9.91606C11.9983 9.75084 12.1075 9.60875 12.1985 9.4584C13.0093 8.13665 13.8035 6.81489 14.6241 5.50801C16.4673 2.57206 19.1312 1.04709 22.6026 1.0223C28.1962 0.992565 33.7914 0.992565 39.3883 1.0223C42.8381 1.03717 45.4888 2.55719 47.3303 5.45679C48.2569 6.91237 49.1372 8.39935 50.0654 9.91771C50.2308 9.72771 50.3417 9.5377 50.5022 9.44353C51.1491 9.06353 51.7928 8.45221 52.4728 8.401C54.158 8.26683 55.8521 8.29228 57.5325 8.477C59.0084 8.64222 60.064 9.63353 60.7093 10.9718C60.8902 11.3269 60.9892 11.718 60.9992 12.1162C61.0091 12.5145 60.9297 12.91 60.7668 13.2737C60.6039 13.6374 60.3616 13.9601 60.0576 14.2182C59.7537 14.4762 59.3957 14.6632 59.0101 14.7652C57.7212 15.1304 56.4173 15.4344 55.0606 15.7813C55.188 15.93 55.2806 16.054 55.3915 16.1647C57.377 18.1803 58.4194 20.6124 58.4608 23.4343C58.5038 26.2992 58.4872 29.1658 58.4608 32.0257C58.4693 32.7917 58.3088 33.5503 57.9905 34.2473C57.6722 34.9444 57.204 35.5628 56.6192 36.0587C56.4272 36.2523 56.314 36.5102 56.3015 36.7824C56.2684 37.9571 56.3015 39.1334 56.285 40.3081C56.2701 41.919 55.2211 42.9715 53.6045 42.983C51.95 42.9963 50.2954 42.993 48.6491 42.983C47.0027 42.9731 45.9554 41.9455 45.919 40.2834C45.9024 39.4837 45.919 38.6824 45.919 37.8051C35.9817 38.3429 26.0225 38.3429 16.0851 37.8051V40.2404C16.0851 41.2102 15.7542 42.0496 14.9038 42.5535C14.4591 42.8058 13.9604 42.948 13.4494 42.9682C11.7584 43.0177 10.0641 42.9979 8.37145 42.9847C6.75989 42.9715 5.72411 41.9157 5.70757 40.2933C5.69764 39.1814 5.72577 38.0678 5.68936 36.9558C5.67424 36.6855 5.55579 36.4312 5.35845 36.2454C4.10593 35.2227 3.34482 33.9323 3.32827 32.3132C3.29518 29.1608 3.25878 26.0051 3.36136 22.8544C3.45071 20.1547 4.6536 17.911 6.63744 16.0804C6.7119 16.011 6.78305 15.9367 6.85254 15.8623C6.86412 15.8458 6.85916 15.8193 6.86909 15.7566ZM30.892 36.5114C38.4072 36.4734 45.9124 36.1991 53.4027 35.5531C55.4428 35.3764 56.7449 33.9753 56.7565 31.9183C56.7565 30.2661 56.7714 28.6139 56.7565 26.9716C56.74 25.407 56.8376 23.8226 56.6225 22.2827C56.2552 19.6524 55.001 17.5195 52.5506 16.2225C52.415 16.1408 52.2978 16.032 52.2064 15.903C52.115 15.7739 52.0513 15.6273 52.0194 15.4724C51.95 14.9007 52.3868 14.6661 52.8914 14.5405C54.7313 14.0829 56.5712 13.6269 58.4062 13.1511C59.2334 12.9363 59.5114 12.2704 59.0845 11.5352C58.5518 10.6133 57.746 10.0829 56.6705 10.0482C55.557 10.0168 54.4418 10.035 53.3266 10.035C52.1253 10.035 51.4552 10.5621 51.2087 11.75C51.1094 12.2225 50.9886 12.6521 50.4476 12.7529C49.9065 12.8537 49.6335 12.4819 49.387 12.0755C48.2205 10.1573 47.0706 8.22917 45.8727 6.32915C44.4001 3.98964 42.2673 2.74719 39.4876 2.73563C33.8322 2.7147 28.1763 2.7147 22.5198 2.73563C19.7666 2.74719 17.6586 3.98303 16.1646 6.27628C15.8618 6.74219 15.5821 7.22298 15.2909 7.69881C14.3677 9.20892 13.4494 10.7256 12.5162 12.2308C12.1323 12.8487 11.4771 12.966 11.0899 12.4803C10.9464 12.2584 10.8506 12.0091 10.8087 11.7483C10.5621 10.7124 9.91022 10.0499 9.04322 10.04C7.80558 10.0234 6.5674 10.0234 5.32867 10.04C4.92418 10.0467 4.52625 10.1431 4.16368 10.3222C3.80111 10.5014 3.48297 10.7588 3.2323 11.0759C2.36034 12.1069 2.61183 12.9082 3.90572 13.2337C5.66399 13.6742 7.42337 14.1148 9.18385 14.5554C9.61901 14.6628 9.96813 14.8677 10.026 15.3402C10.084 15.8127 9.7944 16.0804 9.39233 16.2919C6.86578 17.6219 5.31543 19.735 5.13343 22.5438C4.92164 25.8068 4.99279 29.0931 5.0507 32.3677C5.08213 34.1521 6.51997 35.3846 8.32181 35.5416C15.8353 36.2008 23.357 36.48 30.892 36.5114ZM47.6331 37.7159C47.6331 38.656 47.61 39.5333 47.6414 40.4188C47.637 40.5341 47.6569 40.649 47.6997 40.7561C47.7425 40.8633 47.8073 40.9603 47.8899 41.0409C47.9725 41.1215 48.0711 41.184 48.1793 41.2242C48.2876 41.2645 48.403 41.2817 48.5183 41.2747C50.249 41.2912 51.9803 41.2912 53.7121 41.2747C54.1423 41.2747 54.5195 41.0434 54.5394 40.594C54.5807 39.4507 54.5526 38.304 54.5526 37.1805L47.6331 37.7159ZM7.43496 37.2086C7.43496 38.3354 7.41345 39.4226 7.44488 40.513C7.45978 41.0302 7.83702 41.278 8.32347 41.2813C10.0343 41.2967 11.7441 41.2967 13.4527 41.2813C13.9491 41.2813 14.3164 41.007 14.3412 40.513C14.3875 39.5977 14.3544 38.6774 14.3544 37.7935C14.2981 37.7599 14.2381 37.7328 14.1757 37.7126C11.9636 37.5424 9.74476 37.3788 7.43826 37.2086H7.43496Z" fill="#1839E8" stroke="#1839E8" stroke-width="1.2"/>
<path d="M30.9997 17.39H17.2517C15.4863 17.39 14.7864 16.212 15.6418 14.6837C16.709 12.7787 17.7928 10.8836 18.8484 8.97371C19.7849 7.28682 21.1929 6.45411 23.1371 6.45907C28.3799 6.47559 33.6233 6.47559 38.8672 6.45907C40.8097 6.45907 42.2178 7.28516 43.1559 8.97205C44.2264 10.8985 45.3168 12.8134 46.3923 14.7366C47.203 16.1855 46.4882 17.3883 44.8105 17.39C40.2074 17.3922 35.6038 17.3922 30.9997 17.39ZM17.1011 15.637H44.8982C44.7956 15.4288 44.7327 15.2653 44.6384 15.1099C43.6457 13.352 42.6529 11.604 41.68 9.83119C41.0529 8.67466 40.1082 8.13439 38.8126 8.15422H38.6885C33.5725 8.15422 28.4566 8.16744 23.3406 8.15422C21.9441 8.15422 20.9431 8.68127 20.2763 9.93033C19.3448 11.6717 18.3487 13.3785 17.3808 15.1017C17.2914 15.2504 17.212 15.4106 17.0945 15.637H17.1011Z" fill="#1839E8" stroke="#1839E8" stroke-width="1.2"/>
<path d="M10.6902 25.9271C10.7084 23.4818 13.0744 21.7338 15.515 22.3567C18.8473 23.2076 20.894 25.3141 21.7015 28.635C22.092 30.2442 20.8924 31.4437 19.2957 31.0158C17.287 30.4789 15.2784 29.9402 13.2796 29.3636C12.5284 29.157 11.8669 28.7078 11.3984 28.086C10.9299 27.4643 10.6809 26.7051 10.6902 25.9271ZM20.0518 29.3967C19.6581 26.6127 17.7569 24.5045 14.7572 23.9593C13.7164 23.7693 12.6757 24.5343 12.4407 25.5685C12.219 26.5764 12.8246 27.4834 13.9183 27.7825C15.7632 28.2864 17.608 28.7953 19.4545 29.2959C19.6432 29.3405 19.8384 29.3554 20.0518 29.3917V29.3967Z" fill="#1839E8" stroke="#1839E8" stroke-width="1.2"/>
<path d="M51.3174 25.9804C51.3192 26.7491 51.0688 27.4973 50.6045 28.1104C50.1401 28.7236 49.4874 29.168 48.7461 29.3756C46.7099 29.9638 44.6648 30.525 42.6109 31.0592C41.1532 31.4392 39.9636 30.2546 40.2796 28.7891C41.044 25.2765 43.4233 22.942 46.898 22.291C49.1548 21.8697 51.3289 23.6822 51.3174 25.9804ZM41.9574 29.3954C42.1374 29.3808 42.3164 29.3554 42.4935 29.3194C44.3598 28.8139 46.2279 28.3083 48.0909 27.7879C49.1995 27.4772 49.7852 26.5801 49.5652 25.5706C49.3451 24.5611 48.2977 23.7747 47.2487 23.963C44.2457 24.5016 42.3379 26.6429 41.9574 29.3954Z" fill="#1839E8" stroke="#1839E8" stroke-width="1.2"/>
</svg>
