<svg width="192" height="36" viewBox="0 0 192 36" fill="none" xmlns="http://www.w3.org/2000/svg">
<path d="M1.17406 14.5059C0.891513 13.1478 0.786695 12.0176 0.859612 11.1152C0.932528 10.2038 1.27888 9.69336 1.89867 9.58398C2.51847 9.46549 2.99698 10.1719 3.33422 11.7031C3.67146 13.2344 3.84919 14.9479 3.86742 16.8438C3.89477 18.7305 3.85375 20.0156 3.74438 20.6992C3.64412 21.3737 3.33422 21.7064 2.81469 21.6973C2.30427 21.679 1.97159 20.8177 1.81664 19.1133C1.67081 17.3997 1.45662 15.8639 1.17406 14.5059ZM3.25219 23.666C3.58943 23.666 3.80818 23.9121 3.90844 24.4043C3.90844 24.6139 3.78084 24.7871 3.52563 24.9238L3.48461 25.1973V25.2383H3.71703C4.33683 25.4297 4.64672 25.8171 4.64672 26.4004C4.64672 27.1296 4.22745 27.6445 3.38891 27.9453L3.06078 27.9863C2.1311 27.9863 1.60701 27.3984 1.48852 26.2227C1.48852 24.9466 1.95336 24.1081 2.88305 23.707L3.25219 23.666ZM8.81719 14.5059C8.53464 13.1478 8.42982 12.0176 8.50274 11.1152C8.57565 10.2038 8.92201 9.69336 9.5418 9.58398C10.1616 9.46549 10.6401 10.1719 10.9773 11.7031C11.3146 13.2344 11.4923 14.9479 11.5105 16.8438C11.5379 18.7305 11.4969 20.0156 11.3875 20.6992C11.2872 21.3737 10.9773 21.7064 10.4578 21.6973C9.9474 21.679 9.61472 20.8177 9.45977 19.1133C9.31393 17.3997 9.09974 15.8639 8.81719 14.5059ZM10.8953 23.666C11.2326 23.666 11.4513 23.9121 11.5516 24.4043C11.5516 24.6139 11.424 24.7871 11.1688 24.9238L11.1277 25.1973V25.2383H11.3602C11.98 25.4297 12.2898 25.8171 12.2898 26.4004C12.2898 27.1296 11.8706 27.6445 11.032 27.9453L10.7039 27.9863C9.77422 27.9863 9.25013 27.3984 9.13164 26.2227C9.13164 24.9466 9.59649 24.1081 10.5262 23.707L10.8953 23.666ZM16.4603 14.5059C16.1778 13.1478 16.0729 12.0176 16.1459 11.1152C16.2188 10.2038 16.5651 9.69336 17.1849 9.58398C17.8047 9.46549 18.2832 10.1719 18.6205 11.7031C18.9577 13.2344 19.1354 14.9479 19.1537 16.8438C19.181 18.7305 19.14 20.0156 19.0306 20.6992C18.9304 21.3737 18.6205 21.7064 18.1009 21.6973C17.5905 21.679 17.2578 20.8177 17.1029 19.1133C16.9571 17.3997 16.7429 15.8639 16.4603 14.5059ZM18.5384 23.666C18.8757 23.666 19.0944 23.9121 19.1947 24.4043C19.1947 24.6139 19.0671 24.7871 18.8119 24.9238L18.7709 25.1973V25.2383H19.0033C19.6231 25.4297 19.933 25.8171 19.933 26.4004C19.933 27.1296 19.5137 27.6445 18.6752 27.9453L18.347 27.9863C17.4173 27.9863 16.8933 27.3984 16.7748 26.2227C16.7748 24.9466 17.2396 24.1081 18.1693 23.707L18.5384 23.666ZM30.4882 17.2949C30.8984 17.1947 31.2265 17.3359 31.4726 17.7188C31.7187 18.0924 31.5455 19.0449 30.953 20.5762C30.3697 22.1074 30.1282 23.3607 30.2284 24.3359C30.3378 25.3021 30.6295 25.8125 31.1034 25.8672C31.6139 25.8672 31.9557 26.1315 32.1288 26.6602L32.1562 26.8516V27.002C32.1562 27.4395 31.8919 27.7585 31.3632 27.959L31.1034 27.9863C30.1099 27.9863 29.4218 27.7174 29.039 27.1797C28.6562 26.6328 28.4921 25.8171 28.5468 24.7324H28.5195C27.3984 26.4186 26.3001 27.6309 25.2245 28.3691C24.304 29.0618 23.4654 29.5996 22.7089 29.9824C22.1073 30.2923 21.7245 30.4473 21.5605 30.4473H21.328C20.7812 30.4473 20.3847 30.1875 20.1386 29.668L20.1113 29.4219V29.3125C20.1113 28.8021 20.4986 28.4147 21.2734 28.1504C22.5129 27.5579 23.4791 26.9837 24.1718 26.4277C24.8736 25.8626 25.7122 24.9785 26.6874 23.7754C27.6718 22.5632 28.4465 21.2051 29.0116 19.7012C29.5859 18.1973 30.078 17.3952 30.4882 17.2949ZM35.1372 23.8574C35.0552 24.1217 35.0233 24.4863 35.0415 24.9512C35.0597 25.4069 35.3833 25.6758 36.0122 25.7578C36.5864 25.7122 36.951 26.0449 37.1059 26.7559V27.002C36.9601 27.6673 36.5818 28 35.9712 28C34.4673 28.0091 33.6378 27.4531 33.4829 26.332C33.0818 26.9518 32.6671 27.3848 32.2388 27.6309C31.8104 27.877 31.2817 28.0137 30.6528 28.041C29.8416 27.9134 29.4634 27.5124 29.518 26.8379C29.5636 26.1634 29.9282 25.7715 30.6118 25.6621C31.6873 25.6621 32.5076 24.8145 33.0727 23.1191C33.647 21.4238 34.0936 20.4076 34.4126 20.0703C34.7316 19.7331 35.0871 19.6237 35.479 19.7422C36.2355 20.125 36.3449 20.8633 35.8071 21.957C35.4425 22.9505 35.2192 23.584 35.1372 23.8574ZM35.9165 32.9902C36.1261 32.9902 36.2811 33.1178 36.3813 33.373L36.1489 34.3027C36.0942 34.6217 34.326 35.041 30.8442 35.5605H30.7622C30.188 35.5605 29.9009 35.3236 29.9009 34.8496C29.9009 34.2572 30.2244 33.8561 30.8716 33.6465C31.7739 33.4277 33.4555 33.209 35.9165 32.9902ZM45.0909 7.36914C45.7562 7.36914 46.3213 7.80664 46.7862 8.68164V8.95508C46.7862 9.40169 46.3851 9.71159 45.583 9.88477H45.3096C44.6169 9.88477 44.1976 9.35612 44.0518 8.29883C44.0518 7.77018 44.3982 7.46029 45.0909 7.36914ZM49.3155 13.7402C49.6345 13.7402 49.8715 13.8678 50.0264 14.123L49.6709 15.0527C49.5889 15.3717 46.9001 15.791 41.6045 16.3105H41.4952C40.6202 16.3105 40.1827 16.0736 40.1827 15.5996C40.1827 15.0072 40.6748 14.6061 41.6592 14.3965C43.0355 14.1777 45.5876 13.959 49.3155 13.7402ZM41.8916 25.6211C44.4346 25.1289 46.5173 24.2174 48.1397 22.8867C49.7621 21.556 50.7282 21.5879 51.0381 22.9824V23.0234C51.0837 23.625 50.2998 24.418 48.6866 25.4023C47.0824 26.3867 44.9587 27.1296 42.3155 27.6309C39.6814 28.1322 37.6989 28.319 36.3682 28.1914C35.0375 28.0638 34.3721 27.8496 34.3721 27.5488C34.1625 27.3574 34.0577 27.1159 34.0577 26.8242C34.1853 26.1315 34.5362 25.7852 35.1104 25.7852C37.0974 26.1589 39.3578 26.1042 41.8916 25.6211ZM59.2965 14.9023H59.6656C60.1305 14.9023 60.4449 15.1849 60.609 15.75V15.9551C60.609 16.3288 60.0849 17.0534 59.0367 18.1289C56.9951 20.5443 55.9742 22.3717 55.9742 23.6113V23.9258C56.1109 25.1654 56.635 25.7852 57.5465 25.7852C58.3212 25.7852 58.7086 26.0996 58.7086 26.7285V27.043C58.7086 27.6081 58.3212 27.9271 57.5465 28C55.7874 28 54.5934 27.0293 53.9645 25.0879L53.8551 23.9258V23.7754C53.8551 21.5059 55.5276 18.6029 58.8727 15.0664L59.2965 14.9023ZM60.4455 27.3438C59.452 27.8815 58.3491 28.0957 57.1369 27.9863C56.3713 27.9043 56.0112 27.5488 56.0568 26.9199C56.1024 26.2819 56.4487 25.9128 57.0959 25.8125C58.6545 25.7852 59.7892 25.4525 60.5002 24.8145C61.2111 24.1764 61.6532 23.2513 61.8263 22.0391C62.0086 20.8268 62.3459 20.0658 62.8381 19.7559C62.8381 19.7012 62.9748 19.6693 63.2482 19.6602C64.2235 19.8516 64.5379 20.5853 64.1916 21.8613C63.8361 23.5384 63.3713 24.737 62.797 25.457C62.2228 26.168 61.439 26.7969 60.4455 27.3438ZM58.9689 32.3613C59.6343 32.3613 60.1994 32.7988 60.6642 33.6738V33.9473C60.6642 34.3939 60.2632 34.7038 59.4611 34.877H59.1877C58.495 34.877 58.0757 34.3483 57.9298 33.291C57.9298 32.7533 58.2762 32.4434 58.9689 32.3613ZM86.4368 14.1504H87.2298C87.8951 14.1504 88.2871 14.4466 88.4055 15.0391V15.2715C88.2597 15.9004 87.9772 16.2148 87.5579 16.2148H86.3001C81.7154 16.2148 77.5045 17.7096 73.6673 20.6992C72.3639 21.8841 71.7122 23.1465 71.7122 24.4863C71.7122 26.61 73.1614 28.3874 76.0598 29.8184C77.5364 30.347 79.1406 30.6113 80.8723 30.6113H81.8977C85.2337 30.6113 88.7428 29.4264 92.4251 27.0566C94.1477 25.8809 95.3782 24.2904 96.1165 22.2852L96.3079 21.6836C96.1165 21.1641 96.0208 20.5853 96.0208 19.9473C96.0937 18.4251 96.3307 17.6641 96.7317 17.6641C96.7317 17.5638 96.9505 17.4863 97.388 17.4316C98.2265 17.5775 98.6458 18.1198 98.6458 19.0586L98.6868 19.5371L98.5091 21.3965C98.664 21.7155 98.8828 21.875 99.1653 21.875C99.4479 21.2461 100.505 20.0293 102.337 18.2246C104.516 16.3835 106.434 15.4629 108.093 15.4629C109.351 15.4629 110.148 16.0872 110.486 17.3359L110.527 17.8008V18.1289C110.527 19.6875 109.109 21.3236 106.275 23.0371C104.652 23.8848 102.934 24.3086 101.12 24.3086H101.079C100.642 24.3086 100.223 24.2266 99.8216 24.0625C99.0286 25.4023 98.6048 26.0768 98.5501 26.0859H98.5091C98.0716 25.931 97.8528 25.5391 97.8528 24.9102V24.8145C97.8528 24.4863 97.9622 24.099 98.1809 23.6523L97.7981 23.4609C96.8411 26.0951 94.8769 28.2461 91.9055 29.9141C88.9615 31.5273 85.8124 32.334 82.4583 32.334C76.5338 32.334 72.5462 30.7344 70.4954 27.5352C69.9303 26.5599 69.6477 25.498 69.6477 24.3496C69.6477 20.7311 72.8743 17.7051 79.3274 15.2715C81.679 14.5241 84.0488 14.1504 86.4368 14.1504ZM100.888 22.2852V22.3398H101.12C103.472 22.3398 105.5 21.515 107.204 19.8652C108.079 19.0358 108.517 18.4115 108.517 17.9922C108.517 17.6732 108.394 17.5137 108.148 17.5137H107.997C106.667 17.5137 104.484 18.8717 101.449 21.5879L100.888 22.2852ZM115.818 14.9023H116.187C116.652 14.9023 116.967 15.1849 117.131 15.75V15.9551C117.131 16.3288 116.607 17.0534 115.558 18.1289C113.517 20.5443 112.496 22.3717 112.496 23.6113V23.9258C112.633 25.1654 113.157 25.7852 114.068 25.7852C114.843 25.7852 115.23 26.0996 115.23 26.7285V27.043C115.23 27.6081 114.843 27.9271 114.068 28C112.309 28 111.115 27.0293 110.486 25.0879L110.377 23.9258V23.7754C110.377 21.5059 112.049 18.6029 115.394 15.0664L115.818 14.9023ZM118.868 18.0605H118.895C119.706 18.0605 120.636 18.7852 121.684 20.2344C122.358 21.1003 122.769 21.6061 122.914 21.752C123.707 21.2051 124.263 20.9316 124.582 20.9316H124.829C125.193 20.9316 125.494 21.1732 125.731 21.6562C125.786 21.7747 125.813 21.9069 125.813 22.0527C125.813 22.5996 125.476 23.1966 124.801 23.8438C124.355 24.1901 123.922 24.3633 123.502 24.3633L123.01 24.2402C121.388 25.2155 120.007 25.9674 118.868 26.4961C116.552 27.4531 115.19 27.9316 114.78 27.9316C114.561 27.9772 114.265 28 113.891 28H113.795C113.33 28 112.998 27.7676 112.797 27.3027L112.743 27.002V26.8516C112.743 26.3958 113.021 26.0723 113.577 25.8809C114.406 25.8809 115.313 25.653 116.297 25.1973C118.093 24.5137 119.784 23.6797 121.37 22.6953C120.303 21.0911 119.455 20.2891 118.827 20.2891C118.407 20.2982 117.596 21.1641 116.393 22.8867C116.083 23.2786 115.832 23.4746 115.641 23.4746C115.413 23.4746 115.158 23.2194 114.875 22.709L114.821 22.3672C114.821 21.6745 115.363 20.7995 116.448 19.7422C117.478 18.6211 118.284 18.0605 118.868 18.0605ZM118.608 11.2793C119.273 11.2793 119.838 11.7168 120.303 12.5918V12.8652C120.303 13.3118 119.902 13.6217 119.1 13.7949H118.827C118.134 13.7949 117.715 13.2663 117.569 12.209C117.569 11.6803 117.915 11.3704 118.608 11.2793ZM137.503 20.002C138.296 20.0749 138.816 20.6035 139.062 21.5879C139.099 21.9342 139.103 22.2487 139.076 22.5312C138.912 24.418 137.877 26.7376 135.972 29.4902C135.362 30.3652 134.268 31.5228 132.691 32.9629C131.078 34.4303 130.043 35.2279 129.587 35.3555L129.382 35.3418C129.045 35.3145 128.776 35.0775 128.576 34.6309C128.512 34.5124 128.489 34.362 128.507 34.1797L128.521 34.125C128.567 33.6055 128.913 33.1497 129.56 32.7578C130.253 32.1654 131.005 31.4818 131.816 30.707C132.964 29.6133 133.771 28.7064 134.236 27.9863C133.042 27.4759 132.495 26.651 132.595 25.5117C132.714 24.2357 133.616 22.6953 135.302 20.8906C136.077 20.2344 136.811 19.9382 137.503 20.002ZM134.837 25.7441L135.357 26.0312C135.594 25.8672 135.977 25.1107 136.505 23.7617L136.765 22.668C135.936 23.4792 135.33 24.3724 134.947 25.3477L134.837 25.7441ZM154.485 13.8633H154.676C155.314 13.9909 155.633 14.3099 155.633 14.8203V14.9707C155.633 15.5632 155.091 15.9733 154.007 16.2012C149.677 17.9785 147.512 19.9883 147.512 22.2305C147.512 24.0443 149.422 25.334 153.241 26.0996C153.906 26.2272 154.608 26.291 155.346 26.291C158.017 26.291 161.093 25.3203 164.575 23.3789C165.541 22.7956 166.689 21.8249 168.02 20.4668C169.068 19.2363 169.592 17.8145 169.592 16.2012L169.497 14.8203C169.697 14.2461 169.984 13.959 170.358 13.959H170.645C171.21 13.959 171.529 14.3281 171.602 15.0664L171.643 15.8184V16.543C171.643 20.1523 169.273 23.2285 164.534 25.7715C161.435 27.1751 158.55 27.877 155.88 27.877H155.401C151.855 27.877 149.003 26.9974 146.842 25.2383C145.885 24.2357 145.407 23.1693 145.407 22.0391C145.407 19.0586 147.923 16.4928 152.954 14.3418L154.485 13.8633ZM187.188 0.382812C187.699 0.382812 188.049 0.669922 188.241 1.24414V1.53125C188.241 1.8776 187.781 2.47917 186.86 3.33594C181.519 6.92708 176.939 8.97331 173.12 9.47461C172.983 9.53841 172.254 9.66602 170.932 9.85742C170.458 9.85742 170.153 9.53841 170.016 8.90039V8.6543C170.016 8.31706 170.372 8.07552 171.083 7.92969C171.794 7.77474 172.623 7.59701 173.571 7.39648C174.519 7.18685 176.292 6.58073 178.889 5.57812C181.496 4.57552 184.071 2.90755 186.614 0.574219L187.188 0.382812ZM171.342 18.7578C170.941 21 170.718 22.5768 170.673 23.4883C170.627 24.3906 170.714 25.0059 170.932 25.334C171.16 25.6621 171.388 25.8125 171.616 25.7852C172.062 25.8307 172.372 26.013 172.546 26.332C172.719 26.6419 172.723 26.9609 172.559 27.2891C172.395 27.6081 172.195 27.8086 171.958 27.8906C171.73 27.9635 171.465 27.9954 171.165 27.9863C170.864 27.9681 170.527 27.8633 170.153 27.6719C169.788 27.4805 169.424 27.0293 169.059 26.3184C168.695 25.6074 168.626 24.5273 168.854 23.0781C169.082 21.6289 169.652 19.9883 170.563 18.1562C171.484 16.3151 171.743 16.5156 171.342 18.7578ZM175.636 23.8574C175.554 24.1217 175.522 24.4863 175.54 24.9512C175.558 25.4069 175.882 25.6758 176.511 25.7578C177.085 25.7122 177.45 26.0449 177.605 26.7559V27.002C177.459 27.6673 177.081 28 176.47 28C174.966 28.0091 174.137 27.4531 173.982 26.332C173.581 26.9518 173.166 27.3848 172.737 27.6309C172.309 27.877 171.78 28.0137 171.152 28.041C170.34 27.9134 169.962 27.5124 170.017 26.8379C170.062 26.1634 170.427 25.7715 171.111 25.6621C172.186 25.6621 173.006 24.8145 173.571 23.1191C174.146 21.4238 174.592 20.4076 174.911 20.0703C175.23 19.7331 175.586 19.6237 175.978 19.7422C176.734 20.125 176.844 20.8633 176.306 21.957C175.941 22.9505 175.718 23.584 175.636 23.8574ZM176.415 32.9902C176.625 32.9902 176.78 33.1178 176.88 33.373L176.648 34.3027C176.593 34.6217 174.825 35.041 171.343 35.5605H171.261C170.687 35.5605 170.4 35.3236 170.4 34.8496C170.4 34.2572 170.723 33.8561 171.37 33.6465C172.273 33.4277 173.954 33.209 176.415 32.9902ZM185.59 7.36914C186.255 7.36914 186.82 7.80664 187.285 8.68164V8.95508C187.285 9.40169 186.884 9.71159 186.082 9.88477H185.808C185.116 9.88477 184.696 9.35612 184.551 8.29883C184.551 7.77018 184.897 7.46029 185.59 7.36914ZM189.814 13.7402C190.133 13.7402 190.37 13.8678 190.525 14.123L190.17 15.0527C190.088 15.3717 187.399 15.791 182.103 16.3105H181.994C181.119 16.3105 180.681 16.0736 180.681 15.5996C180.681 15.0072 181.174 14.6061 182.158 14.3965C183.534 14.1777 186.086 13.959 189.814 13.7402ZM182.39 25.6211C184.933 25.1289 187.016 24.2174 188.638 22.8867C190.261 21.556 191.227 21.5879 191.537 22.9824V23.0234C191.582 23.625 190.799 24.418 189.185 25.4023C187.581 26.3867 185.457 27.1296 182.814 27.6309C180.18 28.1322 178.198 28.319 176.867 28.1914C175.536 28.0638 174.871 27.8496 174.871 27.5488C174.661 27.3574 174.556 27.1159 174.556 26.8242C174.684 26.1315 175.035 25.7852 175.609 25.7852C177.596 26.1589 179.857 26.1042 182.39 25.6211Z" fill="white"/>
</svg>
