<svg width="322" height="118" viewBox="0 0 322 118" fill="none" xmlns="http://www.w3.org/2000/svg">
<path d="M14.0737 56.0205C14.4747 56.0258 14.7864 56.235 15.0088 56.6482C15.0709 56.7766 15.101 56.9183 15.0989 57.0733L15.0984 57.1143C15.0952 57.3512 14.9543 57.6638 14.6757 58.0521C14.1632 58.893 13.6096 59.7425 13.0148 60.6006C12.6324 61.2518 12.0247 62.055 11.1917 63.0102C9.69884 64.9137 7.86558 67.0543 5.69192 69.4319C4.7303 70.4583 3.87524 71.354 3.12674 72.1188C2.77522 72.5061 2.54022 72.699 2.42174 72.6974C2.31165 72.7507 2.17002 72.7761 1.99686 72.7738C1.57762 72.7683 1.26167 72.5362 1.04898 72.0776C1.00499 71.9585 0.983652 71.8488 0.984983 71.7486L0.986071 71.6666C0.990425 71.3385 1.19534 71.0085 1.60082 70.6766C1.60119 70.6493 2.38146 69.8939 3.94164 68.4106C5.58554 66.8007 6.62074 65.7252 7.04723 65.1839C8.25976 63.7962 9.28893 62.4882 10.1347 61.2597C11.213 59.6879 12.2325 58.0789 13.1932 56.4327C13.4248 56.1532 13.7183 56.0158 14.0737 56.0205ZM14.7693 44.8178C15.4346 44.8266 15.9939 45.2716 16.4471 46.1527L16.4434 46.4261C16.4375 46.8727 16.0324 47.1772 15.2281 47.3397L14.9547 47.3361C14.262 47.3269 13.8498 46.7928 13.718 45.7336C13.725 45.205 14.0755 44.8997 14.7693 44.8178ZM18.1628 48.746C18.7005 48.7531 19.0521 49.0495 19.2175 49.6351L19.2286 49.8266C19.2193 50.5284 18.9088 53.6645 18.2971 59.235L17.88 63.8783C17.6266 64.4219 17.2767 64.6907 16.8301 64.6848L16.8164 64.6846C16.0884 64.5929 15.7283 64.2509 15.7362 63.6585C16.3882 59.1732 16.722 56.3428 16.7376 55.1671C16.9326 52.8361 17.0384 51.0464 17.055 49.7978C17.0621 49.2601 17.3904 48.9089 18.0398 48.7444L18.1628 48.746ZM57.3188 51.0841L57.6196 51.0881C58.212 51.096 58.5432 51.5516 58.6132 52.4549C58.9393 54.6743 59.0915 56.5996 59.0698 58.231C59.04 60.4821 58.631 62.1083 57.8429 63.1097C56.3478 65.1864 54.5674 66.7762 52.5018 67.8791C48.5972 70.179 44.4804 71.3003 40.1514 71.2429C35.9955 71.1877 32.2283 70.0074 28.8497 67.702C27.191 66.3035 26.3727 64.7795 26.3945 63.1299C26.4268 60.6965 27.9936 58.3747 31.0948 56.1643C35.5518 53.4524 39.4966 51.8913 42.9295 51.4811C43.6023 51.6085 43.9353 51.932 43.9284 52.4515L43.9244 52.7522C43.9168 53.3264 43.2192 53.6863 41.8318 53.832C41.3305 53.8253 39.7242 54.3236 37.0127 55.3268C34.7196 56.3993 32.7029 57.5985 30.9625 58.9245C29.356 60.4619 28.5445 61.8549 28.5279 63.1035C28.5093 64.5071 29.2981 65.8575 30.8943 67.1548C33.1903 68.6073 35.9287 69.3546 39.1094 69.3968L39.6425 69.4039C45.0561 69.4757 49.8913 67.7989 54.1481 64.3733C55.5699 63.0157 56.4251 61.7646 56.7137 60.6199C56.8495 60.0018 56.9245 59.1642 56.9385 58.107C56.9558 56.8037 56.7914 54.7643 56.4454 51.9886L56.446 51.9476C56.6451 51.3669 56.936 51.079 57.3188 51.0841ZM47.3315 58.7452C47.9968 58.7541 48.5561 59.199 49.0093 60.0801L49.0056 60.3535C48.9997 60.8001 48.5946 61.1046 47.7903 61.2672L47.5169 61.2635C46.8242 61.2543 46.412 60.7202 46.2802 59.661C46.2872 59.1324 46.6377 58.8272 47.3315 58.7452ZM64.526 62.3096C64.0769 61.8023 63.9644 61.0123 64.1883 59.9397C64.4213 58.8672 65.3852 57.6631 67.0802 56.3274C68.0646 55.6477 69.1026 55.0461 70.1942 54.5228C71.3863 53.9917 72.3241 53.7307 73.0076 53.7398L73.1443 53.7416C74.1377 53.7548 74.8 54.3378 75.1311 55.4908L75.1912 56.1068C75.1707 57.6562 73.8249 59.4705 71.1538 61.5498C68.4772 63.3648 66.4773 64.3227 65.1542 64.4236C64.0227 64.518 63.1991 64.4113 62.6836 64.1037C61.9948 63.812 61.4231 62.9293 60.9686 61.4557L60.8747 60.2923L60.8767 60.1419C60.9068 57.8725 62.6177 54.992 66.0094 51.5002L66.4353 51.3418L66.8045 51.3467C67.2693 51.3529 67.5799 51.6396 67.7365 52.2068L67.7338 52.4119C67.7288 52.7855 67.1951 53.5031 66.1328 54.5646C64.0593 56.9527 63.0143 58.7665 62.9978 60.0059L62.9936 60.3204C62.9518 61.4137 63.4626 62.0767 64.526 62.3096ZM72.5348 62.58C72.9808 62.6315 73.2882 62.8224 73.457 63.1528C73.6259 63.4741 73.6262 63.7977 73.4578 64.1236C73.2895 64.4404 73.0864 64.6337 72.8485 64.7035C72.6196 64.7734 72.1866 64.7813 71.5492 64.7272C70.9208 64.6824 70.1562 64.5994 69.2554 64.478C68.3639 64.3477 67.4419 64.0985 66.4897 63.7303C65.5467 63.3532 65.3972 62.941 66.0412 62.4938C66.6853 62.0466 67.475 61.9522 68.4104 62.2108C69.3551 62.4603 70.0691 62.5837 70.5522 62.581C71.0354 62.5783 71.6962 62.578 72.5348 62.58ZM66.3189 60.1184C66.1829 60.7455 66.5131 61.2832 67.3093 61.7313C68.9258 60.8138 70.2696 59.8381 71.3407 58.804C72.3762 57.7057 72.8981 56.8421 72.9064 56.2133C72.8723 56.0396 72.6867 55.946 72.3496 55.9324C71.2012 55.9172 69.5073 56.829 67.2679 58.668C66.7804 58.9988 66.4641 59.4822 66.3189 60.1184ZM87.889 39.9634C88.3994 39.9701 88.7464 40.2619 88.9302 40.8386L88.9264 41.1257C88.9217 41.4811 88.4534 42.0811 87.5215 42.9255C82.1332 46.4455 77.5264 48.4262 73.7012 48.8677C73.5637 48.9297 72.8329 49.0476 71.5088 49.2214C71.0349 49.2152 70.7339 48.8921 70.6056 48.2523L70.6087 48.0199C70.6132 47.6827 70.8726 47.3671 71.387 47.0731C71.737 46.1116 72.8078 44.7539 74.5995 43.0002C76.5297 41.1116 77.8502 40.172 78.5611 40.1814L78.8481 40.1852C79.3676 40.1921 79.8224 40.6129 80.2124 41.4476L80.2483 41.8309L80.2463 41.9813C80.2384 42.5737 79.3361 43.5963 77.5393 45.0491C76.6838 45.6394 76.0099 45.9313 75.5178 45.9247L75.4221 45.9235C75.1578 45.92 74.809 45.7558 74.3758 45.431L74.3211 45.4303C73.4257 46.2753 72.9405 46.7793 72.8654 46.9424L72.9201 46.9431C73.9681 46.957 75.9854 46.4049 78.9719 45.2869C81.9584 44.1598 84.7386 42.4465 87.3123 40.1471L87.889 39.9634ZM75.7688 64.0996C74.7683 64.6241 73.6627 64.8237 72.452 64.6982C71.6875 64.606 71.3323 64.2458 71.3862 63.6176C71.4402 62.9802 71.7914 62.6157 72.4398 62.524C73.9987 62.5174 75.1377 62.1998 75.8571 61.5712C76.5764 60.9427 77.0307 60.0235 77.22 58.8137C77.4183 57.604 77.7656 56.8474 78.2619 56.5441C78.2626 56.4894 78.3997 56.4593 78.6733 56.4539C79.6459 56.6582 79.9506 57.396 79.5873 58.6674C79.2097 60.3396 78.729 61.5319 78.1452 62.2442C77.5616 62.9475 76.7695 63.5659 75.7688 64.0996ZM77.3488 66.6227C77.6404 66.6266 77.8529 66.757 77.9862 67.014L77.6595 67.9395C77.5824 68.2484 75.6729 68.5831 71.9308 68.9436L71.8351 68.9423C71.0422 68.9318 70.6489 68.6896 70.6552 68.2157C70.6632 67.6142 71.1151 67.2191 72.0109 67.0305L77.3488 66.6227ZM85.1218 49.6345C85.6595 49.6417 86.011 49.938 86.1765 50.5236L86.1876 50.7152C86.1783 51.4169 85.8678 54.5531 85.256 60.1236L84.8389 64.7669C84.5856 65.3104 84.2356 65.5792 83.7891 65.5733L83.7754 65.5731C83.0474 65.4814 82.6873 65.1394 82.6952 64.547C83.3472 60.0618 83.681 57.2313 83.6966 56.0556C83.8916 53.7247 83.9974 51.9349 84.0139 50.6863C84.0211 50.1486 84.3493 49.7975 84.9987 49.6329L85.1218 49.6345ZM95.1135 57.0959C95.5145 57.1012 95.8262 57.3104 96.0486 57.7236C96.1107 57.852 96.1407 57.9937 96.1387 58.1486L96.1381 58.1897C96.135 58.4266 95.9941 58.7392 95.7155 59.1275C95.203 59.9684 94.6493 60.8179 94.0546 61.676C93.6722 62.3272 93.0645 63.1304 92.2314 64.0856C90.7386 65.9891 88.9053 68.1297 86.7317 70.5073C85.77 71.5337 84.915 72.4294 84.1665 73.1942C83.815 73.5815 83.58 73.7744 83.4615 73.7728C83.3514 73.8261 83.2098 73.8515 83.0366 73.8492C82.6174 73.8437 82.3014 73.6116 82.0887 73.153C82.0447 73.0339 82.0234 72.9242 82.0247 72.824L82.0258 72.742C82.0302 72.4139 82.2351 72.0839 82.6406 71.752C82.6409 71.7246 83.4212 70.9693 84.9814 69.486C86.6253 67.8761 87.6605 66.8006 88.087 66.2593C89.2995 64.8716 90.3287 63.5636 91.1745 62.3351C92.2527 60.7633 93.2722 59.1543 94.2329 57.5081C94.4645 57.2286 94.758 57.0912 95.1135 57.0959ZM123.089 52.9687C123.844 53.0881 124.217 53.4622 124.209 54.0911C124.165 57.3811 123.364 59.7314 121.804 61.1418C120.282 62.5527 118.54 63.6007 116.581 64.2857C114.411 65.0134 112.15 65.3617 109.798 65.3305C105.232 65.2699 102.447 64.2759 101.443 62.3483C101.24 61.7987 101.142 61.3507 101.146 61.0044C101.168 59.3366 102.411 57.7624 104.873 56.282C105.91 55.767 106.986 55.3666 108.102 55.0806C109.858 54.6937 111.346 54.5083 112.567 54.5245C113.032 54.5307 113.37 54.8451 113.58 55.4677L113.575 55.8505C113.568 56.3791 113.208 56.7162 112.495 56.8617L111.771 56.852C108.936 56.8144 106.542 57.5803 104.589 59.1495C103.73 59.9767 103.298 60.6501 103.291 61.1696C103.274 62.3908 104.932 63.1512 108.265 63.4506L109.959 63.5005L109.987 63.5008C114.279 63.5578 117.821 62.1782 120.611 59.3621C121.407 58.4429 121.822 56.7439 121.855 54.2649C121.862 53.6725 122.109 53.2702 122.595 53.0578C122.751 52.9961 122.916 52.9664 123.089 52.9687ZM121.351 47.9413C121.67 47.9455 121.905 48.0762 122.056 48.3335L121.689 49.2584C121.602 49.5763 118.908 49.9598 113.606 50.409L113.497 50.4076C112.622 50.396 112.188 50.1532 112.194 49.6793C112.202 49.0869 112.699 48.6924 113.686 48.4959C115.065 48.2954 117.62 48.1105 121.351 47.9413ZM130.603 57.5668C131.004 57.5721 131.315 57.7814 131.538 58.1945C131.6 58.323 131.63 58.4646 131.628 58.6196L131.627 58.6606C131.624 58.8975 131.483 59.2102 131.205 59.5984C130.692 60.4394 130.138 61.2889 129.544 62.1469C129.161 62.7982 128.554 63.6014 127.72 64.5565C126.228 66.4601 124.394 68.6007 122.221 70.9783C121.259 72.0047 120.404 72.9003 119.656 73.6652C119.304 74.0525 119.069 74.2453 118.951 74.2438C118.84 74.297 118.699 74.3225 118.526 74.3202C118.106 74.3146 117.79 74.0825 117.578 73.6239C117.534 73.5048 117.512 73.3952 117.514 73.2949L117.515 73.2129C117.519 72.8848 117.724 72.5548 118.13 72.2229C118.13 72.1956 118.91 71.4402 120.47 69.9569C122.114 68.3471 123.15 67.2715 123.576 66.7303C124.789 65.3426 125.818 64.0345 126.664 62.806C127.742 61.2343 128.761 59.6253 129.722 57.979C129.954 57.6995 130.247 57.5621 130.603 57.5668ZM134.629 64.279C135.041 63.4732 135.902 63.1565 137.212 63.3289C137.658 63.3804 137.966 63.5713 138.134 63.9017C138.303 64.223 138.336 64.5333 138.231 64.8327C138.136 65.1323 137.937 65.3484 137.635 65.4811C137.332 65.6047 136.653 65.6322 135.596 65.5635C134.54 65.5039 134.217 65.0757 134.629 64.279ZM136.127 57.5581C136.919 57.6415 137.431 58.177 137.664 59.1646C137.696 59.5114 137.696 59.8259 137.665 60.108C137.476 61.9924 136.411 64.2981 134.47 67.0252C133.847 67.892 132.738 69.035 131.143 70.454C129.51 71.8999 128.465 72.6837 128.008 72.8052L127.803 72.7888C127.466 72.757 127.2 72.5165 127.006 72.0672C126.943 71.9479 126.923 71.7972 126.943 71.6152L126.958 71.5607C127.01 71.0418 127.362 70.5907 128.015 70.2074C128.715 69.6242 129.476 68.9507 130.298 68.1868C131.46 67.1083 132.326 66.1217 132.894 65.2268C131.715 64.7189 131.197 63.9236 131.339 62.8407C131.346 61.674 132.204 60.1996 133.914 58.4175C134.697 57.7716 135.435 57.4851 136.127 57.5581ZM133.754 62.2438C133.537 62.7879 133.647 63.1038 134.083 63.1916C134.322 63.0307 134.654 62.4016 135.079 61.3043L135.353 60.2141C134.513 61.0142 133.98 61.6908 133.754 62.2438ZM150.428 56.5857C151.713 56.6027 152.539 57.1971 152.906 58.3687C152.994 58.6707 153.035 58.9538 153.032 59.2181C153.01 60.8768 151.675 62.5318 149.028 64.183C147.163 65.2703 145.133 65.7994 142.936 65.7703C142.59 65.7657 142.158 65.6779 141.641 65.507L140.369 67.5547C140.323 67.5997 140.273 67.6218 140.218 67.6211C140.008 67.6183 139.812 67.324 139.628 66.7382L139.579 66.3137C139.603 65.9129 139.731 65.4907 139.965 65.0472C139.91 65.0465 139.77 64.9762 139.544 64.8365C139.136 65.3415 138.613 65.5898 137.975 65.5814L137.497 65.5887L137.223 65.5851C136.731 65.5785 136.406 65.3418 136.248 64.8748C136.213 64.7649 136.196 64.6736 136.197 64.6007L136.199 64.464C136.203 64.145 136.439 63.8838 136.907 63.6803C137.399 63.6413 137.646 63.5898 137.647 63.5261C137.803 63.437 137.911 63.2561 137.969 62.9834C138.027 62.7016 138.107 62.215 138.207 61.5235C138.316 60.8322 138.493 60.2011 138.738 59.63C138.992 59.0591 139.392 58.7636 139.939 58.7435C140.487 58.7143 140.848 58.9561 141.024 59.4689C141.199 59.9726 141.174 60.5192 140.947 61.1087C140.73 61.6983 140.504 62.2149 140.27 62.6584C140.358 62.8966 140.515 63.0719 140.742 63.1843L140.973 63.242C141.327 62.6725 142.004 61.8519 143.002 60.7805C143.871 59.9169 144.567 59.2835 145.092 58.8803C147.146 57.3306 148.924 56.5657 150.428 56.5857ZM142.759 63.7033L142.758 63.7169L143.209 63.7366C145.579 63.768 147.677 62.9254 149.505 61.2086C150.187 60.6342 150.623 60.1113 150.811 59.6398C150.868 59.4856 150.897 59.3538 150.898 59.2445L150.9 59.1488C150.903 58.8663 150.778 58.7233 150.523 58.7199L150.359 58.7177C149.21 58.7025 147.342 59.7123 144.753 61.7471C143.841 62.4916 143.176 63.1437 142.759 63.7033ZM165.624 59.2758C167.246 59.2973 168.3 59.9038 168.786 61.0953C168.918 61.4525 169.013 62.1967 169.07 63.3277C169.121 63.6292 169.256 63.7814 169.475 63.7843C170.064 64.0383 170.356 64.3748 170.35 64.7941L170.347 64.9991C170.34 65.5642 170.002 65.9243 169.335 66.0795L168.556 66.0692C167.817 66.0594 167.338 65.7796 167.117 65.2297C166.911 64.9718 166.756 63.9397 166.653 62.1335C166.523 61.603 166.262 61.3352 165.87 61.33L165.665 61.3L165.488 61.2976C164.057 61.2786 162.315 62.363 160.262 64.5508C159.549 65.4347 159.13 66.09 159.006 66.5168L159.047 66.5173L159.526 66.4553L159.622 66.4566C160.359 66.5757 160.723 66.9361 160.715 67.5376L160.742 67.5789L160.742 67.6063C160.73 68.4721 160.041 68.8959 158.674 68.8778C157.589 68.8634 156.921 68.3896 156.669 67.4565L156.633 67.1005L156.637 66.7998C156.654 65.5239 157.898 63.7902 160.37 61.5989C162.332 60.0297 164.084 59.2554 165.624 59.2758ZM172.503 65.3832C171.502 65.9078 170.396 66.1073 169.186 65.9819C168.421 65.8897 168.066 65.5295 168.12 64.9012C168.174 64.2639 168.525 63.8993 169.174 63.8077C170.732 63.801 171.871 63.4834 172.591 62.8549C173.31 62.2264 173.764 61.3072 173.954 60.0973C174.152 58.8876 174.499 58.1311 174.996 57.8278C174.996 57.7731 175.133 57.743 175.407 57.7375C176.38 57.9418 176.684 58.6797 176.321 59.951C175.943 61.6232 175.463 62.8155 174.879 63.5279C174.295 64.2311 173.503 64.8496 172.503 65.3832ZM170.96 70.3808C171.625 70.3896 172.184 70.8346 172.637 71.7157L172.634 71.9891C172.628 72.4356 172.223 72.7402 171.418 72.9027L171.145 72.8991C170.452 72.8899 170.04 72.3557 169.908 71.2966C169.915 70.7589 170.266 70.4536 170.96 70.3808ZM187.743 59.5693C189.365 59.5908 190.419 60.1973 190.905 61.3888C191.037 61.746 191.132 62.4902 191.19 63.6213C191.24 63.9227 191.375 64.0749 191.594 64.0778C192.183 64.3318 192.475 64.6684 192.469 65.0876L192.466 65.2927C192.459 65.8577 192.121 66.2178 191.454 66.3731L190.675 66.3627C189.936 66.3529 189.457 66.0731 189.237 65.5233C189.03 65.2653 188.875 64.2332 188.772 62.427C188.642 61.8966 188.381 61.6288 187.989 61.6236L187.785 61.5935L187.607 61.5911C186.176 61.5721 184.434 62.6565 182.382 64.8443C181.668 65.7282 181.249 66.3835 181.125 66.8103L181.166 66.8108L181.645 66.7488L181.741 66.7501C182.478 66.8692 182.842 67.2296 182.834 67.8311L182.861 67.8725L182.861 67.8998C182.849 68.7656 182.16 69.1894 180.793 69.1713C179.708 69.1569 179.04 68.6832 178.788 67.75L178.752 67.3941L178.756 67.0933C178.773 65.8174 180.017 64.0837 182.489 61.8924C184.452 60.3232 186.203 59.5489 187.743 59.5693ZM196.021 62.2087C195.936 62.4719 195.899 62.836 195.911 63.3011C195.923 63.757 196.243 64.0302 196.871 64.1205C197.446 64.0826 197.806 64.4201 197.951 65.133L197.948 65.3791C197.794 66.0424 197.411 66.3701 196.8 66.362C195.296 66.3511 194.474 65.7842 194.334 64.6611C193.925 65.2755 193.505 65.703 193.073 65.9433C192.641 66.1837 192.111 66.3134 191.482 66.3324C190.672 66.1941 190.299 65.788 190.363 65.1143C190.418 64.4405 190.787 64.0535 191.472 63.9532C192.548 63.9674 193.379 63.1307 193.967 61.4431C194.564 59.7555 195.024 58.7453 195.347 58.4123C195.67 58.0793 196.027 57.9747 196.418 58.0984C197.169 58.4912 197.269 59.2308 196.716 60.3174C196.339 61.3059 196.107 61.9364 196.021 62.2087ZM200.705 53.4107C200.942 53.4138 201.113 53.5437 201.219 53.8004L200.947 54.7265C200.888 55.0448 199.29 55.2834 196.152 55.4423L196.07 55.4412C195.432 55.4327 195.116 55.1915 195.123 54.7176C195.13 54.1252 195.496 53.729 196.219 53.5289L200.705 53.4107ZM201.513 63.6215C202.184 63.8765 202.779 64.0531 203.297 64.1511C203.815 64.2491 204.462 64.276 205.237 64.2315C205.683 64.283 205.991 64.474 206.16 64.8044C206.329 65.1257 206.361 65.436 206.257 65.7354C206.162 66.035 205.963 66.2511 205.66 66.3838C205.358 66.5074 204.965 66.5341 204.483 66.4639C204.001 66.4028 203.35 66.3167 202.531 66.2056C201.722 66.0855 201.059 65.8624 200.544 65.5366C200.038 65.2108 199.907 64.7488 200.152 64.1504C200.397 63.5429 200.851 63.3666 201.513 63.6215ZM204.24 56.9442L204.76 56.9511C205.872 56.9659 206.491 57.6897 206.618 59.1225C206.581 61.9386 204.299 64.2282 199.772 65.9912C198.957 66.2539 198.035 66.3784 197.005 66.3647L196.65 66.36C195.968 66.196 195.631 65.8861 195.637 65.4304L195.641 65.116C195.649 64.5145 196.064 64.1782 196.885 64.107C197.769 64.1188 198.435 64.0592 198.884 63.9285L198.884 63.8874C198.616 63.4646 198.485 63.0527 198.49 62.6516L198.494 62.3919C198.508 61.2891 199.585 59.8222 201.724 57.991C202.636 57.283 203.475 56.9341 204.24 56.9442ZM200.287 62.2106L200.284 62.4704C200.279 62.8076 200.426 63.083 200.724 63.2966C201.558 62.9795 202.575 62.241 203.775 61.081C204.295 60.4134 204.557 59.9064 204.561 59.5601C204.563 59.4325 204.464 59.2944 204.266 59.1459L204.211 59.1452C203.528 59.1361 202.341 59.9408 200.651 61.5591C200.411 61.8203 200.29 62.0374 200.287 62.2106ZM204.88 51.0186C205.545 51.0274 206.104 51.4724 206.557 52.3535L206.554 52.6269C206.548 53.0735 206.143 53.378 205.338 53.5405L205.065 53.5369C204.372 53.5277 203.96 52.9936 203.828 51.9344C203.835 51.4058 204.186 51.1006 204.88 51.0186ZM211.026 58.6887C212.302 58.7057 214.26 58.8866 216.899 59.2315C219.117 59.6347 220.218 60.5335 220.199 61.9279C220.183 63.1309 219.39 64.1915 217.819 65.1095C217.165 65.5748 215.816 65.9215 213.771 66.1496C212.867 66.2835 211.918 66.3438 210.925 66.3306C209.932 66.2901 209.436 66.2516 209.436 66.2152C208.093 66.4708 206.647 66.5564 205.098 66.4721C204.435 66.3357 204.075 65.9754 204.019 65.3913C203.954 64.7979 204.314 64.4381 205.1 64.3118C205.665 64.3101 206.08 64.2974 206.344 64.2736C206.255 64.1357 206.211 63.9984 206.213 63.8616C206.226 62.8682 206.824 61.8051 208.006 60.6723C208.725 60.0346 209.442 59.5975 210.156 59.3608C210.363 58.9078 210.653 58.6838 211.026 58.6887ZM215.15 61.1773C215.212 61.2784 215.243 61.3927 215.241 61.5203C215.233 62.1583 214.816 62.9822 213.991 63.9922C215.005 63.8872 215.85 63.6933 216.529 63.4106C217.557 62.8226 218.075 62.3099 218.08 61.8725C218.083 61.6902 217.397 61.4805 216.024 61.2436L215.151 61.1362L215.15 61.1773ZM208.275 64.0804C208.272 64.29 208.439 64.3971 208.777 64.4016C209.834 64.4156 211.027 63.7934 212.356 62.5348C212.865 61.9764 213.121 61.6152 213.123 61.4512C212.907 61.2478 212.534 61.1425 212.006 61.1355C210.62 61.1172 209.462 61.8492 208.531 63.3318C208.363 63.6395 208.277 63.889 208.275 64.0804ZM238.765 52.7809L238.957 52.7834C239.593 52.9195 239.908 53.2427 239.901 53.7531L239.899 53.9034C239.891 54.4958 239.343 54.8988 238.256 55.1122C233.903 56.832 231.712 58.8128 231.682 61.0548C231.658 62.8685 233.55 64.1834 237.359 64.9996C238.023 65.136 238.724 65.2092 239.462 65.219C242.132 65.2544 245.221 64.3246 248.728 62.4295C249.702 61.8591 250.863 60.9037 252.212 59.5634C253.276 58.347 253.819 56.9322 253.84 55.319L253.763 53.937C253.971 53.3655 254.262 53.0822 254.636 53.0872L254.923 53.091C255.488 53.0985 255.802 53.4718 255.865 54.211L255.896 54.9635L255.887 55.688C255.839 59.2971 253.428 62.3415 248.655 64.8214C245.538 66.1838 242.644 66.8473 239.974 66.8118L239.495 66.8055C235.95 66.7584 233.109 65.8411 230.973 64.0535C230.029 63.0383 229.565 61.9656 229.58 60.8355C229.619 57.8553 232.169 55.3231 237.228 53.239L238.765 52.7809ZM271.645 39.7355C272.155 39.7423 272.502 40.034 272.686 40.6108L272.682 40.8978C272.677 41.2442 272.209 41.8396 271.277 42.684C265.889 46.204 261.282 48.1893 257.457 48.6399C257.319 48.7018 256.588 48.8198 255.264 48.9936C254.79 48.9873 254.489 48.6643 254.361 48.0245L254.364 47.7784C254.369 47.4412 254.728 47.2044 255.44 47.068C256.153 46.9225 256.985 46.7558 257.935 46.5679C258.886 46.3709 260.667 45.7883 263.277 44.8203C265.897 43.8523 268.494 42.2187 271.068 39.9193L271.645 39.7355ZM255.556 57.8987C255.126 60.1353 254.881 61.709 254.824 62.6198C254.766 63.5215 254.845 64.1378 255.059 64.4688C255.283 64.7999 255.508 64.9533 255.737 64.929C256.183 64.9805 256.49 65.1669 256.659 65.4882C256.828 65.8003 256.828 66.1194 256.66 66.4453C256.492 66.7621 256.288 66.96 256.05 67.0388C255.822 67.1087 255.557 67.1371 255.256 67.124C254.956 67.1018 254.62 66.9925 254.249 66.7962C253.887 66.5999 253.528 66.144 253.173 65.4282C252.818 64.7125 252.764 63.6316 253.011 62.1856C253.258 60.7395 253.849 59.1066 254.785 57.2868C255.73 55.458 255.987 55.662 255.556 57.8987ZM259.065 66.5319C258.065 67.0564 256.959 67.256 255.748 67.1305C254.984 67.0384 254.629 66.6781 254.683 66.0499C254.737 65.4125 255.088 65.048 255.736 64.9564C257.295 64.9497 258.434 64.6321 259.153 64.0036C259.873 63.375 260.327 62.4559 260.516 61.246C260.715 60.0363 261.062 59.2798 261.558 58.9764C261.559 58.9218 261.696 58.8917 261.97 58.8862C262.942 59.0905 263.247 59.8283 262.884 61.0997C262.506 62.7719 262.025 63.9642 261.442 64.6766C260.858 65.3798 260.066 65.9983 259.065 66.5319ZM260.645 69.0551C260.937 69.0589 261.149 69.1894 261.283 69.4464L260.956 70.3718C260.879 70.6807 258.969 71.0154 255.227 71.3759L255.131 71.3747C254.339 71.3642 253.945 71.1219 253.952 70.648C253.96 70.0465 254.411 69.6514 255.307 69.4628L260.645 69.0551ZM34.6182 80.1819C35.2968 80.5647 35.5279 81.0098 35.3115 81.5174C35.0952 82.0159 34.0736 83.4426 32.2466 85.7974C30.4288 88.1524 29.4598 90.7648 29.3397 93.6346L29.3315 94.2497C29.2741 99.2624 31.4008 102.827 35.7116 104.945C36.2355 105.307 36.4939 105.753 36.4869 106.281L36.4857 106.377C36.5212 107.134 36.1605 107.526 35.4036 107.552C34.6465 107.588 33.4975 106.934 31.9566 105.592C30.4247 104.259 29.1223 102.455 28.0496 100.181C26.9858 97.9149 26.6131 95.4306 26.9316 92.7275C27.25 90.0245 28.4411 87.1644 30.5047 84.1472C32.5776 81.1211 33.9488 79.7993 34.6182 80.1819ZM42.2161 90.811C42.8815 90.8199 43.4407 91.2648 43.8939 92.1459L43.8903 92.4193C43.8843 92.8659 43.4792 93.1704 42.6749 93.333L42.4015 93.3293C41.7089 93.3201 41.2966 92.786 41.1648 91.7269C41.1719 91.1983 41.5223 90.893 42.2161 90.811ZM42.211 96.3486C42.8763 96.3574 43.4356 96.8024 43.8888 97.6834L43.8851 97.9569C43.8792 98.4034 43.4741 98.708 42.6698 98.8705L42.3964 98.8669C41.7037 98.8577 41.2915 98.3235 41.1597 97.2644C41.1667 96.7358 41.5172 96.4305 42.211 96.3486ZM60.5098 89.8506C60.9212 89.7557 61.2475 89.9014 61.4885 90.2874C61.7296 90.6643 61.5438 91.6144 60.9311 93.1377C60.3275 94.6611 60.0693 95.911 60.1566 96.8875C60.2532 97.855 60.538 98.3693 61.0112 98.4302C61.5216 98.437 61.8599 98.7058 62.026 99.2367L62.0508 99.4285L62.0488 99.5789C62.043 100.016 61.7745 100.332 61.2432 100.525L60.9831 100.549C59.9897 100.536 59.3052 100.258 58.9295 99.7152C58.554 99.1633 58.4008 98.3455 58.4699 97.2616L58.4425 97.2613C57.2992 98.9325 56.1849 100.13 55.0996 100.854C54.17 101.534 53.3244 102.061 52.5628 102.434C51.9572 102.736 51.5724 102.885 51.4083 102.883L51.1759 102.88C50.6291 102.873 50.2361 102.608 49.9969 102.085L49.9728 101.839L49.9743 101.729C49.9811 101.219 50.3735 100.837 51.1517 100.583C52.3991 100.007 53.3727 99.4455 54.0728 98.8988C54.782 98.343 55.6322 97.4701 56.6234 96.28C57.6237 95.081 58.4164 93.7333 59.0014 92.237C59.5956 90.7408 60.0983 89.9454 60.5098 89.8506ZM65.6312 96.4816C65.5457 96.7448 65.509 97.1089 65.521 97.574C65.5332 98.0299 65.8532 98.3031 66.481 98.3934C67.0557 98.3555 67.4159 98.693 67.5614 99.4059L67.5581 99.652C67.4035 100.315 67.0208 100.643 66.4102 100.635C64.9063 100.624 64.0843 100.057 63.9443 98.934C63.535 99.5485 63.1146 99.9759 62.683 100.216C62.2514 100.457 61.721 100.586 61.0918 100.605C60.2823 100.467 59.9094 100.061 59.9731 99.3872C60.0276 98.7134 60.3973 98.3264 61.0823 98.2261C62.1577 98.2403 62.9892 97.4037 63.5768 95.716C64.1734 94.0284 64.6335 93.0182 64.957 92.6852C65.2804 92.3522 65.6373 92.2476 66.0276 92.3713C66.779 92.7641 66.8786 93.5037 66.3263 94.5903C65.9486 95.5788 65.7169 96.2093 65.6312 96.4816ZM66.2893 105.624C66.4989 105.627 66.6522 105.756 66.749 106.013L66.5043 106.939C66.4454 107.258 64.6717 107.653 61.1834 108.127L61.1013 108.126C60.5272 108.118 60.2432 107.877 60.2495 107.403C60.2574 106.811 60.5862 106.414 61.2361 106.213C62.1413 106.006 63.8257 105.81 66.2893 105.624ZM70.9218 96.5518C70.8363 96.815 70.7995 97.1791 70.8116 97.6442C70.8238 98.1001 71.1437 98.3733 71.7715 98.4636C72.3463 98.4257 72.7064 98.7632 72.8519 99.4761L72.8487 99.7222C72.694 100.386 72.3114 100.713 71.7007 100.705C70.1968 100.694 69.3749 100.127 69.2348 99.0042C68.8256 99.6187 68.4052 100.046 67.9735 100.286C67.5419 100.527 67.0115 100.657 66.3823 100.676C65.5729 100.537 65.2 100.131 65.2636 99.4574C65.3181 98.7836 65.6879 98.3966 66.3729 98.2963C67.4483 98.3106 68.2798 97.4739 68.8673 95.7862C69.464 94.0986 69.924 93.0884 70.2475 92.7554C70.571 92.4224 70.9278 92.3178 71.3182 92.4415C72.0695 92.8343 72.1691 93.5739 71.6169 94.6605C71.2391 95.649 71.0074 96.2795 70.9218 96.5518ZM70.7565 85.3103C71.4218 85.3192 71.981 85.7641 72.4342 86.6452L72.4306 86.9186C72.4247 87.3652 72.0196 87.6698 71.2153 87.8323L70.9418 87.8286C70.2492 87.8195 69.837 87.2853 69.7052 86.2262C69.7122 85.6976 70.0626 85.3923 70.7565 85.3103ZM77.0655 90.0292C76.8273 88.7499 76.8651 87.9619 77.1789 87.6653C77.502 87.3597 77.8304 87.3458 78.1639 87.6237C78.4976 87.8924 78.7975 88.6484 79.0636 89.8917C79.3297 91.1349 79.359 92.7031 79.1516 94.5964C78.9443 96.4805 78.1226 97.9509 76.6866 99.0074C75.2598 100.055 73.648 100.622 71.8511 100.707C71.0774 100.624 70.6943 100.3 70.7018 99.7347L70.706 99.4203C70.7143 98.7914 71.1058 98.4821 71.8805 98.4924C72.9924 98.5072 74.1241 98.0573 75.2757 97.1428C76.4365 96.2193 77.0846 95.1204 77.22 93.8461C77.3645 92.5718 77.313 91.2996 77.0655 90.0292ZM90.0032 75.3793C90.5136 75.3861 90.8607 75.6778 91.0445 76.2545L91.0406 76.5416C91.0359 76.897 89.9036 77.7389 87.6436 79.0671C85.3928 80.3863 83.5695 81.4331 82.1737 82.2076C80.778 82.9731 79.677 83.5099 78.8708 83.8183C78.0737 84.1176 77.6019 83.9564 77.4552 83.3346C77.3177 82.7038 77.6343 82.2021 78.4049 81.8295C79.1848 81.4479 80.5472 80.7869 82.4921 79.8464C84.4372 78.8969 86.7487 77.4691 89.4265 75.5631L90.0032 75.3793ZM95.4161 93.021C95.7807 93.0259 96.4231 93.3853 97.3434 94.0994C98.0548 94.7561 98.4772 95.2083 98.6106 95.4562C99.0038 96.0539 99.1953 96.7356 99.1851 97.5011C99.1711 98.5583 98.7502 99.364 97.9225 99.9182C96.7281 100.622 95.133 100.961 93.1371 100.935L92.5903 100.928C90.7128 100.903 89.5526 100.751 89.1097 100.471C88.8467 100.367 88.5533 100.154 88.2294 99.8306C87.8256 99.3512 87.6275 98.8244 87.6351 98.2503C87.6465 97.3936 88.1218 96.6069 89.0611 95.8901C89.7431 95.3249 90.4054 94.8733 91.048 94.5355C91.6726 94.1791 92.4243 93.8564 93.3032 93.5673C94.0539 93.322 94.5159 93.2005 94.689 93.2028L94.8121 93.2044L95.0459 93.0982C95.1742 93.0452 95.2976 93.0195 95.4161 93.021ZM95.2115 95.0419C95.1194 95.1136 94.8448 95.2011 94.3877 95.3045C93.4724 95.584 92.6981 95.8928 92.0646 96.2307C91.4588 96.5509 90.7871 97.0205 90.0497 97.6397C89.7636 97.9002 89.6195 98.1171 89.6172 98.2903L89.617 98.3039C89.6147 98.4771 89.8041 98.63 90.1852 98.7627C90.3483 98.8378 91.1769 98.8989 92.6712 98.9461L92.931 98.9495C94.7811 98.9741 96.1244 98.7184 96.961 98.1826C97.1184 98.0024 97.1988 97.7801 97.2023 97.5158L97.2036 97.4201C97.2095 96.9736 97.0416 96.5794 96.6997 96.2376C96.3042 95.8221 95.9889 95.5354 95.754 95.3773L95.2115 95.0419ZM105.659 90.8052L105.728 90.8061C106.265 90.8132 106.715 91.2886 107.076 92.2323C107.993 93.8944 108.441 95.4818 108.421 96.9947C108.401 98.535 107.81 99.7668 106.649 100.69C105.598 101.597 104.306 102.428 102.774 103.182C100.454 104.236 99.066 104.76 98.6103 104.754C97.9194 104.617 97.5772 104.298 97.5839 103.797L97.5875 103.523C97.5948 102.977 98.0503 102.65 98.9541 102.543C100.354 102.115 101.578 101.635 102.624 101.102C103.725 100.56 104.847 99.7776 105.991 98.7537C106.417 98.2762 106.634 97.7458 106.641 97.1625L106.642 97.1352C106.656 96.0962 105.998 94.4513 104.67 92.2004L104.62 91.8306C104.739 91.1394 105.085 90.7976 105.659 90.8052ZM117.111 88.2089L117.48 88.2138C117.945 88.2199 118.255 88.5066 118.412 89.0739L118.409 89.2789C118.404 89.6526 117.871 90.3702 116.808 91.4317C114.735 93.8198 113.69 95.6335 113.673 96.873L113.669 97.1874C113.789 98.4287 114.305 99.0554 115.217 99.0675C115.991 99.0778 116.374 99.3973 116.366 100.026L116.362 100.341C116.354 100.906 115.963 101.22 115.187 101.282C113.428 101.259 112.247 100.272 111.644 98.3228L111.55 97.1593L111.552 97.0089C111.582 94.7396 113.293 91.859 116.685 88.3673L117.111 88.2089ZM120.077 98.5441C120.749 98.7991 121.343 98.9756 121.862 99.0736C122.38 99.1717 123.027 99.1985 123.802 99.1541C124.248 99.2056 124.555 99.3965 124.724 99.7269C124.893 100.048 124.926 100.359 124.821 100.658C124.726 100.958 124.527 101.174 124.225 101.306C123.922 101.43 123.53 101.457 123.048 101.386C122.565 101.325 121.915 101.239 121.096 101.128C120.286 101.008 119.624 100.785 119.109 100.459C118.602 100.133 118.472 99.6713 118.717 99.0729C118.962 98.4654 119.415 98.2892 120.077 98.5441ZM122.805 91.8668L123.324 91.8737C124.436 91.8884 125.056 92.6122 125.182 94.045C125.145 96.8611 122.863 99.1507 118.337 100.914C117.522 101.176 116.6 101.301 115.57 101.287L115.214 101.283C114.533 101.118 114.195 100.809 114.201 100.353L114.206 100.039C114.213 99.437 114.628 99.1007 115.449 99.0296C116.334 99.0413 117 98.9818 117.448 98.851L117.449 98.81C117.181 98.3871 117.05 97.9752 117.055 97.5742L117.058 97.3144C117.073 96.2117 118.15 94.7447 120.289 92.9136C121.201 92.2055 122.039 91.8566 122.805 91.8668ZM118.852 97.1331L118.848 97.3929C118.844 97.7301 118.991 98.0055 119.289 98.2191C120.122 97.902 121.139 97.1635 122.34 96.0035C122.859 95.3359 123.121 94.8289 123.126 94.4826C123.127 94.355 123.029 94.217 122.83 94.0685L122.776 94.0677C122.092 94.0587 120.906 94.8633 119.216 96.4817C118.976 96.7428 118.854 96.96 118.852 97.1331ZM123.444 85.9411C124.109 85.95 124.669 86.3949 125.122 87.276L125.118 87.5494C125.112 87.996 124.707 88.3005 123.903 88.4631L123.63 88.4594C122.937 88.4502 122.525 87.9161 122.393 86.857C122.4 86.3284 122.75 86.0231 123.444 85.9411ZM128.284 97.313C128.198 97.5762 128.162 97.9403 128.174 98.4054C128.186 98.8613 128.506 99.1345 129.134 99.2248C129.708 99.1869 130.069 99.5244 130.214 100.237L130.211 100.483C130.056 101.147 129.674 101.474 129.063 101.466C127.559 101.455 126.737 100.888 126.597 99.7654C126.188 100.38 125.767 100.807 125.336 101.048C124.904 101.288 124.374 101.418 123.744 101.437C122.935 101.298 122.562 100.892 122.626 100.219C122.68 99.5448 123.05 99.1578 123.735 99.0575C124.81 99.0717 125.642 98.235 126.229 96.5474C126.826 94.8598 127.286 93.8496 127.61 93.5166C127.933 93.1836 128.29 93.079 128.68 93.2027C129.432 93.5955 129.531 94.3351 128.979 95.4217C128.601 96.4102 128.37 97.0407 128.284 97.313ZM132.967 88.515C133.204 88.5181 133.376 88.648 133.482 88.9047L133.21 89.8308C133.151 90.1491 131.553 90.3877 128.415 90.5466L128.333 90.5455C127.695 90.537 127.379 90.2958 127.385 89.8219C127.393 89.2295 127.758 88.8333 128.481 88.6332L132.967 88.515ZM135.752 99.1759C138.301 98.7175 140.396 97.8338 142.036 96.5247C143.676 95.2156 144.641 95.2603 144.933 96.6588L144.932 96.6999C144.97 97.302 144.175 98.0845 142.549 99.0474C140.932 100.01 138.799 100.725 136.149 101.191C133.509 101.657 131.524 101.818 130.195 101.673C128.866 101.527 128.204 101.304 128.208 101.004C128.001 100.81 127.899 100.567 127.903 100.275C128.04 99.584 128.395 99.2424 128.969 99.25C130.951 99.65 133.212 99.6253 135.752 99.1759ZM151.412 86.5174C151.949 86.5245 152.301 86.8208 152.466 87.4064L152.477 87.598C152.468 88.2998 152.158 91.4359 151.546 97.0064L151.129 101.65C150.875 102.193 150.526 102.462 150.079 102.456L150.065 102.456C149.337 102.364 148.977 102.022 148.985 101.43C149.637 96.9446 149.971 94.1141 149.986 92.9385C150.181 90.6075 150.287 88.8177 150.304 87.5692C150.311 87.0314 150.639 86.6803 151.289 86.5157L151.412 86.5174ZM167.063 94.0538C167.464 94.0591 167.776 94.2684 167.998 94.6815C168.06 94.81 168.09 94.9516 168.088 95.1066L168.088 95.1476C168.085 95.3845 167.944 95.6972 167.665 96.0854C167.153 96.9264 166.599 97.7759 166.004 98.6339C165.622 99.2852 165.014 100.088 164.181 101.044C162.688 102.947 160.855 105.088 158.681 107.465C157.72 108.492 156.865 109.387 156.116 110.152C155.765 110.539 155.529 110.732 155.411 110.731C155.301 110.784 155.159 110.809 154.986 110.807C154.567 110.802 154.251 110.57 154.038 110.111C153.994 109.992 153.973 109.882 153.974 109.782L153.975 109.7C153.98 109.372 154.185 109.042 154.59 108.71C154.59 108.683 155.371 107.927 156.931 106.444C158.575 104.834 159.61 103.759 160.037 103.217C161.249 101.83 162.278 100.521 163.124 99.293C164.202 97.7213 165.222 96.1122 166.182 94.466C166.414 94.1865 166.708 94.0491 167.063 94.0538ZM167.759 82.8511C168.424 82.86 168.983 83.3049 169.436 84.186L169.433 84.4594C169.427 84.906 169.022 85.2105 168.217 85.3731L167.944 85.3694C167.251 85.3602 166.839 84.8261 166.707 83.7669C166.714 83.2383 167.065 82.9331 167.759 82.8511ZM173.762 88.9606L174.131 88.9655C174.596 88.9717 174.907 89.2584 175.063 89.8256L175.06 90.0307C175.056 90.4043 174.522 91.1219 173.459 92.1834C171.386 94.5715 170.341 96.3853 170.325 97.6248L170.32 97.9392C170.441 99.1805 170.956 99.8072 171.868 99.8193C172.642 99.8295 173.026 100.149 173.017 100.778L173.013 101.092C173.006 101.657 172.614 101.971 171.838 102.034C170.079 102.011 168.898 101.024 168.295 99.0745L168.201 97.9111L168.203 97.7607C168.233 95.4913 169.944 92.6108 173.336 89.119L173.762 88.9606ZM175.306 101.424C174.305 101.948 173.2 102.148 171.989 102.022C171.224 101.93 170.869 101.57 170.923 100.942C170.977 100.304 171.328 99.9397 171.977 99.848C173.536 99.8414 174.675 99.5238 175.394 98.8953C176.113 98.2667 176.568 97.3475 176.757 96.1377C176.955 94.928 177.303 94.1715 177.799 93.8681C177.8 93.8134 177.937 93.7834 178.21 93.7779C179.183 93.9822 179.488 94.72 179.124 95.9914C178.747 97.6636 178.266 98.8559 177.682 99.5683C177.099 100.272 176.306 100.89 175.306 101.424ZM173.763 106.421C174.428 106.43 174.987 106.875 175.441 107.756L175.437 108.029C175.431 108.476 175.026 108.781 174.222 108.943L173.948 108.939C173.255 108.93 172.843 108.396 172.711 107.337C172.719 106.799 173.069 106.494 173.763 106.421ZM213.227 95.8423C212.966 97.6163 212.878 98.7455 212.963 99.2297C213.048 99.714 213.398 100.088 214.015 100.351C214.461 100.403 214.768 100.594 214.937 100.924C215.106 101.245 215.138 101.556 215.034 101.855C214.939 102.155 214.74 102.366 214.438 102.49C214.135 102.613 213.689 102.566 213.1 102.349C212.51 102.132 212.014 101.697 211.613 101.044C211.211 100.391 211 98.7844 210.98 96.2227C210.968 93.6611 211.402 92.5138 212.283 92.7807C213.173 93.0477 213.487 94.0683 213.227 95.8423ZM212.233 92.4519L212.534 92.4558C213.126 92.4728 213.457 92.9284 213.527 93.8227L213.193 96.3477C212.99 98.551 212.495 100.153 211.707 101.155C210.212 103.231 208.432 104.821 206.366 105.924C202.461 108.224 198.345 109.345 194.016 109.288C189.86 109.233 186.092 108.052 182.714 105.747C181.055 104.348 180.237 102.824 180.259 101.175C180.291 98.7415 181.858 96.4196 184.959 94.2093C189.416 91.4973 193.361 89.9362 196.794 89.526C197.467 89.6535 197.8 89.9769 197.793 90.4964L197.789 90.7972C197.781 91.3713 197.083 91.7312 195.696 91.8769C195.195 91.8703 193.588 92.3685 190.877 93.3717C188.584 94.4442 186.567 95.6435 184.827 96.9695C183.22 98.5069 182.409 99.8999 182.392 101.148C182.373 102.552 183.162 103.902 184.758 105.2C187.055 106.652 189.793 107.4 192.974 107.442L193.507 107.449C198.92 107.521 203.756 105.844 208.012 102.418C209.434 101.061 210.289 99.8095 210.578 98.6648C210.714 98.0468 210.875 97.2331 211.062 96.2238L211.359 93.3564L211.36 93.3153C211.559 92.7346 211.85 92.4468 212.233 92.4519ZM201.196 96.7902C201.861 96.799 202.42 97.2439 202.873 98.125L202.87 98.3985C202.864 98.845 202.459 99.1496 201.654 99.3121L201.381 99.3085C200.688 99.2993 200.276 98.7651 200.144 97.706C200.151 97.1774 200.502 96.8721 201.196 96.7902ZM218.442 98.5094C218.356 98.7726 218.32 99.1367 218.332 99.6018C218.344 100.058 218.664 100.331 219.292 100.421C219.866 100.383 220.227 100.721 220.372 101.434L220.369 101.68C220.214 102.343 219.832 102.671 219.221 102.663C217.717 102.652 216.895 102.085 216.755 100.962C216.346 101.576 215.925 102.004 215.494 102.244C215.062 102.484 214.532 102.614 213.903 102.633C213.093 102.495 212.72 102.089 212.784 101.415C212.838 100.741 213.208 100.354 213.893 100.254C214.969 100.268 215.8 99.4314 216.388 97.7438C216.984 96.0562 217.444 95.046 217.768 94.713C218.091 94.38 218.448 94.2754 218.838 94.399C219.59 94.7919 219.689 95.5315 219.137 96.618C218.759 97.6066 218.528 98.2371 218.442 98.5094ZM219.1 107.652C219.31 107.655 219.463 107.784 219.56 108.041L219.315 108.967C219.256 109.285 217.482 109.681 213.994 110.155L213.912 110.153C213.338 110.146 213.054 109.905 213.06 109.431C213.068 108.839 213.397 108.442 214.047 108.241C214.952 108.034 216.636 107.838 219.1 107.652ZM229.174 82.1621C229.839 82.1709 230.398 82.6158 230.851 83.4969L230.848 83.7703C230.842 84.2169 230.437 84.5215 229.632 84.684L229.359 84.6804C228.666 84.6712 228.254 84.137 228.122 83.0779C228.129 82.5493 228.48 82.244 229.174 82.1621ZM233.313 88.5886C233.632 88.5929 233.867 88.7236 234.019 88.9809L233.651 89.9057C233.565 90.2236 230.871 90.6072 225.569 91.0564L225.46 91.055C224.585 91.0434 224.15 90.8006 224.157 90.3267C224.164 89.7343 224.662 89.3398 225.649 89.1432C227.028 88.9428 229.583 88.7579 233.313 88.5886ZM225.732 100.37C228.282 99.9116 230.376 99.0278 232.016 97.7187C233.656 96.4096 234.622 96.4544 234.913 97.8529L234.913 97.8939C234.95 98.496 234.156 99.2785 232.53 100.241C230.913 101.204 228.779 101.919 226.13 102.385C223.489 102.851 221.504 103.012 220.175 102.867C218.846 102.721 218.184 102.498 218.188 102.198C217.981 102.004 217.879 101.761 217.883 101.469C218.02 100.778 218.375 100.436 218.95 100.444C220.931 100.844 223.192 100.819 225.732 100.37ZM243.838 89.8905L244.207 89.8954C244.672 89.9016 244.982 90.1883 245.139 90.7555L245.136 90.9606C245.131 91.3342 244.598 92.0518 243.535 93.1133C241.462 95.5014 240.417 97.3152 240.4 98.5547L240.396 98.8691C240.516 100.11 241.032 100.737 241.944 100.749C242.718 100.759 243.101 101.079 243.093 101.708L243.089 102.022C243.081 102.587 242.69 102.901 241.914 102.964C240.155 102.94 238.974 101.954 238.371 100.004L238.277 98.841L238.279 98.6906C238.309 96.4213 240.02 93.5407 243.412 90.0489L243.838 89.8905ZM248.36 95.2967L248.429 95.2976C249.012 95.3053 249.491 95.5988 249.866 96.1781C250.251 96.7575 250.417 97.5937 250.366 98.6869C250.325 99.7711 250.011 100.77 249.424 101.682C248.838 102.595 247.906 103.057 246.63 103.067C245.501 102.961 244.728 102.486 244.311 101.642C243.459 102.633 242.683 103.07 241.983 102.951C241.411 102.788 241.119 102.461 241.107 101.969C241.086 101.467 241.223 101.127 241.517 100.949C241.811 100.761 242.127 100.651 242.465 100.619C242.812 100.578 243.194 100.305 243.611 99.8005C244.028 99.2956 244.677 98.4154 245.56 97.1601C246.443 95.9048 247.376 95.2836 248.36 95.2967ZM246.534 101.015C247.052 101.159 247.56 101.001 248.058 100.543C248.566 100.076 248.805 99.5458 248.777 98.9529C248.757 98.3511 248.557 97.9656 248.177 97.7964C247.796 97.6273 247.295 97.9488 246.674 98.761C246.052 99.5731 245.694 100.102 245.6 100.346C245.705 100.649 246.017 100.872 246.534 101.015Z" fill="#1839E8"/>
<path d="M274.381 50.0684C306.049 36.7356 307.778 1.94317 307.778 1.94317M307.778 1.94317C307.778 1.94317 311.207 4.22131 315.059 11.5344C311.241 4.2853 307.778 1.94317 307.778 1.94317ZM307.778 1.94317C307.778 1.94317 306.777 1.56511 297.228 8.64815" stroke="#1839E8" stroke-width="2" stroke-linecap="round" stroke-linejoin="round"/>
</svg>
