<svg width="40" height="582" viewBox="0 0 40 582" fill="none" xmlns="http://www.w3.org/2000/svg">
<circle cx="20" cy="20" r="20" fill="#1839E8"/>
<path d="M31.2446 23.2452C30.9958 22.9964 30.9958 22.5839 31.2446 22.3351L34.4298 19.1499L31.2446 15.9647C30.9958 15.716 30.9958 15.3034 31.2446 15.0546C31.4933 14.8059 31.9059 14.8059 32.1546 15.0546L35.7949 18.6949C36.0436 18.9436 36.0436 19.3562 35.7949 19.6049L32.1546 23.2452C31.9059 23.4939 31.4933 23.4939 31.2446 23.2452Z" fill="white" stroke="white" stroke-width="0.5"/>
<path d="M25.7843 19.6047C25.6691 19.4895 25.5963 19.3317 25.5963 19.1497C25.5963 18.7978 25.8875 18.5066 26.2394 18.5066L35.34 18.5066C35.6919 18.5066 35.9831 18.7978 35.9831 19.1497C35.9831 19.5016 35.6919 19.7928 35.34 19.7928L26.2394 19.7928C26.0574 19.7928 25.8996 19.72 25.7843 19.6047Z" fill="white" stroke="white" stroke-width="0.5"/>
<path d="M8.80083 23.2452L5.16058 19.6049C4.91183 19.3562 4.91183 18.9436 5.16058 18.6949L8.80083 15.0546C9.04958 14.8059 9.46214 14.8059 9.71089 15.0546C9.95964 15.3034 9.95964 15.716 9.71089 15.9647L6.52568 19.1499L9.71089 22.3351C9.95964 22.5839 9.95964 22.9964 9.71089 23.2452C9.46214 23.4939 9.04958 23.4939 8.80083 23.2452Z" fill="white" stroke="white" stroke-width="0.5"/>
<path d="M5.16056 19.6047C5.04528 19.4895 4.97248 19.3317 4.97248 19.1497C4.97248 18.7978 5.2637 18.5066 5.61559 18.5066L14.7162 18.5066C15.0681 18.5066 15.3593 18.7978 15.3593 19.1497C15.3593 19.5016 15.0681 19.7928 14.7162 19.7928L5.61559 19.7928C5.43358 19.7928 5.27583 19.72 5.16056 19.6047Z" fill="white" stroke="white" stroke-width="0.5"/>
<path d="M18.0376 13.1435V26.0137C18.0376 26.3655 17.7459 26.6572 17.3941 26.6572C17.0423 26.6572 16.7506 26.3655 16.7506 26.0137V13.1435C16.7506 12.7917 17.0423 12.5 17.3941 12.5C17.7459 12.5 18.0376 12.7917 18.0376 13.1435Z" fill="white" stroke="white" stroke-width="0.5"/>
<path d="M24.0439 13.1435V26.0137C24.0439 26.3655 23.7521 26.6572 23.4003 26.6572C23.0486 26.6572 22.7568 26.3655 22.7568 26.0137V13.1435C22.7568 12.7917 23.0486 12.5 23.4003 12.5C23.7521 12.5 24.0439 12.7917 24.0439 13.1435Z" fill="white" stroke="white" stroke-width="0.5"/>
<rect x="19" y="44" width="4" height="538" fill="white"/>
</svg>
