<svg width="419" height="80" viewBox="0 0 419 80" fill="none" xmlns="http://www.w3.org/2000/svg">
<path d="M3.63867 64.5811C4.30404 64.5811 4.86914 65.0186 5.33398 65.8936V66.167C5.33398 66.6136 4.93294 66.9235 4.13086 67.0967H3.85742C3.16471 67.0967 2.74544 66.568 2.59961 65.5107C2.59961 64.9821 2.94596 64.6722 3.63867 64.5811ZM13.4004 64.5811C14.0658 64.5811 14.6309 65.0186 15.0957 65.8936V66.167C15.0957 66.6136 14.6947 66.9235 13.8926 67.0967H13.6191C12.9264 67.0967 12.5072 66.568 12.3613 65.5107C12.3613 64.9821 12.7077 64.6722 13.4004 64.5811ZM23.1621 64.5811C23.8275 64.5811 24.3926 65.0186 24.8574 65.8936V66.167C24.8574 66.6136 24.4564 66.9235 23.6543 67.0967H23.3809C22.6882 67.0967 22.2689 66.568 22.123 65.5107C22.123 64.9821 22.4694 64.6722 23.1621 64.5811ZM38.584 56.2959C38.9941 56.1956 39.3223 56.3369 39.5684 56.7197C39.8145 57.0934 39.6413 58.0459 39.0488 59.5771C38.4655 61.1084 38.224 62.3617 38.3242 63.3369C38.4336 64.3031 38.7253 64.8135 39.1992 64.8682C39.7096 64.8682 40.0514 65.1325 40.2246 65.6611L40.252 65.8525V66.0029C40.252 66.4404 39.9876 66.7594 39.459 66.96L39.1992 66.9873C38.2057 66.9873 37.5176 66.7184 37.1348 66.1807C36.752 65.6338 36.5879 64.818 36.6426 63.7334H36.6152C35.4941 65.4196 34.3958 66.6318 33.3203 67.3701C32.3997 68.0628 31.5612 68.6006 30.8047 68.9834C30.2031 69.2933 29.8203 69.4482 29.6562 69.4482H29.4238C28.877 69.4482 28.4805 69.1885 28.2344 68.6689L28.207 68.4229V68.3135C28.207 67.8031 28.5944 67.4157 29.3691 67.1514C30.6087 66.5589 31.5749 65.9847 32.2676 65.4287C32.9694 64.8636 33.8079 63.9795 34.7832 62.7764C35.7676 61.5641 36.5423 60.2061 37.1074 58.7021C37.6816 57.1982 38.1738 56.3962 38.584 56.2959ZM43.793 62.8584C43.7109 63.1227 43.679 63.4873 43.6973 63.9521C43.7155 64.4079 44.0391 64.6768 44.668 64.7588C45.2422 64.7132 45.6068 65.0459 45.7617 65.7568V66.0029C45.6159 66.6683 45.2376 67.001 44.627 67.001C43.123 67.0101 42.2936 66.4541 42.1387 65.333C41.7376 65.9528 41.3229 66.3857 40.8945 66.6318C40.4661 66.8779 39.9375 67.0146 39.3086 67.042C38.4974 66.9144 38.1191 66.5133 38.1738 65.8389C38.2194 65.1644 38.584 64.7725 39.2676 64.6631C40.3431 64.6631 41.1634 63.8154 41.7285 62.1201C42.3027 60.4248 42.7493 59.4085 43.0684 59.0713C43.3874 58.734 43.7428 58.6247 44.1348 58.7432C44.8913 59.126 45.0007 59.8643 44.4629 60.958C44.0983 61.9515 43.875 62.585 43.793 62.8584ZM44.5723 71.9912C44.7819 71.9912 44.9368 72.1188 45.0371 72.374L44.8047 73.3037C44.75 73.6227 42.9818 74.042 39.5 74.5615H39.418C38.8438 74.5615 38.5566 74.3245 38.5566 73.8506C38.5566 73.2581 38.8802 72.8571 39.5273 72.6475C40.4297 72.4287 42.1113 72.21 44.5723 71.9912ZM49.084 62.8584C49.002 63.1227 48.9701 63.4873 48.9883 63.9521C49.0065 64.4079 49.3301 64.6768 49.959 64.7588C50.5332 64.7132 50.8978 65.0459 51.0527 65.7568V66.0029C50.9069 66.6683 50.5286 67.001 49.918 67.001C48.4141 67.0101 47.5846 66.4541 47.4297 65.333C47.0286 65.9528 46.6139 66.3857 46.1855 66.6318C45.7572 66.8779 45.2285 67.0146 44.5996 67.042C43.7884 66.9144 43.4102 66.5133 43.4648 65.8389C43.5104 65.1644 43.875 64.7725 44.5586 64.6631C45.6341 64.6631 46.4544 63.8154 47.0195 62.1201C47.5938 60.4248 48.0404 59.4085 48.3594 59.0713C48.6784 58.734 49.0339 58.6247 49.4258 58.7432C50.1823 59.126 50.2917 59.8643 49.7539 60.958C49.3893 61.9515 49.166 62.585 49.084 62.8584ZM48.7695 51.6201C49.4349 51.6201 50 52.0576 50.4648 52.9326V53.2061C50.4648 53.6527 50.0638 53.9626 49.2617 54.1357H48.9883C48.2956 54.1357 47.8763 53.6071 47.7305 52.5498C47.7305 52.0212 48.0768 51.7113 48.7695 51.6201ZM55.1406 56.2549C54.8854 54.9788 54.9128 54.1904 55.2227 53.8896C55.5417 53.5798 55.8698 53.5615 56.207 53.835C56.5443 54.0993 56.8542 54.8512 57.1367 56.0908C57.4193 57.3304 57.4694 58.8981 57.2871 60.7939C57.1048 62.6807 56.3027 64.1618 54.8809 65.2373C53.4681 66.3037 51.8639 66.8916 50.0684 67.001C49.2936 66.9281 48.9062 66.609 48.9062 66.0439V65.7295C48.9062 65.1006 49.2936 64.7861 50.0684 64.7861C51.1803 64.7861 52.306 64.3213 53.4453 63.3916C54.5938 62.4528 55.2272 61.3454 55.3457 60.0693C55.4733 58.7933 55.4049 57.5218 55.1406 56.2549ZM67.8828 41.4346C68.3932 41.4346 68.7441 41.7217 68.9355 42.2959V42.583C68.9355 42.9385 67.8145 43.7952 65.5723 45.1533C63.3392 46.5023 61.5299 47.5732 60.1445 48.3662C58.7591 49.1501 57.6654 49.7015 56.8633 50.0205C56.0703 50.3304 55.5964 50.1755 55.4414 49.5557C55.2956 48.9268 55.6055 48.4209 56.3711 48.0381C57.1458 47.6462 58.4993 46.9671 60.4316 46.001C62.3639 45.0257 64.6562 43.5674 67.3086 41.626L67.8828 41.4346ZM90.5469 57.4697C92.8646 57.4697 94.3815 58.3161 95.0977 60.0088C95.293 60.5166 95.4427 61.5778 95.5469 63.1924C95.625 63.6221 95.8203 63.8369 96.1328 63.8369C96.9792 64.1885 97.4023 64.6637 97.4023 65.2627V65.5557C97.4023 66.363 96.9271 66.8838 95.9766 67.1182H94.8633C93.8086 67.1182 93.1185 66.7275 92.793 65.9463C92.4935 65.5817 92.2526 64.1104 92.0703 61.5322C91.875 60.777 91.4974 60.3994 90.9375 60.3994L90.6445 60.3604H90.3906C88.3464 60.3604 85.8789 61.9424 82.9883 65.1064C81.9857 66.3825 81.3997 67.3265 81.2305 67.9385H81.2891L81.9727 67.8408H82.1094C83.1641 67.9971 83.6914 68.5049 83.6914 69.3643L83.7305 69.4229V69.4619C83.7305 70.6989 82.7539 71.3174 80.8008 71.3174C79.2513 71.3174 78.2878 70.6533 77.9102 69.3252L77.8516 68.8174V68.3877C77.8516 66.5648 79.5964 64.0648 83.0859 60.8877C85.8594 58.609 88.3464 57.4697 90.5469 57.4697ZM102.422 61.083C102.305 61.4606 102.259 61.9814 102.285 62.6455C102.311 63.2965 102.773 63.6807 103.672 63.7979C104.492 63.7327 105.013 64.208 105.234 65.2236V65.5752C105.026 66.5257 104.486 67.001 103.613 67.001C101.465 67.014 100.28 66.2197 100.059 64.6182C99.4857 65.5036 98.8932 66.1221 98.2812 66.4736C97.6693 66.8252 96.9141 67.0205 96.0156 67.0596C94.8568 66.8773 94.3164 66.3044 94.3945 65.3408C94.4596 64.3773 94.9805 63.8174 95.957 63.6611C97.4935 63.6611 98.6654 62.4502 99.4727 60.0283C100.293 57.6064 100.931 56.1546 101.387 55.6729C101.842 55.1911 102.35 55.0348 102.91 55.2041C103.991 55.751 104.147 56.8057 103.379 58.3682C102.858 59.7874 102.539 60.6924 102.422 61.083ZM108.945 48.4268C109.284 48.4268 109.531 48.609 109.688 48.9736L109.316 50.3018C109.238 50.7575 106.96 51.1286 102.48 51.415H102.363C101.452 51.415 100.996 51.0765 100.996 50.3994C100.996 49.5531 101.51 48.9801 102.539 48.6807L108.945 48.4268ZM112.871 53.1143C113.535 53.1143 114.036 53.4658 114.375 54.1689L114.414 54.5205C114.414 55.2757 113.613 56.0049 112.012 56.708C109.928 58.0361 108.73 59.2406 108.418 60.3213L108.223 61.6689C108.366 62.7627 108.529 63.3096 108.711 63.3096L115.059 61.2588L115.762 61.1611H116.211C116.914 61.1611 117.35 61.5452 117.52 62.3135V62.9189C117.52 63.5049 116.784 64.0192 115.312 64.4619C110.82 66.3109 106.947 67.1768 103.691 67.0596C102.728 66.9684 102.188 66.4736 102.07 65.5752C102.292 64.6117 102.832 64.1038 103.691 64.0518L104.629 64.0127H105.215L105.273 63.9541H105.312C105.091 63.3031 104.98 62.7692 104.98 62.3525C104.98 59.3447 107.396 56.2979 112.227 53.2119L112.871 53.1143ZM128.906 48.29H129.434C130.098 48.29 130.547 48.6937 130.781 49.501V49.7939C130.781 50.3278 130.033 51.363 128.535 52.8994C125.618 56.3499 124.16 58.9606 124.16 60.7314V61.1807C124.355 62.9515 125.104 63.8369 126.406 63.8369C127.513 63.8369 128.066 64.2861 128.066 65.1846V65.6338C128.066 66.4411 127.513 66.8968 126.406 67.001C123.893 67.001 122.188 65.6143 121.289 62.8408L121.133 61.1807V60.9658C121.133 57.7236 123.522 53.5765 128.301 48.5244L128.906 48.29ZM136.172 63.6025C139.805 62.8994 142.78 61.5973 145.098 59.6963C147.415 57.7952 148.796 57.8408 149.238 59.833V59.8916C149.303 60.751 148.184 61.8838 145.879 63.29C143.587 64.6963 140.553 65.7575 136.777 66.4736C133.014 67.1898 130.182 67.4567 128.281 67.2744C126.38 67.0921 125.43 66.7861 125.43 66.3564C125.13 66.083 124.98 65.738 124.98 65.3213C125.163 64.3317 125.664 63.8369 126.484 63.8369C129.323 64.3708 132.552 64.2926 136.172 63.6025ZM176.152 45.3994H176.641C177.201 45.3994 177.559 45.8226 177.715 46.6689C176.803 49.5205 175.371 51.5062 173.418 52.626C172.337 53.0817 171.426 53.3096 170.684 53.3096L169.688 53.2119H169.297C171.875 58.5374 173.346 62.6455 173.711 65.5361C173.464 66.5127 172.975 67.001 172.246 67.001H171.758C170.69 67.001 170.065 66.1221 169.883 64.3643C168.672 59.82 167.37 56.2653 165.977 53.7002L162.402 47.5674L162.305 47.0791V46.8838C162.5 45.8421 162.988 45.3213 163.77 45.3213H164.453C164.805 45.3213 165.41 46.0765 166.27 47.5869C167.129 49.0843 168.503 49.8851 170.391 49.9893C172.292 49.8851 174.049 48.3877 175.664 45.4971L176.152 45.3994ZM179.902 48.4658C180.007 47.7236 180.436 47.3395 181.191 47.3135C181.947 47.2744 182.773 47.9189 183.672 49.2471C184.583 50.5622 186.335 51.3695 188.926 51.6689C188.587 51.0439 188.418 50.4059 188.418 49.7549V49.6768C188.418 47.3981 190.247 45.3734 193.906 43.6025L194.238 43.5244H194.57C195.286 43.7067 195.645 44.0648 195.645 44.5986V44.9307C195.645 45.4775 194.954 46.0049 193.574 46.5127C192.194 47.5153 191.504 48.596 191.504 49.7549C191.673 50.8617 192.227 51.415 193.164 51.415L193.574 51.4932L197.637 51.1611C198.639 51.4346 199.141 51.9619 199.141 52.7432V52.8408C199.141 53.7002 198.197 54.2796 196.309 54.5791C195.098 54.8005 193.939 54.9111 192.832 54.9111H191.992C190.56 54.9111 188.9 54.7158 187.012 54.3252C189.186 58.0361 190.404 61.8447 190.664 65.751V66.083C190.664 66.682 190.195 67.0661 189.258 67.2354C188.203 67.1182 187.676 66.6234 187.676 65.751C187.441 62.8083 186.471 59.6377 184.766 56.2393C183.203 53.6742 181.973 51.9229 181.074 50.9854C180.189 50.0348 179.798 49.195 179.902 48.4658ZM222.043 51.7568C222.581 51.7568 222.936 52.0485 223.109 52.6318L223.123 52.8232C223.123 53.5251 222.854 56.665 222.316 62.2432L221.961 66.8916C221.715 67.4385 221.368 67.7119 220.922 67.7119H220.908C220.179 67.6299 219.814 67.2926 219.814 66.7002C220.407 62.2067 220.703 59.3721 220.703 58.1963C220.867 55.863 220.949 54.0719 220.949 52.8232C220.949 52.2855 221.273 51.93 221.92 51.7568H222.043ZM232.133 59.085C232.534 59.085 232.848 59.29 233.076 59.7002C233.14 59.8278 233.172 59.9691 233.172 60.124V60.165C233.172 60.402 233.035 60.7165 232.762 61.1084C232.26 61.9561 231.718 62.8128 231.135 63.6787C230.761 64.335 230.164 65.1462 229.344 66.1123C227.876 68.0355 226.072 70.2002 223.93 72.6064C222.982 73.6455 222.139 74.5524 221.4 75.3271C221.054 75.7191 220.822 75.915 220.703 75.915C220.594 75.9697 220.452 75.9971 220.279 75.9971C219.86 75.9971 219.541 75.7692 219.322 75.3135C219.277 75.195 219.254 75.0856 219.254 74.9854V74.9033C219.254 74.5752 219.454 74.2425 219.855 73.9053C219.855 73.8779 220.626 73.1123 222.166 71.6084C223.788 69.9769 224.809 68.8877 225.229 68.3408C226.423 66.9372 227.434 65.6156 228.264 64.376C229.321 62.79 230.319 61.1676 231.258 59.5088C231.486 59.2262 231.777 59.085 232.133 59.085ZM242.797 56.6514H242.865C243.403 56.6514 243.859 57.1208 244.232 58.0596C245.171 59.7093 245.641 61.2907 245.641 62.8037C245.641 64.3441 245.066 65.5837 243.918 66.5225C242.879 67.443 241.598 68.2907 240.076 69.0654C237.77 70.1501 236.389 70.6924 235.934 70.6924C235.241 70.5648 234.895 70.2503 234.895 69.749V69.4756C234.895 68.9287 235.346 68.596 236.248 68.4775C237.643 68.0309 238.859 67.5342 239.898 66.9873C240.992 66.4313 242.104 65.6338 243.234 64.5947C243.654 64.1117 243.863 63.5785 243.863 62.9951V62.9678C243.863 61.9287 243.184 60.2926 241.826 58.0596L241.771 57.6904C241.881 56.9977 242.223 56.6514 242.797 56.6514ZM251.506 65.7432C251.907 64.932 252.764 64.6038 254.076 64.7588C254.523 64.8044 254.833 64.9912 255.006 65.3193C255.179 65.6383 255.215 65.9482 255.115 66.249C255.024 66.5498 254.828 66.7686 254.527 66.9053C254.227 67.0329 253.548 67.0693 252.49 67.0146C251.433 66.9691 251.105 66.5452 251.506 65.7432ZM252.914 59.0029C253.707 59.0758 254.227 59.6045 254.473 60.5889C254.509 60.9352 254.514 61.2497 254.486 61.5322C254.322 63.4189 253.288 65.7386 251.383 68.4912C250.772 69.3662 249.678 70.5238 248.102 71.9639C246.488 73.4313 245.454 74.2288 244.998 74.3564L244.793 74.3428C244.456 74.3154 244.187 74.0785 243.986 73.6318C243.923 73.5133 243.9 73.363 243.918 73.1807L243.932 73.126C243.977 72.6064 244.324 72.1507 244.971 71.7588C245.663 71.1663 246.415 70.4827 247.227 69.708C248.375 68.6143 249.227 67.6162 249.783 66.7139C248.598 66.2217 248.07 65.4333 248.197 64.3486C248.188 63.182 249.027 61.6963 250.713 59.8916C251.488 59.2354 252.221 58.9391 252.914 59.0029ZM250.604 63.7197C250.394 64.2666 250.508 64.5811 250.945 64.6631C251.182 64.499 251.506 63.8656 251.916 62.7627L252.176 61.6689C251.346 62.4801 250.822 63.1637 250.604 63.7197ZM259.326 57.0615H259.354C260.165 57.0615 261.094 57.7861 262.143 59.2354C262.817 60.1012 263.227 60.6071 263.373 60.7529C264.166 60.2061 264.722 59.9326 265.041 59.9326H265.287C265.652 59.9326 265.952 60.1742 266.189 60.6572C266.244 60.7757 266.271 60.9079 266.271 61.0537C266.271 61.6006 265.934 62.1976 265.26 62.8447C264.813 63.1911 264.38 63.3643 263.961 63.3643L263.469 63.2412C261.846 64.2165 260.465 64.9684 259.326 65.4971C257.011 66.4541 255.648 66.9326 255.238 66.9326C255.02 66.9782 254.723 67.001 254.35 67.001H254.254C253.789 67.001 253.456 66.7686 253.256 66.3037L253.201 66.0029V65.8525C253.201 65.3968 253.479 65.0732 254.035 64.8818C254.865 64.8818 255.771 64.654 256.756 64.1982C258.551 63.5146 260.242 62.6807 261.828 61.6963C260.762 60.0921 259.914 59.29 259.285 59.29C258.866 59.2992 258.055 60.165 256.852 61.8877C256.542 62.2796 256.291 62.4756 256.1 62.4756C255.872 62.4756 255.617 62.2204 255.334 61.71L255.279 61.3682C255.279 60.6755 255.822 59.8005 256.906 58.7432C257.936 57.6221 258.743 57.0615 259.326 57.0615ZM259.066 50.2803C259.732 50.2803 260.297 50.7178 260.762 51.5928V51.8662C260.762 52.3128 260.361 52.6227 259.559 52.7959H259.285C258.592 52.7959 258.173 52.2673 258.027 51.21C258.027 50.6813 258.374 50.3714 259.066 50.2803ZM281.967 59.0029C282.331 59.0029 282.979 59.3538 283.908 60.0557C284.628 60.7028 285.057 61.1494 285.193 61.3955C285.594 61.988 285.795 62.667 285.795 63.4326C285.795 64.4899 285.385 65.3011 284.564 65.8662C283.38 66.5863 281.789 66.9463 279.793 66.9463H279.246C277.368 66.9463 276.206 66.8096 275.76 66.5361C275.495 66.4359 275.199 66.2262 274.871 65.9072C274.461 65.4333 274.256 64.9092 274.256 64.335C274.256 63.4782 274.721 62.6852 275.65 61.9561C276.325 61.3818 276.981 60.9215 277.619 60.5752C278.239 60.2106 278.986 59.8779 279.861 59.5771C280.609 59.3219 281.069 59.1943 281.242 59.1943H281.365L281.598 59.085C281.725 59.0303 281.848 59.0029 281.967 59.0029ZM281.789 61.0264C281.698 61.0993 281.424 61.1904 280.969 61.2998C280.057 61.5915 279.287 61.9105 278.658 62.2568C278.057 62.585 277.391 63.0635 276.662 63.6924C276.38 63.9567 276.238 64.1755 276.238 64.3486V64.3623C276.238 64.5355 276.43 64.6859 276.812 64.8135C276.977 64.8864 277.806 64.9365 279.301 64.9639H279.561C281.411 64.9639 282.751 64.6904 283.58 64.1436C283.735 63.9613 283.812 63.738 283.812 63.4736V63.3779C283.812 62.9313 283.639 62.5394 283.293 62.2021C282.892 61.792 282.573 61.5094 282.336 61.3545L281.789 61.0264ZM292.152 64.7041C291.697 64.2028 291.574 63.4144 291.783 62.3389C292.002 61.2633 292.95 60.0465 294.627 58.6885C295.602 57.9958 296.632 57.3805 297.717 56.8428C298.902 56.2959 299.836 56.0225 300.52 56.0225H300.656C301.65 56.0225 302.32 56.5967 302.666 57.7451L302.734 58.3604C302.734 59.9098 301.413 61.7419 298.77 63.8564C296.117 65.7067 294.13 66.6911 292.809 66.8096C291.678 66.9189 290.854 66.8232 290.334 66.5225C289.641 66.2399 289.058 65.3649 288.584 63.8975L288.475 62.7354V62.585C288.475 60.3154 290.147 57.4124 293.492 53.876L293.916 53.7119H294.285C294.75 53.7119 295.064 53.9945 295.229 54.5596V54.7646C295.229 55.1383 294.704 55.863 293.656 56.9385C291.615 59.3538 290.594 61.1813 290.594 62.4209V62.7354C290.566 63.8291 291.086 64.4854 292.152 64.7041ZM300.164 64.8682C300.611 64.9137 300.921 65.1006 301.094 65.4287C301.267 65.7477 301.271 66.0713 301.107 66.3994C300.943 66.7184 300.743 66.9144 300.506 66.9873C300.278 67.0602 299.845 67.0739 299.207 67.0283C298.578 66.9919 297.812 66.9189 296.91 66.8096C296.017 66.6911 295.092 66.4541 294.135 66.0986C293.187 65.734 293.032 65.3239 293.67 64.8682C294.308 64.4124 295.096 64.3076 296.035 64.5537C296.983 64.7907 297.699 64.9046 298.182 64.8955C298.665 64.8864 299.326 64.8773 300.164 64.8682ZM293.916 62.4893C293.788 63.1182 294.126 63.6514 294.928 64.0889C296.532 63.1501 297.863 62.1566 298.92 61.1084C299.941 59.9964 300.451 59.126 300.451 58.4971C300.415 58.3239 300.228 58.2327 299.891 58.2236C298.742 58.2236 297.061 59.1579 294.846 61.0264C294.363 61.3636 294.053 61.8512 293.916 62.4893ZM315.217 42.0498C315.727 42.0498 316.078 42.3369 316.27 42.9111V43.1982C316.27 43.5537 315.809 44.1598 314.889 45.0166C309.548 48.6077 304.967 50.6494 301.148 51.1416C301.012 51.2054 300.283 51.333 298.961 51.5244C298.487 51.5244 298.182 51.2054 298.045 50.5674V50.335C298.045 49.9977 298.3 49.6787 298.811 49.3779C299.148 48.4118 300.201 47.04 301.969 45.2627C303.874 43.3486 305.182 42.3916 305.893 42.3916H306.18C306.699 42.3916 307.16 42.8063 307.561 43.6357L307.602 44.0186V44.1689C307.602 44.7614 306.713 45.7959 304.936 47.2725C304.088 47.874 303.418 48.1748 302.926 48.1748H302.83C302.566 48.1748 302.215 48.0153 301.777 47.6963H301.723C300.839 48.5531 300.36 49.0635 300.287 49.2275H300.342C301.39 49.2275 303.4 48.6488 306.371 47.4912C309.342 46.3245 312.1 44.5745 314.643 42.2412L315.217 42.0498ZM299.699 64.8682C305.086 65.2145 310.391 65.2191 315.613 64.8818V67.001C310.372 67.4385 305.068 67.4385 299.699 67.001V64.8682ZM308.395 49.2822C309.06 49.2822 309.625 49.7197 310.09 50.5947V50.8682C310.09 51.3148 309.689 51.6247 308.887 51.7979H308.613C307.921 51.7979 307.501 51.2692 307.355 50.2119C307.355 49.6833 307.702 49.3734 308.395 49.2822ZM312.619 55.6533C312.938 55.6533 313.175 55.7809 313.33 56.0361L312.975 56.9658C312.893 57.2848 310.204 57.7041 304.908 58.2236H304.799C303.924 58.2236 303.486 57.9867 303.486 57.5127C303.486 56.9202 303.979 56.5192 304.963 56.3096C306.339 56.0908 308.891 55.8721 312.619 55.6533ZM318.238 66.3447C317.245 66.8825 316.142 67.0967 314.93 66.9873C314.164 66.9053 313.804 66.5498 313.85 65.9209C313.895 65.2829 314.242 64.9137 314.889 64.8135C316.447 64.7861 317.582 64.4535 318.293 63.8154C319.004 63.1774 319.446 62.2523 319.619 61.04C319.801 59.8278 320.139 59.0667 320.631 58.7568C320.631 58.7021 320.768 58.6702 321.041 58.6611C322.016 58.8525 322.331 59.5863 321.984 60.8623C321.629 62.5394 321.164 63.738 320.59 64.458C320.016 65.1689 319.232 65.7979 318.238 66.3447ZM319.852 68.8467C320.143 68.8467 320.357 68.9743 320.494 69.2295L320.18 70.1592C320.107 70.4691 318.202 70.8291 314.465 71.2393H314.369C313.576 71.2393 313.18 71.0023 313.18 70.5283C313.18 69.9268 313.626 69.5257 314.52 69.3252L319.852 68.8467ZM330.037 53.9033H330.406C330.871 53.9033 331.186 54.1859 331.35 54.751V54.9561C331.35 55.3298 330.826 56.0544 329.777 57.1299C327.736 59.5452 326.715 61.3727 326.715 62.6123V62.9268C326.852 64.1663 327.376 64.7861 328.287 64.7861C329.062 64.7861 329.449 65.1006 329.449 65.7295V66.0439C329.449 66.609 329.062 66.9281 328.287 67.001C326.528 67.001 325.334 66.0303 324.705 64.0889L324.596 62.9268V62.7764C324.596 60.5068 326.268 57.6038 329.613 54.0674L330.037 53.9033ZM336.723 64.5811C336.987 64.7269 337.247 64.8135 337.502 64.8408C337.757 64.859 337.958 65.0368 338.104 65.374C338.258 65.7113 338.254 66.0439 338.09 66.3721C337.926 66.6911 337.68 66.8916 337.352 66.9736C337.033 67.0465 336.645 66.9463 336.189 66.6729C335.743 66.3903 335.387 65.9801 335.123 65.4424C334.859 64.9046 335.064 64.2165 335.738 63.3779C336.422 62.5394 336.691 62.4938 336.545 63.2412C336.408 63.9886 336.467 64.4352 336.723 64.5811ZM334.74 59.249H334.809C335.392 59.249 335.875 59.5361 336.258 60.1104C336.65 60.6846 336.827 61.5186 336.791 62.6123C336.764 63.6969 336.463 64.6995 335.889 65.6201C335.314 66.5407 334.389 67.0146 333.113 67.042C331.983 66.9508 331.204 66.486 330.775 65.6475C329.937 66.6501 329.167 67.0967 328.465 66.9873C327.891 66.8324 327.594 66.5088 327.576 66.0166C327.549 65.5153 327.681 65.1735 327.973 64.9912C328.264 64.7998 328.579 64.6859 328.916 64.6494C329.262 64.6038 329.641 64.3258 330.051 63.8154C330.461 63.305 331.099 62.4163 331.965 61.1494C332.831 59.8825 333.756 59.249 334.74 59.249ZM332.99 64.9912C333.51 65.1279 334.016 64.9639 334.508 64.499C335.009 64.0251 335.242 63.4919 335.205 62.8994C335.178 62.2979 334.973 61.915 334.59 61.751C334.207 61.5869 333.71 61.915 333.1 62.7354C332.489 63.5557 332.138 64.0889 332.047 64.335C332.156 64.6357 332.471 64.8545 332.99 64.9912ZM340.346 66.3447C339.352 66.8825 338.249 67.0967 337.037 66.9873C336.271 66.9053 335.911 66.5498 335.957 65.9209C336.003 65.2829 336.349 64.9137 336.996 64.8135C338.555 64.7861 339.689 64.4535 340.4 63.8154C341.111 63.1774 341.553 62.2523 341.727 61.04C341.909 59.8278 342.246 59.0667 342.738 58.7568C342.738 58.7021 342.875 58.6702 343.148 58.6611C344.124 58.8525 344.438 59.5863 344.092 60.8623C343.736 62.5394 343.271 63.738 342.697 64.458C342.123 65.1689 341.339 65.7979 340.346 66.3447ZM341.672 50.8818C342.337 50.8818 342.902 51.3193 343.367 52.1943V52.4678C343.367 52.9235 342.966 53.2334 342.164 53.3975H341.891C341.198 53.3975 340.779 52.8688 340.633 51.8115C340.633 51.2829 340.979 50.973 341.672 50.8818ZM358.57 59.085C358.971 59.085 359.286 59.29 359.514 59.7002C359.577 59.8278 359.609 59.9691 359.609 60.124V60.165C359.609 60.402 359.473 60.7165 359.199 61.1084C358.698 61.9561 358.156 62.8128 357.572 63.6787C357.199 64.335 356.602 65.1462 355.781 66.1123C354.314 68.0355 352.509 70.2002 350.367 72.6064C349.419 73.6455 348.576 74.5524 347.838 75.3271C347.492 75.7191 347.259 75.915 347.141 75.915C347.031 75.9697 346.89 75.9971 346.717 75.9971C346.298 75.9971 345.979 75.7692 345.76 75.3135C345.714 75.195 345.691 75.0856 345.691 74.9854V74.9033C345.691 74.5752 345.892 74.2425 346.293 73.9053C346.293 73.8779 347.063 73.1123 348.604 71.6084C350.226 69.9769 351.247 68.8877 351.666 68.3408C352.86 66.9372 353.872 65.6156 354.701 64.376C355.758 62.79 356.757 61.1676 357.695 59.5088C357.923 59.2262 358.215 59.085 358.57 59.085ZM359.117 47.874C359.783 47.874 360.348 48.3115 360.812 49.1865V49.46C360.812 49.9066 360.411 50.2165 359.609 50.3896H359.336C358.643 50.3896 358.224 49.861 358.078 48.8037C358.078 48.2751 358.424 47.9652 359.117 47.874ZM362.562 51.7568C363.1 51.7568 363.456 52.0485 363.629 52.6318L363.643 52.8232C363.643 53.5251 363.374 56.665 362.836 62.2432L362.48 66.8916C362.234 67.4385 361.888 67.7119 361.441 67.7119H361.428C360.699 67.6299 360.334 67.2926 360.334 66.7002C360.926 62.2067 361.223 59.3721 361.223 58.1963C361.387 55.863 361.469 54.0719 361.469 52.8232C361.469 52.2855 361.792 51.93 362.439 51.7568H362.562ZM379.83 56.2959C380.24 56.1956 380.568 56.3369 380.814 56.7197C381.061 57.0934 380.887 58.0459 380.295 59.5771C379.712 61.1084 379.47 62.3617 379.57 63.3369C379.68 64.3031 379.971 64.8135 380.445 64.8682C380.956 64.8682 381.298 65.1325 381.471 65.6611L381.498 65.8525V66.0029C381.498 66.4404 381.234 66.7594 380.705 66.96L380.445 66.9873C379.452 66.9873 378.764 66.7184 378.381 66.1807C377.998 65.6338 377.834 64.818 377.889 63.7334H377.861C376.74 65.4196 375.642 66.6318 374.566 67.3701C373.646 68.0628 372.807 68.6006 372.051 68.9834C371.449 69.2933 371.066 69.4482 370.902 69.4482H370.67C370.123 69.4482 369.727 69.1885 369.48 68.6689L369.453 68.4229V68.3135C369.453 67.8031 369.84 67.4157 370.615 67.1514C371.855 66.5589 372.821 65.9847 373.514 65.4287C374.215 64.8636 375.054 63.9795 376.029 62.7764C377.014 61.5641 377.788 60.2061 378.354 58.7021C378.928 57.1982 379.42 56.3962 379.83 56.2959ZM383.809 66.3447C382.815 66.8825 381.712 67.0967 380.5 66.9873C379.734 66.9053 379.374 66.5498 379.42 65.9209C379.465 65.2829 379.812 64.9137 380.459 64.8135C382.018 64.7861 383.152 64.4535 383.863 63.8154C384.574 63.1774 385.016 62.2523 385.189 61.04C385.372 59.8278 385.709 59.0667 386.201 58.7568C386.201 58.7021 386.338 58.6702 386.611 58.6611C387.587 58.8525 387.901 59.5863 387.555 60.8623C387.199 62.5394 386.734 63.738 386.16 64.458C385.586 65.1689 384.802 65.7979 383.809 66.3447ZM385.422 68.8467C385.714 68.8467 385.928 68.9743 386.064 69.2295L385.75 70.1592C385.677 70.4691 383.772 70.8291 380.035 71.2393H379.939C379.146 71.2393 378.75 71.0023 378.75 70.5283C378.75 69.9268 379.197 69.5257 380.09 69.3252L385.422 68.8467ZM393.789 56.6514H393.857C394.395 56.6514 394.851 57.1208 395.225 58.0596C396.163 59.7093 396.633 61.2907 396.633 62.8037C396.633 64.3441 396.059 65.5837 394.91 66.5225C393.871 67.443 392.59 68.2907 391.068 69.0654C388.762 70.1501 387.382 70.6924 386.926 70.6924C386.233 70.5648 385.887 70.2503 385.887 69.749V69.4756C385.887 68.9287 386.338 68.596 387.24 68.4775C388.635 68.0309 389.852 67.5342 390.891 66.9873C391.984 66.4313 393.096 65.6338 394.227 64.5947C394.646 64.1117 394.855 63.5785 394.855 62.9951V62.9678C394.855 61.9287 394.176 60.2926 392.818 58.0596L392.764 57.6904C392.873 56.9977 393.215 56.6514 393.789 56.6514ZM405.957 59.085C406.358 59.085 406.673 59.29 406.9 59.7002C406.964 59.8278 406.996 59.9691 406.996 60.124V60.165C406.996 60.402 406.859 60.7165 406.586 61.1084C406.085 61.9561 405.542 62.8128 404.959 63.6787C404.585 64.335 403.988 65.1462 403.168 66.1123C401.701 68.0355 399.896 70.2002 397.754 72.6064C396.806 73.6455 395.963 74.5524 395.225 75.3271C394.878 75.7191 394.646 75.915 394.527 75.915C394.418 75.9697 394.277 75.9971 394.104 75.9971C393.684 75.9971 393.365 75.7692 393.146 75.3135C393.101 75.195 393.078 75.0856 393.078 74.9854V74.9033C393.078 74.5752 393.279 74.2425 393.68 73.9053C393.68 73.8779 394.45 73.1123 395.99 71.6084C397.613 69.9769 398.633 68.8877 399.053 68.3408C400.247 66.9372 401.258 65.6156 402.088 64.376C403.145 62.79 404.143 61.1676 405.082 59.5088C405.31 59.2262 405.602 59.085 405.957 59.085ZM406.504 47.874C407.169 47.874 407.734 48.3115 408.199 49.1865V49.46C408.199 49.9066 407.798 50.2165 406.996 50.3896H406.723C406.03 50.3896 405.611 49.861 405.465 48.8037C405.465 48.2751 405.811 47.9652 406.504 47.874ZM412.588 53.9033H412.957C413.422 53.9033 413.736 54.1859 413.9 54.751V54.9561C413.9 55.3298 413.376 56.0544 412.328 57.1299C410.286 59.5452 409.266 61.3727 409.266 62.6123V62.9268C409.402 64.1663 409.926 64.7861 410.838 64.7861C411.613 64.7861 412 65.1006 412 65.7295V66.0439C412 66.609 411.613 66.9281 410.838 67.001C409.079 67.001 407.885 66.0303 407.256 64.0889L407.146 62.9268V62.7764C407.146 60.5068 408.819 57.6038 412.164 54.0674L412.588 53.9033ZM414.297 66.3447C413.303 66.8825 412.201 67.0967 410.988 66.9873C410.223 66.9053 409.863 66.5498 409.908 65.9209C409.954 65.2829 410.3 64.9137 410.947 64.8135C412.506 64.7861 413.641 64.4535 414.352 63.8154C415.062 63.1774 415.505 62.2523 415.678 61.04C415.86 59.8278 416.197 59.0667 416.689 58.7568C416.689 58.7021 416.826 58.6702 417.1 58.6611C418.075 58.8525 418.389 59.5863 418.043 60.8623C417.688 62.5394 417.223 63.738 416.648 64.458C416.074 65.1689 415.29 65.7979 414.297 66.3447ZM412.82 71.3623C413.486 71.3623 414.051 71.7998 414.516 72.6748V72.9482C414.516 73.3949 414.115 73.7048 413.312 73.8779H413.039C412.346 73.8779 411.927 73.3493 411.781 72.292C411.781 71.7542 412.128 71.4443 412.82 71.3623Z" fill="#1839E8"/>
<path d="M176.578 20.0335C178.995 18.3847 181.185 16.4741 183.718 14.9945C185.741 13.8128 187.505 12.3611 189.399 11.0001" stroke="black" stroke-width="3" stroke-linecap="round"/>
<path d="M149.338 14.7711C149.816 12.279 150.244 9.79311 150.637 7.28686C150.914 5.52637 151.412 3.76948 151.437 2" stroke="black" stroke-width="3" stroke-linecap="round"/>
<path d="M120.764 21.1519C118.877 18.8763 116.555 16.9929 114.156 15.1315C112.582 13.9093 111.014 12.6097 109.292 11.5498" stroke="black" stroke-width="3" stroke-linecap="round"/>
<path d="M93.7618 34.2149C89.7601 32.2799 85.4072 31.696 81.2501 30.5498" stroke="black" stroke-width="3" stroke-linecap="round"/>
<path d="M200.562 33.8917C204.788 31.5905 209.034 29.594 213.437 27.9998" stroke="black" stroke-width="3" stroke-linecap="round"/>
</svg>
