<svg width="229" height="126" viewBox="0 0 229 126" fill="none" xmlns="http://www.w3.org/2000/svg">
<path d="M9.12496 68.862C9.47508 68.7764 9.75517 68.897 9.96524 69.2238C10.1753 69.5428 10.0275 70.3558 9.52176 71.6629C9.02382 72.97 8.81764 74.0398 8.90322 74.8723C8.99659 75.697 9.24556 76.1327 9.65013 76.1794C10.0858 76.1794 10.3776 76.405 10.5254 76.8563L10.5488 77.0197V77.1481C10.5488 77.5215 10.3231 77.7938 9.87188 77.965L9.65013 77.9883C8.80208 77.9883 8.21466 77.7588 7.88789 77.2998C7.56111 76.8329 7.42106 76.1366 7.46775 75.2107H7.44441C6.48742 76.6501 5.54989 77.6849 4.63181 78.3151C3.84599 78.9064 3.1302 79.3655 2.48443 79.6922C1.97093 79.9568 1.64415 80.089 1.50411 80.089H1.30571C0.838886 80.089 0.50044 79.8673 0.290371 79.4238L0.26703 79.2137V79.1204C0.26703 78.6847 0.597695 78.354 1.25902 78.1284C2.31715 77.6227 3.14187 77.1325 3.73318 76.6579C4.33226 76.1755 5.04806 75.4208 5.88055 74.3938C6.72083 73.359 7.38216 72.1997 7.86454 70.916C8.35471 69.6322 8.77485 68.9476 9.12496 68.862ZM13.5714 74.4638C13.5014 74.6895 13.4742 75.0007 13.4897 75.3975C13.5053 75.7865 13.7815 76.016 14.3183 76.086C14.8085 76.0471 15.1197 76.3311 15.252 76.938V77.1481C15.1275 77.716 14.8046 78 14.2833 78C12.9996 78.0078 12.2916 77.5332 12.1593 76.5762C11.817 77.1053 11.463 77.4748 11.0973 77.6849C10.7316 77.895 10.2803 78.0117 9.7435 78.035C9.05105 77.9261 8.72816 77.5838 8.77485 77.008C8.81375 76.4323 9.12496 76.0977 9.70849 76.0043C10.6266 76.0043 11.3268 75.2808 11.8092 73.8336C12.2993 72.3865 12.6806 71.519 12.9529 71.2311C13.2252 70.9432 13.5286 70.8499 13.8632 70.951C14.509 71.2778 14.6023 71.908 14.1433 72.8416C13.8321 73.6897 13.6415 74.2304 13.5714 74.4638ZM14.2367 82.2597C14.4156 82.2597 14.5479 82.3687 14.6335 82.5865L14.4351 83.3801C14.3884 83.6524 12.879 84.0103 9.90689 84.4538H9.83686C9.3467 84.4538 9.10162 84.2515 9.10162 83.8469C9.10162 83.3412 9.37782 82.9989 9.93023 82.8199C10.7005 82.6332 12.136 82.4465 14.2367 82.2597ZM22.5461 60.3892C23.114 60.3892 23.5964 60.7626 23.9932 61.5095V61.743C23.9932 62.1242 23.6509 62.3887 22.9662 62.5365H22.7328C22.1415 62.5365 21.7836 62.0853 21.6591 61.1828C21.6591 60.7315 21.9548 60.467 22.5461 60.3892ZM26.1523 65.8276C26.4246 65.8276 26.6269 65.9366 26.7591 66.1544L26.4557 66.948C26.3857 67.2203 24.0905 67.5782 19.5701 68.0217H19.4767C18.7298 68.0217 18.3563 67.8194 18.3563 67.4148C18.3563 66.9091 18.7765 66.5668 19.6168 66.3878C20.7916 66.2011 22.9701 66.0144 26.1523 65.8276ZM19.8152 75.9693C21.9859 75.5492 23.7637 74.7712 25.1486 73.6352C26.5335 72.4993 27.3582 72.5265 27.6227 73.7169V73.7519C27.6617 74.2654 26.9925 74.9423 25.6154 75.7826C24.2461 76.6229 22.4333 77.257 20.177 77.6849C17.9284 78.1128 16.2362 78.2723 15.1003 78.1634C13.9643 78.0545 13.3964 77.8716 13.3964 77.6149C13.2174 77.4515 13.128 77.2453 13.128 76.9963C13.2369 76.405 13.5364 76.1094 14.0266 76.1094C15.7227 76.4284 17.6522 76.3817 19.8152 75.9693ZM35.1502 66.8196H35.4653C35.8621 66.8196 36.1306 67.0608 36.2706 67.5432V67.7183C36.2706 68.0373 35.8232 68.6558 34.9285 69.5739C33.1857 71.6357 32.3143 73.1956 32.3143 74.2538V74.5222C32.431 75.5803 32.8784 76.1094 33.6564 76.1094C34.3177 76.1094 34.6484 76.3778 34.6484 76.9146V77.1831C34.6484 77.6654 34.3177 77.9378 33.6564 78C32.1548 78 31.1356 77.1714 30.5987 75.5142L30.5054 74.5222V74.3938C30.5054 72.4565 31.9331 69.9785 34.7885 66.9597L35.1502 66.8196ZM36.6091 77.4398C35.761 77.8989 34.8196 78.0817 33.7848 77.9883C33.1312 77.9183 32.8239 77.6149 32.8628 77.078C32.9017 76.5334 33.1974 76.2183 33.7498 76.1327C35.0802 76.1094 36.0489 75.8254 36.6557 75.2808C37.2626 74.7361 37.64 73.9464 37.7878 72.9116C37.9434 71.8769 38.2313 71.2272 38.6514 70.9627C38.6514 70.916 38.7681 70.8888 39.0015 70.881C39.834 71.0444 40.1024 71.6707 39.8068 72.7599C39.5033 74.1915 39.1066 75.2146 38.6164 75.8293C38.1262 76.4361 37.4571 76.973 36.6091 77.4398ZM35.3486 81.7229C35.9166 81.7229 36.399 82.0964 36.7958 82.8433V83.0767C36.7958 83.4579 36.4535 83.7224 35.7688 83.8703H35.5354C34.9441 83.8703 34.5862 83.419 34.4617 82.5165C34.4617 82.0575 34.7573 81.7929 35.3486 81.7229ZM55.0952 58.3585C55.5387 58.3585 55.846 58.5997 56.0171 59.0821V59.3622C55.2391 63.0034 54.7412 66.17 54.5233 68.862L54.465 69.5272H54.4883C55.2197 69.0837 55.8499 68.862 56.3789 68.862C57.1647 68.862 57.7094 69.2977 58.0128 70.1691L58.0712 70.6359C58.2112 73.3357 57.3787 75.2652 55.5737 76.4245C53.7764 77.576 51.4656 78.1011 48.6414 78C47.3732 78.0156 46.7391 77.9767 46.7391 77.8833C46.4356 77.6654 46.2839 77.4087 46.2839 77.113C46.3773 76.4828 46.6768 76.1677 47.1826 76.1677L48.3379 76.1327V75.876C48.3379 75.5803 48.9759 74.6934 50.2519 73.2151C51.4112 71.9936 52.197 71.2272 52.6094 70.916L52.5277 70.5542C52.5277 69.2627 52.8116 66.7885 53.3796 63.1317C53.7686 60.9921 54.0721 59.5411 54.2899 58.7786C54.5233 58.4985 54.7917 58.3585 55.0952 58.3585ZM50.497 75.876H50.532C51.7457 76.0938 52.9789 75.8176 54.2316 75.0474C55.4842 74.2771 56.1805 73.3357 56.3206 72.2231C56.4606 71.1027 56.2389 70.6553 55.6554 70.881C55.0718 71.1066 54.1149 71.8574 52.7844 73.1334C51.5551 74.4794 50.7926 75.3936 50.497 75.876ZM63.5796 66.8196H63.8948C64.2916 66.8196 64.56 67.0608 64.7 67.5432V67.7183C64.7 68.0373 64.2526 68.6558 63.3579 69.5739C61.6151 71.6357 60.7437 73.1956 60.7437 74.2538V74.5222C60.8604 75.5803 61.3078 76.1094 62.0858 76.1094C62.7472 76.1094 63.0778 76.3778 63.0778 76.9146V77.1831C63.0778 77.6654 62.7472 77.9378 62.0858 78C60.5842 78 59.565 77.1714 59.0281 75.5142L58.9348 74.5222V74.3938C58.9348 72.4565 60.3625 69.9785 63.2179 66.9597L63.5796 66.8196ZM66.1938 74.4638C66.1238 74.6895 66.0966 75.0007 66.1122 75.3975C66.1277 75.7865 66.4039 76.016 66.9408 76.086C67.4309 76.0471 67.7421 76.3311 67.8744 76.938V77.1481C67.7499 77.716 67.427 78 66.9058 78C65.622 78.0078 64.914 77.5332 64.7817 76.5762C64.4394 77.1053 64.0854 77.4748 63.7197 77.6849C63.354 77.895 62.9028 78.0117 62.3659 78.035C61.6735 77.9261 61.3506 77.5838 61.3973 77.008C61.4362 76.4323 61.7474 76.0977 62.3309 76.0043C63.249 76.0043 63.9492 75.2808 64.4316 73.8336C64.9218 72.3865 65.303 71.519 65.5753 71.2311C65.8476 70.9432 66.1511 70.8499 66.4856 70.951C67.1314 71.2778 67.2247 71.908 66.7657 72.8416C66.4545 73.6897 66.2639 74.2304 66.1938 74.4638ZM63.4863 82.038C64.0543 82.038 64.5366 82.4115 64.9334 83.1584V83.3918C64.9334 83.773 64.5911 84.0376 63.9064 84.1854H63.673C63.0817 84.1854 62.7238 83.7341 62.5993 82.8316C62.5993 82.3726 62.895 82.108 63.4863 82.038ZM69.6833 77.4398C68.8353 77.8989 67.8939 78.0817 66.8591 77.9883C66.2055 77.9183 65.8982 77.6149 65.9371 77.078C65.976 76.5334 66.2717 76.2183 66.8241 76.1327C68.1545 76.1094 69.1232 75.8254 69.73 75.2808C70.3369 74.7361 70.7142 73.9464 70.8621 72.9116C71.0177 71.8769 71.3055 71.2272 71.7257 70.9627C71.7257 70.916 71.8424 70.8888 72.0758 70.881C72.9083 71.0444 73.1767 71.6707 72.8811 72.7599C72.5776 74.1915 72.1808 75.2146 71.6907 75.8293C71.2005 76.4361 70.5314 76.973 69.6833 77.4398ZM75.6586 64.007C75.8609 64.007 76.0088 64.116 76.1021 64.3338L75.8804 65.1274C75.8337 65.3997 74.1648 65.7576 70.8737 66.2011H70.8037C70.2591 66.2011 69.9868 65.9988 69.9868 65.5942C69.9868 65.0885 70.2941 64.7462 70.9087 64.5672C71.7568 64.3805 73.3401 64.1938 75.6586 64.007ZM80.3969 71.2428C80.7392 71.2428 81.0076 71.4178 81.2022 71.7679C81.2566 71.8769 81.2838 71.9975 81.2838 72.1297V72.1647C81.2838 72.367 81.1671 72.6354 80.9337 72.97C80.5058 73.6936 80.0429 74.4249 79.5449 75.1641C79.2259 75.7242 78.7163 76.4167 78.0161 77.2414C76.7635 78.8831 75.223 80.7309 73.3946 82.7849C72.5854 83.6719 71.8657 84.446 71.2355 85.1074C70.9399 85.4419 70.7415 85.6092 70.6403 85.6092C70.547 85.6559 70.4264 85.6792 70.2785 85.6792C69.9206 85.6792 69.6483 85.4847 69.4616 85.0957C69.4227 84.9945 69.4032 84.9012 69.4032 84.8156V84.7456C69.4032 84.4655 69.5744 84.1815 69.9167 83.8936C69.9167 83.8703 70.5742 83.2167 71.8891 81.933C73.274 80.5403 74.1454 79.6105 74.5033 79.1437C75.5225 77.9455 76.3861 76.8174 77.0941 75.7593C77.9966 74.4055 78.8486 73.0206 79.65 71.6046C79.8445 71.3634 80.0935 71.2428 80.3969 71.2428ZM83.9681 64.9874C84.4271 64.9874 84.7305 65.2363 84.8784 65.7343L84.89 65.8977C84.89 66.4967 84.6605 69.1771 84.2015 73.9387L83.898 77.9066C83.688 78.3735 83.3923 78.6069 83.0111 78.6069H82.9994C82.377 78.5368 82.0658 78.249 82.0658 77.7432C82.5715 73.9075 82.8244 71.4878 82.8244 70.4842C82.9644 68.4924 83.0344 66.9636 83.0344 65.8977C83.0344 65.4386 83.3106 65.1352 83.863 64.9874H83.9681ZM97.4125 71.2428C97.7548 71.2428 98.0233 71.4178 98.2178 71.7679C98.2722 71.8769 98.2995 71.9975 98.2995 72.1297V72.1647C98.2995 72.367 98.1828 72.6354 97.9494 72.97C97.5214 73.6936 97.0585 74.4249 96.5606 75.1641C96.2416 75.7242 95.732 76.4167 95.0317 77.2414C93.7791 78.8831 92.2386 80.7309 90.4102 82.7849C89.601 83.6719 88.8814 84.446 88.2511 85.1074C87.9555 85.4419 87.7571 85.6092 87.6559 85.6092C87.5626 85.6559 87.442 85.6792 87.2942 85.6792C86.9363 85.6792 86.664 85.4847 86.4772 85.0957C86.4383 84.9945 86.4189 84.9012 86.4189 84.8156V84.7456C86.4189 84.4655 86.59 84.1815 86.9324 83.8936C86.9324 83.8703 87.5898 83.2167 88.9047 81.933C90.2896 80.5403 91.161 79.6105 91.5189 79.1437C92.5381 77.9455 93.4017 76.8174 94.1098 75.7593C95.0123 74.4055 95.8642 73.0206 96.6656 71.6046C96.8601 71.3634 97.1091 71.2428 97.4125 71.2428ZM101.684 69.1654H101.742C102.201 69.1654 102.59 69.5661 102.909 70.3675C103.711 71.7757 104.111 73.1256 104.111 74.4171C104.111 75.732 103.621 76.7902 102.641 77.5915C101.754 78.3773 100.661 79.1009 99.3615 79.7622C97.3931 80.6881 96.2143 81.151 95.8253 81.151C95.234 81.0421 94.9384 80.7737 94.9384 80.3458V80.1124C94.9384 79.6455 95.3235 79.3616 96.0937 79.2604C97.2841 78.8792 98.3228 78.4552 99.2098 77.9883C100.143 77.5137 101.093 76.8329 102.057 75.946C102.415 75.5336 102.594 75.0785 102.594 74.5805V74.5572C102.594 73.6702 102.015 72.2737 100.855 70.3675L100.809 70.0524C100.902 69.4611 101.194 69.1654 101.684 69.1654ZM114.708 69.1654H114.767C115.226 69.1654 115.615 69.5661 115.934 70.3675C116.735 71.7757 117.136 73.1256 117.136 74.4171C117.136 75.732 116.646 76.7902 115.665 77.5915C114.778 78.3773 113.685 79.1009 112.386 79.7622C110.417 80.6881 109.239 81.151 108.85 81.151C108.258 81.0421 107.963 80.7737 107.963 80.3458V80.1124C107.963 79.6455 108.348 79.3616 109.118 79.2604C110.308 78.8792 111.347 78.4552 112.234 77.9883C113.168 77.5137 114.117 76.8329 115.082 75.946C115.44 75.5336 115.619 75.0785 115.619 74.5805V74.5572C115.619 73.6702 115.039 72.2737 113.88 70.3675L113.833 70.0524C113.926 69.4611 114.218 69.1654 114.708 69.1654ZM122.142 76.9263C122.485 76.2339 123.216 75.9538 124.336 76.086C124.718 76.1249 124.982 76.2844 125.13 76.5645C125.278 76.8368 125.309 77.1014 125.223 77.3581C125.146 77.6149 124.978 77.8016 124.722 77.9183C124.465 78.0272 123.885 78.0584 122.983 78.0117C122.08 77.9728 121.8 77.611 122.142 76.9263ZM123.344 71.1727C124.021 71.235 124.465 71.6862 124.675 72.5265C124.706 72.8222 124.71 73.0906 124.687 73.3318C124.546 74.9423 123.663 76.9224 122.037 79.2721C121.516 80.019 120.582 81.0071 119.236 82.2364C117.859 83.489 116.976 84.1698 116.587 84.2787L116.412 84.2671C116.124 84.2437 115.895 84.0414 115.724 83.6602C115.669 83.5591 115.65 83.4307 115.665 83.2751L115.677 83.2284C115.716 82.7849 116.011 82.3959 116.564 82.0613C117.155 81.5556 117.797 80.9721 118.489 80.3108C119.47 79.3771 120.197 78.5252 120.672 77.7549C119.66 77.3348 119.209 76.6618 119.318 75.7359C119.31 74.74 120.026 73.4718 121.465 71.9313C122.127 71.3711 122.753 71.1183 123.344 71.1727ZM121.372 75.1991C121.193 75.6659 121.29 75.9343 121.664 76.0043C121.866 75.8643 122.142 75.3236 122.492 74.3821L122.714 73.4485C122.006 74.1409 121.559 74.7245 121.372 75.1991ZM128.818 69.5155H128.841C129.534 69.5155 130.327 70.1341 131.222 71.3711C131.798 72.1103 132.148 72.5421 132.272 72.6666C132.949 72.1997 133.424 71.9663 133.696 71.9663H133.906C134.217 71.9663 134.474 72.1725 134.677 72.5849C134.723 72.686 134.747 72.7988 134.747 72.9233C134.747 73.3901 134.459 73.8998 133.883 74.4522C133.502 74.7478 133.132 74.8956 132.774 74.8956L132.354 74.7906C130.969 75.6231 129.79 76.265 128.818 76.7162C126.842 77.5332 125.679 77.9416 125.328 77.9416C125.142 77.9805 124.889 78 124.57 78H124.488C124.091 78 123.807 77.8016 123.636 77.4048L123.59 77.1481V77.0197C123.59 76.6307 123.827 76.3545 124.301 76.1911C125.009 76.1911 125.784 75.9966 126.624 75.6075C128.157 75.024 129.6 74.3121 130.954 73.4718C130.043 72.1025 129.32 71.4178 128.783 71.4178C128.425 71.4256 127.733 72.1647 126.706 73.6352C126.441 73.9698 126.227 74.1371 126.064 74.1371C125.869 74.1371 125.651 73.9192 125.41 73.4835L125.363 73.1917C125.363 72.6004 125.826 71.8535 126.752 70.951C127.631 69.994 128.32 69.5155 128.818 69.5155ZM128.596 63.7269C129.164 63.7269 129.647 64.1004 130.043 64.8473V65.0807C130.043 65.462 129.701 65.7265 129.016 65.8743H128.783C128.192 65.8743 127.834 65.4231 127.709 64.5205C127.709 64.0693 128.005 63.8047 128.596 63.7269ZM167.412 66.5395H167.669C168.175 66.5395 168.463 66.9247 168.533 67.6949C168.836 69.5855 168.988 71.2272 168.988 72.6199C168.988 74.5416 168.657 75.9343 167.996 76.7979C166.743 78.5874 165.242 79.9645 163.491 80.9293C160.184 82.9366 156.683 83.9403 152.988 83.9403C149.44 83.9403 146.211 82.9755 143.301 81.046C141.869 79.8712 141.154 78.5796 141.154 77.1714C141.154 75.094 142.465 73.0945 145.087 71.1727C148.86 68.8075 152.21 67.4304 155.135 67.0414C155.711 67.1425 155.999 67.4148 155.999 67.8583V68.1151C155.999 68.6052 155.407 68.9203 154.225 69.0604C153.797 69.0604 152.431 69.5039 150.128 70.3908C148.183 71.3322 146.475 72.3787 145.005 73.5302C143.651 74.8606 142.974 76.0588 142.974 77.1247C142.974 78.3229 143.663 79.4666 145.04 80.5558C147.016 81.7696 149.362 82.3764 152.077 82.3764H152.532C157.154 82.3764 161.262 80.8904 164.857 77.9183C166.055 76.7435 166.77 75.6659 167.004 74.6856C167.113 74.1565 167.167 73.4407 167.167 72.5382C167.167 71.4256 167.004 69.6867 166.677 67.3215V67.2865C166.84 66.7885 167.086 66.5395 167.412 66.5395ZM158.975 73.1917C159.543 73.1917 160.025 73.5652 160.422 74.3121V74.5455C160.422 74.9268 160.079 75.1913 159.395 75.3391H159.161C158.57 75.3391 158.212 74.8879 158.088 73.9853C158.088 73.5341 158.383 73.2695 158.975 73.1917ZM175.267 66.8196H175.582C175.979 66.8196 176.247 67.0608 176.387 67.5432V67.7183C176.387 68.0373 175.94 68.6558 175.045 69.5739C173.302 71.6357 172.431 73.1956 172.431 74.2538V74.5222C172.547 75.5803 172.995 76.1094 173.773 76.1094C174.434 76.1094 174.765 76.3778 174.765 76.9146V77.1831C174.765 77.6654 174.434 77.9378 173.773 78C172.271 78 171.252 77.1714 170.715 75.5142L170.622 74.5222V74.3938C170.622 72.4565 172.049 69.9785 174.905 66.9597L175.267 66.8196ZM176.725 77.4398C175.877 77.8989 174.936 78.0817 173.901 77.9883C173.248 77.9183 172.94 77.6149 172.979 77.078C173.018 76.5334 173.314 76.2183 173.866 76.1327C175.197 76.1094 176.165 75.8254 176.772 75.2808C177.379 74.7361 177.756 73.9464 177.904 72.9116C178.06 71.8769 178.348 71.2272 178.768 70.9627C178.768 70.916 178.884 70.8888 179.118 70.881C179.95 71.0444 180.219 71.6707 179.923 72.7599C179.62 74.1915 179.223 75.2146 178.733 75.8293C178.243 76.4361 177.573 76.973 176.725 77.4398ZM178.103 79.5755C178.352 79.5755 178.534 79.6844 178.651 79.9023L178.383 80.6959C178.32 80.9604 176.694 81.2677 173.504 81.6179H173.423C172.746 81.6179 172.407 81.4156 172.407 81.011C172.407 80.4975 172.789 80.1552 173.551 79.984L178.103 79.5755ZM186.832 71.1727C187.182 71.1727 187.455 71.3478 187.649 71.6979C187.704 71.8146 187.731 71.9391 187.731 72.0714V72.1064C187.731 72.3087 187.626 72.6782 187.416 73.2151C187.206 73.7519 187.003 74.2304 186.809 74.6506C186.622 75.0707 186.591 75.413 186.715 75.6776C186.84 75.9421 187.062 76.1249 187.381 76.2261C187.707 76.3194 187.886 76.6073 187.917 77.0897C187.917 77.4709 187.723 77.751 187.334 77.93C187.225 77.9611 187.128 77.9767 187.042 77.9767H186.925C185.984 77.9144 185.447 77.5098 185.315 76.7629C184.047 78.6613 182.393 80.6998 180.355 82.8783C179.53 83.7808 178.799 84.5705 178.161 85.2474C177.857 85.582 177.655 85.7492 177.554 85.7492C177.461 85.8037 177.34 85.8309 177.192 85.8309C176.827 85.8309 176.55 85.6325 176.364 85.2357C176.317 85.1268 176.294 85.0295 176.294 84.944V84.8739C176.294 84.5938 176.469 84.306 176.819 84.0103C176.819 83.987 177.488 83.3218 178.826 82.0147C180.234 80.5986 181.117 79.6533 181.475 79.1787C182.51 77.965 183.389 76.8213 184.113 75.7476C184.945 74.456 185.498 73.3473 185.77 72.4215C186.05 71.4878 186.404 71.0716 186.832 71.1727ZM190.858 74.4638C190.788 74.6895 190.761 75.0007 190.777 75.3975C190.792 75.7865 191.069 76.016 191.605 76.086C192.096 76.0471 192.407 76.3311 192.539 76.938V77.1481C192.415 77.716 192.092 78 191.57 78C190.287 78.0078 189.579 77.5332 189.446 76.5762C189.104 77.1053 188.75 77.4748 188.384 77.6849C188.019 77.895 187.567 78.0117 187.031 78.035C186.338 77.9261 186.015 77.5838 186.062 77.008C186.101 76.4323 186.412 76.0977 186.995 76.0043C187.914 76.0043 188.614 75.2808 189.096 73.8336C189.586 72.3865 189.968 71.519 190.24 71.2311C190.512 70.9432 190.816 70.8499 191.15 70.951C191.796 71.2778 191.889 71.908 191.43 72.8416C191.119 73.6897 190.928 74.2304 190.858 74.4638ZM194.756 66.9013C194.959 66.9013 195.107 67.0103 195.2 67.2281L194.978 68.0217C194.931 68.294 193.57 68.5158 190.893 68.6869H190.823C190.279 68.6869 190.006 68.4846 190.006 68.0801C190.006 67.5743 190.314 67.232 190.928 67.053L194.756 66.9013ZM191.197 76.1794C195.795 76.4751 200.323 76.4789 204.781 76.1911V78C200.308 78.3735 195.78 78.3735 191.197 78V76.1794ZM198.619 62.875C199.187 62.875 199.67 63.2485 200.066 63.9954V64.2288C200.066 64.61 199.724 64.8745 199.039 65.0224H198.806C198.215 65.0224 197.857 64.5711 197.732 63.6686C197.732 63.2173 198.028 62.9528 198.619 62.875ZM202.226 68.3135C202.498 68.3135 202.7 68.4224 202.832 68.6402L202.529 69.4338C202.459 69.7061 200.164 70.064 195.643 70.5075H195.55C194.803 70.5075 194.43 70.3052 194.43 69.9007C194.43 69.3949 194.85 69.0526 195.69 68.8736C196.865 68.6869 199.043 68.5002 202.226 68.3135ZM209.485 71.3828H209.543C210.041 71.3828 210.453 71.6279 210.78 72.1181C211.115 72.6082 211.266 73.3201 211.235 74.2538C211.212 75.1796 210.955 76.0355 210.465 76.8213C209.975 77.6071 209.185 78.0117 208.096 78.035C207.131 77.9572 206.466 77.5604 206.1 76.8446C205.384 77.7005 204.727 78.0817 204.128 77.9883C203.638 77.8561 203.385 77.5799 203.369 77.1597C203.346 76.7318 203.459 76.44 203.708 76.2844C203.957 76.121 204.225 76.0238 204.513 75.9927C204.809 75.9538 205.131 75.7165 205.482 75.2808C205.832 74.8451 206.376 74.0865 207.115 73.005C207.855 71.9235 208.644 71.3828 209.485 71.3828ZM207.991 76.2844C208.434 76.4011 208.866 76.2611 209.286 75.8643C209.714 75.4597 209.913 75.0046 209.881 74.4988C209.858 73.9853 209.683 73.6586 209.356 73.5185C209.029 73.3785 208.605 73.6586 208.084 74.3588C207.563 75.059 207.263 75.5142 207.186 75.7242C207.279 75.981 207.547 76.1677 207.991 76.2844ZM223.162 66.8196H223.478C223.874 66.8196 224.143 67.0608 224.283 67.5432V67.7183C224.283 68.0373 223.835 68.6558 222.941 69.5739C221.198 71.6357 220.327 73.1956 220.327 74.2538V74.5222C220.443 75.5803 220.891 76.1094 221.669 76.1094C222.33 76.1094 222.661 76.3778 222.661 76.9146V77.1831C222.661 77.6654 222.33 77.9378 221.669 78C220.167 78 219.148 77.1714 218.611 75.5142L218.518 74.5222V74.3938C218.518 72.4565 219.945 69.9785 222.801 66.9597L223.162 66.8196ZM224.621 77.4398C223.773 77.8989 222.832 78.0817 221.797 77.9883C221.143 77.9183 220.836 77.6149 220.875 77.078C220.914 76.5334 221.21 76.2183 221.762 76.1327C223.092 76.1094 224.061 75.8254 224.668 75.2808C225.275 74.7361 225.652 73.9464 225.8 72.9116C225.956 71.8769 226.243 71.2272 226.664 70.9627C226.664 70.916 226.78 70.8888 227.014 70.881C227.846 71.0444 228.115 71.6707 227.819 72.7599C227.516 74.1915 227.119 75.2146 226.629 75.8293C226.138 76.4361 225.469 76.973 224.621 77.4398ZM223.361 81.7229C223.929 81.7229 224.411 82.0964 224.808 82.8433V83.0767C224.808 83.4579 224.466 83.7224 223.781 83.8703H223.548C222.956 83.8703 222.598 83.419 222.474 82.5165C222.474 82.0575 222.77 81.7929 223.361 81.7229ZM52.2592 94.9027C52.8428 95.2217 53.0451 95.599 52.8661 96.0347C52.6872 96.4626 51.8313 97.6919 50.2986 99.7226C48.7736 101.753 47.9762 103.994 47.9061 106.445V106.97C47.9139 111.249 49.7695 114.268 53.473 116.026C53.9242 116.33 54.1499 116.707 54.1499 117.158V117.24C54.1888 117.886 53.8853 118.224 53.2396 118.255C52.5938 118.294 51.6057 117.75 50.2752 116.622C48.9526 115.501 47.8205 113.976 46.8791 112.047C45.9455 110.125 45.5993 108.009 45.8404 105.698C46.0816 103.387 47.0659 100.932 48.7931 98.3338C50.5281 95.7274 51.6835 94.5837 52.2592 94.9027ZM58.8648 103.889C59.4327 103.889 59.9151 104.262 60.3119 105.009V105.243C60.3119 105.624 59.9696 105.889 59.2849 106.036H59.0515C58.4602 106.036 58.1023 105.585 57.9778 104.683C57.9778 104.231 58.2735 103.967 58.8648 103.889ZM58.9231 108.616C59.4911 108.616 59.9735 108.989 60.3703 109.736V109.969C60.3703 110.351 60.0279 110.615 59.3433 110.763H59.1098C58.5185 110.763 58.1606 110.312 58.0362 109.409C58.0362 108.958 58.3318 108.693 58.9231 108.616ZM86.8857 104.239C87.4692 104.27 87.7921 104.585 87.8544 105.184C86.9907 107.9 85.742 109.635 84.1081 110.389C82.482 111.144 80.9687 111.619 79.5683 111.813C78.1678 112.008 76.4639 112.105 74.4566 112.105C70.5586 112.105 68.1701 111.288 67.2909 109.654C67.1119 109.187 67.0225 108.806 67.0225 108.511C67.0225 107.087 68.065 105.729 70.1502 104.437C71.0293 103.986 71.9435 103.632 72.8927 103.375C74.3866 103.025 75.6548 102.85 76.6973 102.85C77.0941 102.85 77.3859 103.115 77.5726 103.644V103.971C77.5726 104.422 77.2692 104.714 76.6623 104.846H76.0438C73.6241 104.846 71.5895 105.527 69.9401 106.888C69.2165 107.604 68.8547 108.184 68.8547 108.627C68.8547 109.67 70.2785 110.3 73.1261 110.518L74.5733 110.541H74.5966C79.0937 110.354 82.0152 109.814 83.3612 108.919C84.7072 108.016 85.4736 107.091 85.6603 106.141C85.847 105.192 86.1154 104.585 86.4656 104.321C86.5978 104.266 86.7379 104.239 86.8857 104.239ZM75.0868 116.972C75.6548 116.972 76.1371 117.345 76.5339 118.092V118.325C76.5339 118.707 76.1916 118.971 75.5069 119.119H75.2735C74.6822 119.119 74.3243 118.668 74.1998 117.765C74.1998 117.306 74.4955 117.042 75.0868 116.972ZM87.3875 106.2C86.8818 107.554 86.699 108.487 86.839 109.001C86.9791 109.506 87.3136 109.868 87.8427 110.086C88.2239 110.125 88.4884 110.284 88.6363 110.565C88.7841 110.837 88.8152 111.101 88.7296 111.358C88.6518 111.615 88.4846 111.802 88.2278 111.918C87.9711 112.027 87.5898 111.992 87.0841 111.813C86.5784 111.627 86.1505 111.257 85.8003 110.705C85.4502 110.152 85.3413 109.444 85.4736 108.581C85.6058 107.709 86.0843 106.756 86.909 105.721C87.7338 104.686 87.8933 104.846 87.3875 106.2ZM96.2221 94.3892C96.7901 94.3892 97.2725 94.7626 97.6693 95.5095V95.743C97.6693 96.1242 97.3269 96.3887 96.6423 96.5365H96.4089C95.8175 96.5365 95.4596 96.0853 95.3352 95.1828C95.3352 94.7315 95.6308 94.467 96.2221 94.3892ZM99.8283 99.8276C100.101 99.8276 100.303 99.9366 100.435 100.154L100.132 100.948C100.062 101.22 97.7665 101.578 93.2461 102.022H93.1528C92.4059 102.022 92.0324 101.819 92.0324 101.415C92.0324 100.909 92.4525 100.567 93.2928 100.388C94.4677 100.201 96.6462 100.014 99.8283 99.8276ZM93.4912 109.969C95.6619 109.549 97.4397 108.771 98.8247 107.635C100.21 106.499 101.034 106.527 101.299 107.717V107.752C101.338 108.265 100.669 108.942 99.2915 109.783C97.9221 110.623 96.1093 111.257 93.853 111.685C91.6045 112.113 89.9123 112.272 88.7763 112.163C87.6404 112.054 87.0724 111.872 87.0724 111.615C86.8935 111.451 86.804 111.245 86.804 110.996C86.9129 110.405 87.2125 110.109 87.7026 110.109C89.3988 110.428 91.3283 110.382 93.4912 109.969ZM111.931 106.305C113.316 106.305 114.222 106.811 114.65 107.822C114.767 108.125 114.856 108.759 114.918 109.724C114.965 109.981 115.082 110.109 115.268 110.109C115.774 110.319 116.027 110.603 116.027 110.961V111.136C116.027 111.619 115.743 111.93 115.175 112.07H114.51C113.88 112.07 113.467 111.837 113.273 111.37C113.094 111.152 112.95 110.273 112.841 108.732C112.724 108.281 112.499 108.055 112.164 108.055L111.989 108.032H111.837C110.616 108.032 109.141 108.977 107.414 110.868C106.815 111.63 106.465 112.195 106.364 112.56H106.399L106.807 112.502H106.889C107.519 112.595 107.834 112.899 107.834 113.412L107.858 113.447V113.47C107.858 114.21 107.274 114.579 106.107 114.579C105.181 114.579 104.605 114.182 104.38 113.389L104.345 113.085V112.829C104.345 111.739 105.387 110.246 107.473 108.347C109.13 106.986 110.616 106.305 111.931 106.305ZM122.119 109.934C122.345 110.059 122.566 110.133 122.784 110.156C123.002 110.172 123.173 110.323 123.298 110.611C123.43 110.899 123.426 111.183 123.286 111.463C123.146 111.735 122.936 111.907 122.656 111.977C122.384 112.039 122.053 111.953 121.664 111.72C121.283 111.479 120.979 111.129 120.754 110.67C120.528 110.211 120.703 109.623 121.279 108.907C121.862 108.192 122.092 108.153 121.967 108.791C121.851 109.429 121.901 109.81 122.119 109.934ZM120.427 105.383H120.485C120.983 105.383 121.395 105.628 121.722 106.118C122.057 106.608 122.208 107.32 122.177 108.254C122.154 109.18 121.897 110.035 121.407 110.821C120.917 111.607 120.127 112.012 119.038 112.035C118.073 111.957 117.408 111.56 117.042 110.845C116.327 111.7 115.669 112.082 115.07 111.988C114.58 111.856 114.327 111.58 114.311 111.16C114.288 110.732 114.401 110.44 114.65 110.284C114.899 110.121 115.167 110.024 115.455 109.993C115.751 109.954 116.074 109.716 116.424 109.281C116.774 108.845 117.319 108.086 118.058 107.005C118.797 105.924 119.587 105.383 120.427 105.383ZM118.933 110.284C119.376 110.401 119.808 110.261 120.228 109.864C120.656 109.46 120.855 109.005 120.824 108.499C120.8 107.985 120.625 107.659 120.298 107.519C119.972 107.378 119.548 107.659 119.026 108.359C118.505 109.059 118.206 109.514 118.128 109.724C118.221 109.981 118.489 110.168 118.933 110.284ZM126.367 108.464C126.297 108.689 126.27 109.001 126.285 109.397C126.301 109.786 126.577 110.016 127.114 110.086C127.604 110.047 127.915 110.331 128.048 110.938V111.148C127.923 111.716 127.6 112 127.079 112C125.795 112.008 125.087 111.533 124.955 110.576C124.613 111.105 124.259 111.475 123.893 111.685C123.527 111.895 123.076 112.012 122.539 112.035C121.847 111.926 121.524 111.584 121.571 111.008C121.609 110.432 121.921 110.098 122.504 110.004C123.422 110.004 124.122 109.281 124.605 107.834C125.095 106.386 125.476 105.519 125.749 105.231C126.021 104.943 126.324 104.85 126.659 104.951C127.305 105.278 127.398 105.908 126.939 106.842C126.628 107.69 126.437 108.23 126.367 108.464ZM127.032 116.26C127.211 116.26 127.344 116.369 127.429 116.587L127.231 117.38C127.184 117.652 125.675 118.01 122.703 118.454H122.633C122.142 118.454 121.897 118.252 121.897 117.847C121.897 117.341 122.173 116.999 122.726 116.82C123.496 116.633 124.932 116.446 127.032 116.26ZM129.623 111.44C128.775 111.899 127.834 112.082 126.799 111.988C126.145 111.918 125.838 111.615 125.877 111.078C125.916 110.533 126.211 110.218 126.764 110.133C128.094 110.109 129.063 109.825 129.67 109.281C130.277 108.736 130.654 107.946 130.802 106.912C130.958 105.877 131.245 105.227 131.666 104.963C131.666 104.916 131.782 104.889 132.016 104.881C132.848 105.044 133.117 105.671 132.821 106.76C132.517 108.192 132.121 109.215 131.631 109.829C131.14 110.436 130.471 110.973 129.623 111.44ZM130.755 98.2404C131.323 98.2404 131.806 98.6139 132.202 99.3608V99.5942C132.202 99.9832 131.86 100.248 131.175 100.388H130.942C130.351 100.388 129.993 99.9366 129.868 99.034C129.868 98.5828 130.164 98.3182 130.755 98.2404ZM145.18 105.243C145.522 105.243 145.791 105.418 145.985 105.768C146.04 105.877 146.067 105.997 146.067 106.13V106.165C146.067 106.367 145.95 106.635 145.717 106.97C145.289 107.694 144.826 108.425 144.328 109.164C144.009 109.724 143.499 110.417 142.799 111.241C141.547 112.883 140.006 114.731 138.178 116.785C137.369 117.672 136.649 118.446 136.019 119.107C135.723 119.442 135.525 119.609 135.423 119.609C135.33 119.656 135.209 119.679 135.062 119.679C134.704 119.679 134.431 119.485 134.245 119.096C134.206 118.995 134.186 118.901 134.186 118.816V118.746C134.186 118.465 134.358 118.181 134.7 117.894C134.7 117.87 135.357 117.217 136.672 115.933C138.057 114.54 138.928 113.611 139.286 113.144C140.306 111.946 141.169 110.817 141.877 109.759C142.78 108.405 143.632 107.021 144.433 105.605C144.628 105.363 144.877 105.243 145.18 105.243ZM149.451 103.165H149.51C149.969 103.165 150.358 103.566 150.677 104.367C151.478 105.776 151.879 107.126 151.879 108.417C151.879 109.732 151.389 110.79 150.408 111.592C149.521 112.377 148.428 113.101 147.129 113.762C145.161 114.688 143.982 115.151 143.593 115.151C143.001 115.042 142.706 114.774 142.706 114.346V114.112C142.706 113.646 143.091 113.362 143.861 113.26C145.052 112.879 146.09 112.455 146.977 111.988C147.911 111.514 148.86 110.833 149.825 109.946C150.183 109.534 150.362 109.078 150.362 108.581V108.557C150.362 107.67 149.782 106.274 148.623 104.367L148.576 104.052C148.669 103.461 148.961 103.165 149.451 103.165ZM167.926 104.297H168.288C168.856 104.297 169.186 104.508 169.28 104.928L169.303 105.068C169.303 105.713 168.649 106.635 167.342 107.834L167.097 107.892H166.981C166.451 107.892 166.136 107.569 166.035 106.923C166.074 106.768 166.222 106.527 166.479 106.2C164.557 106.527 162.954 107.118 161.67 107.974C160.916 108.386 159.815 109.254 158.368 110.576C157.185 111.868 156.594 113.011 156.594 114.007C156.594 114.832 157.177 115.614 158.344 116.353C159.387 116.89 160.558 117.158 161.857 117.158H162.417C164.215 117.158 166.273 116.8 168.591 116.085C169.641 115.696 170.544 115.26 171.299 114.778C172.614 113.875 173.271 113.257 173.271 112.922C173.271 112.704 172.68 112.3 171.497 111.708C171.124 111.459 170.937 111.175 170.937 110.856V110.821C170.937 110.261 171.26 109.95 171.906 109.888H171.941L173.376 110.074L173.761 110.109L175.395 110.074H175.477L175.873 110.051C176.301 110.051 176.597 110.319 176.76 110.856V111.02C176.76 111.533 176.445 111.837 175.815 111.93H175.453L174.846 111.965C175.049 112.338 175.15 112.677 175.15 112.98C175.15 113.727 174.356 114.603 172.769 115.606C171.75 116.353 170.404 117.03 168.731 117.637C166.381 118.407 164.043 118.792 161.717 118.792C158.115 118.792 155.909 117.641 155.1 115.338C154.991 114.933 154.937 114.552 154.937 114.194V113.949C154.937 112.486 156.092 110.716 158.403 108.639C160.075 107.293 161.488 106.398 162.639 105.955C164.989 104.85 166.751 104.297 167.926 104.297ZM179.55 108.464C179.48 108.689 179.452 109.001 179.468 109.397C179.484 109.786 179.76 110.016 180.297 110.086C180.787 110.047 181.098 110.331 181.23 110.938V111.148C181.106 111.716 180.783 112 180.262 112C178.978 112.008 178.27 111.533 178.138 110.576C177.795 111.105 177.441 111.475 177.076 111.685C176.71 111.895 176.259 112.012 175.722 112.035C175.029 111.926 174.706 111.584 174.753 111.008C174.792 110.432 175.103 110.098 175.687 110.004C176.605 110.004 177.305 109.281 177.787 107.834C178.278 106.386 178.659 105.519 178.931 105.231C179.203 104.943 179.507 104.85 179.841 104.951C180.487 105.278 180.581 105.908 180.122 106.842C179.81 107.69 179.62 108.23 179.55 108.464ZM183.448 100.901C183.65 100.901 183.798 101.01 183.891 101.228L183.669 102.022C183.623 102.294 182.261 102.516 179.585 102.687H179.515C178.97 102.687 178.698 102.485 178.698 102.08C178.698 101.574 179.005 101.232 179.62 101.053L183.448 100.901ZM184.685 103.516H184.708C185.401 103.516 186.194 104.134 187.089 105.371C187.665 106.11 188.015 106.542 188.139 106.667C188.816 106.2 189.291 105.966 189.563 105.966H189.773C190.084 105.966 190.341 106.173 190.543 106.585C190.59 106.686 190.613 106.799 190.613 106.923C190.613 107.39 190.325 107.9 189.75 108.452C189.368 108.748 188.999 108.896 188.641 108.896L188.221 108.791C186.836 109.623 185.657 110.265 184.685 110.716C182.709 111.533 181.545 111.942 181.195 111.942C181.009 111.981 180.756 112 180.437 112H180.355C179.958 112 179.674 111.802 179.503 111.405L179.456 111.148V111.02C179.456 110.631 179.694 110.354 180.168 110.191C180.876 110.191 181.65 109.997 182.491 109.608C184.023 109.024 185.467 108.312 186.82 107.472C185.91 106.102 185.187 105.418 184.65 105.418C184.292 105.426 183.599 106.165 182.572 107.635C182.308 107.97 182.094 108.137 181.93 108.137C181.736 108.137 181.518 107.919 181.277 107.484L181.23 107.192C181.23 106.6 181.693 105.854 182.619 104.951C183.498 103.994 184.187 103.516 184.685 103.516Z" fill="#1839E8"/>
<path d="M125.597 43.5623C142.271 13.5195 177.046 15.5573 177.046 15.5573M177.046 15.5573C177.046 15.5573 175.152 11.9023 168.298 7.28344C175.092 11.862 177.046 15.5573 177.046 15.5573ZM177.046 15.5573C177.046 15.5573 177.314 16.5932 169.242 25.3211" stroke="#1839E8" stroke-width="2" stroke-linecap="round" stroke-linejoin="round"/>
</svg>
