<svg width="140" height="83" viewBox="0 0 140 83" fill="none" xmlns="http://www.w3.org/2000/svg">
<path d="M139.994 0.040578L117.049 0.0405176C117.049 0.0405176 97.7912 -0.0765775 93.0118 0.0873545V21.2812L120.035 21.3515C120.035 21.3515 119.927 23.7367 118.926 26.9463C112.522 47.4846 90.1301 62.5454 68.615 62.5767C46.7485 62.6157 29.8431 47.573 23.2597 26.738C21.5495 21.3127 20.4405 5.55431 20.4405 0.0405115H0.000780915C-0.0150308 1.16159 0.213981 12.6789 0.260838 13.9123C0.643709 23.9727 3.13839 33.8403 7.58299 42.8747C12.0276 51.9091 18.3228 59.9085 26.0601 66.3537C33.7974 72.799 42.804 77.5461 52.4953 80.2871C62.1867 83.0281 68.8144 83.7016 78.783 82.2641C113.574 77.432 140.478 46.2928 139.994 11.3362V0.040578Z" fill="#1839E8"/>
</svg>
