<?xml version="1.0" encoding="UTF-8"?>
<svg xmlns="http://www.w3.org/2000/svg" xmlns:xlink="http://www.w3.org/1999/xlink" width="370px" height="724px" viewBox="0 0 370 724" version="1.1">
<g id="surface1">
<path style=" stroke:none;fill-rule:nonzero;fill:rgb(0%,0%,0%);fill-opacity:1;" d="M 172.515625 1.722656 C 100.382812 1.878906 57.679688 2.121094 55.996094 2.394531 C 49.253906 3.394531 42.597656 4.746094 41.816406 5.265625 C 41.609375 5.425781 40.871094 5.664062 40.171875 5.824219 C 37.539062 6.421875 29.527344 10.605469 25.703125 13.394531 C 16.910156 19.765625 10.621094 28.53125 7.085938 39.324219 C 5.113281 45.261719 5.070312 45.421875 4.621094 49.085938 C 3.632812 56.617188 3.429688 63.585938 3.386719 89.039062 L 3.386719 115.613281 L 2.359375 116.011719 C 1.824219 116.210938 1.25 116.804688 1.125 117.285156 C 1.003906 117.804688 0.960938 123.660156 1.003906 130.351562 L 1.125 142.5 L 2.277344 143.019531 L 3.386719 143.535156 L 3.386719 167.398438 L 2.359375 168.039062 L 1.332031 168.675781 L 1.332031 221.894531 L 2.359375 222.535156 L 3.386719 223.171875 L 3.386719 237.074219 L 2.359375 237.59375 L 1.289062 238.109375 L 1.289062 264.601562 C 1.332031 282.449219 1.453125 291.128906 1.742188 291.210938 C 1.988281 291.289062 2.441406 291.609375 2.769531 291.96875 C 3.304688 292.488281 3.386719 314.59375 3.386719 477.046875 C 3.429688 584.246094 3.59375 663.640625 3.796875 666.550781 C 4.25 672.523438 4.90625 677.863281 5.441406 679.496094 C 5.605469 680.132812 6.179688 682.042969 6.675781 683.679688 C 7.578125 686.628906 8.402344 688.820312 9.140625 690.128906 C 9.386719 690.527344 9.550781 691.046875 9.550781 691.285156 C 9.550781 691.886719 13.375 698.019531 15.46875 700.804688 C 18.386719 704.710938 21.71875 707.777344 28.253906 712.601562 C 29.402344 713.433594 37.292969 717.222656 39.964844 718.175781 C 45.183594 720.085938 49.296875 720.804688 59.898438 721.722656 C 70.667969 722.640625 298.773438 722.597656 309.253906 721.683594 C 317.804688 720.964844 326.597656 719.449219 328.816406 718.375 C 329.1875 718.175781 332.023438 716.863281 335.066406 715.386719 C 340.574219 712.796875 344.230469 710.289062 348.75 706.066406 C 350.804688 704.117188 354.792969 699.496094 354.792969 699.015625 C 354.792969 698.894531 355.246094 698.179688 355.78125 697.5 C 359.519531 692.71875 363.710938 681.210938 364.453125 673.679688 C 364.574219 672.285156 364.820312 670.210938 364.945312 669.140625 C 365.066406 668.019531 365.316406 578.273438 365.4375 469.640625 L 365.683594 272.085938 L 366.835938 271.292969 L 367.945312 270.496094 L 367.945312 186.519531 L 366.957031 186.164062 C 366.425781 185.960938 365.890625 185.484375 365.726562 185.128906 C 365.601562 184.769531 365.480469 156.367188 365.480469 122.0625 C 365.480469 51.835938 365.480469 51.871094 362.726562 41.914062 C 359.683594 30.882812 353.273438 21.039062 345.011719 14.746094 C 343.492188 13.589844 342.175781 12.554688 342.050781 12.433594 C 341.1875 11.441406 329.597656 5.664062 328.53125 5.664062 C 328.285156 5.664062 327.75 5.503906 327.339844 5.304688 C 326.679688 4.949219 324.132812 4.390625 317.390625 3.074219 C 314.105469 2.4375 303.210938 1.757812 292.730469 1.601562 C 289.238281 1.519531 235.152344 1.601562 172.515625 1.722656 Z M 92.285156 18.847656 C 94.585938 19.449219 95.78125 20.921875 96.066406 23.550781 C 96.929688 31.917969 98.285156 35.179688 102.601562 39.367188 C 104.738281 41.398438 106.179688 42.433594 107.988281 43.148438 L 110.453125 44.105469 L 181.144531 44.226562 C 220.027344 44.265625 253.605469 44.183594 255.742188 43.988281 C 260.632812 43.546875 263.550781 42.273438 266.796875 39.164062 C 270.375 35.78125 272.015625 32.15625 272.59375 26.417969 C 273.042969 21.796875 273.496094 20.445312 274.976562 19.40625 C 276.003906 18.652344 276.867188 18.609375 287.800781 18.492188 C 300.335938 18.332031 311.925781 18.847656 317.226562 19.804688 C 326.394531 21.4375 335.886719 27.453125 340.941406 34.824219 C 343.039062 37.890625 345.257812 42.710938 346.203125 46.214844 C 348.300781 53.90625 348.175781 38.492188 348.175781 362 C 348.175781 678.300781 348.21875 669.695312 346.574219 676.507812 C 343.121094 690.6875 332.023438 701.046875 316.980469 704.152344 C 315.296875 704.472656 311.308594 704.949219 308.101562 705.1875 C 300.375 705.746094 68.570312 705.746094 60.886719 705.1875 C 51.1875 704.515625 45.679688 703.039062 39.554688 699.496094 C 35.238281 696.984375 28.746094 691.128906 28.085938 689.136719 C 28.003906 688.855469 27.71875 688.378906 27.390625 688.0625 C 26.28125 686.785156 23.566406 680.96875 22.785156 678.101562 C 20.773438 670.691406 20.855469 686.507812 20.855469 361.800781 C 20.855469 37.371094 20.773438 53.230469 22.785156 45.898438 C 25.085938 37.574219 31.253906 29.367188 38.484375 24.984375 C 44.980469 21.082031 50.691406 19.484375 60.515625 18.847656 C 67.871094 18.371094 90.519531 18.371094 92.285156 18.847656 Z M 92.285156 18.847656 "/>
</g>
</svg>
