<svg width="137" height="78" viewBox="0 0 137 78" fill="none" xmlns="http://www.w3.org/2000/svg">
<path d="M27.7885 15.4625C28.1971 15.4983 28.497 15.7304 28.6882 16.1588C28.7399 16.3006 28.759 16.4487 28.7455 16.603L28.7419 16.6439C28.7212 16.88 28.5609 17.3005 28.2609 17.9056C27.961 18.5107 27.676 19.0484 27.4061 19.5189C27.1453 19.9901 27.0741 20.3865 27.1923 20.7079C27.3106 21.0293 27.5507 21.2653 27.9127 21.4159C28.2845 21.5583 28.4639 21.9125 28.451 22.4786C28.4121 22.9235 28.1565 23.2306 27.6842 23.3997C27.5539 23.4249 27.4388 23.4331 27.3389 23.4244L27.2027 23.4124C26.1104 23.2437 25.5252 22.7167 25.4471 21.8315C23.7733 23.9176 21.6357 26.1277 19.0343 28.4619C17.9797 29.431 17.0455 30.2779 16.2319 31.0027C15.8436 31.3622 15.5904 31.5368 15.4724 31.5264C15.3579 31.5805 15.2144 31.5999 15.0419 31.5848C14.6151 31.5475 14.313 31.2878 14.1356 30.8056C14.0923 30.6737 14.0749 30.5578 14.0837 30.458L14.0908 30.3762C14.1194 30.0494 14.3531 29.7313 14.7919 29.422C14.7943 29.3948 15.6431 28.6867 17.3383 27.298C19.1263 25.7892 20.2534 24.7762 20.7195 24.2588C22.0511 22.948 23.1939 21.703 24.148 20.5239C25.2514 19.1016 26.0092 17.8641 26.4216 16.8114C26.8438 15.7504 27.2994 15.3008 27.7885 15.4625ZM31.5934 19.6656C31.4887 19.9218 31.4251 20.2822 31.4028 20.7469C31.3812 21.2025 31.6801 21.4985 32.2995 21.635C32.8755 21.6397 33.2097 22.0029 33.3021 22.7246L33.2806 22.9698C33.0774 23.6199 32.6715 23.9184 32.0632 23.8651C30.5642 23.7431 29.7864 23.117 29.7298 21.9866C29.2762 22.5691 28.8253 22.9643 28.3771 23.1721C27.9289 23.3799 27.3904 23.47 26.7615 23.4425C25.9645 23.2446 25.6226 22.8122 25.7359 22.145C25.8401 21.4771 26.2374 21.1184 26.928 21.069C27.9994 21.1628 28.8905 20.3898 29.6012 18.7502C30.321 17.1114 30.8545 16.1379 31.2016 15.8298C31.5488 15.5216 31.9125 15.4436 32.2926 15.5958C33.0129 16.0431 33.0575 16.7881 32.4264 17.8309C31.9766 18.7888 31.699 19.4004 31.5934 19.6656ZM36.9146 11.238C37.1507 11.2586 37.3121 11.4008 37.3988 11.6646L37.059 12.5681C36.9767 12.8811 35.3651 13.0009 32.2241 12.9274L32.1424 12.9202C31.5068 12.8646 31.2097 12.6007 31.251 12.1286C31.3026 11.5384 31.6962 11.1703 32.4318 11.0242L36.9146 11.238ZM31.2554 21.6535C36.5914 22.468 41.8755 22.9349 47.1077 23.0541L46.923 25.1652C41.6639 25.1443 36.3794 24.6819 31.0695 23.7782L31.2554 21.6535ZM41.276 6.88471C41.9388 6.9427 42.4637 7.42779 42.8505 8.33998L42.8266 8.61237C42.7877 9.05729 42.3612 9.33105 41.5471 9.43366L41.2747 9.40983C40.5846 9.34946 40.213 8.78628 40.1599 7.7203C40.2059 7.19367 40.578 6.91514 41.276 6.88471ZM44.9293 13.5998C45.2471 13.6276 45.472 13.7753 45.6041 14.0431L45.169 14.9382C45.0595 15.2489 42.3443 15.4322 37.0236 15.4882L36.9147 15.4787C36.043 15.4024 35.6278 15.1282 35.6691 14.6561C35.7208 14.0659 36.246 13.7093 37.2449 13.5862C38.6351 13.4883 41.1965 13.4928 44.9293 13.5998ZM50.567 21.3256C50.4622 21.5818 50.3987 21.9422 50.3763 22.4068C50.3547 22.8624 50.6536 23.1585 51.273 23.295C51.849 23.2997 52.1832 23.6629 52.2756 24.3846L52.2542 24.6298C52.0509 25.2799 51.6451 25.5783 51.0367 25.5251C49.5378 25.4031 48.7599 24.7769 48.7033 23.6466C48.2498 24.2291 47.7989 24.6242 47.3507 24.8321C46.9025 25.0399 46.3639 25.13 45.735 25.1024C44.938 24.9046 44.5962 24.4721 44.7094 23.805C44.8136 23.137 45.211 22.7784 45.9015 22.729C46.9729 22.8227 47.864 22.0498 48.5747 20.4102C49.2945 18.7714 49.828 17.7979 50.1752 17.4897C50.5224 17.1816 50.886 17.1036 51.2661 17.2558C51.9864 17.7031 52.031 18.4481 51.4 19.4908C50.9502 20.4488 50.6725 21.0604 50.567 21.3256ZM50.5473 30.4916C50.7562 30.5099 50.8994 30.6505 50.977 30.9134L50.6645 31.8193C50.5822 32.1324 48.7841 32.3959 45.2703 32.61L45.1886 32.6029C44.6166 32.5528 44.3512 32.2917 44.3925 31.8196C44.4442 31.2294 44.8015 30.8581 45.4644 30.7056C46.3824 30.5664 48.0767 30.495 50.5473 30.4916ZM53.6278 25.093C52.5912 25.5422 51.4739 25.6594 50.2758 25.4448C49.5202 25.2964 49.1925 24.9109 49.2927 24.2883C49.3937 23.6567 49.7709 23.3191 50.4244 23.2757C51.9794 23.3843 53.1388 23.1518 53.9027 22.5781C54.6665 22.0045 55.1875 21.1214 55.4657 19.9289C55.753 18.7371 56.1552 18.0084 56.6726 17.7425C56.6773 17.6881 56.8163 17.6682 57.0895 17.6829C58.0444 17.9586 58.2937 18.717 57.8374 19.958C57.3371 21.5977 56.7696 22.7512 56.1348 23.4184C55.5008 24.0766 54.6651 24.6348 53.6278 25.093ZM51.7195 29.9628C52.3823 30.0208 52.9072 30.5059 53.294 31.4181L53.2701 31.6905C53.2312 32.1354 52.8047 32.4092 51.9906 32.5118L51.7182 32.4879C51.0281 32.4276 50.6565 31.8644 50.6034 30.7984C50.6502 30.2627 51.0223 29.9842 51.7195 29.9628ZM82.1624 13.0008C83.0676 13.2172 83.4892 13.6795 83.4272 14.3878L83.4129 14.5512C83.3677 15.0688 83.0168 15.523 82.3605 15.9139L81.9015 15.9835C81.4838 15.947 81.1831 15.724 80.9993 15.3145C79.1781 15.3198 77.4923 15.4514 75.9418 15.7091C74.3502 16.0182 73.0361 16.3973 71.9995 16.8464C71.0956 17.2431 70.1952 17.8094 69.2982 18.5452C67.5137 20.1183 66.54 21.8356 66.3772 23.6969L66.3712 23.765C66.1837 25.9079 66.8249 27.835 68.2946 29.5465C70.5556 31.7297 73.5248 32.9822 77.2022 33.3039C81.3608 33.6677 85.3759 32.7427 89.2477 30.5287C90.5612 29.7379 91.4579 28.6909 91.9379 27.388L92.0749 26.9196C91.8944 26.4738 91.8273 25.9327 91.8739 25.2963L91.8977 25.0239C91.9605 24.3066 92.2049 23.8659 92.6309 23.7019C92.9038 23.616 93.1038 23.5786 93.2309 23.5897C94.1298 23.6684 94.5091 24.5616 94.3689 26.2694C94.6465 26.861 95.567 27.216 97.1303 27.3345C98.6944 27.4439 101.774 27.6905 106.371 28.0743C107.231 28.177 107.632 28.5552 107.575 29.2089C107.508 29.9807 107.049 30.3615 106.199 30.3512C98.3827 30.1705 94.1345 29.6799 93.4543 28.8793C91.7935 31.6527 88.8058 33.6969 84.4912 35.0121C82.3408 35.5376 80.3077 35.7166 78.3919 35.549L77.4657 35.4679C73.8519 35.1518 70.5484 33.7465 67.5552 31.2522C66.5908 30.3535 65.8421 29.4463 65.3093 28.5305C64.3248 26.8157 63.9024 25.1593 64.0422 23.5613C64.2408 21.2913 65.2883 19.2008 67.1848 17.2898C68.3752 16.232 69.2025 15.6136 69.6664 15.4346C71.0459 14.6221 72.7292 13.9962 74.7165 13.5571C76.0581 13.281 77.6761 13.0886 79.5704 12.9799C80.9171 12.9604 81.7811 12.9674 82.1624 13.0008ZM108.708 29.9119C107.671 30.3611 106.554 30.4783 105.356 30.2637C104.6 30.1153 104.273 29.7298 104.373 29.1072C104.474 28.4756 104.851 28.138 105.505 28.0946C107.06 28.2032 108.219 27.9707 108.983 27.397C109.747 26.8234 110.268 25.9403 110.546 24.7478C110.833 23.556 111.236 22.8273 111.753 22.5614C111.758 22.507 111.897 22.4871 112.17 22.5018C113.125 22.7775 113.374 23.5359 112.918 24.7769C112.417 26.4166 111.85 27.5701 111.215 28.2373C110.581 28.8955 109.745 29.4537 108.708 29.9119ZM111.377 14.6235C112.04 14.6815 112.565 15.1665 112.951 16.0787L112.928 16.3511C112.888 16.8051 112.461 17.0789 111.648 17.1724L111.376 17.1486C110.685 17.0882 110.314 16.525 110.261 15.4591C110.307 14.9324 110.679 14.6539 111.377 14.6235ZM121.002 18.4986L121.37 18.5308C121.833 18.5713 122.122 18.8802 122.236 19.4574L122.218 19.6617C122.185 20.034 121.6 20.7102 120.462 21.6902C118.218 23.9185 117.041 25.65 116.933 26.8849L116.906 27.1981C116.934 28.4449 117.402 29.108 118.31 29.1875C119.082 29.255 119.441 29.602 119.386 30.2285L119.358 30.5418C119.309 31.1047 118.895 31.3888 118.117 31.3939C116.365 31.2406 115.26 30.1695 114.803 28.1807L114.795 27.0134L114.808 26.8636C115.006 24.6027 116.925 21.8565 120.566 18.6251L121.002 18.4986ZM129.354 11.6673C130.017 11.7253 130.542 12.2104 130.929 13.1226L130.905 13.395C130.866 13.8399 130.44 14.1137 129.625 14.2163L129.353 14.1925C128.663 14.1321 128.291 13.5689 128.238 12.5029C128.284 11.9763 128.656 11.6978 129.354 11.6673ZM133.008 18.3824C133.325 18.4102 133.55 18.558 133.683 18.8257L133.247 19.7209C133.138 20.0315 130.423 20.2149 125.102 20.2709L124.993 20.2613C124.121 20.1851 123.706 19.9109 123.748 19.4387C123.799 18.8485 124.324 18.4919 125.323 18.3689C126.713 18.2709 129.275 18.2754 133.008 18.3824ZM124.577 29.571C127.153 29.3023 129.307 28.5759 131.039 27.3916C132.771 26.2073 133.731 26.3233 133.918 27.7395L133.915 27.7804C133.908 28.3837 133.058 29.1053 131.365 29.9453C129.681 30.7861 127.501 31.341 124.824 31.6101C122.156 31.8799 120.165 31.8932 118.85 31.6501C117.536 31.407 116.891 31.1357 116.918 30.836C116.726 30.6271 116.642 30.3773 116.668 30.0868C116.855 29.4078 117.235 29.0934 117.807 29.1434C119.754 29.6889 122.01 29.8314 124.577 29.571ZM19.7486 38.9704C20.653 39.1959 21.0742 39.6628 21.0122 40.371L20.9979 40.5345C20.9527 41.052 20.6018 41.5063 19.9455 41.8972L19.4865 41.9668C19.0688 41.9302 18.7681 41.7072 18.5843 41.2977C16.7631 41.3031 15.0773 41.4346 13.5268 41.6924C11.9352 42.0015 10.6211 42.3806 9.58454 42.8297C8.68064 43.2264 7.78021 43.7927 6.88323 44.5285C5.09871 46.1016 4.12503 47.8188 3.96218 49.6802L3.95622 49.7483C3.76795 51.9003 4.40827 53.8365 5.87719 55.557C8.13902 57.7311 11.1086 58.9791 14.786 59.3008C18.9446 59.6646 22.9597 58.7396 26.8315 56.5256C28.1087 55.7316 28.9797 54.7693 29.4446 53.6389L29.4933 53.3961C29.3911 52.4722 29.3535 51.8559 29.3806 51.5472L29.4044 51.2748C29.4671 50.5575 29.7116 50.1168 30.1376 49.9528C30.4105 49.8669 30.6105 49.8295 30.7376 49.8406C31.6365 49.9193 32.0081 50.8484 31.8524 52.6281L31.8369 52.8051L31.7603 53.2102L33.2626 53.4514C35.5235 53.6492 38.0988 53.4948 40.9886 52.9882C41.7773 53.1762 42.143 53.597 42.0859 54.2508C42.0183 55.0226 41.3142 55.4367 39.9734 55.4933C37.5081 55.854 35.2495 55.9446 33.1974 55.7651C32.2985 55.6864 31.5384 55.5376 30.9171 55.3185C29.337 57.797 26.3896 59.6938 22.075 61.009C19.9246 61.5345 17.8915 61.7135 15.9757 61.5459L15.0495 61.4648C11.4357 61.1487 8.13223 59.7434 5.13902 57.2491C4.17461 56.3504 3.42596 55.4432 2.89308 54.5274C1.90936 52.8036 1.48741 51.1426 1.62723 49.5446C1.82582 47.2746 2.87333 45.1841 4.76976 43.2731C5.96024 42.2153 6.78747 41.5969 7.25145 41.4179C8.6309 40.6053 10.3142 39.9795 12.3015 39.5403C13.6432 39.2643 15.2611 39.0719 17.1554 38.9631C18.5029 38.9346 19.3673 38.9371 19.7486 38.9704ZM37.8776 36.4667C38.5405 36.5247 39.0653 37.0098 39.4521 37.922L39.4283 38.1944C39.3893 38.6393 38.9628 38.9131 38.1487 39.0157L37.8763 38.9918C37.1862 38.9315 36.8146 38.3683 36.7615 37.3023C36.8076 36.7757 37.1796 36.4971 37.8776 36.4667ZM41.6164 42.8324C41.9341 42.8602 42.1591 43.008 42.2912 43.2757L41.8561 44.1709C41.7466 44.4816 39.0314 44.6649 33.7107 44.7209L33.6018 44.7114C32.7301 44.6351 32.3149 44.3609 32.3562 43.8887C32.4079 43.2985 32.9331 42.9419 33.932 42.8189C35.3222 42.7209 37.8836 42.7254 41.6164 42.8324ZM48.5412 53.4157C49.3248 53.5574 49.7962 54.1293 49.9556 55.1314C49.9617 55.4796 49.9389 55.7933 49.887 56.0724C49.5591 57.9376 48.3264 60.1583 46.1888 62.7344C45.5042 63.5528 44.3137 64.6107 42.6174 65.9079C40.8823 67.2291 39.7822 67.9334 39.3171 68.0208L39.114 67.9894C38.7804 67.9327 38.5332 67.6732 38.3724 67.2108C38.3192 67.0872 38.3096 66.9354 38.3436 66.7554L38.362 66.7021C38.4527 66.1885 38.8375 65.7647 39.5163 65.4307C40.258 64.9009 41.0667 64.2854 41.9423 63.5843C43.1817 62.5948 44.0643 61.7617 44.5901 61.0849C43.4452 60.4723 42.9723 59.603 43.1714 58.4767C43.4007 57.2158 44.4338 55.76 46.2709 54.1091C47.0999 53.5229 47.8567 53.2918 48.5412 53.4157ZM45.3848 58.9037L45.8774 59.235C46.1277 59.0922 46.575 58.3719 47.2192 57.0742L47.5733 56.0072C46.6764 56.743 45.9947 57.58 45.5283 58.5182L45.3848 58.9037ZM55.8283 54.0532C56.2369 54.089 56.5369 54.3211 56.7281 54.7495C56.7797 54.8913 56.7988 55.0393 56.7853 55.1937L56.7817 55.2346C56.7611 55.4706 56.6008 55.8912 56.3008 56.4963C56.0008 57.1013 55.7159 57.6391 55.446 58.1096C55.1852 58.5808 55.1139 58.9771 55.2322 59.2986C55.3505 59.62 55.5906 59.856 55.9525 60.0066C56.3243 60.149 56.5038 60.5032 56.4908 61.0693C56.4519 61.5142 56.1963 61.8212 55.7241 61.9904C55.5938 62.0156 55.4787 62.0238 55.3788 62.015L55.2426 62.0031C54.1503 61.8344 53.5651 61.3074 53.487 60.4222C51.8131 62.5082 49.6755 64.7184 47.0742 67.0526C46.0195 68.0217 45.0854 68.8686 44.2717 69.5934C43.8835 69.9529 43.6303 70.1274 43.5123 70.1171C43.3977 70.1711 43.2542 70.1906 43.0817 70.1755C42.655 70.1382 42.3529 69.8784 42.1755 69.3963C42.1321 69.2644 42.1148 69.1485 42.1235 69.0487L42.1307 68.9669C42.1593 68.6401 42.393 68.322 42.8318 68.0127C42.8341 67.9854 43.6829 67.2774 45.3781 65.8886C47.1662 64.3799 48.2933 63.3668 48.7594 62.8495C50.0909 61.5387 51.2338 60.2937 52.1878 59.1146C53.2912 57.6923 54.0491 56.4548 54.4614 55.4021C54.8836 54.3411 55.3393 53.8915 55.8283 54.0532ZM62.7711 53.1373L63.2886 53.1825C64.3964 53.2795 64.9605 54.047 64.9811 55.4853C64.7356 58.291 62.2907 60.4056 57.6464 61.8292C56.8144 62.0309 55.8854 62.0868 54.8594 61.9971L54.5053 61.9661C53.8378 61.7521 53.5239 61.4182 53.5636 60.9642L53.591 60.6509C53.6435 60.0516 54.0819 59.7469 54.9062 59.7367C55.7869 59.8137 56.4557 59.8036 56.9126 59.7063L56.9161 59.6655C56.6803 59.224 56.5798 58.8035 56.6148 58.404L56.6374 58.1452C56.7336 57.0465 57.9159 55.6632 60.1845 53.9952C61.1462 53.3565 62.0084 53.0705 62.7711 53.1373ZM58.4395 58.097L58.4169 58.3558C58.3875 58.6917 58.5135 58.9772 58.7948 59.2123C59.6497 58.9577 60.7186 58.2964 62.0014 57.2283C62.5687 56.6009 62.8674 56.1147 62.8976 55.7696C62.9087 55.6425 62.8208 55.4976 62.6337 55.3348L62.5792 55.3301C61.8982 55.2705 60.6554 55.9852 58.8508 57.4742C58.5917 57.7169 58.4546 57.9245 58.4395 58.097ZM63.1155 43.3958C63.7784 43.4538 64.3032 43.9389 64.69 44.8511L64.6662 45.1235C64.6273 45.5684 64.2007 45.8422 63.3866 45.9448L63.1142 45.921C62.4241 45.8606 62.0525 45.2974 61.9994 44.2314C62.0455 43.7048 62.4175 43.4263 63.1155 43.3958ZM92.0376 48.0534C94.7706 48.2925 96.4115 48.8844 96.9601 49.8291C97.0855 50.0688 97.1375 50.3112 97.1161 50.5564L97.1042 50.6926C97.0501 51.31 96.5729 51.8492 95.6726 52.3103L95.3557 52.3237L95.2468 52.3142C94.7655 52.2721 94.4595 51.9525 94.3288 51.3555L94.3514 51.0968C94.3578 51.0241 94.4374 50.8984 94.5903 50.7196L94.5939 50.6788C93.6911 50.4351 92.7267 50.2684 91.7007 50.1786C87.0063 49.7679 82.375 50.5201 77.8066 52.4353C76.6587 52.9021 75.4755 53.5626 74.2571 54.4166C72.7009 55.6804 71.876 56.8479 71.7822 57.9194L71.7679 58.0828C71.6472 59.4629 72.5184 60.8521 74.3815 62.2503C75.1692 62.8681 76.699 63.5784 78.971 64.381C81.9129 65.3704 85.0909 66.0144 88.5049 66.3131C91.9099 66.611 95.3579 66.5741 98.8489 66.2025C100.706 65.8892 102.227 65.5007 103.411 65.0371C105.368 64.211 106.386 63.3531 106.464 62.4632C106.535 61.646 105.499 60.3659 103.355 58.623C102.689 58.0798 102.13 57.5094 101.679 56.9118C101.313 56.3948 101.15 55.9003 101.191 55.4281L101.195 55.3873C101.292 54.2795 102.639 53.5739 105.237 53.2705C108.064 52.7493 110.135 52.5463 111.452 52.6615L111.942 52.7044C112.66 52.7671 113.072 53.0731 113.18 53.6223L113.184 53.8835L113.182 53.9107C113.134 54.4555 112.813 54.7797 112.218 54.8832L112.066 54.8973L111.376 54.7821C109.715 54.6367 107.45 54.8961 104.583 55.5602C104.071 55.7715 103.809 55.9362 103.799 56.0543C103.843 56.1771 104.207 56.5109 104.892 57.0557C107.523 58.9785 108.767 60.7571 108.624 62.3915L108.603 62.6367C108.43 64.6161 106.754 66.0981 103.575 67.0826C102.689 67.3802 101.237 67.6603 99.2199 67.923C95.9804 68.2434 92.7898 68.2662 89.6482 67.9914L89.0217 67.9365C83.5556 67.4583 78.6663 66.1385 74.3539 63.9771C71.2312 62.2308 69.7719 60.1909 69.9761 57.8574L69.9987 57.5986C70.1528 55.8371 71.2726 54.1235 73.358 52.4578C74.3722 51.7414 75.293 51.2043 76.1203 50.8467C81.2112 48.5015 86.517 47.5704 92.0376 48.0534ZM117.397 52.166C117.933 52.2129 118.262 52.5344 118.383 53.1307L118.38 53.3225C118.319 54.0217 117.778 57.1263 116.756 62.6363L115.996 67.2361C115.704 67.7594 115.335 68.0016 114.89 67.9627L114.876 67.9615C114.157 67.8162 113.823 67.4485 113.875 66.8583C114.857 62.4336 115.399 59.6355 115.501 58.4642C115.868 56.1541 116.106 54.377 116.215 53.1331C116.262 52.5973 116.615 52.2714 117.275 52.1553L117.397 52.166ZM125.551 60.1532C125.96 60.1889 126.26 60.421 126.451 60.8495C126.502 60.9912 126.522 61.1393 126.508 61.2937L126.504 61.3345C126.484 61.5706 126.324 61.9912 126.024 62.5962C125.724 63.2013 125.439 63.7391 125.169 64.2095C124.908 64.6808 124.837 65.0771 124.955 65.3985C125.073 65.7199 125.313 65.956 125.675 66.1066C126.047 66.2489 126.227 66.6031 126.214 67.1693C126.175 67.6142 125.919 67.9212 125.447 68.0903C125.317 68.1155 125.201 68.1237 125.102 68.115L124.965 68.1031C123.873 67.9343 123.288 67.4074 123.21 66.5222C121.536 68.6082 119.398 70.8183 116.797 73.1526C115.742 74.1216 114.808 74.9686 113.994 75.6934C113.606 76.0528 113.353 76.2274 113.235 76.2171C113.12 76.2711 112.977 76.2906 112.804 76.2755C112.378 76.2381 112.076 75.9784 111.898 75.4962C111.855 75.3644 111.838 75.2485 111.846 75.1486L111.853 75.0669C111.882 74.74 112.116 74.4219 112.554 74.1126C112.557 74.0854 113.406 73.3774 115.101 71.9886C116.889 70.4798 118.016 69.4668 118.482 68.9495C119.814 67.6386 120.956 66.3937 121.911 65.2145C123.014 63.7923 123.772 62.5548 124.184 61.5021C124.606 60.4411 125.062 59.9914 125.551 60.1532ZM127.704 67.7114C126.667 68.1605 125.55 68.2777 124.352 68.0631C123.596 67.9147 123.269 67.5292 123.369 66.9066C123.47 66.275 123.847 65.9375 124.5 65.894C126.055 66.0026 127.215 65.7701 127.979 65.1965C128.743 64.6228 129.264 63.7397 129.542 62.5472C129.829 61.3555 130.231 60.6267 130.749 60.3609C130.753 60.3064 130.892 60.2865 131.166 60.3013C132.12 60.577 132.37 61.3353 131.913 62.5763C131.413 64.216 130.846 65.3695 130.211 66.0368C129.577 66.695 128.741 67.2532 127.704 67.7114ZM125.796 72.5812C126.458 72.6391 126.983 73.1242 127.37 74.0364L127.346 74.3088C127.307 74.7537 126.881 75.0275 126.067 75.1301L125.794 75.1063C125.104 75.0459 124.733 74.4827 124.679 73.4167C124.726 72.881 125.098 72.6025 125.796 72.5812Z" fill="#1839E8"/>
</svg>
