<svg width="66" height="51" viewBox="0 0 66 51" fill="none" xmlns="http://www.w3.org/2000/svg">
<path d="M50.7625 22.6721C54.8912 22.092 58.0699 18.5523 58.0788 14.2637C58.0788 10.0373 54.9978 6.53308 50.9579 5.87012" stroke="#1839E8" stroke-width="4.5" stroke-linecap="round" stroke-linejoin="round"/>
<path d="M56.2105 32.5981C60.209 33.196 63 34.5959 63 37.4816C63 39.4675 61.6859 40.7579 59.5608 41.5689" stroke="#1839E8" stroke-width="4.5" stroke-linecap="round" stroke-linejoin="round"/>
<path fill-rule="evenodd" clip-rule="evenodd" d="M33.0015 33.8213C23.4891 33.8213 15.3649 35.2626 15.3649 41.0192C15.3649 46.7728 23.4388 48.2556 33.0015 48.2556C42.5139 48.2556 50.6352 46.829 50.6352 41.0695C50.6352 35.31 42.5642 33.8213 33.0015 33.8213Z" stroke="#1839E8" stroke-width="4.5" stroke-linecap="round" stroke-linejoin="round"/>
<path fill-rule="evenodd" clip-rule="evenodd" d="M33.0014 25.6059C39.2433 25.6059 44.3044 20.5478 44.3044 14.303C44.3044 8.06102 39.2433 3 33.0014 3C26.7595 3 21.6984 8.06102 21.6984 14.303C21.6748 20.5242 26.6973 25.5852 32.9185 25.6059H33.0014Z" stroke="#1839E8" stroke-width="4.5" stroke-linecap="round" stroke-linejoin="round"/>
<path d="M15.2379 22.6721C11.1062 22.092 7.93051 18.5523 7.92163 14.2637C7.92163 10.0373 11.0026 6.53308 15.0426 5.87012" stroke="#1839E8" stroke-width="4.5" stroke-linecap="round" stroke-linejoin="round"/>
<path d="M9.78947 32.5981C5.79096 33.196 3 34.5959 3 37.4816C3 39.4675 4.31409 40.7579 6.43913 41.5689" stroke="#1839E8" stroke-width="4.5" stroke-linecap="round" stroke-linejoin="round"/>
</svg>
