<svg width="278" height="37" viewBox="0 0 278 37" fill="none" xmlns="http://www.w3.org/2000/svg">
<path d="M10.8926 16.2949C11.3027 16.1947 11.6309 16.3359 11.877 16.7188C12.123 17.0924 11.9499 18.0449 11.3574 19.5762C10.7741 21.1074 10.5326 22.3607 10.6328 23.3359C10.7422 24.3021 11.0339 24.8125 11.5078 24.8672C12.0182 24.8672 12.36 25.1315 12.5332 25.6602L12.5605 25.8516V26.002C12.5605 26.4395 12.2962 26.7585 11.7676 26.959L11.5078 26.9863C10.5143 26.9863 9.82617 26.7174 9.44336 26.1797C9.06055 25.6328 8.89648 24.8171 8.95117 23.7324H8.92383C7.80273 25.4186 6.70443 26.6309 5.62891 27.3691C4.70833 28.0618 3.86979 28.5996 3.11328 28.9824C2.51172 29.2923 2.12891 29.4473 1.96484 29.4473H1.73242C1.18555 29.4473 0.789062 29.1875 0.542969 28.668L0.515625 28.4219V28.3125C0.515625 27.8021 0.902995 27.4147 1.67773 27.1504C2.91732 26.5579 3.88346 25.9837 4.57617 25.4277C5.27799 24.8626 6.11654 23.9785 7.0918 22.7754C8.07617 21.5632 8.85091 20.2051 9.41602 18.7012C9.99023 17.1973 10.4824 16.3952 10.8926 16.2949ZM16.1016 22.8574C16.0195 23.1217 15.9876 23.4863 16.0059 23.9512C16.0241 24.4069 16.3477 24.6758 16.9766 24.7578C17.5508 24.7122 17.9154 25.0449 18.0703 25.7559V26.002C17.9245 26.6673 17.5462 27 16.9355 27C15.4316 27.0091 14.6022 26.4531 14.4473 25.332C14.0462 25.9518 13.6315 26.3848 13.2031 26.6309C12.7747 26.877 12.2461 27.0137 11.6172 27.041C10.806 26.9134 10.4277 26.5124 10.4824 25.8379C10.528 25.1634 10.8926 24.7715 11.5762 24.6621C12.6517 24.6621 13.472 23.8145 14.0371 22.1191C14.6113 20.4238 15.0579 19.4076 15.377 19.0703C15.696 18.7331 16.0514 18.6237 16.4434 18.7422C17.1999 19.125 17.3092 19.8633 16.7715 20.957C16.4069 21.9505 16.1836 22.584 16.1016 22.8574ZM16.8809 31.9902C17.0905 31.9902 17.2454 32.1178 17.3457 32.373L17.1133 33.3027C17.0586 33.6217 15.2904 34.041 11.8086 34.5605H11.7266C11.1523 34.5605 10.8652 34.3236 10.8652 33.8496C10.8652 33.2572 11.1888 32.8561 11.8359 32.6465C12.7383 32.4277 14.4199 32.209 16.8809 31.9902ZM26.6152 6.36914C27.2806 6.36914 27.8457 6.80664 28.3105 7.68164V7.95508C28.3105 8.40169 27.9095 8.71159 27.1074 8.88477H26.834C26.1413 8.88477 25.722 8.35612 25.5762 7.29883C25.5762 6.77018 25.9225 6.46029 26.6152 6.36914ZM30.8398 12.7402C31.1589 12.7402 31.3958 12.8678 31.5508 13.123L31.1953 14.0527C31.1133 14.3717 28.4245 14.791 23.1289 15.3105H23.0195C22.1445 15.3105 21.707 15.0736 21.707 14.5996C21.707 14.0072 22.1992 13.6061 23.1836 13.3965C24.5599 13.1777 27.112 12.959 30.8398 12.7402ZM23.416 24.6211C25.959 24.1289 28.0417 23.2174 29.6641 21.8867C31.2865 20.556 32.2526 20.5879 32.5625 21.9824V22.0234C32.6081 22.625 31.8242 23.418 30.2109 24.4023C28.6068 25.3867 26.4831 26.1296 23.8398 26.6309C21.2057 27.1322 19.2233 27.319 17.8926 27.1914C16.5618 27.0638 15.8965 26.8496 15.8965 26.5488C15.6868 26.3574 15.582 26.1159 15.582 25.8242C15.7096 25.1315 16.0605 24.7852 16.6348 24.7852C18.6217 25.1589 20.8822 25.1042 23.416 24.6211ZM41.3809 13.9023H41.75C42.2148 13.9023 42.5293 14.1849 42.6934 14.75V14.9551C42.6934 15.3288 42.1693 16.0534 41.1211 17.1289C39.0794 19.5443 38.0586 21.3717 38.0586 22.6113V22.9258C38.1953 24.1654 38.7194 24.7852 39.6309 24.7852C40.4056 24.7852 40.793 25.0996 40.793 25.7285V26.043C40.793 26.6081 40.4056 26.9271 39.6309 27C37.8717 27 36.6777 26.0293 36.0488 24.0879L35.9395 22.9258V22.7754C35.9395 20.5059 37.612 17.6029 40.957 14.0664L41.3809 13.9023ZM43.0898 26.3438C42.0964 26.8815 40.9935 27.0957 39.7812 26.9863C39.0156 26.9043 38.6556 26.5488 38.7012 25.9199C38.7467 25.2819 39.0931 24.9128 39.7402 24.8125C41.2988 24.7852 42.4336 24.4525 43.1445 23.8145C43.8555 23.1764 44.2975 22.2513 44.4707 21.0391C44.653 19.8268 44.9902 19.0658 45.4824 18.7559C45.4824 18.7012 45.6191 18.6693 45.8926 18.6602C46.8678 18.8516 47.1823 19.5853 46.8359 20.8613C46.4805 22.5384 46.0156 23.737 45.4414 24.457C44.8672 25.168 44.0833 25.7969 43.0898 26.3438ZM41.6133 31.3613C42.2786 31.3613 42.8438 31.7988 43.3086 32.6738V32.9473C43.3086 33.3939 42.9076 33.7038 42.1055 33.877H41.832C41.1393 33.877 40.7201 33.3483 40.5742 32.291C40.5742 31.7533 40.9206 31.4434 41.6133 31.3613ZM64.7461 3.99023C65.2656 3.99023 65.6257 4.27279 65.8262 4.83789V5.16602C64.9147 9.43164 64.3314 13.1413 64.0762 16.2949L64.0078 17.0742H64.0352C64.8919 16.5547 65.6302 16.2949 66.25 16.2949C67.1706 16.2949 67.8086 16.8053 68.1641 17.8262L68.2324 18.373C68.3965 21.5358 67.4212 23.7962 65.3066 25.1543C63.2012 26.5033 60.4941 27.1185 57.1855 27C55.6999 27.0182 54.957 26.9727 54.957 26.8633C54.6016 26.6081 54.4238 26.3073 54.4238 25.9609C54.5332 25.2227 54.8841 24.8535 55.4766 24.8535L56.8301 24.8125V24.5117C56.8301 24.1654 57.5775 23.1263 59.0723 21.3945C60.4303 19.9635 61.3509 19.0658 61.834 18.7012L61.7383 18.2773C61.7383 16.7643 62.071 13.8659 62.7363 9.58203C63.1921 7.07552 63.5475 5.37565 63.8027 4.48242C64.0762 4.1543 64.3906 3.99023 64.7461 3.99023ZM59.3594 24.5117H59.4004C60.8223 24.7669 62.2669 24.4434 63.7344 23.541C65.2018 22.6387 66.0176 21.5358 66.1816 20.2324C66.3457 18.9199 66.0859 18.3958 65.4023 18.6602C64.7188 18.9245 63.5977 19.804 62.0391 21.2988C60.599 22.8757 59.7057 23.9466 59.3594 24.5117ZM74.6855 13.9023H75.0547C75.5195 13.9023 75.834 14.1849 75.998 14.75V14.9551C75.998 15.3288 75.474 16.0534 74.4258 17.1289C72.3841 19.5443 71.3633 21.3717 71.3633 22.6113V22.9258C71.5 24.1654 72.0241 24.7852 72.9355 24.7852C73.7103 24.7852 74.0977 25.0996 74.0977 25.7285V26.043C74.0977 26.6081 73.7103 26.9271 72.9355 27C71.1764 27 69.9824 26.0293 69.3535 24.0879L69.2441 22.9258V22.7754C69.2441 20.5059 70.9167 17.6029 74.2617 14.0664L74.6855 13.9023ZM77.748 22.8574C77.666 23.1217 77.6341 23.4863 77.6523 23.9512C77.6706 24.4069 77.9941 24.6758 78.623 24.7578C79.1973 24.7122 79.5618 25.0449 79.7168 25.7559V26.002C79.571 26.6673 79.1927 27 78.582 27C77.0781 27.0091 76.2487 26.4531 76.0938 25.332C75.6927 25.9518 75.278 26.3848 74.8496 26.6309C74.4212 26.877 73.8926 27.0137 73.2637 27.041C72.4525 26.9134 72.0742 26.5124 72.1289 25.8379C72.1745 25.1634 72.5391 24.7715 73.2227 24.6621C74.2982 24.6621 75.1185 23.8145 75.6836 22.1191C76.2578 20.4238 76.7044 19.4076 77.0234 19.0703C77.3424 18.7331 77.6979 18.6237 78.0898 18.7422C78.8464 19.125 78.9557 19.8633 78.418 20.957C78.0534 21.9505 77.8301 22.584 77.748 22.8574ZM74.5762 31.7305C75.2415 31.7305 75.8066 32.168 76.2715 33.043V33.3164C76.2715 33.763 75.8704 34.0729 75.0684 34.2461H74.7949C74.1022 34.2461 73.6829 33.7174 73.5371 32.6602C73.5371 32.1224 73.8835 31.8125 74.5762 31.7305ZM81.8359 26.3438C80.8424 26.8815 79.7396 27.0957 78.5273 26.9863C77.7617 26.9043 77.4017 26.5488 77.4473 25.9199C77.4928 25.2819 77.8392 24.9128 78.4863 24.8125C80.0449 24.7852 81.1797 24.4525 81.8906 23.8145C82.6016 23.1764 83.0436 22.2513 83.2168 21.0391C83.3991 19.8268 83.7363 19.0658 84.2285 18.7559C84.2285 18.7012 84.3652 18.6693 84.6387 18.6602C85.6139 18.8516 85.9284 19.5853 85.582 20.8613C85.2266 22.5384 84.7617 23.737 84.1875 24.457C83.6133 25.168 82.8294 25.7969 81.8359 26.3438ZM88.8359 10.6074C89.0729 10.6074 89.2461 10.735 89.3555 10.9902L89.0957 11.9199C89.041 12.2389 87.0859 12.6582 83.2305 13.1777H83.1484C82.5104 13.1777 82.1914 12.9408 82.1914 12.4668C82.1914 11.8743 82.5514 11.4733 83.2715 11.2637C84.265 11.0449 86.1198 10.8262 88.8359 10.6074ZM94.3867 19.084C94.7878 19.084 95.1022 19.2891 95.3301 19.6992C95.3939 19.8268 95.4258 19.9681 95.4258 20.123V20.1641C95.4258 20.401 95.2891 20.7155 95.0156 21.1074C94.5143 21.9551 93.972 22.8118 93.3887 23.6777C93.015 24.334 92.418 25.1452 91.5977 26.1113C90.1302 28.0345 88.3255 30.1992 86.1836 32.6055C85.2357 33.6445 84.3926 34.5514 83.6543 35.3262C83.3079 35.7181 83.0755 35.9141 82.957 35.9141C82.8477 35.9688 82.7064 35.9961 82.5332 35.9961C82.1139 35.9961 81.7949 35.7682 81.5762 35.3125C81.5306 35.194 81.5078 35.0846 81.5078 34.9844V34.9023C81.5078 34.5742 81.7083 34.2415 82.1094 33.9043C82.1094 33.877 82.8796 33.1113 84.4199 31.6074C86.0423 29.9759 87.0632 28.8867 87.4824 28.3398C88.6764 26.9362 89.6882 25.6146 90.5176 24.375C91.5749 22.7891 92.5729 21.1667 93.5117 19.5078C93.7396 19.2253 94.0312 19.084 94.3867 19.084ZM98.5703 11.7559C99.1081 11.7559 99.4635 12.0475 99.6367 12.6309L99.6504 12.8223C99.6504 13.5241 99.3815 16.6641 98.8438 22.2422L98.4883 26.8906C98.2422 27.4375 97.8958 27.7109 97.4492 27.7109H97.4355C96.7064 27.6289 96.3418 27.2917 96.3418 26.6992C96.9342 22.2057 97.2305 19.3711 97.2305 18.1953C97.3945 15.862 97.4766 14.071 97.4766 12.8223C97.4766 12.2845 97.8001 11.929 98.4473 11.7559H98.5703ZM114.32 19.084C114.721 19.084 115.036 19.2891 115.264 19.6992C115.327 19.8268 115.359 19.9681 115.359 20.123V20.1641C115.359 20.401 115.223 20.7155 114.949 21.1074C114.448 21.9551 113.906 22.8118 113.322 23.6777C112.949 24.334 112.352 25.1452 111.531 26.1113C110.064 28.0345 108.259 30.1992 106.117 32.6055C105.169 33.6445 104.326 34.5514 103.588 35.3262C103.242 35.7181 103.009 35.9141 102.891 35.9141C102.781 35.9688 102.64 35.9961 102.467 35.9961C102.048 35.9961 101.729 35.7682 101.51 35.3125C101.464 35.194 101.441 35.0846 101.441 34.9844V34.9023C101.441 34.5742 101.642 34.2415 102.043 33.9043C102.043 33.877 102.813 33.1113 104.354 31.6074C105.976 29.9759 106.997 28.8867 107.416 28.3398C108.61 26.9362 109.622 25.6146 110.451 24.375C111.508 22.7891 112.507 21.1667 113.445 19.5078C113.673 19.2253 113.965 19.084 114.32 19.084ZM119.324 16.6504H119.393C119.93 16.6504 120.386 17.1198 120.76 18.0586C121.699 19.7083 122.168 21.2897 122.168 22.8027C122.168 24.3431 121.594 25.5827 120.445 26.5215C119.406 27.4421 118.126 28.2897 116.604 29.0645C114.298 30.1491 112.917 30.6914 112.461 30.6914C111.768 30.5638 111.422 30.2493 111.422 29.748V29.4746C111.422 28.9277 111.873 28.5951 112.775 28.4766C114.17 28.0299 115.387 27.5332 116.426 26.9863C117.52 26.4303 118.632 25.6328 119.762 24.5938C120.181 24.1107 120.391 23.5775 120.391 22.9941V22.9668C120.391 21.9277 119.712 20.2917 118.354 18.0586L118.299 17.6895C118.408 16.9967 118.75 16.6504 119.324 16.6504ZM136.4 13.9023H136.77C137.234 13.9023 137.549 14.1849 137.713 14.75V14.9551C137.713 15.3288 137.189 16.0534 136.141 17.1289C134.099 19.5443 133.078 21.3717 133.078 22.6113V22.9258C133.215 24.1654 133.739 24.7852 134.65 24.7852C135.425 24.7852 135.812 25.0996 135.812 25.7285V26.043C135.812 26.6081 135.425 26.9271 134.65 27C132.891 27 131.697 26.0293 131.068 24.0879L130.959 22.9258V22.7754C130.959 20.5059 132.632 17.6029 135.977 14.0664L136.4 13.9023ZM140.721 19.1387C141.997 19.1387 143.956 19.2936 146.6 19.6035C148.824 19.9772 149.936 20.8613 149.936 22.2559C149.936 23.459 149.156 24.5299 147.598 25.4688C146.951 25.9427 145.606 26.3073 143.564 26.5625C142.662 26.7083 141.714 26.7812 140.721 26.7812C139.727 26.7539 139.23 26.722 139.23 26.6855C137.891 26.959 136.446 27.0638 134.896 27C134.231 26.8724 133.867 26.5169 133.803 25.9336C133.73 25.3411 134.085 24.9766 134.869 24.8398C135.434 24.8307 135.849 24.8125 136.113 24.7852C136.022 24.6484 135.977 24.5117 135.977 24.375C135.977 23.3815 136.56 22.3105 137.727 21.1621C138.438 20.515 139.148 20.0684 139.859 19.8223C140.06 19.3665 140.347 19.1387 140.721 19.1387ZM144.877 21.5723C144.941 21.6725 144.973 21.7865 144.973 21.9141C144.973 22.5521 144.567 23.3815 143.756 24.4023C144.768 24.2839 145.611 24.0788 146.285 23.7871C147.306 23.1855 147.816 22.666 147.816 22.2285C147.816 22.0462 147.128 21.8457 145.752 21.627L144.877 21.5312V21.5723ZM138.041 24.5664C138.041 24.776 138.21 24.8809 138.547 24.8809C139.604 24.8809 140.789 24.2428 142.102 22.9668C142.603 22.4017 142.854 22.0371 142.854 21.873C142.635 21.6725 142.261 21.5723 141.732 21.5723C140.347 21.5723 139.199 22.3197 138.287 23.8145C138.123 24.1243 138.041 24.375 138.041 24.5664ZM159.725 19.002C160.089 19.002 160.736 19.3529 161.666 20.0547C162.386 20.7018 162.814 21.1484 162.951 21.3945C163.352 21.987 163.553 22.666 163.553 23.4316C163.553 24.4889 163.143 25.3001 162.322 25.8652C161.137 26.5853 159.547 26.9453 157.551 26.9453H157.004C155.126 26.9453 153.964 26.8086 153.518 26.5352C153.253 26.4349 152.957 26.2253 152.629 25.9062C152.219 25.4323 152.014 24.9082 152.014 24.334C152.014 23.4772 152.479 22.6842 153.408 21.9551C154.083 21.3809 154.739 20.9206 155.377 20.5742C155.997 20.2096 156.744 19.877 157.619 19.5762C158.367 19.321 158.827 19.1934 159 19.1934H159.123L159.355 19.084C159.483 19.0293 159.606 19.002 159.725 19.002ZM159.547 21.0254C159.456 21.0983 159.182 21.1895 158.727 21.2988C157.815 21.5905 157.045 21.9095 156.416 22.2559C155.814 22.584 155.149 23.0625 154.42 23.6914C154.137 23.9557 153.996 24.1745 153.996 24.3477V24.3613C153.996 24.5345 154.188 24.6849 154.57 24.8125C154.734 24.8854 155.564 24.9355 157.059 24.9629H157.318C159.169 24.9629 160.508 24.6895 161.338 24.1426C161.493 23.9603 161.57 23.737 161.57 23.4727V23.377C161.57 22.9303 161.397 22.5384 161.051 22.2012C160.65 21.791 160.331 21.5085 160.094 21.3535L159.547 21.0254ZM169.91 24.7031C169.454 24.2018 169.331 23.4134 169.541 22.3379C169.76 21.2624 170.708 20.0456 172.385 18.6875C173.36 17.9948 174.39 17.3796 175.475 16.8418C176.66 16.2949 177.594 16.0215 178.277 16.0215H178.414C179.408 16.0215 180.077 16.5957 180.424 17.7441L180.492 18.3594C180.492 19.9089 179.171 21.7409 176.527 23.8555C173.875 25.7057 171.888 26.6901 170.566 26.8086C169.436 26.918 168.611 26.8223 168.092 26.5215C167.399 26.2389 166.816 25.3639 166.342 23.8965L166.232 22.7344V22.584C166.232 20.3145 167.905 17.4115 171.25 13.875L171.674 13.7109H172.043C172.508 13.7109 172.822 13.9935 172.986 14.5586V14.7637C172.986 15.1374 172.462 15.862 171.414 16.9375C169.372 19.3529 168.352 21.1803 168.352 22.4199V22.7344C168.324 23.8281 168.844 24.4844 169.91 24.7031ZM177.922 24.8672C178.368 24.9128 178.678 25.0996 178.852 25.4277C179.025 25.7467 179.029 26.0703 178.865 26.3984C178.701 26.7174 178.501 26.9134 178.264 26.9863C178.036 27.0592 177.603 27.0729 176.965 27.0273C176.336 26.9909 175.57 26.918 174.668 26.8086C173.775 26.6901 172.85 26.4531 171.893 26.0977C170.945 25.7331 170.79 25.3229 171.428 24.8672C172.066 24.4115 172.854 24.3066 173.793 24.5527C174.741 24.7897 175.456 24.9036 175.939 24.8945C176.423 24.8854 177.083 24.8763 177.922 24.8672ZM171.674 22.4883C171.546 23.1172 171.883 23.6504 172.686 24.0879C174.29 23.1491 175.62 22.1556 176.678 21.1074C177.699 19.9954 178.209 19.125 178.209 18.4961C178.173 18.3229 177.986 18.2318 177.648 18.2227C176.5 18.2227 174.818 19.1569 172.604 21.0254C172.12 21.3626 171.811 21.8503 171.674 22.4883ZM192.975 2.04883C193.485 2.04883 193.836 2.33594 194.027 2.91016V3.19727C194.027 3.55273 193.567 4.15885 192.646 5.01562C187.305 8.60677 182.725 10.6484 178.906 11.1406C178.77 11.2044 178.04 11.332 176.719 11.5234C176.245 11.5234 175.939 11.2044 175.803 10.5664V10.334C175.803 9.99674 176.058 9.67773 176.568 9.37695C176.906 8.41081 177.958 7.03906 179.727 5.26172C181.632 3.34766 182.939 2.39062 183.65 2.39062H183.938C184.457 2.39062 184.917 2.80534 185.318 3.63477L185.359 4.01758V4.16797C185.359 4.76042 184.471 5.79492 182.693 7.27148C181.846 7.87305 181.176 8.17383 180.684 8.17383H180.588C180.324 8.17383 179.973 8.01432 179.535 7.69531H179.48C178.596 8.55208 178.118 9.0625 178.045 9.22656H178.1C179.148 9.22656 181.158 8.64779 184.129 7.49023C187.1 6.32357 189.857 4.57357 192.4 2.24023L192.975 2.04883ZM177.457 24.8672C182.844 25.2135 188.148 25.2181 193.371 24.8809V27C188.13 27.4375 182.826 27.4375 177.457 27V24.8672ZM186.152 9.28125C186.818 9.28125 187.383 9.71875 187.848 10.5938V10.8672C187.848 11.3138 187.447 11.6237 186.645 11.7969H186.371C185.678 11.7969 185.259 11.2682 185.113 10.2109C185.113 9.68229 185.46 9.3724 186.152 9.28125ZM190.377 15.6523C190.696 15.6523 190.933 15.7799 191.088 16.0352L190.732 16.9648C190.65 17.2839 187.962 17.7031 182.666 18.2227H182.557C181.682 18.2227 181.244 17.9857 181.244 17.5117C181.244 16.9193 181.736 16.5182 182.721 16.3086C184.097 16.0898 186.649 15.8711 190.377 15.6523ZM195.996 26.3438C195.003 26.8815 193.9 27.0957 192.688 26.9863C191.922 26.9043 191.562 26.5488 191.607 25.9199C191.653 25.2819 191.999 24.9128 192.646 24.8125C194.205 24.7852 195.34 24.4525 196.051 23.8145C196.762 23.1764 197.204 22.2513 197.377 21.0391C197.559 19.8268 197.896 19.0658 198.389 18.7559C198.389 18.7012 198.525 18.6693 198.799 18.6602C199.774 18.8516 200.089 19.5853 199.742 20.8613C199.387 22.5384 198.922 23.737 198.348 24.457C197.773 25.168 196.99 25.7969 195.996 26.3438ZM197.609 28.8457C197.901 28.8457 198.115 28.9733 198.252 29.2285L197.938 30.1582C197.865 30.4681 195.96 30.8281 192.223 31.2383H192.127C191.334 31.2383 190.938 31.0013 190.938 30.5273C190.938 29.9258 191.384 29.5247 192.277 29.3242L197.609 28.8457ZM207.795 13.9023H208.164C208.629 13.9023 208.943 14.1849 209.107 14.75V14.9551C209.107 15.3288 208.583 16.0534 207.535 17.1289C205.493 19.5443 204.473 21.3717 204.473 22.6113V22.9258C204.609 24.1654 205.133 24.7852 206.045 24.7852C206.82 24.7852 207.207 25.0996 207.207 25.7285V26.043C207.207 26.6081 206.82 26.9271 206.045 27C204.286 27 203.092 26.0293 202.463 24.0879L202.354 22.9258V22.7754C202.354 20.5059 204.026 17.6029 207.371 14.0664L207.795 13.9023ZM214.48 24.5801C214.745 24.7259 215.005 24.8125 215.26 24.8398C215.515 24.8581 215.715 25.0358 215.861 25.373C216.016 25.7103 216.012 26.043 215.848 26.3711C215.684 26.6901 215.438 26.8906 215.109 26.9727C214.79 27.0456 214.403 26.9453 213.947 26.6719C213.501 26.3893 213.145 25.9792 212.881 25.4414C212.617 24.9036 212.822 24.2155 213.496 23.377C214.18 22.5384 214.449 22.4928 214.303 23.2402C214.166 23.9876 214.225 24.4342 214.48 24.5801ZM212.498 19.248H212.566C213.15 19.248 213.633 19.5352 214.016 20.1094C214.408 20.6836 214.585 21.5176 214.549 22.6113C214.521 23.696 214.221 24.6986 213.646 25.6191C213.072 26.5397 212.147 27.0137 210.871 27.041C209.741 26.9499 208.962 26.485 208.533 25.6465C207.695 26.6491 206.924 27.0957 206.223 26.9863C205.648 26.8314 205.352 26.5078 205.334 26.0156C205.307 25.5143 205.439 25.1725 205.73 24.9902C206.022 24.7988 206.337 24.6849 206.674 24.6484C207.02 24.6029 207.398 24.3249 207.809 23.8145C208.219 23.304 208.857 22.4154 209.723 21.1484C210.589 19.8815 211.514 19.248 212.498 19.248ZM210.748 24.9902C211.268 25.127 211.773 24.9629 212.266 24.498C212.767 24.0241 212.999 23.4909 212.963 22.8984C212.936 22.2969 212.73 21.9141 212.348 21.75C211.965 21.5859 211.468 21.9141 210.857 22.7344C210.247 23.5547 209.896 24.0879 209.805 24.334C209.914 24.6348 210.229 24.8535 210.748 24.9902ZM218.104 26.3438C217.11 26.8815 216.007 27.0957 214.795 26.9863C214.029 26.9043 213.669 26.5488 213.715 25.9199C213.76 25.2819 214.107 24.9128 214.754 24.8125C216.312 24.7852 217.447 24.4525 218.158 23.8145C218.869 23.1764 219.311 22.2513 219.484 21.0391C219.667 19.8268 220.004 19.0658 220.496 18.7559C220.496 18.7012 220.633 18.6693 220.906 18.6602C221.882 18.8516 222.196 19.5853 221.85 20.8613C221.494 22.5384 221.029 23.737 220.455 24.457C219.881 25.168 219.097 25.7969 218.104 26.3438ZM219.43 10.8809C220.095 10.8809 220.66 11.3184 221.125 12.1934V12.4668C221.125 12.9225 220.724 13.2324 219.922 13.3965H219.648C218.956 13.3965 218.536 12.8678 218.391 11.8105C218.391 11.2819 218.737 10.972 219.43 10.8809ZM235.617 19.002C236.027 19.002 236.346 19.207 236.574 19.6172C236.638 19.7539 236.67 19.8997 236.67 20.0547V20.0957C236.67 20.3327 236.547 20.7656 236.301 21.3945C236.055 22.0234 235.818 22.584 235.59 23.0762C235.371 23.5684 235.335 23.9694 235.48 24.2793C235.626 24.5892 235.886 24.8034 236.26 24.9219C236.643 25.0312 236.852 25.3685 236.889 25.9336C236.889 26.3802 236.661 26.7083 236.205 26.918C236.077 26.9544 235.964 26.9727 235.863 26.9727H235.727C234.624 26.8997 233.995 26.4258 233.84 25.5508C232.354 27.7747 230.417 30.1628 228.029 32.7148C227.063 33.7721 226.206 34.6973 225.459 35.4902C225.104 35.8822 224.867 36.0781 224.748 36.0781C224.639 36.1419 224.497 36.1738 224.324 36.1738C223.896 36.1738 223.572 35.9414 223.354 35.4766C223.299 35.349 223.271 35.235 223.271 35.1348V35.0527C223.271 34.7246 223.477 34.3874 223.887 34.041C223.887 34.0137 224.671 33.2344 226.238 31.7031C227.888 30.0443 228.923 28.9368 229.342 28.3809C230.554 26.959 231.584 25.6191 232.432 24.3613C233.407 22.8483 234.054 21.5495 234.373 20.4648C234.701 19.3711 235.116 18.8835 235.617 19.002ZM256.453 0.394531C256.964 0.394531 257.314 0.681641 257.506 1.25586V1.54297C257.506 1.89844 257.046 2.50456 256.125 3.36133C250.784 6.95247 246.204 8.99414 242.385 9.48633C242.248 9.55013 241.519 9.67773 240.197 9.86914C239.723 9.86914 239.418 9.55013 239.281 8.91211V8.67969C239.281 8.34245 239.536 8.02344 240.047 7.72266C240.384 6.75651 241.437 5.38477 243.205 3.60742C245.11 1.69336 246.418 0.736328 247.129 0.736328H247.416C247.936 0.736328 248.396 1.15104 248.797 1.98047L248.838 2.36328V2.51367C248.838 3.10612 247.949 4.14062 246.172 5.61719C245.324 6.21875 244.654 6.51953 244.162 6.51953H244.066C243.802 6.51953 243.451 6.36003 243.014 6.04102H242.959C242.075 6.89779 241.596 7.4082 241.523 7.57227H241.578C242.626 7.57227 244.636 6.99349 247.607 5.83594C250.579 4.66927 253.336 2.91927 255.879 0.585938L256.453 0.394531ZM240.84 22.0645C240.803 22.3288 240.831 22.7982 240.922 23.4727C241.013 24.138 241.236 24.5391 241.592 24.6758C241.956 24.8125 242.202 24.9993 242.33 25.2363C242.458 25.4733 242.499 25.7559 242.453 26.084C242.408 26.4121 242.248 26.6673 241.975 26.8496C241.701 27.0319 241.341 27.0182 240.895 26.8086C240.457 26.599 240.024 26.166 239.596 25.5098C239.176 24.8444 239.044 24.0059 239.199 22.9941C239.354 21.9733 239.673 21.4948 240.156 21.5586C240.648 21.6224 240.876 21.791 240.84 22.0645ZM239.623 16.1992C239.687 14.9596 239.874 14.1895 240.184 13.8887C240.503 13.5788 240.831 13.5605 241.168 13.834C241.505 14.0983 241.656 14.832 241.619 16.0352C241.583 17.2383 241.496 18.6784 241.359 20.3555C241.223 22.0234 240.767 23.5228 239.992 24.8535C239.227 26.1751 237.809 26.8906 235.74 27C234.965 26.9271 234.578 26.6081 234.578 26.043V25.7285C234.578 25.0996 234.965 24.7852 235.74 24.7852C237.126 24.7852 238.064 24.1927 238.557 23.0078C239.058 21.8138 239.345 20.6882 239.418 19.6309C239.5 18.5736 239.568 17.4297 239.623 16.1992ZM244.531 26.3438C243.538 26.8815 242.435 27.0957 241.223 26.9863C240.457 26.9043 240.097 26.5488 240.143 25.9199C240.188 25.2819 240.535 24.9128 241.182 24.8125C242.74 24.7852 243.875 24.4525 244.586 23.8145C245.297 23.1764 245.739 22.2513 245.912 21.0391C246.094 19.8268 246.432 19.0658 246.924 18.7559C246.924 18.7012 247.061 18.6693 247.334 18.6602C248.309 18.8516 248.624 19.5853 248.277 20.8613C247.922 22.5384 247.457 23.737 246.883 24.457C246.309 25.168 245.525 25.7969 244.531 26.3438ZM246.145 28.8457C246.436 28.8457 246.65 28.9733 246.787 29.2285L246.473 30.1582C246.4 30.4681 244.495 30.8281 240.758 31.2383H240.662C239.869 31.2383 239.473 31.0013 239.473 30.5273C239.473 29.9258 239.919 29.5247 240.812 29.3242L246.145 28.8457ZM254.512 16.6504H254.58C255.118 16.6504 255.574 17.1198 255.947 18.0586C256.886 19.7083 257.355 21.2897 257.355 22.8027C257.355 24.3431 256.781 25.5827 255.633 26.5215C254.594 27.4421 253.313 28.2897 251.791 29.0645C249.485 30.1491 248.104 30.6914 247.648 30.6914C246.956 30.5638 246.609 30.2493 246.609 29.748V29.4746C246.609 28.9277 247.061 28.5951 247.963 28.4766C249.357 28.0299 250.574 27.5332 251.613 26.9863C252.707 26.4303 253.819 25.6328 254.949 24.5938C255.368 24.1107 255.578 23.5775 255.578 22.9941V22.9668C255.578 21.9277 254.899 20.2917 253.541 18.0586L253.486 17.6895C253.596 16.9967 253.938 16.6504 254.512 16.6504ZM271.588 13.9023H271.957C272.422 13.9023 272.736 14.1849 272.9 14.75V14.9551C272.9 15.3288 272.376 16.0534 271.328 17.1289C269.286 19.5443 268.266 21.3717 268.266 22.6113V22.9258C268.402 24.1654 268.926 24.7852 269.838 24.7852C270.613 24.7852 271 25.0996 271 25.7285V26.043C271 26.6081 270.613 26.9271 269.838 27C268.079 27 266.885 26.0293 266.256 24.0879L266.146 22.9258V22.7754C266.146 20.5059 267.819 17.6029 271.164 14.0664L271.588 13.9023ZM273.297 26.3438C272.303 26.8815 271.201 27.0957 269.988 26.9863C269.223 26.9043 268.863 26.5488 268.908 25.9199C268.954 25.2819 269.3 24.9128 269.947 24.8125C271.506 24.7852 272.641 24.4525 273.352 23.8145C274.062 23.1764 274.505 22.2513 274.678 21.0391C274.86 19.8268 275.197 19.0658 275.689 18.7559C275.689 18.7012 275.826 18.6693 276.1 18.6602C277.075 18.8516 277.389 19.5853 277.043 20.8613C276.688 22.5384 276.223 23.737 275.648 24.457C275.074 25.168 274.29 25.7969 273.297 26.3438ZM271.82 31.3613C272.486 31.3613 273.051 31.7988 273.516 32.6738V32.9473C273.516 33.3939 273.115 33.7038 272.312 33.877H272.039C271.346 33.877 270.927 33.3483 270.781 32.291C270.781 31.7533 271.128 31.4434 271.82 31.3613Z" fill="#1839E8"/>
</svg>
