<svg width="72" height="59" viewBox="0 0 72 59" fill="none" xmlns="http://www.w3.org/2000/svg">
<path d="M23.9039 56.1911L23.9034 56.1909C15.7763 52.6102 10.2552 45.4872 8.32761 37.3863C9.71647 38.6722 11.1668 39.8752 12.6662 41.0153L12.6673 41.016C14.8605 42.6746 17.162 44.1974 19.5382 45.5761L19.7891 45.1436L19.5382 45.5761C24.2888 48.3323 29.3398 50.5555 34.5661 52.2124C37.1765 53.0412 39.847 53.7183 42.5441 54.2094C44.3881 54.5466 46.2488 54.8014 48.1262 54.9575C40.9444 59.0328 32.0272 59.7813 23.9039 56.1911Z" fill="black" stroke="black"/>
<path d="M0.241674 19.9238C1.23854 25.1891 4.94357 30.0682 8.65691 33.7295C13.2425 38.2558 18.7751 41.9424 24.4905 44.8396C33.6783 49.5088 44.4527 52.767 54.8202 52.2295C58.7496 52.0281 62.9281 51.2134 66.3008 49.072C67.4887 48.3246 68.6019 47.3673 69.5075 46.2C71.2851 43.9158 72.0246 41.0102 71.659 38.1382C71.2187 34.6784 69.4742 31.5797 67.3392 28.9093C66.442 27.784 65.5033 26.7763 64.5647 25.8526C64.872 27.658 65.0132 29.4887 64.9966 31.3362C64.9883 31.7057 64.98 32.0752 64.9634 32.4447C65.1627 32.8058 65.3539 33.1753 65.5365 33.5448C66.6249 35.8207 67.522 38.659 66.5169 41.1195C65.8357 42.799 64.3155 44.0167 62.6623 44.7221C59.1567 46.2169 55.003 46.2505 51.2814 45.9566C40.673 45.1168 30.1312 40.918 21.1344 35.3082C20.1209 34.6784 19.1323 34.0066 18.1604 33.3264C13.4419 29.9925 8.416 25.7433 6.14812 20.2512C4.99342 17.4548 5.04326 14.3897 7.42744 12.2986C8.9892 10.9214 11.2405 10.0733 13.2342 9.59459C14.7461 8.03263 16.4325 6.63862 18.2684 5.42935C17.8863 5.41256 17.5041 5.39576 17.1137 5.38736C13.4419 5.30339 9.57071 5.73167 6.26443 7.46998C3.8304 8.74643 1.72867 10.7955 0.715187 13.3735C-0.0906156 15.4394 -0.165381 17.7404 0.241674 19.9238Z" fill="#FFDD02"/>
<path d="M14.7142 14.1214L14.7156 14.1194C15.7559 12.6394 16.9506 11.2676 18.2684 10.036C18.7057 9.63426 19.1339 9.25633 19.5757 8.90061L19.5837 8.89411L19.5917 8.88752C23.2471 5.88133 27.6828 3.85406 32.3164 3.2192L32.318 3.21898C41.1093 2.00711 50.467 5.82211 55.9717 12.8732C61.4777 19.926 62.9817 30.0278 59.7681 38.4197C59.5518 38.983 59.427 39.201 59.314 39.3198L59.3129 39.3209C59.2391 39.3986 59.0896 39.5056 58.7558 39.5957C58.4094 39.6892 57.9783 39.7349 57.4368 39.7584C51.577 40.0034 45.674 38.6424 39.884 36.6723C30.5165 33.4802 21.6362 28.7339 14.6825 21.8822C13.6676 20.8813 12.9036 20.0159 12.5074 19.0676L12.5063 19.065C12.3285 18.641 12.3443 18.0462 12.802 17.0824C13.195 16.2546 13.7598 15.4624 14.3661 14.6118C14.4809 14.4506 14.5973 14.2874 14.7142 14.1214Z" stroke="black" stroke-width="4" stroke-linecap="round"/>
</svg>
