<svg width="196" height="104" viewBox="0 0 196 104" fill="none" xmlns="http://www.w3.org/2000/svg">
<path d="M107.84 23.521C110.523 19.9012 111.936 15.3275 113.432 11.3516C114.328 8.97035 115.674 6.459 116.172 4.00001" stroke="#1839E8" stroke-width="4" stroke-linecap="round"/>
<path d="M150.029 31.5044C150.058 30.8243 150.727 30.2549 151.167 29.8112C153.274 27.6878 154.173 26.9566 156.536 25.1261C158.78 23.3883 160.334 22.1749 162 19.9959" stroke="#1839E8" stroke-width="4" stroke-linecap="round"/>
<path d="M174.217 67.0738C174.56 66.3615 175.772 66.762 176.146 66.8129C178.412 67.1214 180.653 67.5701 182.903 67.9564C186.415 68.5596 189.928 69.1627 193.44 69.7659" stroke="#1839E8" stroke-width="4" stroke-linecap="round"/>
<path d="M152.777 75.2046C156.141 81.0322 157.612 84.2762 164 88.5542" stroke="#1839E8" stroke-width="4" stroke-linecap="round"/>
<path d="M112.903 82.9936C111.926 83.4097 112.382 86.1738 112.351 86.8322C112.247 89.0591 111.834 91.2349 111.362 93.4308C111.01 95.0724 110.559 98.3861 109 99.5541" stroke="#1839E8" stroke-width="4" stroke-linecap="round"/>
<path d="M72.7955 85.6483C71.8897 89.2414 67.9593 92.6942 65.7377 95.7398C64.7948 97.0324 64.1253 98.3705 63.3732 99.7273" stroke="#1839E8" stroke-width="4" stroke-linecap="round"/>
<path d="M30.3993 72.1656C29.5916 76.9235 23.6905 79.7601 20.6101 83.3558C19.3808 84.7909 17.5641 87.0271 15.7457 87.9043" stroke="#1839E8" stroke-width="4" stroke-linecap="round"/>
<path d="M22.3915 55.6556C17.0917 53.5166 8.59215 50.3139 2.84668 50.4463" stroke="#1839E8" stroke-width="4" stroke-linecap="round"/>
<path d="M69.4918 24.6538C69.6029 20.7972 67.2299 17.6095 65.3676 14.1934C64.6987 12.9663 63.7486 9.85175 62.3179 9.18408" stroke="#1839E8" stroke-width="4" stroke-linecap="round"/>
<path d="M29.2332 31.5175C28.7677 29.839 26.967 28.5854 25.6149 27.4403C23.6487 25.775 21.5201 24.408 19.3818 22.9331" stroke="#1839E8" stroke-width="4" stroke-linecap="round"/>
</svg>
