<svg width="221" height="105" viewBox="0 0 221 105" fill="none" xmlns="http://www.w3.org/2000/svg">
<path d="M28.7782 7.2088C29.659 7.51367 30.0371 8.01608 29.9125 8.71602L29.8838 8.87755C29.7927 9.38904 29.403 9.81034 28.7145 10.1415L28.2512 10.1701C27.8384 10.0966 27.5586 9.8478 27.4119 9.42361C25.5975 9.26734 23.9066 9.24878 22.3393 9.36795C20.7266 9.53458 19.384 9.79557 18.3117 10.1509C17.3762 10.4659 16.429 10.95 15.4703 11.6033C13.5532 13.0119 12.431 14.6359 12.1036 16.4755L12.0917 16.5428C11.7132 18.6696 12.1792 20.655 13.4896 22.499C15.5496 24.8653 18.3967 26.3718 22.031 27.0186C26.1409 27.75 30.2224 27.1849 34.2753 25.3233C35.6179 24.6457 36.5709 23.7645 37.1342 22.6798L37.2043 22.4423C37.1845 21.513 37.2018 20.8958 37.2561 20.5907L37.304 20.3215C37.4301 19.6126 37.7127 19.1953 38.1516 19.0698C38.431 19.0084 38.6336 18.9889 38.7592 19.0113C39.6476 19.1694 39.9353 20.1278 39.6222 21.8866L39.5911 22.0616L39.4789 22.4582L40.9538 22.8318C43.1882 23.2295 45.7671 23.3042 48.6904 23.0561C49.4594 23.3133 49.7863 23.7649 49.6713 24.411C49.5356 25.1738 48.7975 25.5238 47.457 25.4611C44.9694 25.6017 42.7116 25.4915 40.6836 25.1306C39.7952 24.9725 39.0513 24.7568 38.4519 24.4835C36.6581 26.812 33.554 28.4398 29.1397 29.3669C26.9512 29.6995 24.9103 29.6973 23.0168 29.3604L22.1015 29.1975C18.53 28.5619 15.3643 26.869 12.6042 24.119C11.7233 23.1382 11.0581 22.1682 10.6086 21.2087C9.78176 19.4044 9.50886 17.7125 9.78993 16.1332C10.1892 13.8898 11.4181 11.9005 13.4766 10.1653C14.7562 9.21732 15.6351 8.67476 16.1131 8.53764C17.5592 7.85071 19.2915 7.3767 21.3098 7.11562C22.6707 6.95972 24.2994 6.91166 26.1958 6.97143C27.5405 7.0626 28.4013 7.14173 28.7782 7.2088ZM47.0578 6.32369C47.7129 6.44027 48.1926 6.97001 48.4969 7.91292L48.449 8.18213C48.3708 8.62183 47.9216 8.85667 47.1016 8.88663L46.8324 8.83872C46.1504 8.71735 45.8303 8.12342 45.8719 7.05694C45.9646 6.53647 46.3599 6.29205 47.0578 6.32369ZM50.2169 12.996C50.531 13.0519 50.7419 13.2191 50.8498 13.4975L50.3369 14.3505C50.2003 14.6502 47.4796 14.5919 42.1749 14.1755L42.0672 14.1564C41.2058 14.0031 40.8166 13.6931 40.8996 13.2265C41.0034 12.6432 41.5582 12.3346 42.5641 12.3007C43.9575 12.3265 46.5084 12.5582 50.2169 12.996ZM58.1531 24.5873C58.5479 24.6576 58.8216 24.9146 58.974 25.3583C59.0145 25.4951 59.0211 25.6398 58.994 25.7924L58.9868 25.8327C58.9453 26.0661 58.7556 26.3517 58.4177 26.6897C57.7756 27.4364 57.0916 28.1849 56.3656 28.9351C55.8827 29.5158 55.1528 30.2098 54.1759 31.0173C52.3942 32.6536 50.2381 34.4686 47.7077 36.4624C46.5924 37.3193 45.6035 38.0644 44.7408 38.6978C44.3312 39.023 44.068 39.1752 43.9514 39.1545C43.8341 39.1891 43.6902 39.1913 43.5197 39.161C43.1069 39.0875 42.8328 38.8073 42.6973 38.3203C42.6732 38.1956 42.6699 38.0839 42.6875 37.9852L42.7018 37.9045C42.7593 37.5814 43.015 37.289 43.469 37.0273C43.4737 37.0003 44.3662 36.3815 46.1462 35.1707C48.0294 33.8487 49.2252 32.9552 49.7338 32.4903C51.1553 31.3176 52.3829 30.1937 53.4167 29.1186C54.7355 27.7424 56.0024 26.32 57.2173 24.8513C57.4912 24.613 57.8031 24.525 58.1531 24.5873ZM65.2263 20.5831L65.5898 20.6477C66.0474 20.7292 66.3075 21.0625 66.37 21.6476L66.3341 21.8495C66.2686 22.2174 65.6257 22.839 64.4053 23.7142C61.972 25.7345 60.6467 27.3548 60.4296 28.5752L60.3745 28.8848C60.2919 30.1292 60.6993 30.8312 61.5966 30.9909C62.3594 31.1266 62.6857 31.5041 62.5755 32.1233L62.5204 32.4329C62.4214 32.9892 61.9841 33.2354 61.2086 33.1715C59.4766 32.8633 58.4712 31.6984 58.1922 29.6768L58.2881 28.5135L58.3144 28.3655C58.7121 26.131 60.8674 23.566 64.7803 20.6703L65.2263 20.5831ZM65.9267 31.1644C66.5476 31.5248 67.1059 31.7955 67.6014 31.9762C68.0969 32.157 68.7309 32.2883 69.5032 32.3702C69.9349 32.4933 70.2073 32.7316 70.3203 33.085C70.4349 33.4294 70.4165 33.7409 70.2651 34.0194C70.1226 34.2996 69.8914 34.4806 69.5713 34.5625C69.2528 34.6355 68.8614 34.5982 68.3969 34.4508C67.9309 34.3123 67.3029 34.1218 66.5128 33.8794C65.7333 33.6296 65.1158 33.3021 64.6602 32.897C64.2136 32.4935 64.1596 32.0164 64.4983 31.4656C64.8386 30.9059 65.3148 30.8055 65.9267 31.1644ZM69.7007 25.0177L70.2122 25.1087C71.307 25.3035 71.8008 26.1181 71.6937 27.5525C71.2002 30.3254 68.5773 32.2147 63.825 33.2205C62.9784 33.3476 62.0481 33.3209 61.0341 33.1404L60.6841 33.0782C60.0383 32.8058 59.7553 32.4453 59.8351 31.9967L59.8902 31.6871C59.9956 31.0948 60.4593 30.8302 61.2813 30.8931C62.1517 31.048 62.8188 31.0973 63.2824 31.041L63.2896 31.0006C63.0939 30.5399 63.0311 30.1121 63.1014 29.7173L63.1469 29.4615C63.3402 28.3757 64.6406 27.1028 67.0483 25.6427C68.0628 25.0918 68.947 24.8835 69.7007 25.0177ZM64.9462 29.5734L64.9006 29.8292C64.8416 30.1612 64.9417 30.4568 65.2011 30.7159C66.0752 30.5381 67.1985 29.9743 68.5711 29.0243C69.1918 28.4497 69.5325 27.9919 69.5932 27.6509C69.6155 27.5252 69.5408 27.3731 69.3689 27.1944L69.3151 27.1848C68.6421 27.065 67.3407 27.6666 65.4111 28.9896C65.1315 29.2083 64.9765 29.4029 64.9462 29.5734ZM71.2923 19.2741C71.9473 19.3906 72.427 19.9204 72.7314 20.8633L72.6835 21.1325C72.6052 21.5722 72.1561 21.807 71.3361 21.837L71.0669 21.7891C70.3849 21.6677 70.0647 21.0738 70.1064 20.0073C70.199 19.4868 70.5943 19.2424 71.2923 19.2741ZM75.356 33.2729C77.9459 33.2339 80.1561 32.7015 81.9865 31.6756C83.817 30.6497 84.7626 30.8504 84.8233 32.2776L84.8162 32.318C84.7556 32.9183 83.845 33.5616 82.0842 34.2481C80.3323 34.9362 78.1113 35.2955 75.4212 35.3259C72.74 35.3579 70.7555 35.1945 69.4677 34.8357C68.1799 34.4769 67.5624 34.1495 67.6151 33.8533C67.4422 33.6282 67.3813 33.372 67.4324 33.0849C67.6794 32.4252 68.0856 32.1457 68.6509 32.2463C70.5417 32.9624 72.7767 33.3046 75.356 33.2729ZM115.353 33.5726C116.02 33.7283 116.327 34.158 116.276 34.8617C114.723 37.8162 112.926 39.561 110.887 40.0961C108.857 40.6328 107.014 40.8695 105.359 40.8064C103.704 40.7433 101.718 40.5057 99.4032 40.0937C94.9074 39.2936 92.3202 37.8611 91.6415 35.7962C91.531 35.2211 91.506 34.763 91.5667 34.422C91.859 32.7799 93.3401 31.428 96.0101 30.3663C97.1168 30.0263 98.2438 29.8057 99.3913 29.7044C101.186 29.6072 102.685 29.6656 103.887 29.8796C104.345 29.961 104.627 30.326 104.734 30.9745L104.667 31.3514C104.574 31.8719 104.164 32.1461 103.437 32.1741L102.724 32.0472C99.933 31.5505 97.4466 31.9181 95.2648 33.1499C94.2833 33.8269 93.7471 34.4212 93.656 34.9327C93.442 36.1352 94.9549 37.1543 98.1945 37.99L99.8588 38.314L99.8857 38.3188C105.111 39.0265 108.591 39.0025 110.327 38.2468C112.065 37.4821 113.139 36.5716 113.549 35.5151C113.959 34.4587 114.394 33.8138 114.852 33.5806C115.015 33.5449 115.183 33.5423 115.353 33.5726ZM115.529 35.9369C114.668 37.3945 114.266 38.4338 114.322 39.0548C114.38 39.6669 114.691 40.1528 115.257 40.5127C115.688 40.6358 115.961 40.874 116.074 41.2274C116.188 41.5719 116.17 41.8833 116.019 42.1619C115.876 42.4421 115.645 42.6231 115.325 42.705C115.006 42.7779 114.574 42.6593 114.027 42.3491C113.482 42.0299 113.065 41.5159 112.774 40.8069C112.484 40.0979 112.503 39.2589 112.833 38.29C113.165 37.3121 113.912 36.3111 115.076 35.2869C116.239 34.2626 116.391 34.4793 115.529 35.9369ZM113.729 24.8267C114.044 24.8826 114.254 25.0497 114.362 25.3281L113.849 26.1811C113.713 26.4808 110.992 26.4225 105.687 26.0062L105.58 25.987C104.718 25.8337 104.329 25.5237 104.412 25.0571C104.516 24.4738 105.071 24.1652 106.077 24.1313C107.47 24.1571 110.021 24.3889 113.729 24.8267ZM121.034 33.7227L121.061 33.7275C121.86 33.8696 122.648 34.7459 123.426 36.3563C123.939 37.327 124.254 37.8969 124.372 38.066C125.248 37.6666 125.844 37.4948 126.158 37.5507L126.4 37.5938C126.759 37.6577 127.013 37.9482 127.161 38.4653C127.194 38.5915 127.198 38.7264 127.173 38.87C127.077 39.4084 126.64 39.9371 125.863 40.4561C125.362 40.7188 124.906 40.8134 124.493 40.74L124.03 40.5326C122.262 41.2085 120.771 41.7069 119.556 42.0277C117.109 42.5643 115.684 42.7967 115.28 42.7248C115.057 42.7314 114.761 42.7019 114.393 42.6364L114.299 42.6197C113.841 42.5382 113.555 42.2511 113.439 41.7583L113.437 41.4526L113.464 41.3045C113.544 40.8559 113.874 40.586 114.455 40.495C115.272 40.6403 116.204 40.5749 117.253 40.2987C119.141 39.9402 120.952 39.4154 122.685 38.7241C121.917 36.9579 121.223 36.0197 120.603 35.9095C120.189 35.8451 119.239 36.5554 117.752 38.0406C117.379 38.3722 117.097 38.5212 116.909 38.4877C116.685 38.4477 116.478 38.1518 116.289 37.5997L116.295 37.2536C116.417 36.5717 117.104 35.8052 118.357 34.9543C119.568 34.031 120.46 33.6205 121.034 33.7227ZM121.967 27.0008C122.622 27.1174 123.101 27.6471 123.406 28.5901L123.358 28.8593C123.28 29.299 122.831 29.5338 122.011 29.5638L121.741 29.5159C121.059 29.3945 120.739 28.8006 120.781 27.7341C120.873 27.2136 121.269 26.9692 121.967 27.0008ZM133.944 30.6321C134.473 30.7263 134.772 31.0758 134.841 31.6804L134.821 31.8713C134.698 32.5622 133.883 35.6065 132.376 41.0041L131.211 45.5184C130.873 46.0137 130.484 46.2222 130.045 46.1439L130.031 46.1416C129.328 45.933 129.028 45.5371 129.132 44.9538C130.502 40.6337 131.291 37.8948 131.497 36.7372C132.067 34.4687 132.462 32.7198 132.68 31.4904C132.775 30.9609 133.155 30.6677 133.823 30.6105L133.944 30.6321ZM139.938 36.6703L140.006 36.6823C140.535 36.7765 140.901 37.3185 141.105 38.3083C141.74 40.097 141.925 41.7361 141.66 43.2257C141.39 44.7423 140.608 45.8621 139.313 46.5851C138.128 47.3094 136.719 47.9196 135.085 48.4156C132.624 49.0795 131.17 49.3715 130.721 49.2916C130.061 49.0446 129.776 48.6743 129.863 48.1808L129.911 47.9116C130.007 47.3732 130.51 47.1247 131.419 47.1661C132.87 46.9707 134.155 46.6949 135.274 46.3385C136.448 45.9828 137.683 45.3924 138.977 44.5674C139.475 44.1653 139.775 43.6771 139.877 43.1028L139.882 43.0759C140.064 42.0529 139.682 40.3231 138.736 37.8867L138.747 37.5136C138.976 36.8508 139.373 36.5697 139.938 36.6703ZM150.255 40.8948C150.659 40.9666 150.937 41.2244 151.089 41.6682C151.128 41.814 151.134 41.9631 151.107 42.1157L151.1 42.1561C151.058 42.3894 150.861 42.7941 150.509 43.3701C150.156 43.9462 149.825 44.4565 149.514 44.9012C149.212 45.3474 149.106 45.7359 149.196 46.0665C149.285 46.3972 149.503 46.6536 149.85 46.8357C150.208 47.0105 150.355 47.3792 150.292 47.942C150.214 48.3817 149.932 48.6648 149.447 48.7913C149.315 48.8049 149.199 48.8029 149.1 48.7853L148.966 48.7613C147.893 48.4963 147.357 47.9195 147.357 47.0309C145.505 48.9601 143.18 50.9719 140.382 53.0661C139.245 53.9377 138.24 54.6984 137.365 55.3482C136.946 55.6718 136.678 55.8232 136.562 55.8024C136.443 55.8461 136.298 55.8527 136.128 55.8224C135.706 55.7473 135.428 55.4618 135.294 54.9658C135.263 54.8306 135.256 54.7136 135.273 54.6149L135.288 54.5342C135.345 54.2111 135.606 53.915 136.071 53.6459C136.076 53.619 136.984 52.9891 138.796 51.7562C140.71 50.412 141.923 49.503 142.433 49.0291C143.876 47.8416 145.125 46.7029 146.179 45.6131C147.405 44.2944 148.269 43.129 148.774 42.1171C149.288 41.0977 149.782 40.6903 150.255 40.8948ZM151.728 48.6142C150.656 48.9695 149.537 48.988 148.372 48.6695C147.632 48.4546 147.34 48.0415 147.495 47.4303C147.652 46.8102 148.058 46.5074 148.712 46.5221C150.243 46.7667 151.414 46.6372 152.225 46.1336C153.037 45.63 153.634 44.7966 154.017 43.6335C154.409 42.4719 154.874 41.7817 155.413 41.5629C155.423 41.509 155.563 41.5016 155.834 41.5405C156.761 41.8998 156.942 42.6773 156.377 43.8729C155.733 45.4618 155.066 46.5604 154.374 47.1687C153.684 47.768 152.802 48.2498 151.728 48.6142ZM150.263 55.755C150.918 55.8716 151.398 56.4013 151.702 57.3443L151.654 57.6135C151.576 58.0532 151.127 58.288 150.307 58.318L150.038 58.2701C149.356 58.1487 149.036 57.5548 149.077 56.4883C149.171 55.9588 149.567 55.7144 150.263 55.755ZM155.525 53.1087C155.839 53.1646 156.05 53.3317 156.158 53.6101L155.645 54.4632C155.51 54.7539 152.789 54.6956 147.483 54.2882L147.375 54.269C146.514 54.1157 146.125 53.8057 146.208 53.3391C146.313 52.7469 146.868 52.4383 147.872 52.4133C149.265 52.4391 151.816 52.6709 155.525 53.1087ZM193.863 43.1425L194.159 43.1952C194.743 43.299 194.996 43.8023 194.918 44.7051C194.88 46.9479 194.718 48.8725 194.432 50.4788C194.038 52.6952 193.371 54.2336 192.431 55.094C190.619 56.9008 188.604 58.1809 186.387 58.9343C182.161 60.5708 177.917 61.0097 173.655 60.2512C169.563 59.5229 166.037 57.7475 163.077 54.9247C161.667 53.2759 161.106 51.6394 161.395 50.0151C161.822 47.6192 163.744 45.5821 167.163 43.9038C172 41.9503 176.146 41.0495 179.6 41.2013C180.243 41.4361 180.519 41.8093 180.428 42.3208L180.376 42.6169C180.275 43.1822 179.528 43.4243 178.136 43.3431C177.642 43.2552 175.976 43.4865 173.138 44.0368C170.701 44.7233 168.517 45.5797 166.585 46.606C164.75 47.8626 163.723 49.1056 163.505 50.335C163.259 51.7169 163.818 53.1774 165.183 54.7163C167.213 56.5218 169.794 57.7033 172.926 58.2606L173.451 58.354C178.781 59.3026 183.824 58.4319 188.58 55.7418C190.203 54.6327 191.25 53.5368 191.72 52.454C191.954 51.8662 192.164 51.0518 192.349 50.0108C192.578 48.7276 192.746 46.6885 192.855 43.8934L192.862 43.8531C193.153 43.3123 193.486 43.0754 193.863 43.1425ZM182.766 49.083C183.421 49.1996 183.901 49.7293 184.205 50.6722L184.157 50.9415C184.079 51.3812 183.63 51.616 182.81 51.646L182.541 51.598C181.859 51.4767 181.539 50.8828 181.58 49.8163C181.673 49.2958 182.068 49.0514 182.766 49.083ZM202.313 44.9796L202.677 45.0443C203.134 45.1257 203.395 45.459 203.457 46.0441L203.421 46.246C203.356 46.6139 202.713 47.2355 201.492 48.1107C199.059 50.131 197.734 51.7513 197.517 52.9718L197.461 53.2813C197.379 54.5257 197.786 55.2277 198.684 55.3874C199.446 55.5232 199.773 55.9006 199.662 56.5198L199.607 56.8294C199.508 57.3858 199.071 57.632 198.296 57.568C196.564 57.2598 195.558 56.0949 195.279 54.0733L195.375 52.91L195.401 52.762C195.799 50.5276 197.954 47.9625 201.867 45.0669L202.313 44.9796ZM205.348 50.9494L205.415 50.9613C205.99 51.0635 206.415 51.4308 206.691 52.0633C206.977 52.6973 207.005 53.5495 206.778 54.6199C206.561 55.683 206.089 56.6174 205.362 57.4231C204.636 58.2288 203.642 58.5334 202.381 58.3367C201.284 58.049 200.598 57.4548 200.323 56.5541C199.322 57.3943 198.486 57.6991 197.814 57.4684C197.276 57.2153 197.041 56.8448 197.109 56.357C197.17 55.8587 197.36 55.5453 197.679 55.417C198 55.2796 198.329 55.2225 198.668 55.2457C199.017 55.2616 199.438 55.0541 199.931 54.6235C200.424 54.1928 201.208 53.4297 202.283 52.3341C203.357 51.2385 204.379 50.7769 205.348 50.9494ZM202.619 56.2961C203.107 56.5217 203.633 56.4488 204.199 56.0774C204.776 55.6986 205.098 55.2144 205.166 54.6247C205.245 54.0277 205.11 53.6149 204.762 53.3863C204.414 53.1577 203.867 53.3937 203.122 54.0943C202.377 54.7949 201.938 55.2584 201.805 55.4847C201.86 55.8 202.132 56.0705 202.619 56.2961ZM215.769 52.6372C216.164 52.7075 216.437 52.9645 216.59 53.4082C216.63 53.545 216.637 53.6897 216.61 53.8423L216.603 53.8826C216.561 54.116 216.371 54.4016 216.033 54.7395C215.391 55.4863 214.707 56.2348 213.981 56.985C213.498 57.5657 212.768 58.2597 211.792 59.0672C210.01 60.7035 207.854 62.5185 205.323 64.5123C204.208 65.3692 203.219 66.1143 202.357 66.7477C201.947 67.0729 201.684 67.2251 201.567 67.2043C201.45 67.239 201.306 67.2412 201.135 67.2108C200.723 67.1374 200.448 66.8572 200.313 66.3701C200.289 66.2455 200.286 66.1338 200.303 66.0351L200.318 65.9544C200.375 65.6313 200.631 65.3389 201.085 65.0772C201.089 65.0502 201.982 64.4314 203.762 63.2206C205.645 61.8986 206.841 61.0051 207.35 60.5402C208.771 59.3675 209.999 58.2436 211.032 57.1685C212.351 55.7923 213.618 54.3699 214.833 52.9012C215.107 52.6629 215.419 52.5749 215.769 52.6372ZM218.271 41.6955C218.927 41.8121 219.406 42.3418 219.711 43.2848L219.663 43.554C219.584 43.9937 219.135 44.2285 218.315 44.2585L218.046 44.2106C217.364 44.0892 217.044 43.4953 217.086 42.4288C217.178 41.9083 217.573 41.6639 218.271 41.6955ZM17.6228 48.2743C17.5826 46.8877 17.6774 45.7566 17.9073 44.881C18.1388 43.9964 18.5692 43.5546 19.1986 43.5555C19.8296 43.5474 20.1769 44.3267 20.2406 45.8934C20.3044 47.46 20.1791 49.1782 19.8649 51.0479C19.5612 52.9102 19.2957 54.1683 19.0682 54.8222C18.8514 55.4687 18.488 55.7419 17.9781 55.6419C17.4787 55.5345 17.3021 54.6282 17.4482 52.923C17.6049 51.2104 17.6631 49.6608 17.6228 48.2743ZM18.0639 57.6568C18.3959 57.7159 18.5681 57.9965 18.5806 58.4987C18.5439 58.7051 18.3879 58.8532 18.1127 58.9431L18.0244 59.2051L18.0172 59.2455L18.246 59.2862C18.8227 59.5833 19.0599 60.0189 18.9577 60.5933C18.83 61.3111 18.3269 61.7447 17.4487 61.8939L17.1184 61.8768C16.2031 61.7139 15.7902 61.0433 15.8795 59.8649C16.1031 58.6086 16.7077 57.8645 17.6932 57.6325L18.0639 57.6568ZM25.1477 49.6134C25.1075 48.2269 25.2023 47.0958 25.4322 46.2202C25.6637 45.3356 26.0941 44.8937 26.7235 44.8947C27.3545 44.8866 27.7018 45.6659 27.7655 47.2325C27.8293 48.7992 27.704 50.5174 27.3898 52.3871C27.0861 54.2494 26.8206 55.5075 26.5931 56.1613C26.3762 56.8078 26.0129 57.0811 25.503 56.9811C25.0036 56.8737 24.827 55.9674 24.9731 54.2622C25.1297 52.5496 25.188 51 25.1477 49.6134ZM25.5887 58.996C25.9208 59.0551 26.093 59.3357 26.1055 59.8378C26.0688 60.0442 25.9128 60.1924 25.6376 60.2823L25.5493 60.5443L25.5421 60.5847L25.7709 60.6254C26.3476 60.9224 26.5848 61.3581 26.4826 61.9324C26.3549 62.6503 25.8518 63.0839 24.9736 63.2331L24.6433 63.2159C23.728 63.0531 23.315 62.3824 23.4044 61.2041C23.628 59.9478 24.2326 59.2037 25.2181 58.9717L25.5887 58.996ZM32.6726 50.9526C32.6324 49.566 32.7272 48.4349 32.9571 47.5593C33.1886 46.6747 33.619 46.2329 34.2484 46.2338C34.8793 46.2258 35.2267 47.005 35.2904 48.5717C35.3542 50.1383 35.2289 51.8565 34.9147 53.7262C34.611 55.5885 34.3455 56.8466 34.118 57.5005C33.9011 58.147 33.5377 58.4202 33.0279 58.3202C32.5285 58.2128 32.3519 57.3065 32.498 55.6013C32.6546 53.8887 32.7129 52.3392 32.6726 50.9526ZM33.1136 60.3352C33.4457 60.3942 33.6179 60.6749 33.6304 61.177C33.5937 61.3834 33.4377 61.5315 33.1625 61.6214L33.0742 61.8834L33.067 61.9238L33.2958 61.9646C33.8725 62.2616 34.1097 62.6973 34.0075 63.2716C33.8797 63.9895 33.3767 64.423 32.4985 64.5722L32.1682 64.5551C31.2529 64.3922 30.8399 63.7216 30.9293 62.5432C31.1529 61.2869 31.7574 60.5428 32.743 60.3109L33.1136 60.3352ZM46.0829 60.2686C47.6802 60.5529 48.6218 61.3222 48.9077 62.5766C48.9801 62.9505 48.9531 63.7002 48.8269 64.8257C48.828 65.1314 48.9363 65.3035 49.1516 65.3418C49.6918 65.6879 49.9251 66.0673 49.8517 66.4801L49.8158 66.682C49.7167 67.2384 49.3253 67.539 48.6415 67.584L47.8743 67.4474C47.1474 67.3181 46.7197 66.9642 46.5912 66.3859C46.4295 66.0979 46.444 65.0543 46.6345 63.2552C46.5926 62.7108 46.3786 62.4042 45.9928 62.3356L45.7957 62.2727L45.6207 62.2416C44.2118 61.9908 42.3173 62.7785 39.9371 64.6046C39.0896 65.361 38.57 65.9397 38.3783 66.3407L38.4187 66.3479L38.9018 66.3644L38.996 66.3812C39.7037 66.6183 40.0048 67.0329 39.8994 67.6252L39.9192 67.6703L39.9144 67.6973C39.7627 68.5497 39.0138 68.8562 37.6678 68.6167C36.5999 68.4266 36.0173 67.8508 35.92 66.8892L35.9419 66.532L35.9946 66.2359C36.2181 64.9796 37.7272 63.4707 40.5218 61.7091C42.7126 60.4789 44.5663 59.9987 46.0829 60.2686ZM51.2077 67.2908C50.1354 67.6461 49.0121 67.6638 47.8377 67.3437C47.0983 67.1288 46.8061 66.7158 46.9612 66.1046C47.1179 65.4844 47.5235 65.1816 48.1782 65.1963C49.7175 65.4425 50.893 65.3138 51.7047 64.8102C52.5165 64.3066 53.1138 63.4732 53.4967 62.3101C53.8885 61.1485 54.3539 60.4583 54.8928 60.2395C54.9024 60.1856 55.0426 60.1782 55.3134 60.2171C56.24 60.5764 56.421 61.3539 55.8565 62.5495C55.2126 64.1384 54.545 65.237 53.8535 65.8453C53.1636 66.4446 52.2817 66.9264 51.2077 67.2908ZM55.2227 52.2994C55.8777 52.416 56.3574 52.9458 56.6618 53.8887L56.6139 54.1579C56.534 54.6066 56.0849 54.8414 55.2665 54.8624L54.9973 54.8145C54.3153 54.6931 53.9951 54.0992 54.0368 53.0327C54.1294 52.5122 54.5247 52.2678 55.2227 52.2994ZM59.7264 68.1958C60.2634 67.4674 61.1644 67.2945 62.4294 67.677C62.8612 67.8001 63.1335 68.0384 63.2465 68.3917C63.3611 68.7362 63.3427 69.0477 63.1913 69.3262C63.0489 69.6064 62.8176 69.7874 62.4975 69.8693C62.179 69.9422 61.5041 69.8592 60.4728 69.6201C59.4398 69.3899 59.191 68.9152 59.7264 68.1958ZM62.2938 61.8065C63.0617 62.0173 63.4806 62.6288 63.5504 63.641C63.5256 63.9884 63.475 64.2988 63.3986 64.5722C62.9065 66.401 61.4815 68.5035 59.1238 70.8798C58.3692 71.6342 57.0896 72.5822 55.2848 73.7238C53.4394 74.8859 52.2812 75.4898 51.8101 75.5356L51.6106 75.4862C51.2834 75.4002 51.0602 75.1198 50.941 74.6449C50.899 74.5171 50.9029 74.365 50.9528 74.1887L50.9758 74.1373C51.1117 73.6338 51.5325 73.2458 52.2383 72.9733C53.0241 72.5114 53.8842 71.9701 54.8186 71.3495C56.1409 70.4739 57.1548 69.6406 57.8603 68.8496C56.78 68.1575 56.3977 67.2886 56.7133 66.2431C56.9088 65.0929 57.9946 63.7771 59.971 62.2958C60.8487 61.7854 61.623 61.6224 62.2938 61.8065ZM59.1925 66.0455C58.8903 66.5472 58.9474 66.8768 59.3638 67.0342C59.6258 66.9142 60.0554 66.3472 60.6524 65.3333L61.0998 64.302C60.1411 64.9553 59.5053 65.5365 59.1925 66.0455ZM64.898 69.7272C63.8257 70.0825 62.7023 70.1002 61.528 69.7801C60.7886 69.5652 60.4964 69.1521 60.6515 68.5409C60.8081 67.9208 61.2138 67.618 61.8685 67.6327C63.4078 67.8789 64.5833 67.7501 65.395 67.2466C66.2067 66.743 66.8041 65.9096 67.187 64.7465C67.5788 63.5849 68.0442 62.8947 68.5831 62.6758C68.5926 62.622 68.7328 62.6145 69.0036 62.6535C69.9303 63.0128 70.1113 63.7903 69.5467 64.9859C68.9029 66.5748 68.2353 67.6733 67.5438 68.2816C66.8539 68.881 65.972 69.3628 64.898 69.7272ZM74.5469 55.4607C74.7802 55.5022 74.9284 55.6582 74.9913 55.9286L74.5727 56.7984C74.463 57.1029 72.4647 57.1732 68.5778 57.0091L68.497 56.9948C67.8689 56.883 67.5963 56.5938 67.6794 56.1271C67.7832 55.5439 68.2079 55.2121 68.9535 55.1319C69.97 55.0906 71.8345 55.2002 74.5469 55.4607ZM75.8711 61.8343L75.9384 61.8463C76.4679 61.9405 76.8343 62.4825 77.0377 63.4722C77.673 65.261 77.858 66.9001 77.5929 68.3897C77.323 69.9063 76.5405 71.0261 75.2454 71.7491C74.0611 72.4734 72.6518 73.0836 71.0174 73.5796C68.5571 74.2435 67.1026 74.5354 66.6539 74.4556C65.9942 74.2086 65.7083 73.8383 65.7962 73.3448L65.8441 73.0756C65.9399 72.5372 66.4424 72.2887 67.3515 72.3301C68.8027 72.1347 70.0878 71.8589 71.2066 71.5025C72.3808 71.1468 73.6153 70.5564 74.9101 69.7314C75.4075 69.3293 75.7073 68.8411 75.8096 68.2668L75.8143 68.2399C75.9964 67.2169 75.6145 65.4871 74.6687 63.0506L74.6796 62.6776C74.9086 62.0148 75.3058 61.7337 75.8711 61.8343ZM82.3011 72.2133C82.8381 71.4849 83.7391 71.3119 85.0041 71.6945C85.4358 71.8176 85.7082 72.0558 85.8212 72.4092C85.9358 72.7536 85.9174 73.0651 85.766 73.3437C85.6236 73.6238 85.3923 73.8049 85.0722 73.8868C84.7537 73.9597 84.0788 73.8766 83.0475 73.6375C82.0145 73.4074 81.7657 72.9327 82.3011 72.2133ZM84.8685 65.824C85.6364 66.0347 86.0553 66.6462 86.1251 67.6585C86.1003 68.0059 86.0497 68.3163 85.9732 68.5897C85.4812 70.4185 84.0562 72.521 81.6985 74.8972C80.9439 75.6517 79.6643 76.5997 77.8595 77.7413C76.0141 78.9033 74.8558 79.5073 74.3848 79.5531L74.1853 79.5037C73.8581 79.4177 73.6349 79.1372 73.5157 78.6624C73.4736 78.5346 73.4776 78.3825 73.5274 78.2062L73.5505 78.1548C73.6864 77.6513 74.1072 77.2633 74.813 76.9908C75.5988 76.5289 76.4589 75.9876 77.3933 75.367C78.7156 74.4914 79.7295 73.6581 80.435 72.8671C79.3547 72.1749 78.9723 71.3061 79.288 70.2606C79.4834 69.1104 80.5693 67.7946 82.5456 66.3133C83.4234 65.8029 84.1977 65.6398 84.8685 65.824ZM81.7672 70.063C81.465 70.5647 81.5221 70.8943 81.9384 71.0517C82.2005 70.9317 82.6301 70.3647 83.2271 69.3508L83.6745 68.3194C82.7158 68.9728 82.08 69.554 81.7672 70.063ZM90.9702 64.938L90.9971 64.9428C91.7958 65.0849 92.5841 65.9612 93.3622 67.5717C93.8745 68.5423 94.1897 69.1122 94.3077 69.2814C95.1842 68.8819 95.7795 68.7101 96.0936 68.766L96.3359 68.8091C96.6948 68.873 96.9486 69.1635 97.0973 69.6806C97.1304 69.8068 97.1342 69.9417 97.1086 70.0853C97.0128 70.6237 96.5762 71.1524 95.7987 71.6714C95.2983 71.9341 94.8418 72.0288 94.429 71.9553L93.966 71.7479C92.1978 72.4238 90.7065 72.9222 89.4922 73.2431C87.0452 73.7796 85.6198 74.012 85.216 73.9402C84.9927 73.9467 84.697 73.9172 84.3291 73.8517L84.2349 73.835C83.7772 73.7535 83.4904 73.4664 83.3745 72.9736L83.3733 72.6679L83.3997 72.5199C83.4795 72.0712 83.8099 71.8013 84.3908 71.7103C85.2074 71.8556 86.1402 71.7902 87.1892 71.514C89.0768 71.1556 90.8875 70.6307 92.6214 69.9394C91.8526 68.1732 91.1585 67.235 90.5394 67.1249C90.125 67.0604 89.1746 67.7707 87.6883 69.2559C87.3145 69.5875 87.0334 69.7365 86.845 69.703C86.6206 69.6631 86.4141 69.3671 86.2253 68.8151L86.2314 68.469C86.3527 67.787 87.04 67.0205 88.2931 66.1696C89.5035 65.2463 90.3959 64.8358 90.9702 64.938ZM91.9026 58.2161C92.5577 58.3327 93.0374 58.8625 93.3417 59.8054L93.2938 60.0746C93.2156 60.5143 92.7664 60.7491 91.9464 60.7791L91.6772 60.7312C90.9952 60.6098 90.6751 60.0159 90.7167 58.9494C90.8094 58.4289 91.2046 58.1845 91.9026 58.2161ZM126.924 72.1974C127.59 72.353 127.898 72.7827 127.847 73.4865C126.293 76.441 124.497 78.1858 122.458 78.7209C120.427 79.2575 118.584 79.4943 116.929 79.4312C115.274 79.3681 113.289 79.1305 110.974 78.7185C106.478 77.9184 103.891 76.4859 103.212 74.421C103.101 73.8459 103.077 73.3878 103.137 73.0468C103.429 71.4046 104.911 70.0527 107.581 68.9911C108.687 68.6511 109.814 68.4304 110.962 68.3291C112.757 68.2319 114.255 68.2903 115.458 68.5043C115.915 68.5858 116.198 68.9508 116.304 69.5993L116.237 69.9762C116.145 70.4967 115.735 70.7709 115.008 70.7989L114.294 70.6719C111.503 70.1753 109.017 70.5428 106.835 71.7747C105.854 72.4517 105.318 73.046 105.227 73.5575C105.013 74.7599 106.525 75.779 109.765 76.6148L111.429 76.9388L111.456 76.9435C116.681 77.6512 120.162 77.6272 121.898 76.8715C123.636 76.1069 124.71 75.1963 125.12 74.1399C125.53 73.0834 125.964 72.4386 126.422 72.2053C126.586 72.1697 126.753 72.167 126.924 72.1974ZM127.1 74.5617C126.239 76.0193 125.836 77.0586 125.892 77.6796C125.95 78.2916 126.262 78.7776 126.827 79.1374C127.259 79.2606 127.531 79.4988 127.644 79.8522C127.759 80.1966 127.74 80.5081 127.589 80.7867C127.447 81.0668 127.215 81.2479 126.895 81.3298C126.577 81.4027 126.144 81.2841 125.598 80.9739C125.053 80.6547 124.635 80.1406 124.345 79.4316C124.054 78.7226 124.074 77.8837 124.404 76.9148C124.735 75.9369 125.483 74.9358 126.646 73.9116C127.81 72.8874 127.961 73.1041 127.1 74.5617ZM125.3 63.4514C125.614 63.5073 125.825 63.6745 125.933 63.9529L125.42 64.8059C125.283 65.1056 122.563 65.0473 117.258 64.6309L117.15 64.6118C116.289 64.4585 115.9 64.1485 115.983 63.6819C116.086 63.0986 116.641 62.79 117.647 62.7561C119.04 62.7818 121.591 63.0136 125.3 63.4514ZM132.734 80.0497C135.324 80.0107 137.534 79.4783 139.364 78.4524C141.195 77.4265 142.14 77.6272 142.201 79.0545L142.194 79.0948C142.133 79.6951 141.223 80.3384 139.462 81.0249C137.71 81.713 135.489 82.0723 132.799 82.1027C130.118 82.1347 128.133 81.9713 126.845 81.6125C125.558 81.2537 124.94 80.9263 124.993 80.6302C124.82 80.405 124.759 80.1488 124.81 79.8617C125.057 79.202 125.463 78.9225 126.029 79.0231C127.919 79.7392 130.155 80.0814 132.734 80.0497ZM149.637 74.962L149.705 74.974C150.234 75.0682 150.6 75.6102 150.804 76.6C151.439 78.3887 151.624 80.0278 151.359 81.5174C151.089 83.034 150.307 84.1538 149.012 84.8768C147.827 85.6011 146.418 86.2113 144.784 86.7073C142.323 87.3712 140.869 87.6632 140.42 87.5833C139.76 87.3363 139.474 86.966 139.562 86.4725L139.61 86.2033C139.706 85.6649 140.209 85.4164 141.118 85.4578C142.569 85.2625 143.854 84.9866 144.973 84.6302C146.147 84.2745 147.381 83.6841 148.676 82.8592C149.174 82.457 149.473 81.9688 149.576 81.3945L149.58 81.3676C149.763 80.3446 149.381 78.6148 148.435 76.1784L148.446 75.8053C148.675 75.1425 149.072 74.8614 149.637 74.962ZM174.188 79.7339C175.695 80.0021 176.783 80.89 177.449 82.3973C177.79 83.2911 177.874 84.2227 177.702 85.1918C177.403 86.8699 176.215 88.1628 174.137 89.0706C173.175 89.3807 172.393 89.4822 171.792 89.3753L171.415 89.3082C170.446 89.1357 169.638 88.5244 168.992 87.4744C168.519 86.5941 168.38 85.602 168.577 84.4983L168.589 84.431C168.752 83.5157 169.485 82.489 170.79 81.3509L170.794 81.324C169.644 81.4433 168.555 81.6291 167.529 81.8816C166.307 82.1919 165.071 82.6383 163.819 83.221C161.49 84.4452 160.187 85.8381 159.909 87.3995C159.503 89.6787 160.143 92.0931 161.828 94.6426C161.965 94.8614 162.013 95.0875 161.971 95.3208L161.935 95.5227C161.841 96.0521 161.491 96.3555 160.884 96.4327L160.667 96.4079C160.263 96.336 159.929 96.0034 159.664 95.4101C158.482 93.3112 157.849 91.1711 157.765 88.9898C157.751 88.0801 157.795 87.3425 157.895 86.7772C158.421 83.8249 161.024 81.6821 165.705 80.3488C169.081 79.5332 171.909 79.3282 174.188 79.7339ZM170.688 84.8878L170.659 85.0493C170.471 86.1082 170.845 86.9155 171.783 87.4713L172.216 87.6176C172.88 87.7358 173.724 87.4139 174.748 86.6519C175.425 86.0225 175.817 85.4071 175.924 84.8059C176.055 84.0701 175.743 83.2739 174.988 82.4175C174.668 82.1847 174.437 82.0555 174.293 82.03C173.746 81.9326 172.861 82.3769 171.64 83.363C171.085 83.9309 170.768 84.4391 170.688 84.8878ZM176.91 88.1614C177.245 88.3045 177.451 88.554 177.526 88.9099C177.612 89.2585 177.572 89.566 177.404 89.8324C177.247 90.0915 177.044 90.2406 176.797 90.2798C176.559 90.3117 176.218 90.2001 175.773 89.9449C175.329 89.6808 175.041 89.1944 174.908 88.4856C174.775 87.7768 175.158 87.0812 176.057 86.3988C176.967 85.709 177.252 85.7968 176.913 86.6622C176.584 87.5202 176.583 88.02 176.91 88.1614ZM183.015 83.4295C184.272 83.6531 186.174 84.149 188.722 84.9172C190.846 85.6748 191.786 86.74 191.542 88.113C191.331 89.2975 190.376 90.2154 188.677 90.8666C187.957 91.2198 186.569 91.3432 184.514 91.2367C183.6 91.2222 182.654 91.1279 181.676 90.9538C180.703 90.7529 180.22 90.6344 180.226 90.5985C178.859 90.633 177.418 90.483 175.904 90.1487C175.271 89.9065 174.974 89.4927 175.014 88.9072C175.046 88.3111 175.46 88.0145 176.255 88.0172C176.813 88.1072 177.225 88.162 177.49 88.1814C177.424 88.0308 177.403 87.8882 177.427 87.7536C177.601 86.7755 178.363 85.8233 179.713 84.897C180.526 84.3845 181.305 84.0693 182.048 83.9516C182.325 83.538 182.647 83.364 183.015 83.4295ZM186.681 86.5537C186.726 86.6635 186.738 86.7813 186.715 86.9069C186.603 87.5351 186.059 88.2806 185.081 89.1435C186.098 89.2041 186.964 89.1499 187.679 88.981C188.79 88.5676 189.383 88.1455 189.46 87.7148C189.492 87.5353 188.85 87.2173 187.533 86.7608L186.688 86.5133L186.681 86.5537ZM179.426 88.3037C179.389 88.5101 179.537 88.6429 179.869 88.702C180.91 88.8872 182.188 88.4667 183.704 87.4403C184.297 86.9718 184.607 86.6568 184.636 86.4953C184.456 86.2595 184.106 86.0953 183.585 86.0027C182.221 85.76 180.959 86.2946 179.8 87.6065C179.584 87.8829 179.46 88.1153 179.426 88.3037Z" fill="#5B21FF"/>
</svg>
