<svg width="60" height="74" viewBox="0 0 60 74" fill="none" xmlns="http://www.w3.org/2000/svg">
<path d="M31.3969 58.6796C34.8292 58.6796 37.9756 55.8193 37.9756 52.3869V51.2427L38.8337 50.9567C44.8404 48.9545 48.8448 43.2339 49.1308 36.9411V35.511H51.4191C54.8515 35.511 57.7118 32.6507 57.9978 28.9322V26.0719C57.9978 22.6395 55.1375 19.7792 51.4191 19.4932H48.8448V18.9211C46.8426 8.90999 39.6918 2.90332 30.2527 2.90332C20.5276 2.90332 13.3768 8.90999 11.3746 18.9211L11.0886 20.0652H8.51429C5.0819 20.0652 2.22158 22.9256 1.93555 26.644V29.5043C1.93555 32.9367 4.79587 35.797 8.51429 35.797H11.3746C11.6606 35.797 12.2327 35.511 12.2327 34.9389V24.9278C12.2327 12.6284 19.3835 4.04745 30.2527 4.04745C41.1219 4.04745 48.2727 12.3424 48.2727 24.9278V33.5088C48.2727 42.0897 45.6985 46.6662 39.1197 49.5266L37.9756 50.0986L37.4035 48.9545C36.2594 46.9523 34.2572 45.8081 31.9689 45.8081C28.5365 45.8081 25.6762 48.6685 25.6762 52.3869C25.1041 55.8193 27.6784 58.6796 31.3969 58.6796ZM49.4169 21.4954H51.7051C54.5655 21.4954 56.8537 23.7837 56.8537 26.644V29.5043C56.8537 32.3646 54.5655 34.3669 51.7051 34.3669H49.7029V21.4954H49.4169ZM10.8025 34.3669H8.51429C5.65396 34.3669 3.65174 32.0786 3.36571 29.5043V26.644C3.36571 23.7837 5.65396 21.4954 8.22825 21.4954H10.5165V34.3669H10.8025ZM31.3969 47.2383C34.2572 47.2383 36.5454 49.5266 36.5454 52.3869C36.5454 55.2472 34.2572 57.5355 31.3969 57.5355C28.5365 57.5355 26.2483 55.2472 26.2483 52.3869C26.5343 49.5266 28.8226 47.2383 31.3969 47.2383Z" fill="white" stroke="white" stroke-width="2.90323" stroke-miterlimit="10"/>
<rect x="9.198" y="43.71" width="11.4559" height="1.93548" rx="0.967742" transform="rotate(21.6623 9.198 43.71)" fill="#1839E8" stroke="#1839E8" stroke-width="0.967742"/>
<rect x="16.6924" y="71.3398" width="11.4559" height="1.94845" rx="0.974225" transform="rotate(-68.3377 16.6924 71.3398)" fill="#1839E8" stroke="#1839E8" stroke-width="0.967742"/>
<rect x="3.99609" y="58.0898" width="11.7639" height="1.93548" rx="0.967742" transform="rotate(-13.9025 3.99609 58.0898)" fill="#1839E8" stroke="#1839E8" stroke-width="0.967742"/>
</svg>
