<svg width="274" height="80" viewBox="0 0 274 80" fill="none" xmlns="http://www.w3.org/2000/svg">
<path d="M165.561 78C141.659 75.458 118.537 72.0571 95.3652 66.7915C67.0578 60.3588 30.8523 52.052 9.7931 35.4521C1.38214 28.8222 -2.25694 20.0404 9.42169 13.983C22.4068 7.24795 40.3688 4.96279 55.6247 3.6109C83.1342 1.17316 111.586 1.7738 139.117 3.6109C162.313 5.15881 185.304 8.0213 207.827 12.4774C225.609 15.9953 246.299 20.1221 261.235 28.7047C271.1 34.373 277.368 48.4731 265.618 54.9137C258.871 58.6121 250.681 60.3121 242.665 61.7169C224.32 64.9319 205.352 67.4015 186.657 69.0778C162.784 71.2183 138.746 70.9737 114.753 70.9737" stroke="black" stroke-width="4" stroke-linecap="round"/>
</svg>
