<svg width="61" height="59" viewBox="0 0 61 59" fill="none" xmlns="http://www.w3.org/2000/svg">
<path d="M46.087 9.49371C47.7076 8.22345 49.9764 8.22345 51.2729 9.49371L55.4865 12.9869C55.4865 12.9869 60.6724 17.1153 56.4588 25.6895C53.8659 32.0408 49.9764 37.757 45.1146 42.838C39.9287 47.9191 34.0946 52.0474 27.288 54.5879C20.4815 56.8109 15.6197 57.1285 10.7579 50.142L9.46145 48.8718C8.16497 47.2839 8.48909 45.061 10.1097 43.7907L17.5645 37.757C19.185 36.4867 21.4539 36.4867 22.7504 38.0746L25.6674 41.2502C26.6398 42.5205 28.5845 42.5205 29.881 41.8853C35.7152 38.7097 40.577 33.9462 43.494 27.9125C44.4664 26.6422 44.1423 25.0544 42.8458 24.1017L39.6046 20.9261C37.984 19.3382 37.984 17.1153 39.6046 15.5274L46.087 9.49371Z" stroke="white" stroke-width="4" stroke-linecap="round" stroke-linejoin="round"/>
<path d="M30.1348 11.5273C30.1348 11.5273 16.2035 13.1152 14.8443 26.1353" stroke="#1839E8" stroke-width="3" stroke-linecap="round" stroke-linejoin="round"/>
<path d="M28.8647 2C28.8647 2 8.3146 5.17565 5.00006 24.8647" stroke="#1839E8" stroke-width="3" stroke-linecap="round" stroke-linejoin="round"/>
</svg>
