<svg width="169" height="91" viewBox="0 0 169 91" fill="none" xmlns="http://www.w3.org/2000/svg">
<path d="M32.6476 12.9577C33.3143 13.1134 33.622 13.5431 33.5708 14.2468C32.0174 17.2013 30.221 18.9461 28.1817 19.4812C26.1513 20.0179 24.3085 20.2546 22.6533 20.1915C20.9981 20.1284 19.013 19.8908 16.6978 19.4788C12.202 18.6787 9.61481 17.2462 8.93616 15.1813C8.82558 14.6062 8.80064 14.1481 8.86132 13.8071C9.15357 12.165 10.6347 10.8131 13.3047 9.75143C14.4114 9.41142 15.5384 9.19077 16.6859 9.08947C18.4807 8.99228 19.9793 9.05068 21.1818 9.26467C21.6394 9.34612 21.9216 9.71111 22.0284 10.3596L21.9613 10.7365C21.8687 11.257 21.4589 11.5312 20.7318 11.5592L20.0184 11.4323C17.2276 10.9356 14.7413 11.3032 12.5594 12.535C11.5779 13.212 11.0417 13.8063 10.9506 14.3178C10.7367 15.5203 12.2495 16.5394 15.4891 17.3751L17.1534 17.6991L17.1803 17.7039C22.4054 18.4116 25.8859 18.3876 27.622 17.6319C29.3597 16.8672 30.4336 15.9567 30.8438 14.9002C31.254 13.8438 31.6882 13.1989 32.1463 12.9657C32.31 12.93 32.4771 12.9274 32.6476 12.9577ZM32.824 15.322C31.9628 16.7796 31.5603 17.8189 31.6164 18.4399C31.6742 19.052 31.9858 19.5379 32.5513 19.8978C32.983 20.0209 33.2553 20.2592 33.3684 20.6125C33.483 20.957 33.4646 21.2685 33.3131 21.547C33.1707 21.8272 32.9394 22.0082 32.6194 22.0901C32.3009 22.163 31.8684 22.0444 31.3218 21.7342C30.7768 21.415 30.3592 20.901 30.0687 20.192C29.7783 19.483 29.798 18.644 30.1278 17.6751C30.4592 16.6972 31.2067 15.6962 32.3703 14.672C33.5339 13.6477 33.6851 13.8644 32.824 15.322ZM31.024 4.21176C31.3381 4.26765 31.5491 4.43481 31.6569 4.71322L31.144 5.56624C31.0074 5.86594 28.2867 5.80762 22.982 5.39127L22.8744 5.37211C22.0129 5.2188 21.6237 4.90883 21.7067 4.4422C21.8105 3.85892 22.3654 3.55032 23.3712 3.5164C24.7646 3.54218 27.3155 3.77396 31.024 4.21176ZM34.8314 21.9144C33.7591 22.2698 32.6357 22.2874 31.4614 21.9673C30.722 21.7524 30.4298 21.3394 30.5849 20.7282C30.7415 20.108 31.1472 19.8053 31.8019 19.82C33.3412 20.0661 34.5167 19.9374 35.3284 19.4338C36.1401 18.9302 36.7374 18.0969 37.1203 16.9337C37.5122 15.7722 37.9776 15.082 38.5164 14.8631C38.526 14.8093 38.6662 14.8018 38.937 14.8407C39.8637 15.2001 40.0447 15.9775 39.4801 17.1732C38.8363 18.762 38.1687 19.8606 37.4772 20.4689C36.7873 21.0682 35.9053 21.5501 34.8314 21.9144ZM35.9814 24.6603C36.2685 24.7114 36.457 24.8746 36.5469 25.1498L36.0744 26.01C35.9484 26.3023 34.0098 26.323 30.2588 26.0721L30.1645 26.0553C29.3838 25.9164 29.035 25.6136 29.118 25.147C29.2234 24.5547 29.7334 24.2381 30.648 24.1972L35.9814 24.6603ZM48.0762 11.6346L48.4397 11.6993C48.8973 11.7808 49.1574 12.114 49.2199 12.6991L49.184 12.901C49.1185 13.269 48.4756 13.8905 47.2552 14.7658C44.8219 16.786 43.4966 18.4064 43.2795 19.6268L43.2244 19.9364C43.1418 21.1807 43.5492 21.8828 44.4465 22.0425C45.2093 22.1782 45.5356 22.5557 45.4254 23.1749L45.3703 23.4844C45.2713 24.0408 44.834 24.287 44.0585 24.2231C42.3266 23.9148 41.3211 22.75 41.0421 20.7284L41.138 19.5651L41.1644 19.417C41.562 17.1826 43.7173 14.6176 47.6302 11.7219L48.0762 11.6346ZM50.8475 17.4464C52.1038 17.67 54.0059 18.1659 56.554 18.9341C58.6781 19.6917 59.6179 20.757 59.3736 22.1299C59.1628 23.3144 58.2079 24.2323 56.5089 24.8835C55.7888 25.2367 54.4013 25.3601 52.3465 25.2537C51.4325 25.2391 50.4865 25.1448 49.5084 24.9708C48.5351 24.7698 48.0516 24.6513 48.058 24.6154C46.691 24.6499 45.2503 24.5 43.7359 24.1657C43.1032 23.9235 42.8066 23.5096 42.846 22.9241C42.878 22.3281 43.2918 22.0314 44.0875 22.0341C44.6455 22.1242 45.057 22.1789 45.322 22.1983C45.2562 22.0477 45.2353 21.9051 45.2592 21.7705C45.4333 20.7924 46.1953 19.8402 47.5451 18.9139C48.3584 18.4014 49.1366 18.0862 49.8797 17.9685C50.157 17.555 50.4795 17.3809 50.8475 17.4464ZM54.513 20.5706C54.5583 20.6805 54.5697 20.7982 54.5474 20.9239C54.4356 21.552 53.8909 22.2975 52.9134 23.1604C53.9302 23.2211 54.7962 23.1669 55.5114 22.9979C56.6218 22.5845 57.2154 22.1624 57.292 21.7317C57.324 21.5522 56.6816 21.2342 55.3649 20.7777L54.5202 20.5302L54.513 20.5706ZM47.2582 22.3207C47.2215 22.5271 47.3691 22.6598 47.7012 22.7189C48.7421 22.9041 50.0205 22.4836 51.5362 21.4573C52.1288 20.9887 52.4394 20.6737 52.4682 20.5122C52.288 20.2764 51.9376 20.1122 51.4171 20.0196C50.0532 19.7769 48.7915 20.3115 47.6323 21.6235C47.4164 21.8998 47.2918 22.1322 47.2582 22.3207ZM58.6271 24.6078C59.0588 24.7309 59.3312 24.9691 59.4442 25.3225C59.5588 25.667 59.5066 25.9863 59.2876 26.2806C59.0702 26.5659 58.8376 26.7282 58.5899 26.7675C58.3528 26.7993 57.8997 26.7187 57.2304 26.5255C56.5612 26.3324 55.965 26.0411 55.4418 25.6518C54.9202 25.2534 54.7112 24.8413 54.8148 24.4153C54.9289 23.982 55.2584 23.587 55.8033 23.2304C56.3482 22.8737 56.6798 22.8309 56.7982 23.1019C56.9182 23.364 57.1696 23.6679 57.5525 24.0138C57.9353 24.3597 58.2935 24.5577 58.6271 24.6078ZM63.0107 23.3882C62.8836 23.6341 62.7884 23.9874 62.7249 24.4483C62.663 24.9001 62.9344 25.2216 63.5392 25.4125C64.1125 25.4683 64.4132 25.8597 64.4412 26.5868L64.3981 26.829C64.1379 27.4586 63.7072 27.7198 63.106 27.6128C61.6237 27.3583 60.9046 26.6656 60.9484 25.5347C60.445 26.0746 59.9608 26.4282 59.496 26.5954C59.0311 26.7627 58.4867 26.8046 57.8627 26.7214C57.0864 26.4536 56.7843 25.9925 56.9563 25.338C57.1193 24.682 57.547 24.36 58.2391 24.3721C59.298 24.5605 60.2542 23.8697 61.1076 22.2996C61.9699 20.7312 62.5877 19.8089 62.9609 19.5327C63.334 19.2566 63.7032 19.2112 64.0683 19.3965C64.746 19.906 64.7243 20.652 64.0032 21.6346C63.4702 22.5488 63.1394 23.1334 63.0107 23.3882ZM64.6702 12.2687C65.3253 12.3853 65.805 12.915 66.1093 13.8579L66.0614 14.1271C65.9832 14.5668 65.534 14.8017 64.714 14.8316L64.4448 14.7837C63.7628 14.6623 63.4426 14.0684 63.4843 13.0019C63.5769 12.4815 63.9722 12.237 64.6702 12.2687ZM67.7224 24.2267C67.5953 24.4726 67.5 24.8259 67.4365 25.2868C67.3746 25.7387 67.6461 26.0601 68.2509 26.251C68.8242 26.3068 69.1249 26.6982 69.1529 27.4253L69.1097 27.6675C68.8496 28.2971 68.4189 28.5583 67.8177 28.4513C66.3354 28.1968 65.6162 27.5041 65.6601 26.3732C65.1567 26.9131 64.6725 27.2667 64.2076 27.4339C63.7428 27.6012 63.1983 27.6432 62.5744 27.5599C61.7981 27.2921 61.4959 26.831 61.668 26.1765C61.831 25.5205 62.2586 25.1985 62.9508 25.2106C64.0097 25.399 64.9658 24.7082 65.8192 23.1381C66.6816 21.5697 67.2994 20.6474 67.6725 20.3712C68.0457 20.0951 68.4148 20.0497 68.7799 20.235C69.4577 20.7445 69.436 21.4905 68.7149 22.4731C68.1819 23.3873 67.8511 23.9719 67.7224 24.2267ZM66.8895 33.3548C67.0959 33.3915 67.2261 33.5443 67.28 33.8131L66.8883 34.6877C66.7786 34.9922 64.9643 35.0952 61.4453 34.9966L61.3646 34.9823C60.7992 34.8816 60.5581 34.598 60.6411 34.1314C60.7449 33.5481 61.1337 33.21 61.8076 33.117C62.7343 33.0597 64.4283 33.139 66.8895 33.3548ZM70.4368 28.2509C69.3645 28.6063 68.2411 28.6239 67.0668 28.3038C66.3274 28.0889 66.0352 27.6759 66.1903 27.0647C66.3469 26.4445 66.7526 26.1418 67.4073 26.1564C68.9466 26.4026 70.1221 26.2739 70.9338 25.7703C71.7455 25.2667 72.3428 24.4333 72.7257 23.2702C73.1176 22.1087 73.583 21.4184 74.1219 21.1996C74.1314 21.1457 74.2716 21.1383 74.5424 21.1772C75.4691 21.5365 75.6501 22.314 75.0855 23.5096C74.4417 25.0985 73.7741 26.1971 73.0826 26.8054C72.3927 27.4047 71.5107 27.8865 70.4368 28.2509ZM68.1039 32.9321C68.759 33.0487 69.2387 33.5785 69.5431 34.5214L69.4952 34.7906C69.4169 35.2303 68.9678 35.4651 68.1478 35.4951L67.8786 35.4472C67.1966 35.3258 66.8764 34.7319 66.9181 33.6654C67.0123 33.1359 67.4076 32.8915 68.1039 32.9321ZM103.839 17.4618C106.54 17.9425 108.122 18.6777 108.585 19.6673C108.688 19.9172 108.719 20.1632 108.675 20.4055L108.652 20.5401C108.543 21.1503 108.02 21.6451 107.082 22.0244L106.765 22.0097L106.658 21.9906C106.182 21.9059 105.906 21.5605 105.828 20.9542L105.874 20.6985C105.887 20.6267 105.977 20.5085 106.145 20.3441L106.152 20.3037C105.275 19.9809 104.329 19.7292 103.315 19.5488C98.6756 18.7231 93.9958 19.0614 89.2754 20.5636C88.0906 20.9267 86.8535 21.4796 85.5641 22.2222C83.902 23.3428 82.9767 24.4326 82.7882 25.4914L82.7595 25.653C82.5167 27.017 83.2612 28.4779 84.9929 30.0359C85.7226 30.7213 87.1834 31.5645 89.3753 32.5655C92.2178 33.812 95.3261 34.7355 98.7001 35.336C102.065 35.9348 105.503 36.2041 109.013 36.1437C110.891 35.9965 112.44 35.7445 113.661 35.3877C115.683 34.7386 116.773 33.9743 116.929 33.0949C117.073 32.2873 116.155 30.9203 114.174 28.9939C113.558 28.3938 113.053 27.7761 112.657 27.1408C112.337 26.5934 112.219 26.0863 112.302 25.6197L112.31 25.5793C112.504 24.4846 113.909 23.9013 116.523 23.8296C119.385 23.5613 121.467 23.5429 122.768 23.7745L123.253 23.8607C123.962 23.9869 124.345 24.3282 124.403 24.8848L124.385 25.1454L124.38 25.1723C124.284 25.7107 123.936 26.0051 123.334 26.0554L123.181 26.056L122.504 25.88C120.862 25.5878 118.584 25.6452 115.669 26.0523C115.14 26.2173 114.865 26.3581 114.844 26.4748C114.877 26.601 115.21 26.9658 115.844 27.5692C118.294 29.718 119.376 31.6 119.088 33.2152L119.045 33.4575C118.697 35.4138 116.896 36.7412 113.643 37.4397C112.734 37.6575 111.263 37.8077 109.23 37.8903C105.975 37.9221 102.795 37.6616 99.6899 37.1091L99.0707 36.9989C93.6686 36.0375 88.9158 34.289 84.8122 31.7535C81.8568 29.737 80.5843 27.5757 80.9947 25.2695L81.0402 25.0137C81.35 23.2728 82.6174 21.6654 84.8424 20.1912C85.9162 19.5677 86.881 19.1145 87.7367 18.8316C93.0157 16.9475 98.3832 16.4909 103.839 17.4618ZM126.216 37.5665C126.753 36.8382 127.654 36.6652 128.919 37.0477C129.351 37.1709 129.623 37.4091 129.736 37.7625C129.851 38.1069 129.832 38.4184 129.681 38.697C129.538 38.9771 129.307 39.1582 128.987 39.2401C128.669 39.313 127.994 39.2299 126.962 38.9908C125.929 38.7607 125.681 38.286 126.216 37.5665ZM128.783 31.1773C129.551 31.388 129.97 31.9995 130.04 33.0118C130.015 33.3592 129.965 33.6696 129.888 33.943C129.396 35.7717 127.971 37.8743 125.613 40.2505C124.859 41.005 123.579 41.953 121.774 43.0946C119.929 44.2566 118.771 44.8606 118.3 44.9064L118.1 44.857C117.773 44.7709 117.55 44.4905 117.431 44.0157C117.389 43.8879 117.392 43.7358 117.442 43.5595L117.465 43.5081C117.601 43.0046 118.022 42.6166 118.728 42.3441C119.514 41.8822 120.374 41.3409 121.308 40.7203C122.63 39.8447 123.644 39.0114 124.35 38.2204C123.27 37.5282 122.887 36.6594 123.203 35.6139C123.398 34.4637 124.484 33.1479 126.461 31.6666C127.338 31.1562 128.113 30.9931 128.783 31.1773ZM125.682 35.4163C125.38 35.918 125.437 36.2475 125.853 36.405C126.115 36.285 126.545 35.718 127.142 34.704L127.589 33.6727C126.631 34.3261 125.995 34.9072 125.682 35.4163ZM135.014 37.9936C137.604 37.9546 139.814 37.4221 141.645 36.3962C143.475 35.3704 144.421 35.571 144.481 36.9983L144.474 37.0387C144.414 37.6389 143.503 38.2823 141.742 38.9688C139.99 39.6568 137.769 40.0161 135.079 40.0465C132.398 40.0785 130.414 39.9152 129.126 39.5564C127.838 39.1976 127.22 38.8701 127.273 38.574C127.1 38.3488 127.039 38.0927 127.091 37.8055C127.338 37.1459 127.744 36.8664 128.309 36.967C130.2 37.683 132.435 38.0252 135.014 37.9936ZM156.093 37.3844C157.69 37.6686 158.631 38.438 158.917 39.6924C158.99 40.0663 158.963 40.816 158.837 41.9415C158.838 42.2472 158.946 42.4192 159.161 42.4576C159.701 42.8036 159.935 43.1831 159.861 43.5959L159.825 43.7978C159.726 44.3541 159.335 44.6548 158.651 44.6997L157.884 44.5632C157.157 44.4338 156.729 44.08 156.601 43.5017C156.439 43.2137 156.454 42.1701 156.644 40.371C156.602 39.8266 156.388 39.52 156.002 39.4513L155.805 39.3885L155.63 39.3573C154.221 39.1066 152.327 39.8943 149.947 41.7203C149.099 42.4768 148.58 43.0555 148.388 43.4565L148.428 43.4637L148.911 43.4802L149.006 43.497C149.713 43.734 150.015 44.1487 149.909 44.7409L149.929 44.7861L149.924 44.813C149.772 45.6655 149.023 45.972 147.677 45.7324C146.61 45.5424 146.027 44.9666 145.93 44.005L145.952 43.6478L146.004 43.3517C146.228 42.0954 147.737 40.5864 150.531 38.8249C152.722 37.5946 154.576 37.1145 156.093 37.3844ZM161.339 44.4281C160.266 44.7835 159.143 44.8011 157.969 44.481C157.229 44.2661 156.937 43.8531 157.092 43.2419C157.249 42.6217 157.654 42.319 158.309 42.3337C159.848 42.5798 161.024 42.4511 161.836 41.9475C162.647 41.4439 163.245 40.6106 163.627 39.4474C164.019 38.2859 164.485 37.5957 165.024 37.3768C165.033 37.323 165.173 37.3155 165.444 37.3544C166.371 37.7138 166.552 38.4912 165.987 39.6869C165.343 41.2757 164.676 42.3743 163.984 42.9826C163.294 43.5819 162.412 44.0638 161.339 44.4281ZM159.006 49.1094C159.661 49.2259 160.14 49.7557 160.445 50.6986L160.397 50.9678C160.319 51.4075 159.87 51.6423 159.05 51.6723L158.78 51.6244C158.098 51.503 157.778 50.9091 157.82 49.8426C157.914 49.3132 158.309 49.0688 159.006 49.1094ZM56.2815 49.3272L56.5776 49.3799C57.1609 49.4837 57.4139 49.987 57.3366 50.8898C57.2985 53.1326 57.1365 55.0572 56.8506 56.6635C56.4562 58.88 55.7889 60.4184 54.8489 61.2787C53.0369 63.0855 51.0223 64.3656 48.8052 65.119C44.5794 66.7555 40.3353 67.1944 36.0728 66.4359C31.9809 65.7076 28.4549 63.9322 25.4948 61.1095C24.0848 59.4606 23.5243 57.8241 23.8134 56.1998C24.2398 53.8039 26.1623 51.7668 29.5808 50.0885C34.4185 48.135 38.5643 47.2342 42.0182 47.386C42.6615 47.6208 42.9376 47.994 42.8466 48.5055L42.7939 48.8016C42.6933 49.367 41.9466 49.609 40.5539 49.5278C40.0603 49.44 38.3944 49.6712 35.5562 50.2215C33.1196 50.908 30.9351 51.7644 29.0027 52.7907C27.1682 54.0473 26.1416 55.2903 25.9228 56.5197C25.6769 57.9016 26.2363 59.3621 27.601 60.901C29.6312 62.7066 32.2121 63.888 35.3439 64.4453L35.8689 64.5388C41.1992 65.4874 46.2423 64.6166 50.9981 61.9265C52.6212 60.8174 53.6679 59.7215 54.1384 58.6387C54.3726 58.0509 54.5823 57.2365 54.7676 56.1956C54.9959 54.9123 55.1644 52.8732 55.273 50.0782L55.2802 50.0378C55.5709 49.497 55.9046 49.2602 56.2815 49.3272ZM45.1842 55.2677C45.8393 55.3843 46.319 55.9141 46.6234 56.857L46.5755 57.1262C46.4972 57.5659 46.0481 57.8007 45.2281 57.8307L44.9588 57.7828C44.2769 57.6614 43.9567 57.0675 43.9984 56.001C44.091 55.4805 44.4863 55.2361 45.1842 55.2677ZM73.464 44.6224C74.0574 45.0335 74.2389 45.4963 74.0085 46.0108C73.6379 46.3244 72.4777 46.4188 70.528 46.294C68.5799 46.1603 66.7701 46.264 65.0985 46.6053C63.4285 46.9377 62.5426 47.5716 62.441 48.507C62.3483 49.4441 62.2884 50.1185 62.2614 50.5303C62.236 50.9331 61.9151 51.2278 61.2987 51.4144L60.9376 51.3362C60.4306 51.1164 60.2204 50.6068 60.3071 49.8076C60.1746 46.4419 62.186 44.6336 66.3412 44.3824C70.5053 44.1329 72.8796 44.2129 73.464 44.6224ZM63.1155 51.9738C63.5283 52.0472 63.7552 52.3329 63.7961 52.8309L63.7243 53.2347C63.6636 53.5757 63.269 54.2322 62.5406 55.2042C61.1469 57.2614 60.2272 59.5418 59.7817 62.0454L59.7535 62.3598C59.6593 62.8893 59.305 63.215 58.6908 63.3372L58.3313 63.3287C57.8018 63.2345 57.4821 62.8721 57.3721 62.2415L57.3836 62.0214L57.5201 61.2541C57.9641 58.7595 59.2361 56.1113 61.3363 53.3096C61.9033 52.3089 62.4963 51.8636 63.1155 51.9738ZM77.0024 58.6111C77.3973 58.6814 77.6709 58.9384 77.8234 59.3821C77.8639 59.519 77.8705 59.6636 77.8434 59.8162L77.8362 59.8566C77.7947 60.0899 77.605 60.3755 77.2671 60.7135C76.625 61.4602 75.941 62.2087 75.215 62.959C74.7321 63.5396 74.0022 64.2336 73.0253 65.0411C71.2435 66.6774 69.0875 68.4924 66.5571 70.4862C65.4418 71.3431 64.4528 72.0882 63.5902 72.7216C63.1806 73.0468 62.9174 73.199 62.8007 73.1783C62.6835 73.2129 62.5396 73.2151 62.3691 73.1848C61.9563 73.1113 61.6822 72.8311 61.5466 72.3441C61.5225 72.2194 61.5193 72.1077 61.5368 72.009L61.5512 71.9283C61.6087 71.6052 61.8644 71.3128 62.3183 71.0511C62.3231 71.0241 63.2155 70.4053 64.9956 69.1946C66.8787 67.8725 68.0746 66.9791 68.5832 66.5141C70.0047 65.3414 71.2323 64.2175 72.2661 63.1424C73.5849 61.7662 74.8518 60.3438 76.0667 58.8751C76.3406 58.6368 76.6525 58.5489 77.0024 58.6111ZM79.5051 47.6694C80.1602 47.786 80.6399 48.3158 80.9443 49.2587L80.8963 49.5279C80.8181 49.9676 80.369 50.2024 79.5489 50.2324L79.2797 50.1845C78.5977 50.0631 78.2776 49.4692 78.3193 48.4027C78.4119 47.8822 78.8072 47.6378 79.5051 47.6694ZM81.6655 51.9977C82.1949 52.0919 82.4938 52.4414 82.5621 53.046L82.542 53.2369C82.4191 53.9278 81.6042 56.9721 80.0974 62.3698L78.933 66.884C78.5949 67.3793 78.2059 67.5878 77.7662 67.5096L77.7528 67.5072C77.0493 67.2987 76.7494 66.9028 76.8532 66.3195C78.2238 61.9993 79.0121 59.2604 79.2181 58.1028C79.7885 55.8343 80.183 54.0854 80.4018 52.856C80.496 52.3266 80.8769 52.0333 81.5444 51.9762L81.6655 51.9977ZM94.0997 61.5705C94.5035 61.6424 94.7816 61.9002 94.9341 62.3439C94.9729 62.4897 94.9788 62.6389 94.9517 62.7914L94.9445 62.8318C94.9029 63.0651 94.7059 63.4698 94.3535 64.0458C94.001 64.6219 93.6695 65.1323 93.3589 65.5769C93.0573 66.0232 92.9511 66.4116 93.0404 66.7423C93.1297 67.0729 93.3479 67.3293 93.6951 67.5114C94.0528 67.6862 94.2001 68.0549 94.137 68.6177C94.0587 69.0574 93.7769 69.3405 93.2915 69.4671C93.1595 69.4806 93.0441 69.4786 92.9454 69.461L92.8108 69.4371C91.7378 69.172 91.2016 68.5952 91.2024 67.7066C89.35 69.6359 87.0247 71.6476 84.2265 73.7418C83.09 74.6134 82.0844 75.3741 81.2097 76.0239C80.791 76.3475 80.5234 76.4989 80.4067 76.4781C80.2879 76.5218 80.1432 76.5284 79.9727 76.4981C79.5509 76.423 79.2731 76.1375 79.1392 75.6415C79.1077 75.5063 79.1007 75.3894 79.1183 75.2907L79.1327 75.2099C79.1901 74.8868 79.4511 74.5908 79.9156 74.3216C79.9204 74.2947 80.8287 73.6648 82.6404 72.4319C84.5553 71.0878 85.7679 70.1787 86.2781 69.7048C87.7207 68.5173 88.9694 67.3787 90.0244 66.2888C91.2496 64.9701 92.1143 63.8047 92.6184 62.7928C93.1331 61.7734 93.6269 61.366 94.0997 61.5705ZM95.5732 69.2899C94.5009 69.6453 93.3775 69.6629 92.2032 69.3428C91.4638 69.1279 91.1716 68.7149 91.3267 68.1037C91.4833 67.4835 91.889 67.1808 92.5437 67.1954C94.083 67.4416 95.2585 67.3129 96.0702 66.8093C96.8819 66.3057 97.4793 65.4724 97.8621 64.3092C98.254 63.1477 98.7194 62.4575 99.2583 62.2386C99.2678 62.1847 99.408 62.1773 99.6788 62.2162C100.605 62.5756 100.787 63.353 100.222 64.5486C99.5781 66.1375 98.9105 67.2361 98.219 67.8444C97.5291 68.4437 96.6472 68.9256 95.5732 69.2899ZM105.222 55.0235C105.455 55.065 105.604 55.221 105.667 55.4914L105.248 56.3612C105.138 56.6657 103.14 56.7359 99.253 56.5719L99.1722 56.5575C98.5441 56.4457 98.2715 56.1565 98.3546 55.6899C98.4584 55.1066 98.8831 54.7748 99.6287 54.6946C100.645 54.6533 102.51 54.7629 105.222 55.0235ZM106.596 56.4345C107.126 56.5287 107.425 56.8782 107.493 57.4828L107.473 57.6737C107.35 58.3646 106.535 61.4089 105.028 66.8065L103.864 71.3208C103.526 71.8161 103.137 72.0246 102.697 71.9463L102.684 71.944C101.98 71.7354 101.68 71.3395 101.784 70.7562C103.155 66.4361 103.943 63.6972 104.149 62.5396C104.719 60.2711 105.114 58.5222 105.333 57.2928C105.427 56.7633 105.808 56.4701 106.475 56.4129L106.596 56.4345ZM114.009 65.1137C114.413 65.1855 114.691 65.4433 114.844 65.8871C114.882 66.0329 114.888 66.182 114.861 66.3346L114.854 66.375C114.812 66.6083 114.615 67.013 114.263 67.589C113.911 68.1651 113.579 68.6754 113.268 69.1201C112.967 69.5663 112.861 69.9548 112.95 70.2854C113.039 70.6161 113.257 70.8725 113.605 71.0546C113.962 71.2294 114.11 71.5981 114.046 72.1609C113.968 72.6006 113.686 72.8837 113.201 73.0102C113.069 73.0238 112.954 73.0218 112.855 73.0042L112.72 72.9802C111.647 72.7152 111.111 72.1384 111.112 71.2498C109.26 73.179 106.934 75.1908 104.136 77.285C103 78.1566 101.994 78.9173 101.119 79.5671C100.701 79.8907 100.433 80.0421 100.316 80.0213C100.197 80.065 100.053 80.0716 99.8822 80.0413C99.4604 79.9662 99.1826 79.6807 99.0487 79.1847C99.0172 79.0495 99.0102 78.9325 99.0278 78.8338L99.0422 78.7531C99.0997 78.43 99.3607 78.1339 99.8252 77.8648C99.83 77.8379 100.738 77.208 102.55 75.9751C104.465 74.6309 105.677 73.7219 106.188 73.248C107.63 72.0605 108.879 70.9218 109.934 69.832C111.159 68.5133 112.024 67.3479 112.528 66.336C113.043 65.3166 113.536 64.9092 114.009 65.1137ZM121.006 64.8174L121.517 64.9084C122.612 65.1033 123.106 65.9179 122.999 67.3523C122.505 70.1251 119.882 72.0145 115.13 73.0203C114.283 73.1473 113.353 73.1206 112.339 72.9402L111.989 72.8779C111.343 72.6056 111.06 72.2451 111.14 71.7964L111.195 71.4868C111.301 70.8946 111.764 70.6299 112.586 70.6929C113.457 70.8478 114.124 70.8971 114.587 70.8407L114.595 70.8003C114.399 70.3396 114.336 69.9119 114.406 69.517L114.452 69.2613C114.645 68.1755 115.946 66.9025 118.353 65.4424C119.368 64.8916 120.252 64.6833 121.006 64.8174ZM116.251 69.3732L116.206 69.6289C116.147 69.961 116.247 70.2565 116.506 70.5156C117.38 70.3379 118.504 69.774 119.876 68.824C120.497 68.2494 120.838 67.7916 120.898 67.4506C120.921 67.325 120.846 67.1728 120.674 66.9941L120.62 66.9845C119.947 66.8648 118.646 67.4664 116.716 68.7894C116.437 69.0081 116.282 69.2027 116.251 69.3732ZM122.213 55.145C122.868 55.2616 123.348 55.7913 123.652 56.7342L123.605 57.0034C123.526 57.4431 123.077 57.678 122.257 57.7079L121.988 57.66C121.306 57.5386 120.986 56.9447 121.027 55.8782C121.12 55.3578 121.515 55.1133 122.213 55.145ZM133.057 68.5035C133.825 68.7143 134.244 69.3258 134.314 70.338C134.289 70.6854 134.238 70.9958 134.162 71.2692C133.67 73.098 132.245 75.2005 129.887 77.5768C129.133 78.3312 127.853 79.2792 126.048 80.4208C124.203 81.5829 123.045 82.1868 122.574 82.2326L122.374 82.1832C122.047 82.0972 121.824 81.8168 121.704 81.3419C121.662 81.2141 121.666 81.062 121.716 80.8857L121.739 80.8343C121.875 80.3308 122.296 79.9428 123.002 79.6703C123.788 79.2084 124.648 78.6671 125.582 78.0465C126.904 77.1709 127.857 76.4194 128.441 75.7919C127.355 75.0802 126.961 74.1722 127.26 73.0681C127.6 71.8326 128.758 70.4741 130.734 68.9928C131.612 68.4824 132.386 68.3194 133.057 68.5035ZM129.426 73.6898L129.888 74.0635C130.15 73.9435 130.659 73.2657 131.416 72.0303L131.863 70.999C130.905 71.6523 130.151 72.4255 129.604 73.3186L129.426 73.6898Z" fill="#1839E8"/>
</svg>
