<svg width="125" height="77" viewBox="0 0 125 77" fill="none" xmlns="http://www.w3.org/2000/svg">
<path d="M28.0275 6.05328C30.7605 6.29239 32.4014 6.88427 32.95 7.82891C33.0755 8.06862 33.1274 8.31105 33.106 8.55621L33.0941 8.69241C33.0401 9.30984 32.5629 9.84908 31.6625 10.3101L31.3457 10.3236L31.2367 10.314C30.7555 10.2719 30.4495 9.95239 30.3187 9.35539L30.3413 9.09661C30.3477 9.02397 30.4273 8.89827 30.5802 8.71951L30.5838 8.67865C29.681 8.43498 28.7166 8.26826 27.6906 8.17849C22.9963 7.76779 18.3649 8.52 13.7965 10.4351C12.6486 10.9019 11.4654 11.5624 10.247 12.4165C8.69086 13.6802 7.8659 14.8478 7.77217 15.9192L7.75787 16.0826C7.63712 17.4628 8.50829 18.8519 10.3714 20.2501C11.1591 20.868 12.6889 21.5783 14.961 22.3809C17.9029 23.3702 21.0808 24.0142 24.4949 24.3129C27.8998 24.6108 31.3478 24.574 34.8388 24.2023C36.6961 23.889 38.2168 23.5006 39.4011 23.0369C41.3581 22.2109 42.3756 21.3529 42.4534 20.4631C42.5249 19.6459 41.4887 18.3658 39.3447 16.6228C38.6785 16.0796 38.12 15.5093 37.6691 14.9117C37.3026 14.3947 37.14 13.9001 37.1813 13.428L37.1849 13.3871C37.2818 12.2794 38.629 11.5738 41.2265 11.2704C44.0535 10.7492 46.1253 10.5461 47.4419 10.6613L47.9322 10.7042C48.6495 10.767 49.0619 11.073 49.1694 11.6222L49.174 11.8834L49.1717 11.9106C49.124 12.4554 48.8029 12.7795 48.2082 12.8831L48.056 12.8972L47.3662 12.7819C45.7046 12.6366 43.4403 12.8959 40.5733 13.5601C40.0607 13.7714 39.7993 13.9361 39.789 14.0541C39.8331 14.1769 40.1973 14.5107 40.8816 15.0555C43.5131 16.9784 44.7574 18.757 44.6144 20.3914L44.5929 20.6365C44.4198 22.616 42.7439 24.0979 39.5652 25.0824C38.6791 25.38 37.2273 25.6602 35.2098 25.9228C31.9703 26.2433 28.7797 26.2661 25.6381 25.9912L25.0116 25.9364C19.5455 25.4582 14.6562 24.1384 10.3438 21.9769C7.22112 20.2307 5.76185 18.1908 5.96601 15.8573L5.98865 15.5985C6.14276 13.837 7.26251 12.1234 9.34792 10.4576C10.3621 9.74122 11.2829 9.20419 12.1102 8.84655C17.2011 6.50138 22.5069 5.57029 28.0275 6.05328ZM56.1262 17.7616C56.5257 17.7966 56.8211 18.0283 57.0124 18.4568C57.0648 18.5894 57.0843 18.733 57.0708 18.8873L57.0672 18.9282C57.0465 19.1643 56.8829 19.4656 56.5764 19.8322C56.0031 20.6329 55.3882 21.4392 54.7316 22.2509C54.3021 22.8721 53.6367 23.6282 52.7353 24.5192C51.1058 26.3071 49.1193 28.3063 46.7758 30.5167C45.741 31.4692 44.822 32.2992 44.019 33.0066C43.6398 33.3669 43.3912 33.5418 43.2732 33.5315C43.1595 33.5765 43.0163 33.5914 42.8438 33.5763C42.4261 33.5398 42.1282 33.285 41.95 32.8119C41.9149 32.6899 41.9018 32.5789 41.9105 32.4791L41.9177 32.3973C41.9463 32.0705 42.175 31.7565 42.6039 31.4555C42.6063 31.4283 43.4403 30.7327 45.1059 29.3688C46.8643 27.8849 47.9762 26.8888 48.4415 26.3805C49.7533 25.0863 50.8763 23.8579 51.8107 22.6953C53.0021 21.2076 54.1378 19.6783 55.2176 18.1076C55.4692 17.846 55.7721 17.7307 56.1262 17.7616ZM57.6481 6.64103C58.3109 6.69902 58.8358 7.18411 59.2226 8.0963L59.1987 8.36869C59.1598 8.81361 58.7333 9.08737 57.9192 9.18998L57.6468 9.16615C56.9567 9.10578 56.5851 8.5426 56.532 7.47662C56.578 6.94999 56.9501 6.67146 57.6481 6.64103ZM62.6256 13.1288L62.9933 13.161C63.4564 13.2015 63.745 13.5104 63.8592 14.0877L63.8413 14.292C63.8088 14.6642 63.2235 15.3404 62.0856 16.3205C59.8412 18.5487 58.665 20.2803 58.5569 21.5151L58.5295 21.8284C58.5577 23.0752 59.0258 23.7383 59.9337 23.8177C60.7055 23.8852 61.064 24.2323 61.0092 24.8588L60.9818 25.172C60.9325 25.735 60.5189 26.019 59.7407 26.0241C57.9883 25.8708 56.8834 24.7997 56.4261 22.8109L56.4184 21.6437L56.4315 21.4939C56.6293 19.233 58.5485 16.4868 62.1891 13.2553L62.6256 13.1288ZM68.7477 23.1615C68.8116 23.9997 69.6287 24.5424 71.1991 24.7896C71.64 24.8739 71.9325 25.087 72.0764 25.429C72.2211 25.7619 72.2304 26.0738 72.1043 26.3647C71.9873 26.6564 71.7734 26.8527 71.4627 26.9536C71.1519 27.0545 70.6328 27.0274 69.9052 26.8722C69.1777 26.7171 68.4905 26.1537 67.8435 25.1822C67.1973 24.2016 66.9925 23.406 67.2289 22.7953C67.4752 22.1764 67.7716 21.873 68.1183 21.885C68.474 21.8978 68.6838 22.3233 68.7477 23.1615ZM65.3609 16.5384L65.3881 16.5408C66.1962 16.6115 67.0592 17.4144 67.9771 18.9494C68.5735 19.8708 68.938 20.4105 69.0706 20.5685C69.9082 20.0928 70.4859 19.8689 70.8037 19.8967L71.0489 19.9181C71.4121 19.9499 71.6907 20.2167 71.8846 20.7186C71.9288 20.8414 71.9445 20.9754 71.9318 21.1207C71.8841 21.6655 71.4961 22.2309 70.7678 22.8167C70.2927 23.1229 69.8463 23.2576 69.4287 23.2211L68.9491 23.0556C67.3228 24.0753 65.922 24.8174 64.7469 25.2818C63.5725 25.7372 62.5035 25.9822 61.5397 26.0168C60.5768 26.0424 59.9092 26.0389 59.5369 26.0063L59.4416 25.998C58.9785 25.9574 58.6674 25.6969 58.5081 25.2164L58.4799 24.912L58.493 24.7621C58.5327 24.3081 58.8378 24.01 59.4084 23.8678C60.9725 23.9772 62.4033 23.8325 63.7008 23.4336C65.0082 23.0265 66.2577 22.3398 67.4493 21.3736C66.5268 19.6826 65.7523 18.8097 65.1258 18.7549C64.7073 18.7274 63.8237 19.5193 62.475 21.1305C62.1322 21.494 61.8654 21.6673 61.6747 21.6507C61.4477 21.6308 61.2157 21.3543 60.9787 20.8212L60.954 20.476C61.0144 19.7859 61.6309 18.9615 62.8036 18.0027C63.9273 16.9757 64.7797 16.4876 65.3609 16.5384ZM62.9886 30.947C63.6514 31.005 64.1763 31.4901 64.5631 32.4023L64.5392 32.6747C64.5003 33.1196 64.0738 33.3934 63.2597 33.496L62.9873 33.4721C62.2972 33.4118 61.9256 32.8486 61.8725 31.7826C61.9193 31.2469 62.2914 30.9684 62.9886 30.947ZM77.1971 19.7698L77.2652 19.7758C77.8463 19.8266 78.3025 20.1547 78.6338 20.7601C78.9742 21.3663 79.0786 22.2126 78.9469 23.299C78.8251 24.3771 78.4381 25.3497 77.7859 26.2167C77.1336 27.0838 76.1707 27.4753 74.8971 27.3913C73.7791 27.202 73.0433 26.671 72.6897 25.7983C71.7669 26.724 70.9607 27.1018 70.2711 26.9317C69.7126 26.7273 69.4457 26.3791 69.4704 25.8872C69.4869 25.3855 69.6483 25.0565 69.9548 24.9003C70.262 24.735 70.5852 24.649 70.9243 24.642C71.2733 24.6268 71.6744 24.3828 72.1275 23.9101C72.5806 23.4374 73.2936 22.6077 74.2666 21.4211C75.2396 20.2344 76.2164 19.684 77.1971 19.7698ZM74.9533 25.3376C75.4589 25.5191 75.9771 25.3997 76.508 24.9796C77.0487 24.5511 77.3267 24.0402 77.342 23.4468C77.3672 22.8452 77.1962 22.4459 76.8292 22.2491C76.4621 22.0523 75.9387 22.3359 75.2588 23.0999C74.579 23.8638 74.1829 24.3644 74.0707 24.6016C74.1534 24.9108 74.4476 25.1561 74.9533 25.3376ZM89.9339 21.9683C91.5501 22.1097 92.5563 22.7925 92.9524 24.0166C93.0577 24.3826 93.0973 25.1317 93.0715 26.264C93.0997 26.5684 93.2228 26.7301 93.4407 26.7492C94.0095 27.046 94.2756 27.4032 94.2391 27.8209L94.2212 28.0252C94.1719 28.5881 93.8087 28.9223 93.1316 29.0278L92.3553 28.9599C91.6198 28.8955 91.1624 28.581 90.9831 28.0164C90.7965 27.7439 90.7183 26.7031 90.7484 24.8942C90.6583 24.3557 90.418 24.0693 90.0276 24.0351L89.8257 23.99L89.6486 23.9745C88.2231 23.8498 86.4059 24.8025 84.1971 26.8325C83.4201 27.6612 82.9539 28.2838 82.7986 28.7002L82.8394 28.7038L83.3221 28.6774L83.4174 28.6857C84.1434 28.859 84.4801 29.2453 84.4277 29.8446L84.4513 29.8878L84.449 29.9151C84.3735 30.7776 83.6548 31.1494 82.2928 31.0302C81.2123 30.9357 80.5809 30.4138 80.3986 29.4646L80.3887 29.1069L80.4149 28.8073C80.5261 27.5361 81.8954 25.8992 84.5226 23.8966C86.5957 22.4768 88.3994 21.8341 89.9339 21.9683ZM97.4365 25.1637C97.3317 25.4198 97.2682 25.7803 97.2458 26.2449C97.2243 26.7005 97.5232 26.9966 98.1425 27.1331C98.7185 27.1377 99.0527 27.5009 99.1451 28.2227L99.1237 28.4678C98.9204 29.118 98.5146 29.4164 97.9062 29.3632C96.4073 29.2412 95.6294 28.615 95.5728 27.4847C95.1193 28.0672 94.6684 28.4623 94.2202 28.6701C93.772 28.878 93.2334 28.9681 92.6045 28.9405C91.8076 28.7427 91.4657 28.3102 91.579 27.6431C91.6831 26.9751 92.0805 26.6165 92.771 26.5671C93.8424 26.6608 94.7335 25.8879 95.4442 24.2483C96.164 22.6095 96.6975 21.636 97.0447 21.3278C97.3919 21.0197 97.7555 20.9417 98.1356 21.0939C98.8559 21.5412 98.9005 22.2862 98.2695 23.3289C97.8197 24.2868 97.542 24.8984 97.4365 25.1637ZM93.5033 33.7265C94.1662 33.7845 94.691 34.2696 95.0778 35.1818L95.054 35.4542C95.015 35.8991 94.5885 36.1728 93.7744 36.2755L93.502 36.2516C92.8119 36.1913 92.4403 35.6281 92.3872 34.5621C92.4341 34.0264 92.8061 33.7479 93.5033 33.7265ZM102.222 22.5493L104.456 22.7448C107.125 22.9783 108.427 23.4719 108.361 24.2255L108.339 24.4843C108.256 25.4286 107.674 26.375 106.594 27.3236L105.995 27.7378C106.701 27.9367 107.224 28.0146 107.567 27.9713C108.19 28.2729 108.482 28.6461 108.443 29.0911L108.43 29.2409C108.379 29.8311 107.97 30.1568 107.206 30.2179C105.341 30.0914 103.972 29.6286 103.1 28.8294C101.031 29.3712 99.1043 29.532 97.3211 29.312L97.2803 29.3084C96.6901 29.2568 96.3598 28.8482 96.2896 28.0826C96.3555 27.329 96.9185 27.0123 97.9784 27.1325C99.5848 27.2822 101.255 27.0714 102.988 26.5003C103.448 26.266 103.764 26.0512 103.937 25.8559L103.954 25.6516C103.993 25.2067 103.622 24.9501 102.842 24.8817L101.143 24.8429C100.291 24.6494 99.8894 24.2712 99.9386 23.7082L99.9744 23.2997C100.032 22.6459 100.781 22.3958 102.222 22.5493ZM118.324 10.4398C118.987 10.4978 119.511 10.9829 119.898 11.8951L119.874 12.1675C119.835 12.6124 119.409 12.8862 118.595 12.9888L118.322 12.9649C117.632 12.9046 117.261 12.3414 117.208 11.2754C117.254 10.7488 117.626 10.4702 118.324 10.4398ZM121.977 17.1549C122.295 17.1827 122.52 17.3304 122.652 17.5982L122.217 18.4934C122.107 18.804 119.392 18.9873 114.071 19.0433L113.962 19.0338C113.091 18.9575 112.676 18.6833 112.717 18.2112C112.769 17.621 113.294 17.2644 114.293 17.1413C115.683 17.0434 118.244 17.0479 121.977 17.1549ZM113.546 28.3435C116.122 28.0748 118.276 27.3483 120.009 26.1641C121.741 24.9798 122.7 25.0958 122.888 26.512L122.884 26.5529C122.877 27.1561 122.027 27.8778 120.334 28.7178C118.65 29.5586 116.47 30.1135 113.793 30.3825C111.125 30.6524 109.134 30.6657 107.82 30.4226C106.505 30.1795 105.861 29.9081 105.887 29.6085C105.695 29.3996 105.612 29.1498 105.637 28.8593C105.824 28.1803 106.204 27.8659 106.776 27.9159C108.723 28.4613 110.98 28.6039 113.546 28.3435ZM10.48 49.8233C11.2636 49.965 11.7351 50.537 11.8945 51.539C11.9006 51.8872 11.8777 52.2009 11.8259 52.48C11.498 54.3452 10.2653 56.5659 8.12765 59.142C7.44304 59.9605 6.25256 61.0183 4.55623 62.3155C2.82119 63.6367 1.72111 64.3411 1.25599 64.4285L1.05289 64.397C0.719316 64.3403 0.472113 64.0808 0.31128 63.6184C0.258048 63.4948 0.248455 63.343 0.282503 63.163L0.300889 63.1097C0.391569 62.5961 0.776324 62.1723 1.45516 61.8383C2.19686 61.3085 3.00553 60.693 3.88117 59.9919C5.12056 59.0024 6.00317 58.1693 6.52901 57.4925C5.38403 56.88 4.91112 56.0106 5.1103 54.8843C5.33955 53.6235 6.37272 52.1676 8.20979 50.5167C9.03877 49.9305 9.79552 49.6994 10.48 49.8233ZM7.3237 55.3113L7.81623 55.6426C8.06661 55.4998 8.5139 54.7795 9.1581 53.4818L9.5122 52.4148C8.61523 53.1506 7.93357 53.9876 7.46721 54.9258L7.3237 55.3113ZM18.4683 50.6045C18.8678 50.6395 19.1632 50.8712 19.3544 51.2996C19.4069 51.4323 19.4263 51.5758 19.4128 51.7302L19.4093 51.771C19.3886 52.0071 19.225 52.3085 18.9184 52.6751C18.3452 53.4758 17.7302 54.2821 17.0737 55.0938C16.6442 55.715 15.9788 56.4711 15.0774 57.362C13.4479 59.15 11.4614 61.1492 9.1179 63.3596C8.08303 64.3121 7.1641 65.1421 6.3611 65.8495C5.98191 66.2098 5.73329 66.3847 5.61525 66.3744C5.50152 66.4193 5.3584 66.4343 5.18589 66.4192C4.76821 66.3826 4.47027 66.1278 4.29207 65.6548C4.257 65.5328 4.24384 65.4218 4.25257 65.3219L4.25972 65.2402C4.28832 64.9133 4.51707 64.5994 4.94598 64.2984C4.94836 64.2712 5.78235 63.5756 7.44792 62.2116C9.20634 60.7277 10.3182 59.7317 10.7836 59.2234C12.0954 57.9292 13.2184 56.7008 14.1527 55.5382C15.3442 54.0504 16.4799 52.5212 17.5597 50.9505C17.8113 50.6889 18.1142 50.5735 18.4683 50.6045ZM23.1074 48.5675L23.1755 48.5735C23.7112 48.6203 24.1243 49.1277 24.4147 50.0955C25.2062 51.8207 25.536 53.437 25.4041 54.9443C25.2698 56.4788 24.5898 57.6636 23.3639 58.4987C22.2485 59.3252 20.8989 60.0581 19.3151 60.6972C16.9233 61.5767 15.5005 61.9966 15.0465 61.9569C14.3675 61.7694 14.0499 61.426 14.0936 60.9266L14.1174 60.6542C14.1651 60.1094 14.6435 59.8173 15.5528 59.7779C16.9809 59.4545 18.2364 59.0657 19.3191 58.6115C20.4572 58.1529 21.6344 57.4554 22.8509 56.5188C23.3107 56.0741 23.566 55.5612 23.6168 54.98L23.6192 54.9528C23.7098 53.9177 23.1759 52.2287 22.0176 49.8857L21.9953 49.5132C22.1647 48.8327 22.5353 48.5174 23.1074 48.5675ZM30.433 58.3349C30.9032 57.5618 31.7853 57.3096 33.0793 57.5783C33.5202 57.6626 33.8127 57.8758 33.9566 58.2178C34.1013 58.5506 34.1106 58.8625 33.9845 59.1534C33.8675 59.4451 33.6532 59.646 33.3417 59.756C33.0309 59.8569 32.3513 59.834 31.3028 59.6874C30.2535 59.5498 29.9635 59.099 30.433 58.3349ZM32.4232 51.7431C33.2068 51.8848 33.6783 52.4567 33.8377 53.4588C33.8438 53.807 33.821 54.1207 33.7691 54.3998C33.4412 56.265 32.2085 58.4857 30.0709 61.0618C29.3862 61.8802 28.1958 62.9381 26.4994 64.2353C24.7644 65.5565 23.6643 66.2608 23.1992 66.3482L22.9961 66.3167C22.6625 66.2601 22.4153 66.0006 22.2545 65.5382C22.2013 65.4146 22.1917 65.2628 22.2257 65.0828L22.2441 65.0295C22.3348 64.5159 22.7195 64.0921 23.3984 63.7581C24.1401 63.2283 24.9487 62.6128 25.8244 61.9117C27.0638 60.9222 27.9997 60.0022 28.6322 59.1518C27.4948 58.5582 27.0368 57.7267 27.2585 56.6573C27.3511 55.4943 28.3159 54.0874 30.153 52.4365C30.982 51.8503 31.7387 51.6191 32.4232 51.7431ZM29.7104 56.2405C29.4539 56.7671 29.54 57.0903 29.9687 57.2101C30.219 57.0673 30.5966 56.4645 31.1013 55.4015L31.4554 54.3346C30.5584 55.0704 29.9768 55.7057 29.7104 56.2405ZM38.4223 50.3191L38.4495 50.3215C39.2576 50.3922 40.1206 51.1951 41.0385 52.7301C41.635 53.6515 41.9995 54.1912 42.132 54.3492C42.9697 53.8735 43.5474 53.6495 43.8652 53.6773L44.1103 53.6988C44.4735 53.7306 44.7521 53.9974 44.9461 54.4993C44.9902 54.6221 45.0059 54.7561 44.9932 54.9014C44.9456 55.4462 44.5576 56.0116 43.8293 56.5974C43.3542 56.9036 42.9078 57.0383 42.4901 57.0018L42.0105 56.8363C40.3093 57.6665 38.8681 58.2952 37.6871 58.7225C35.2974 59.4742 33.8982 59.8321 33.4896 59.7963C33.2677 59.8227 32.9707 59.8196 32.5984 59.787L32.503 59.7787C32.04 59.7381 31.7288 59.4776 31.5696 58.9971L31.5413 58.6927L31.5544 58.5428C31.5941 58.0888 31.8993 57.7907 32.4698 57.6485C33.2961 57.7208 34.2194 57.5728 35.2398 57.2046C37.0881 56.6801 38.8451 55.9967 40.5108 55.1543C39.5882 53.4633 38.8137 52.5904 38.1872 52.5356C37.7687 52.5081 36.8852 53.3 35.5365 54.9112C35.1936 55.2747 34.9268 55.448 34.7361 55.4313C34.5091 55.4115 34.2771 55.135 34.0402 54.6019L34.0155 54.2566C34.0758 53.5666 34.6924 52.7422 35.865 51.7834C36.9887 50.7564 37.8412 50.2683 38.4223 50.3191ZM38.7545 43.541C39.4174 43.599 39.9422 44.0841 40.329 44.9963L40.3052 45.2687C40.2662 45.7136 39.8397 45.9874 39.0256 46.09L38.7532 46.0661C38.0631 46.0058 37.6915 45.4426 37.6384 44.3766C37.6845 43.85 38.0565 43.5714 38.7545 43.541ZM59.6918 54.1288C60.055 54.1605 60.6691 54.5665 61.5341 55.3467C62.195 56.0541 62.5828 56.5364 62.6976 56.7935C63.0455 57.4186 63.186 58.1125 63.1193 58.8752C63.0272 59.9285 62.5479 60.7009 61.6814 61.1923C60.4383 61.8064 58.8224 62.0264 56.834 61.8524L56.2892 61.8048C54.4187 61.6411 53.2729 61.4036 52.8518 61.0923C52.5973 60.9694 52.3204 60.7348 52.0214 60.3884C51.6541 59.8805 51.4955 59.3405 51.5455 58.7685C51.6202 57.9149 52.1524 57.1655 53.1421 56.5201C53.864 56.0069 54.5579 55.6056 55.2237 55.3161C55.8729 55.0069 56.6464 54.7407 57.5443 54.5173C58.3111 54.3282 58.7808 54.2412 58.9533 54.2563L59.0759 54.267L59.3169 54.1783C59.4488 54.135 59.5738 54.1184 59.6918 54.1288ZM59.3384 56.129C59.2413 56.1937 58.9609 56.2607 58.4974 56.3299C57.564 56.541 56.7689 56.7917 56.1122 57.0819C55.4843 57.3564 54.7798 57.7751 53.9986 58.338C53.6941 58.5767 53.5343 58.7823 53.5192 58.9549L53.518 58.9685C53.5029 59.141 53.6805 59.3075 54.0507 59.468C54.2078 59.5549 55.0297 59.6771 56.5164 59.8347L56.7752 59.8573C58.6184 60.0186 59.977 59.8629 60.8509 59.3904C61.0212 59.2223 61.1178 59.0066 61.1408 58.7433L61.1492 58.648C61.1881 58.2031 61.0498 57.7975 60.7341 57.4314C60.3703 56.9878 60.0772 56.6786 59.8546 56.5036L59.3384 56.129ZM68.7838 60.6472C68.3735 60.108 68.3197 59.3119 68.6223 58.2588C68.9339 57.2064 69.9843 56.0768 71.7733 54.8701C72.8053 54.265 73.8849 53.7419 75.0123 53.3007C76.2403 52.8592 77.1949 52.6682 77.8758 52.7278L78.012 52.7397C79.0018 52.8263 79.6191 53.4567 79.864 54.631L79.8785 55.2498C79.7435 56.7934 78.2672 58.5033 75.4497 60.3795C72.6462 61.9915 70.581 62.799 69.2541 62.8018C68.1187 62.8123 67.3053 62.645 66.8139 62.3001C66.1485 61.9583 65.6436 61.0358 65.2994 59.5326L65.2917 58.3654L65.3048 58.2156C65.5026 55.9547 67.4218 53.2085 71.0623 49.977L71.4988 49.8505L71.8666 49.8827C72.3296 49.9232 72.6183 50.2321 72.7325 50.8093L72.7146 51.0136C72.682 51.3859 72.0968 52.0621 70.9588 53.0422C68.7144 55.2704 67.5382 57.0019 67.4302 58.2368L67.4028 58.5501C67.2802 59.6373 67.7406 60.3363 68.7838 60.6472ZM76.7508 61.5089C77.1917 61.5932 77.4842 61.8063 77.6281 62.1483C77.7728 62.4812 77.7491 62.8039 77.5571 63.1165C77.3658 63.42 77.149 63.5977 76.9066 63.6497C76.6732 63.7025 76.2407 63.6784 75.6091 63.5774C74.9858 63.4863 74.2294 63.3469 73.34 63.1593C72.4605 62.9634 71.5596 62.6467 70.6372 62.2092C69.7246 61.7634 69.606 61.3413 70.2813 60.9429C70.9567 60.5445 71.7512 60.5088 72.665 60.8358C73.5886 61.1544 74.2915 61.3303 74.7735 61.3633C75.2555 61.3964 75.9146 61.4449 76.7508 61.5089ZM70.7338 58.5945C70.5519 59.2099 70.8414 59.7704 71.6023 60.2762C73.2822 59.4807 74.6944 58.607 75.8391 57.655C76.9529 56.6362 77.5373 55.8136 77.5921 55.187C77.5708 55.0113 77.3927 54.9043 77.0575 54.8658C75.9134 54.7657 74.1568 55.5498 71.7875 57.2182C71.2769 57.512 70.9256 57.9708 70.7338 58.5945ZM93.735 40.0893C94.2435 40.1338 94.568 40.4504 94.7086 41.0391L94.6836 41.3251C94.6526 41.6792 94.1413 42.2429 93.1495 43.0162C87.5157 46.1282 82.7751 47.7629 78.9278 47.9203C78.786 47.972 78.0485 48.0355 76.7152 48.111C76.2431 48.0697 75.9667 47.7253 75.8861 47.0778L75.9064 46.8463C75.9357 46.5103 76.2178 46.2148 76.7525 45.9596C77.1726 45.0265 78.3409 43.7518 80.2573 42.1353C82.3218 40.3945 83.7082 39.5551 84.4165 39.6171L84.7025 39.6421C85.22 39.6874 85.6424 40.1407 85.9696 41.0019L85.9771 41.3868L85.964 41.5366C85.9124 42.1268 84.9369 43.0799 83.0377 44.396C82.1408 44.9214 81.4472 45.1626 80.9569 45.1197L80.8616 45.1114C80.5983 45.0884 80.2626 44.8989 79.8545 44.5429L79.8001 44.5382C78.8446 45.3146 78.3235 45.7814 78.2365 45.9385L78.291 45.9433C79.3352 46.0346 81.3878 45.6332 84.4487 44.739C87.5104 43.8358 90.4096 42.3327 93.1463 40.2299L93.735 40.0893ZM75.7298 61.4195C81.0659 62.2341 86.35 62.7009 91.5821 62.8202L91.3975 64.9312C86.1384 64.9103 80.8539 64.448 75.5439 63.5442L75.7298 61.4195ZM85.7505 46.6508C86.4133 46.7088 86.9381 47.1938 87.3249 48.106L87.3011 48.3784C87.2622 48.8233 86.8357 49.0971 86.0215 49.1997L85.7491 49.1759C85.0591 49.1155 84.6875 48.5523 84.6343 47.4864C84.6804 46.9597 85.0524 46.6812 85.7505 46.6508ZM89.4037 53.3658C89.7215 53.3936 89.9465 53.5414 90.0786 53.8091L89.6434 54.7043C89.5339 55.0149 86.8188 55.1983 81.4981 55.2543L81.3891 55.2448C80.5175 55.1685 80.1023 54.8943 80.1436 54.4221C80.1952 53.8319 80.7205 53.4753 81.7194 53.3523C83.1095 53.2543 85.671 53.2588 89.4037 53.3658ZM93.5118 64.4575C92.4752 64.9066 91.3579 65.0239 90.1598 64.8092C89.4042 64.6608 89.0765 64.2753 89.1768 63.6528C89.2778 63.0211 89.655 62.6836 90.3084 62.6401C91.8634 62.7487 93.0229 62.5162 93.7867 61.9426C94.5506 61.3689 95.0716 60.4859 95.3497 59.2933C95.637 58.1016 96.0393 57.3728 96.5566 57.107C96.5614 57.0525 96.7003 57.0326 96.9735 57.0474C97.9284 57.3231 98.1777 58.0814 97.7215 59.3224C97.2212 60.9621 96.6536 62.1156 96.0188 62.7829C95.3848 63.4411 94.5492 63.9993 93.5118 64.4575ZM94.9009 67.0905C95.1914 67.1159 95.3937 67.2617 95.5076 67.5279L95.1134 68.4266C95.0137 68.729 93.0846 68.9216 89.3261 69.0045L89.2308 68.9962C88.4408 68.927 88.0665 68.6564 88.1078 68.1843C88.1603 67.585 88.6401 67.2244 89.5474 67.1025L94.9009 67.0905ZM105.792 53.0429L106.16 53.0751C106.623 53.1156 106.912 53.4245 107.026 54.0018L107.008 54.2061C106.975 54.5783 106.39 55.2545 105.252 56.2346C103.008 58.4628 101.832 60.1944 101.724 61.4292L101.696 61.7425C101.724 62.9893 102.192 63.6524 103.1 63.7318C103.872 63.7993 104.231 64.1464 104.176 64.7729L104.148 65.0861C104.099 65.6491 103.685 65.9331 102.907 65.9382C101.155 65.7849 100.05 64.7138 99.5927 62.725L99.5851 61.5578L99.5982 61.408C99.796 59.1471 101.715 56.4009 105.356 53.1694L105.792 53.0429ZM110.964 64.2139C111.214 64.3822 111.466 64.4911 111.717 64.5406C111.97 64.581 112.154 64.7755 112.27 65.1242C112.395 65.4737 112.362 65.8047 112.17 66.1173C111.978 66.4208 111.716 66.5991 111.382 66.6522C111.058 66.697 110.68 66.5634 110.25 66.2513C109.83 65.9309 109.512 65.4913 109.295 64.9325C109.079 64.3738 109.343 63.7061 110.088 62.9296C110.842 62.1538 111.114 62.1318 110.904 62.8637C110.702 63.5963 110.722 64.0464 110.964 64.2139ZM109.454 58.7294L109.522 58.7354C110.103 58.7862 110.559 59.1143 110.89 59.7197C111.231 60.3259 111.335 61.1722 111.203 62.2586C111.082 63.3367 110.695 64.3093 110.042 65.1763C109.39 66.0434 108.427 66.4349 107.154 66.3509C106.036 66.1616 105.3 65.6306 104.946 64.7579C104.023 65.6836 103.217 66.0614 102.528 65.8913C101.969 65.6869 101.702 65.3387 101.727 64.8468C101.743 64.3451 101.905 64.0161 102.211 63.8599C102.519 63.6946 102.842 63.6085 103.181 63.6016C103.53 63.5864 103.931 63.3424 104.384 62.8697C104.837 62.397 105.55 61.5673 106.523 60.3807C107.496 59.194 108.473 58.6436 109.454 58.7294ZM107.21 64.2972C107.715 64.4787 108.234 64.3593 108.765 63.9392C109.305 63.5107 109.583 62.9998 109.599 62.4064C109.624 61.8048 109.453 61.4055 109.086 61.2087C108.719 61.0119 108.195 61.2955 107.515 62.0595C106.836 62.8234 106.44 63.324 106.327 63.5612C106.41 63.8704 106.704 64.1157 107.21 64.2972ZM113.861 66.2378C112.825 66.687 111.708 66.8042 110.509 66.5896C109.754 66.4412 109.426 66.0557 109.526 65.4331C109.627 64.8015 110.005 64.464 110.658 64.4205C112.213 64.5291 113.373 64.2966 114.136 63.7229C114.9 63.1493 115.421 62.2662 115.699 61.0737C115.987 59.8819 116.389 59.1532 116.906 58.8873C116.911 58.8329 117.05 58.813 117.323 58.8278C118.278 59.1034 118.527 59.8618 118.071 61.1028C117.571 62.7425 117.003 63.896 116.369 64.5632C115.735 65.2214 114.899 65.7796 113.861 66.2378ZM116.53 50.9494C117.193 51.0074 117.718 51.4924 118.105 52.4046L118.081 52.677C118.041 53.131 117.615 53.4048 116.801 53.4983L116.529 53.4745C115.839 53.4141 115.467 52.8509 115.414 51.785C115.46 51.2583 115.832 50.9798 116.53 50.9494Z" fill="#1839E8"/>
</svg>
