<svg width="76" height="57" viewBox="0 0 76 57" fill="none" xmlns="http://www.w3.org/2000/svg">
<rect x="2.75" y="2.99658" width="70.375" height="52" rx="12" stroke="black" stroke-width="4" stroke-linecap="round"/>
<mask id="path-2-inside-1_1039_47" fill="white">
<path fill-rule="evenodd" clip-rule="evenodd" d="M72.7255 39.3968H59.2767C54.3386 39.3935 50.336 35.099 50.333 29.7968C50.333 24.4945 54.3386 20.2 59.2767 20.1968H72.7255"/>
</mask>
<path d="M72.7255 43.3968C74.9346 43.3968 76.7255 41.6059 76.7255 39.3968C76.7255 37.1876 74.9346 35.3968 72.7255 35.3968V43.3968ZM59.2767 39.3968L59.274 43.3968H59.2767V39.3968ZM50.333 29.7968H46.333L46.333 29.7991L50.333 29.7968ZM59.2767 20.1968V16.1968L59.274 16.1968L59.2767 20.1968ZM72.7255 24.1968C74.9346 24.1968 76.7255 22.4059 76.7255 20.1968C76.7255 17.9876 74.9346 16.1968 72.7255 16.1968V24.1968ZM72.7255 35.3968H59.2767V43.3968H72.7255V35.3968ZM59.2793 35.3968C56.8096 35.3952 54.3349 33.16 54.333 29.7945L46.333 29.7991C46.3371 37.038 51.8676 43.3919 59.274 43.3968L59.2793 35.3968ZM54.333 29.7968C54.333 26.4352 56.8076 24.1984 59.2793 24.1968L59.274 16.1968C51.8696 16.2017 46.333 22.5538 46.333 29.7968H54.333ZM59.2767 24.1968H72.7255V16.1968H59.2767V24.1968Z" fill="black" mask="url(#path-2-inside-1_1039_47)"/>
<mask id="path-4-inside-2_1039_47" fill="white">
<path fill-rule="evenodd" clip-rule="evenodd" d="M62.6666 29.7404H61.7962H62.6666Z"/>
</mask>
<path d="M62.6666 31.7404C63.7711 31.7404 64.6666 30.8449 64.6666 29.7404C64.6666 28.6358 63.7711 27.7404 62.6666 27.7404V31.7404ZM61.7962 27.7404C60.6917 27.7404 59.7962 28.6358 59.7962 29.7404C59.7962 30.8449 60.6917 31.7404 61.7962 31.7404V27.7404ZM62.6666 27.7404H61.7962V31.7404H62.6666V27.7404Z" fill="black" mask="url(#path-4-inside-2_1039_47)"/>
<path d="M15.874 17.1188H30.9446" stroke="#FFDD02" stroke-width="4" stroke-linecap="round" stroke-linejoin="round"/>
</svg>
