<svg width="97" height="74" viewBox="0 0 97 74" fill="none" xmlns="http://www.w3.org/2000/svg">
<path d="M17.2601 19.891C17.6596 19.926 17.955 20.1577 18.1462 20.5861C18.1987 20.7188 18.2181 20.8623 18.2046 21.0167L18.201 21.0575C18.1804 21.2936 18.0168 21.595 17.7102 21.9616C17.137 22.7623 16.522 23.5685 15.8654 24.3803C15.436 25.0015 14.7705 25.7576 13.8691 26.6485C12.2397 28.4365 10.2532 30.4357 7.90969 32.6461C6.87482 33.5986 5.95588 34.4286 5.15289 35.136C4.77369 35.4962 4.52508 35.6712 4.40704 35.6609C4.29331 35.7058 4.15019 35.7208 3.97767 35.7057C3.56 35.6691 3.26206 35.4143 3.08386 34.9413C3.04879 34.8192 3.03562 34.7083 3.04436 34.6084L3.05151 34.5267C3.08011 34.1998 3.30886 33.8859 3.73777 33.5849C3.74015 33.5576 4.57413 32.8621 6.23971 31.4981C7.99813 30.0142 9.11001 29.0182 9.57535 28.5099C10.8871 27.2157 12.0102 25.9873 12.9445 24.8247C14.136 23.3369 15.2717 21.8077 16.3515 20.237C16.6031 19.9753 16.906 19.86 17.2601 19.891ZM18.782 8.7704C19.4448 8.82839 19.9696 9.31348 20.3564 10.2257L20.3326 10.4981C20.2937 10.943 19.8672 11.2167 19.053 11.3193L18.7806 11.2955C18.0906 11.2351 17.719 10.672 17.6658 9.60599C17.7119 9.07935 18.0839 8.80082 18.782 8.7704ZM21.3179 12.8899C21.8536 12.9368 22.1823 13.2583 22.304 13.8545L22.3009 14.0464C22.2397 14.7455 21.6982 17.8501 20.6763 23.3602L19.9171 27.9599C19.6243 28.4833 19.2554 28.7255 18.8105 28.6866L18.7969 28.6854C18.0776 28.5401 17.7438 28.1724 17.7955 27.5822C18.7773 23.1574 19.3194 20.3594 19.4219 19.1881C19.7887 16.8779 20.0265 15.1009 20.1354 13.8569C20.1822 13.3212 20.5355 12.9953 21.1953 12.8792L21.3179 12.8899ZM39.15 20.6945L39.5722 20.7314C40.235 20.7894 40.5995 21.0683 40.6655 21.5682L40.6785 21.734C40.6125 22.4876 39.7557 23.4969 38.1079 24.7617L37.816 24.8048L37.6798 24.7929C37.0623 24.7389 36.7276 24.3299 36.6755 23.5659C36.7368 23.3883 36.9339 23.1219 37.2669 22.7668C34.9908 22.9519 33.06 23.4783 31.4744 24.346C30.5515 24.7502 29.1782 25.6502 27.3543 27.0461C25.8422 28.4326 25.0354 29.7069 24.9337 30.8692C24.8495 31.8316 25.4507 32.8037 26.7372 33.7855C27.8991 34.5185 29.2382 34.9513 30.7545 35.0839L31.4083 35.1411C33.5057 35.3246 35.9439 35.1171 38.7228 34.5184C39.9883 34.1717 41.0861 33.7554 42.0161 33.2695C43.6427 32.3505 44.4731 31.6957 44.5073 31.3053C44.5295 31.0511 43.8808 30.5185 42.561 29.7077C42.1506 29.379 41.9617 29.0285 41.9942 28.6563L41.9978 28.6154C42.055 27.9616 42.4636 27.6314 43.2236 27.6247L43.2644 27.6283L44.9206 27.9928L45.3665 28.073L47.2769 28.1989L47.3722 28.2073L47.8377 28.2205C48.337 28.2642 48.6547 28.6077 48.7905 29.2509L48.7739 29.4415C48.7214 30.0408 48.3227 30.3628 47.5777 30.4074L47.1555 30.3704L46.4437 30.3493C46.6416 30.8058 46.7251 31.2111 46.6941 31.5652C46.6179 32.4369 45.6024 33.3774 43.6476 34.3866C42.3819 35.1542 40.7419 35.8067 38.7278 36.3442C35.907 37.0032 33.1392 37.2139 30.4243 36.9764C26.2203 36.6086 23.7637 35.0396 23.0545 32.2693C22.9687 31.786 22.9441 31.3356 22.9806 30.9179L23.0057 30.6319C23.155 28.9248 24.6841 26.9771 27.5929 24.7887C29.6825 23.3887 31.4219 22.4887 32.811 22.0887C35.6659 21.0393 37.7789 20.5745 39.15 20.6945ZM52.7821 20.9676L52.8093 20.97C53.6175 21.0407 54.4805 21.8436 55.3983 23.3786C55.9948 24.3 56.3593 24.8397 56.4919 24.9977C57.3295 24.522 57.9072 24.2981 58.225 24.3259L58.4701 24.3473C58.8333 24.3791 59.1119 24.6459 59.3059 25.1478C59.35 25.2706 59.3658 25.4047 59.353 25.5499C59.3054 26.0947 58.9174 26.6601 58.1891 27.246C57.714 27.5521 57.2676 27.6869 56.8499 27.6503L56.3703 27.4848C54.6691 28.315 53.228 28.9437 52.0469 29.3711C49.6572 30.1227 48.258 30.4806 47.8494 30.4449C47.6276 30.4712 47.3305 30.4681 46.9582 30.4355L46.8629 30.4272C46.3998 30.3867 46.0886 30.1261 45.9294 29.6456L45.9011 29.3412L45.9142 29.1914C45.9539 28.7374 46.2591 28.4393 46.8296 28.297C47.6559 28.3693 48.5792 28.2214 49.5996 27.8532C51.4479 27.3287 53.2049 26.6452 54.8706 25.8028C53.9481 24.1118 53.1735 23.2389 52.547 23.1841C52.1285 23.1566 51.245 23.9485 49.8963 25.5598C49.5534 25.9232 49.2866 26.0965 49.096 26.0799C48.869 26.06 48.637 25.7835 48.4 25.2504L48.3753 24.9052C48.4357 24.2151 49.0522 23.3907 50.2248 22.432C51.3486 21.4049 52.201 20.9168 52.7821 20.9676ZM52.0213 38.6051C52.6841 38.6631 53.209 39.1482 53.5958 40.0604L53.5719 40.3328C53.533 40.7777 53.1065 41.0515 52.2924 41.1541L52.02 41.1303C51.3299 41.0699 50.9583 40.5067 50.9052 39.4407C50.952 38.905 51.3241 38.6265 52.0213 38.6051ZM57.0504 34.9279C57.3682 34.9557 57.5931 35.1035 57.7252 35.3712L57.2901 36.2664C57.1814 36.568 54.4663 36.7513 49.1448 36.8164L49.0358 36.8068C48.1641 36.7306 47.749 36.4564 47.7903 35.9842C47.8427 35.385 48.368 35.0283 49.3661 34.9144C50.7562 34.8164 53.3176 34.8209 57.0504 34.9279ZM70.3132 25.7814C71.9294 25.9229 72.9356 26.6056 73.3317 27.8297C73.4369 28.1957 73.4766 28.9448 73.4507 30.0771C73.479 30.3815 73.6021 30.5432 73.82 30.5623C74.3887 30.8591 74.6548 31.2163 74.6183 31.634L74.6004 31.8383C74.5512 32.4013 74.188 32.7355 73.5109 32.8409L72.7345 32.773C71.999 32.7086 71.5416 32.3941 71.3623 31.8295C71.1757 31.557 71.0975 30.5163 71.1277 28.7073C71.0375 28.1688 70.7973 27.8824 70.4068 27.8483L70.2049 27.8031L70.0279 27.7877C68.6023 27.6629 66.7852 28.6156 64.5764 30.6457C63.7994 31.4743 63.3332 32.0969 63.1778 32.5133L63.2187 32.5169L63.7013 32.4905L63.7967 32.4988C64.5226 32.6721 64.8594 33.0584 64.8069 33.6577L64.8306 33.7009L64.8282 33.7282C64.7527 34.5908 64.034 34.9625 62.672 34.8433C61.5915 34.7488 60.9601 34.2269 60.7778 33.2777L60.768 32.9201L60.7942 32.6204C60.9054 31.3492 62.2746 29.7123 64.9019 27.7097C66.9749 26.29 68.7787 25.6472 70.3132 25.7814ZM95.8313 8.00426C96.3398 8.04875 96.6643 8.36535 96.805 8.95406L96.7799 9.24008C96.749 9.5942 96.2376 10.1579 95.2458 10.9312C89.612 14.0431 84.8714 15.6779 81.0241 15.8353C80.8823 15.887 80.1448 15.9505 78.8115 16.026C78.3394 15.9847 78.063 15.6403 77.9824 14.9928L78.0027 14.7613C78.0321 14.4253 78.3141 14.1298 78.8488 13.8746C79.269 12.9415 80.4372 11.6668 82.3536 10.0503C84.4182 8.30953 85.8045 7.47013 86.5128 7.5321L86.7988 7.55712C87.3163 7.6024 87.7387 8.05565 88.066 8.91688L88.0735 9.30181L88.0603 9.45163C88.0087 10.0418 87.0333 10.9949 85.134 12.311C84.2371 12.8364 83.5435 13.0776 83.0532 13.0347L82.9579 13.0264C82.6946 13.0033 82.3589 12.8139 81.9509 12.4579L81.8964 12.4532C80.941 13.2296 80.4198 13.6964 80.3328 13.8535L80.3873 13.8582C81.4315 13.9496 83.4841 13.5482 86.545 12.654C89.6067 11.7507 92.5059 10.2477 95.2426 8.14489L95.8313 8.00426ZM78.3888 28.2309C78.3294 28.4911 78.3157 28.9611 78.3478 29.6409C78.3806 30.3117 78.5681 30.7307 78.9103 30.8979C79.2616 31.0658 79.4904 31.2734 79.5969 31.5206C79.7034 31.7678 79.7196 32.0529 79.6456 32.3758C79.5716 32.6987 79.3905 32.939 79.1022 33.0968C78.8139 33.2545 78.4564 33.2095 78.0298 32.9618C77.6122 32.7148 77.2186 32.2458 76.8491 31.5547C76.4894 30.8553 76.4308 30.0085 76.6734 29.0141C76.9167 28.0106 77.2762 27.5618 77.7519 27.6674C78.2366 27.7739 78.4489 27.9617 78.3888 28.2309ZM77.6878 22.282C77.8594 21.0527 78.1127 20.3017 78.4476 20.0291C78.7924 19.7482 79.1209 19.7586 79.433 20.0604C79.7459 20.3531 79.8318 21.0971 79.6906 22.2925C79.5494 23.4879 79.3376 24.9149 79.0553 26.5737C78.7737 28.2234 78.189 29.6774 77.3013 30.9355C76.4234 32.1854 74.9491 32.7746 72.8784 32.7032C72.113 32.5631 71.7549 32.2115 71.8041 31.6486L71.8315 31.3353C71.8864 30.7088 72.2997 30.4293 73.0714 30.4968C74.4516 30.6176 75.4385 30.1092 76.032 28.9717C76.6355 27.8259 77.0196 26.7296 77.1844 25.6827C77.3583 24.6366 77.5261 23.503 77.6878 22.282ZM81.1353 32.7669C80.0987 33.216 78.9814 33.3332 77.7833 33.1186C77.0277 32.9702 76.7001 32.5847 76.8003 31.9622C76.9013 31.3305 77.2785 30.993 77.9319 30.9495C79.4869 31.0581 80.6464 30.8256 81.4102 30.252C82.1741 29.6783 82.6951 28.7952 82.9732 27.6027C83.2605 26.411 83.6628 25.6822 84.1801 25.4164C84.1849 25.3619 84.3238 25.342 84.597 25.3568C85.5519 25.6325 85.8012 26.3908 85.345 27.6318C84.8447 29.2715 84.2771 30.425 83.6424 31.0923C83.0084 31.7505 82.1727 32.3087 81.1353 32.7669ZM82.5244 35.3999C82.8149 35.4253 83.0172 35.5711 83.1312 35.8373L82.7369 36.736C82.6372 37.0384 80.7081 37.231 76.9496 37.3139L76.8543 37.3056C76.0643 37.2364 75.69 36.9658 75.7313 36.4937C75.7838 35.8944 76.2636 35.5338 77.1709 35.4119L82.5244 35.3999ZM91.3648 23.9314L91.4329 23.9374C91.9686 23.9843 92.3817 24.4916 92.6721 25.4594C93.4636 27.1847 93.7933 28.801 93.6615 30.3082C93.5272 31.8427 92.8471 33.0275 91.6213 33.8627C90.5059 34.6892 89.1563 35.422 87.5724 36.0611C85.1807 36.9407 83.7578 37.3606 83.3038 37.3209C82.6249 37.1334 82.3073 36.7899 82.3509 36.2905L82.3748 36.0181C82.4224 35.4733 82.9009 35.1812 83.8101 35.1418C85.2383 34.8185 86.4937 34.4297 87.5765 33.9754C88.7146 33.5169 89.8918 32.8193 91.1083 31.8827C91.5681 31.438 91.8234 30.9251 91.8742 30.344L91.8766 30.3168C91.9672 29.2816 91.4333 27.5926 90.275 25.2497L90.2527 24.8772C90.422 24.1966 90.7927 23.8814 91.3648 23.9314ZM14.4902 49.6809C14.8988 49.7167 15.1987 49.9488 15.39 50.3772C15.4416 50.519 15.4607 50.667 15.4472 50.8214L15.4436 50.8623C15.4229 51.0983 15.2626 51.5189 14.9627 52.124C14.6627 52.729 14.3778 53.2668 14.1079 53.7373C13.8471 54.2085 13.7758 54.6048 13.894 54.9263C14.0123 55.2477 14.2524 55.4837 14.6144 55.6343C14.9862 55.7766 15.1656 56.1309 15.1527 56.697C15.1138 57.1419 14.8582 57.4489 14.3859 57.6181C14.2556 57.6433 14.1405 57.6515 14.0407 57.6427L13.9045 57.6308C12.8121 57.4621 12.2269 56.9351 12.1488 56.0499C10.475 58.1359 8.33739 60.3461 5.73602 62.6803C4.6814 63.6494 3.74726 64.4963 2.9336 65.2211C2.54533 65.5806 2.29217 65.7551 2.17413 65.7448C2.05961 65.7988 1.91609 65.8183 1.74357 65.8032C1.31682 65.7659 1.01474 65.5061 0.837335 65.024C0.793977 64.8921 0.776667 64.7762 0.785406 64.6764L0.792555 64.5946C0.821153 64.2678 1.05484 63.9497 1.49363 63.6404C1.49601 63.6131 2.3448 62.9051 4.04 61.5163C5.82804 60.0076 6.95513 58.9945 7.42126 58.4772C8.75281 57.1664 9.89562 55.9214 10.8497 54.7423C11.9531 53.32 12.711 52.0825 13.1233 51.0298C13.5455 49.9688 14.0011 49.5192 14.4902 49.6809ZM18.2951 53.884C18.1904 54.1402 18.1268 54.5006 18.1045 54.9653C18.0829 55.4208 18.3818 55.7169 19.0012 55.8534C19.5772 55.8581 19.9114 56.2213 20.0038 56.943L19.9823 57.1882C19.7791 57.8383 19.3733 58.1367 18.7649 58.0835C17.2659 57.9615 16.4881 57.3354 16.4315 56.205C15.9779 56.7875 15.5271 57.1827 15.0789 57.3905C14.6307 57.5983 14.0921 57.6884 13.4632 57.6608C12.6662 57.463 12.3244 57.0305 12.4376 56.3634C12.5418 55.6955 12.9392 55.3368 13.6297 55.2874C14.7011 55.3812 15.5922 54.6082 16.3029 52.9686C17.0227 51.3298 17.5562 50.3563 17.9034 50.0482C18.2506 49.74 18.6142 49.662 18.9943 49.8142C19.7146 50.2615 19.7592 51.0065 19.1282 52.0492C18.6784 53.0072 18.4007 53.6188 18.2951 53.884ZM23.6163 45.4563C23.8524 45.477 24.0138 45.6192 24.1005 45.883L23.7607 46.7865C23.6784 47.0995 22.0668 47.2193 18.9258 47.1458L18.8441 47.1386C18.2085 47.083 17.9114 46.8191 17.9527 46.347C18.0043 45.7568 18.3979 45.3886 19.1335 45.2426L23.6163 45.4563ZM24.7487 50.7157C26.0199 50.8269 27.9586 51.152 30.5648 51.6911C32.7477 52.2572 33.7784 53.2349 33.6568 54.6241C33.552 55.8227 32.6823 56.8216 31.0478 57.621C30.3618 58.0368 28.9908 58.2828 26.9346 58.3591C26.023 58.4257 25.0724 58.4158 24.0826 58.3292C23.0953 58.2153 22.6032 58.1403 22.6064 58.1039C21.2478 58.2596 19.7995 58.2381 18.2615 58.0395C17.6098 57.8544 17.2776 57.4685 17.2649 56.8818C17.2439 56.2853 17.6298 55.953 18.4226 55.8852C18.9863 55.9253 19.401 55.9433 19.6667 55.9391C19.5878 55.795 19.5544 55.6548 19.5663 55.5186C19.6529 54.5289 20.3273 53.5128 21.5896 52.4705C22.3543 51.8877 23.1014 51.5048 23.8311 51.3216C24.0706 50.8851 24.3765 50.6831 24.7487 50.7157ZM28.6771 53.5022C28.7319 53.6077 28.7537 53.724 28.7426 53.8511C28.687 54.4867 28.2107 55.2776 27.3136 56.2238C28.3318 56.194 29.1895 56.0632 29.8869 55.8314C30.9563 55.3211 31.51 54.848 31.5481 54.4122C31.564 54.2306 30.896 53.9709 29.544 53.633L28.6806 53.4614L28.6771 53.5022ZM21.6062 55.8892C21.5879 56.098 21.7468 56.2172 22.0827 56.2465C23.136 56.3387 24.372 55.8064 25.7907 54.6496C26.3393 54.1303 26.6208 53.789 26.6351 53.6255C26.4347 53.4067 26.0711 53.2743 25.5445 53.2282C24.1644 53.1074 22.9552 53.7519 21.9169 55.1616C21.7264 55.456 21.6229 55.6985 21.6062 55.8892ZM33.1332 57.1584C33.5741 57.2428 33.8666 57.4559 34.0105 57.7979C34.1552 58.1308 34.1315 58.4535 33.9395 58.7661C33.7483 59.0696 33.531 59.2519 33.2878 59.3129C33.0544 59.3657 32.5959 59.3256 31.9122 59.1926C31.2285 59.0596 30.6088 58.8224 30.0531 58.481C29.4982 58.1305 29.2534 57.7385 29.3188 57.3051C29.394 56.8633 29.6872 56.4407 30.1983 56.0371C30.7093 55.6334 31.0359 55.5614 31.1779 55.8208C31.3207 56.0712 31.598 56.3517 32.01 56.6622C32.4221 56.9727 32.7964 57.1381 33.1332 57.1584ZM35.739 58.9098C34.7025 59.3589 33.5851 59.4762 32.387 59.2616C31.6315 59.1131 31.3038 58.7276 31.404 58.1051C31.505 57.4735 31.8822 57.1359 32.5356 57.0924C34.0907 57.201 35.2501 56.9685 36.014 56.3949C36.7778 55.8213 37.2988 54.9382 37.577 53.7457C37.8642 52.5539 38.2665 51.8251 38.7838 51.5593C38.7886 51.5048 38.9276 51.485 39.2008 51.4997C40.1557 51.7754 40.405 52.5337 39.9487 53.7747C39.4484 55.4145 38.8809 56.568 38.2461 57.2352C37.6121 57.8934 36.7764 58.4516 35.739 58.9098ZM33.8308 63.7796C34.4936 63.8376 35.0184 64.3227 35.4053 65.2349L35.3814 65.5073C35.3425 65.9522 34.916 66.2259 34.1019 66.3285L33.8295 66.3047C33.1394 66.2443 32.7678 65.6812 32.7147 64.6152C32.7615 64.0795 33.1336 63.8009 33.8308 63.7796ZM78.4919 56.543C78.1009 58.2929 77.9298 59.4124 77.9785 59.9016C78.0272 60.3908 78.3491 60.7895 78.9443 61.0978C79.3853 61.1821 79.6777 61.3953 79.8216 61.7372C79.9663 62.0701 79.9756 62.382 79.8496 62.6729C79.7325 62.9646 79.5187 63.1609 79.2079 63.2618C78.8971 63.3627 78.4558 63.2829 77.8839 63.0224C77.312 62.762 76.8499 62.2915 76.4977 61.6111C76.1455 60.9307 76.0538 59.3124 76.2225 56.7561C76.4003 54.2007 76.9185 53.0887 77.777 53.42C78.6446 53.752 78.8829 54.793 78.4919 56.543ZM77.7511 53.0883L78.0508 53.1145C78.6402 53.1752 78.9368 53.6541 78.9407 54.5511L78.4206 57.0445C78.0558 59.2268 77.4435 60.7881 76.5835 61.7284C74.9389 63.6889 73.0459 65.1427 70.9044 66.0899C66.8405 68.0949 62.6521 68.9087 58.3391 68.5314C54.1987 68.1691 50.529 66.7136 47.3302 64.1646C45.7794 62.6474 45.0759 61.0671 45.2197 59.4236C45.4318 56.9993 47.1659 54.7996 50.4221 52.8246C55.0673 50.4495 59.1168 49.1844 62.5706 49.0291C63.2322 49.2059 63.5403 49.5531 63.4951 50.0707L63.4688 50.3703C63.4188 50.9423 62.6965 51.2497 61.3021 51.2924C60.8027 51.2487 59.1639 51.6268 56.3857 52.4268C54.0196 53.3269 51.9197 54.3737 50.086 55.5674C48.3703 56.9819 47.458 58.3111 47.3492 59.555C47.2269 60.9533 47.9136 62.3584 49.4096 63.7702C51.5919 65.3884 54.2676 66.3361 57.4365 66.6134L57.9676 66.6598C63.3611 67.1317 68.307 65.8169 72.8054 62.7154C74.3236 61.4666 75.269 60.2822 75.6415 59.1619C75.8226 58.5556 76.0435 57.7561 76.3042 56.7633L76.8133 53.9258L76.8168 53.8849C77.0583 53.3205 77.3698 53.0549 77.7511 53.0883ZM66.4236 56.5988C67.0864 56.6568 67.6112 57.1419 67.998 58.054L67.9742 58.3264C67.9353 58.7714 67.5088 59.0451 66.6946 59.1477L66.4222 59.1239C65.7322 59.0635 65.3606 58.5003 65.3074 57.4344C65.3535 56.9077 65.7255 56.6292 66.4236 56.5988ZM81.408 62.9053C80.3715 63.3544 79.2541 63.4717 78.056 63.2571C77.3005 63.1086 76.9728 62.7231 77.073 62.1006C77.174 61.469 77.5512 61.1314 78.2046 61.088C79.7597 61.1966 80.9191 60.964 81.683 60.3904C82.4468 59.8168 82.9678 58.9337 83.246 57.7412C83.5332 56.5494 83.9355 55.8207 84.4528 55.5548C84.4576 55.5004 84.5966 55.4805 84.8698 55.4952C85.8246 55.7709 86.0739 56.5293 85.6177 57.7703C85.1174 59.41 84.5499 60.5635 83.9151 61.2307C83.2811 61.8889 82.4454 62.4471 81.408 62.9053ZM82.7971 65.5384C83.0877 65.5638 83.2899 65.7096 83.4039 65.9757L83.0096 66.8745C82.91 67.1768 80.9809 67.3695 77.2224 67.4524L77.127 67.444C76.3371 67.3749 75.9628 67.1043 76.0041 66.6321C76.0565 66.0328 76.5364 65.6722 77.4437 65.5503L82.7971 65.5384ZM91.2469 49.1225C91.7826 49.1694 92.1113 49.4909 92.233 50.0871L92.2299 50.279C92.1687 50.9781 91.6272 54.0827 90.6053 59.5928L89.8461 64.1925C89.5533 64.7159 89.1844 64.9581 88.7395 64.9191L88.7259 64.918C88.0066 64.7727 87.6728 64.405 87.7245 63.8148C88.7063 59.39 89.2484 56.592 89.3509 55.4207C89.7177 53.1105 89.9555 51.3335 90.0644 50.0895C90.1112 49.5538 90.4645 49.2279 91.1243 49.1118L91.2469 49.1225Z" fill="#1839E8"/>
</svg>
