<svg width="60" height="60" viewBox="0 0 60 60" fill="none" xmlns="http://www.w3.org/2000/svg">
<g clip-path="url(#clip0_1162_107)">
<path d="M28.1432 0H31.8957C32.0432 0.0432582 32.1937 0.0757654 32.3459 0.0972656C38.9889 0.635156 44.8861 3.02695 49.8029 7.51523C58.0652 15.0551 61.5222 24.4383 59.3809 35.4551C55.7352 54.2051 35.1966 65.0121 17.1146 56.5594C16.7335 56.3801 16.3923 56.2758 15.9526 56.3777C12.1908 57.252 8.42193 58.0945 4.65895 58.9559C3.21896 59.2887 1.78718 59.6484 0.351883 60H0.117357C0.14081 59.8465 0.154878 59.6906 0.187712 59.5395C1.3064 54.4355 2.42197 49.3312 3.5344 44.2266C3.58879 43.9312 3.54772 43.6263 3.41714 43.3559C1.99826 40.575 0.954618 37.6688 0.442178 34.5844C0.272146 33.5684 0.147848 32.5441 0.00244141 31.5234V27.8906C0.19358 26.5816 0.336641 25.2645 0.588757 23.966C2.83552 12.1312 12.8463 2.39297 24.7297 0.46875C25.8625 0.28125 27.0046 0.153516 28.1432 0ZM6.25725 53.775C6.45073 53.7387 6.55979 53.7211 6.66767 53.6965C9.90179 52.9629 13.1371 52.2375 16.3677 51.4863C16.6154 51.4176 16.8743 51.3985 17.1295 51.4301C17.3846 51.4617 17.6311 51.5433 17.8546 51.6703C23.835 54.8824 30.1449 55.6652 36.6812 53.8746C53.2258 49.3395 60.468 30.4793 51.2065 16.1871C45.5685 7.48711 35.0934 3.06211 24.9103 5.2043C17.3714 6.79688 11.6349 10.9898 7.83327 17.6953C5.18429 22.3676 4.22039 27.4219 4.90169 32.7645C5.34494 36.2602 6.55393 39.4875 8.31756 42.525C8.47001 42.7863 8.57554 43.1602 8.51691 43.4437C8.06779 45.6199 7.57294 47.7867 7.09451 49.957C6.81425 51.2109 6.54454 52.459 6.25725 53.775Z" fill="white"/>
<path d="M20.9527 16.6311C22.7022 16.6311 22.9391 16.7776 23.543 18.2213C24.1985 19.7846 24.8329 21.3608 25.4872 22.9229C25.6854 23.3916 25.7311 23.8475 25.4356 24.2588C24.9562 24.9411 24.4419 25.5982 23.8948 26.2276C23.1912 27.0115 23.1525 27.1815 23.6837 28.0627C25.8836 31.7084 28.9301 34.3674 32.8842 35.9776C33.6605 36.294 33.9314 36.2518 34.4661 35.6108C35.1407 34.8014 35.8052 33.9811 36.4595 33.1498C36.9638 32.5135 37.2311 32.3635 37.9629 32.6998C39.8938 33.5858 41.8056 34.5127 43.6982 35.4807C43.9327 35.6037 44.1473 36.0467 44.145 36.3397C44.1285 38.2147 43.602 39.8354 41.9428 40.9908C39.8121 42.4721 37.5583 42.5963 35.1239 42.0139C28.7425 40.4904 23.8373 36.8576 20.0462 31.6006C18.7317 29.7807 17.3902 27.9737 16.7289 25.7822C15.8013 22.7131 16.3114 19.9697 18.557 17.6002C19.2711 16.8502 20.1013 16.5045 20.9527 16.6311Z" fill="#1839E8"/>
</g>
<defs>
<clipPath id="clip0_1162_107">
<rect width="60" height="60" fill="white"/>
</clipPath>
</defs>
</svg>
